<svg width="420" height="150" viewBox="0 0 420 150" fill="none" xmlns="http://www.w3.org/2000/svg">
<g filter="url(#filter0_d_309_202)">
<rect x="15" y="11" width="390" height="120" rx="8" fill="white"/>
<path d="M49.1477 68V56.3636H56.7159V58.1307H51.2557V61.2898H56.3239V63.0568H51.2557V66.233H56.7614V68H49.1477ZM62.929 68.1591C62.1108 68.1591 61.3835 68.0189 60.7472 67.7386C60.1146 67.4583 59.6146 67.0682 59.2472 66.5682C58.8797 66.0682 58.6847 65.4905 58.6619 64.8352H60.7983C60.8172 65.1496 60.9214 65.4242 61.1108 65.6591C61.3002 65.8902 61.5521 66.0701 61.8665 66.1989C62.1809 66.3277 62.5331 66.392 62.9233 66.392C63.34 66.392 63.7093 66.3201 64.0312 66.1761C64.3532 66.0284 64.6051 65.8239 64.7869 65.5625C64.9688 65.3011 65.0578 65 65.054 64.6591C65.0578 64.3068 64.9669 63.9962 64.7812 63.7273C64.5956 63.4583 64.3267 63.2481 63.9744 63.0966C63.6259 62.9451 63.2055 62.8693 62.7131 62.8693H61.6847V61.2443H62.7131C63.1184 61.2443 63.4725 61.1742 63.7756 61.0341C64.0824 60.8939 64.3229 60.697 64.4972 60.4432C64.6714 60.1856 64.7566 59.8883 64.7528 59.5511C64.7566 59.2216 64.6828 58.9356 64.5312 58.6932C64.3835 58.447 64.1733 58.2557 63.9006 58.1193C63.6316 57.983 63.3153 57.9148 62.9517 57.9148C62.5956 57.9148 62.2661 57.9792 61.9631 58.108C61.66 58.2367 61.4157 58.4205 61.2301 58.6591C61.0445 58.8939 60.946 59.1742 60.9347 59.5H58.9062C58.9214 58.8485 59.1089 58.2765 59.4688 57.7841C59.8324 57.2879 60.3172 56.9015 60.9233 56.625C61.5294 56.3447 62.2093 56.2045 62.9631 56.2045C63.7396 56.2045 64.4138 56.3504 64.9858 56.642C65.5616 56.9299 66.0066 57.3182 66.321 57.8068C66.6354 58.2955 66.7926 58.8352 66.7926 59.4261C66.7964 60.0814 66.6032 60.6307 66.2131 61.0739C65.8267 61.517 65.3191 61.8068 64.6903 61.9432V62.0341C65.5085 62.1477 66.1354 62.4508 66.571 62.9432C67.0104 63.4318 67.2282 64.0398 67.2244 64.767C67.2244 65.4186 67.0388 66.0019 66.6676 66.517C66.3002 67.0284 65.7926 67.4299 65.1449 67.7216C64.5009 68.0133 63.7623 68.1591 62.929 68.1591ZM73.2571 68V56.3636H77.7116C78.5526 56.3636 79.2514 56.4962 79.8082 56.7614C80.3688 57.0227 80.7874 57.3807 81.0639 57.8352C81.3442 58.2898 81.4844 58.8049 81.4844 59.3807C81.4844 59.8542 81.3935 60.2595 81.2116 60.5966C81.0298 60.9299 80.7855 61.2008 80.4787 61.4091C80.1719 61.6174 79.8291 61.767 79.4503 61.858V61.9716C79.8632 61.9943 80.259 62.1212 80.6378 62.3523C81.0204 62.5795 81.3329 62.9015 81.5753 63.3182C81.8177 63.7348 81.9389 64.2386 81.9389 64.8295C81.9389 65.4318 81.7931 65.9735 81.5014 66.4545C81.2098 66.9318 80.7704 67.3087 80.1832 67.5852C79.5961 67.8617 78.8575 68 77.9673 68H73.2571ZM75.3651 66.2386H77.6321C78.3973 66.2386 78.9484 66.0928 79.2855 65.8011C79.6264 65.5057 79.7969 65.1269 79.7969 64.6648C79.7969 64.3201 79.7116 64.0095 79.5412 63.733C79.3707 63.4527 79.1283 63.233 78.8139 63.0739C78.4995 62.911 78.1245 62.8295 77.6889 62.8295H75.3651V66.2386ZM75.3651 61.3125H77.4503C77.8139 61.3125 78.1416 61.2462 78.4332 61.1136C78.7249 60.9773 78.9541 60.786 79.1207 60.5398C79.2912 60.2898 79.3764 59.9943 79.3764 59.6534C79.3764 59.2027 79.2173 58.8314 78.8991 58.5398C78.5848 58.2481 78.117 58.1023 77.4957 58.1023H75.3651V61.3125ZM87.5455 68.1705C86.6705 68.1705 85.9148 67.9886 85.2784 67.625C84.6458 67.2576 84.1591 66.7386 83.8182 66.0682C83.4773 65.3939 83.3068 64.6004 83.3068 63.6875C83.3068 62.7898 83.4773 62.0019 83.8182 61.3239C84.1629 60.642 84.6439 60.1117 85.2614 59.733C85.8788 59.3504 86.6042 59.1591 87.4375 59.1591C87.9754 59.1591 88.483 59.2462 88.9602 59.4205C89.4413 59.5909 89.8655 59.8561 90.233 60.2159C90.6042 60.5758 90.8958 61.0341 91.108 61.5909C91.3201 62.1439 91.4261 62.803 91.4261 63.5682V64.1989H84.2727V62.8125H89.4545C89.4508 62.4186 89.3655 62.0682 89.1989 61.7614C89.0322 61.4508 88.7992 61.2064 88.5 61.0284C88.2045 60.8504 87.8598 60.7614 87.4659 60.7614C87.0455 60.7614 86.6761 60.8636 86.358 61.0682C86.0398 61.2689 85.7917 61.5341 85.6136 61.8636C85.4394 62.1894 85.3504 62.5473 85.3466 62.9375V64.1477C85.3466 64.6553 85.4394 65.0909 85.625 65.4545C85.8106 65.8144 86.0701 66.0909 86.4034 66.2841C86.7367 66.4735 87.1269 66.5682 87.5739 66.5682C87.8731 66.5682 88.1439 66.5265 88.3864 66.4432C88.6288 66.3561 88.839 66.2292 89.017 66.0625C89.1951 65.8958 89.3295 65.6894 89.4205 65.4432L91.3409 65.6591C91.2197 66.1667 90.9886 66.6098 90.6477 66.9886C90.3106 67.3636 89.8788 67.6553 89.3523 67.8636C88.8258 68.0682 88.2235 68.1705 87.5455 68.1705ZM96.4048 68.1534C95.7192 68.1534 95.1056 67.9773 94.5639 67.625C94.0223 67.2727 93.5942 66.7614 93.2798 66.0909C92.9654 65.4205 92.8082 64.6061 92.8082 63.6477C92.8082 62.678 92.9673 61.8598 93.2855 61.1932C93.6075 60.5227 94.0412 60.017 94.5866 59.6761C95.1321 59.3314 95.7401 59.1591 96.4105 59.1591C96.9219 59.1591 97.3423 59.2462 97.6719 59.4205C98.0014 59.5909 98.2628 59.7973 98.456 60.0398C98.6491 60.2784 98.7988 60.5038 98.9048 60.7159H98.9901V56.3636H101.053V68H99.0298V66.625H98.9048C98.7988 66.8371 98.6454 67.0625 98.4446 67.3011C98.2438 67.536 97.9787 67.7367 97.6491 67.9034C97.3196 68.0701 96.9048 68.1534 96.4048 68.1534ZM96.9787 66.4659C97.4143 66.4659 97.7855 66.3485 98.0923 66.1136C98.3991 65.875 98.6321 65.5436 98.7912 65.1193C98.9503 64.6951 99.0298 64.2008 99.0298 63.6364C99.0298 63.072 98.9503 62.5814 98.7912 62.1648C98.6359 61.7481 98.4048 61.4242 98.098 61.1932C97.795 60.9621 97.4219 60.8466 96.9787 60.8466C96.5204 60.8466 96.1378 60.9659 95.831 61.2045C95.5241 61.4432 95.2931 61.7727 95.1378 62.1932C94.9825 62.6136 94.9048 63.0947 94.9048 63.6364C94.9048 64.1818 94.9825 64.6686 95.1378 65.0966C95.2969 65.5208 95.5298 65.8561 95.8366 66.1023C96.1473 66.3447 96.5279 66.4659 96.9787 66.4659ZM108.807 64.3295V59.2727H110.864V68H108.869V66.4489H108.778C108.581 66.9375 108.258 67.3371 107.807 67.6477C107.36 67.9583 106.809 68.1136 106.153 68.1136C105.581 68.1136 105.076 67.9867 104.636 67.733C104.201 67.4754 103.86 67.1023 103.614 66.6136C103.367 66.1212 103.244 65.5265 103.244 64.8295V59.2727H105.301V64.5114C105.301 65.0644 105.453 65.5038 105.756 65.8295C106.059 66.1553 106.456 66.3182 106.949 66.3182C107.252 66.3182 107.545 66.2443 107.83 66.0966C108.114 65.9489 108.347 65.7292 108.528 65.4375C108.714 65.142 108.807 64.7727 108.807 64.3295Z" fill="#363636"/>
<path d="M51.75 94H49.0568V85.2727H51.8693C52.7159 85.2727 53.4403 85.4474 54.0426 85.7969C54.6449 86.1435 55.1065 86.642 55.4276 87.2926C55.7486 87.9403 55.9091 88.7159 55.9091 89.6193C55.9091 90.5284 55.7472 91.3111 55.4233 91.9673C55.0994 92.6207 54.6278 93.1236 54.0085 93.4759C53.3892 93.8253 52.6364 94 51.75 94ZM50.1136 93.0625H51.6818C52.4034 93.0625 53.0014 92.9233 53.4759 92.6449C53.9503 92.3665 54.304 91.9702 54.5369 91.456C54.7699 90.9418 54.8864 90.3295 54.8864 89.6193C54.8864 88.9148 54.7713 88.3082 54.5412 87.7997C54.3111 87.2884 53.9673 86.8963 53.5099 86.6236C53.0526 86.348 52.483 86.2102 51.8011 86.2102H50.1136V93.0625ZM57.5455 87.4545H58.5511V94.4773C58.5511 94.8807 58.4815 95.2301 58.3423 95.5256C58.206 95.821 57.9986 96.0497 57.7202 96.2116C57.4446 96.3736 57.0966 96.4545 56.6761 96.4545C56.642 96.4545 56.608 96.4545 56.5739 96.4545C56.5398 96.4545 56.5057 96.4545 56.4716 96.4545V95.517C56.5057 95.517 56.5369 95.517 56.5653 95.517C56.5938 95.517 56.625 95.517 56.6591 95.517C56.9659 95.517 57.1903 95.4261 57.3324 95.2443C57.4744 95.0653 57.5455 94.8097 57.5455 94.4773V87.4545ZM58.0398 86.3636C57.8438 86.3636 57.6747 86.2969 57.5327 86.1634C57.3935 86.0298 57.3239 85.8693 57.3239 85.6818C57.3239 85.4943 57.3935 85.3338 57.5327 85.2003C57.6747 85.0668 57.8438 85 58.0398 85C58.2358 85 58.4034 85.0668 58.5426 85.2003C58.6847 85.3338 58.7557 85.4943 58.7557 85.6818C58.7557 85.8693 58.6847 86.0298 58.5426 86.1634C58.4034 86.2969 58.2358 86.3636 58.0398 86.3636ZM62.3192 94.1534C61.9045 94.1534 61.5281 94.0753 61.19 93.919C60.8519 93.7599 60.5835 93.5312 60.3846 93.233C60.1857 92.9318 60.0863 92.5682 60.0863 92.142C60.0863 91.767 60.1602 91.4631 60.3079 91.2301C60.4556 90.9943 60.6531 90.8097 60.9002 90.6761C61.1474 90.5426 61.4201 90.4432 61.7184 90.3778C62.0195 90.3097 62.3221 90.2557 62.6261 90.2159C63.0238 90.1648 63.3462 90.1264 63.5934 90.1009C63.8434 90.0724 64.0252 90.0256 64.1388 89.9602C64.2553 89.8949 64.3136 89.7812 64.3136 89.6193V89.5852C64.3136 89.1648 64.1985 88.8381 63.9684 88.6051C63.7411 88.3722 63.396 88.2557 62.9329 88.2557C62.4528 88.2557 62.0763 88.3608 61.8036 88.571C61.5309 88.7812 61.3391 89.0057 61.2283 89.2443L60.2738 88.9034C60.4442 88.5057 60.6715 88.196 60.9556 87.9744C61.2425 87.75 61.555 87.5937 61.8931 87.5057C62.234 87.4148 62.5692 87.3693 62.8988 87.3693C63.109 87.3693 63.3505 87.3949 63.6232 87.446C63.8988 87.4943 64.1644 87.5952 64.4201 87.7486C64.6786 87.902 64.8931 88.1335 65.0636 88.4432C65.234 88.7528 65.3192 89.1676 65.3192 89.6875V94H64.3136V93.1136H64.2624C64.1942 93.2557 64.0806 93.4077 63.9215 93.5696C63.7624 93.7315 63.5508 93.8693 63.2866 93.983C63.0224 94.0966 62.6999 94.1534 62.3192 94.1534ZM62.4727 93.25C62.8704 93.25 63.2056 93.1719 63.4783 93.0156C63.7539 92.8594 63.9613 92.6577 64.1005 92.4105C64.2425 92.1634 64.3136 91.9034 64.3136 91.6307V90.7102C64.271 90.7614 64.1772 90.8082 64.0323 90.8509C63.8903 90.8906 63.7255 90.9261 63.538 90.9574C63.3533 90.9858 63.1729 91.0114 62.9968 91.0341C62.8235 91.054 62.6829 91.071 62.5749 91.0852C62.3136 91.1193 62.0692 91.1747 61.842 91.2514C61.6175 91.3253 61.4357 91.4375 61.2965 91.5881C61.1602 91.7358 61.092 91.9375 61.092 92.1932C61.092 92.5426 61.2212 92.8068 61.4798 92.9858C61.7411 93.1619 62.0721 93.25 62.4727 93.25ZM68.1605 90.0625V94H67.1548V87.4545H68.1264V88.4773H68.2116C68.3651 88.1449 68.598 87.8778 68.9105 87.6761C69.223 87.4716 69.6264 87.3693 70.1207 87.3693C70.5639 87.3693 70.9517 87.4602 71.2841 87.642C71.6165 87.821 71.875 88.0938 72.0597 88.4602C72.2443 88.8239 72.3366 89.2841 72.3366 89.8409V94H71.331V89.9091C71.331 89.3949 71.1974 88.9943 70.9304 88.7074C70.6634 88.4176 70.2969 88.2727 69.831 88.2727C69.5099 88.2727 69.223 88.3423 68.9702 88.4815C68.7202 88.6207 68.5227 88.8239 68.3778 89.0909C68.233 89.358 68.1605 89.6818 68.1605 90.0625ZM76.8164 96.5909C76.3306 96.5909 75.913 96.5284 75.5636 96.4034C75.2141 96.2812 74.9229 96.1193 74.69 95.9176C74.4599 95.7188 74.2766 95.5057 74.1403 95.2784L74.9414 94.7159C75.0323 94.8352 75.1474 94.9716 75.2866 95.125C75.4258 95.2812 75.6161 95.4162 75.8576 95.5298C76.1019 95.6463 76.4215 95.7045 76.8164 95.7045C77.3448 95.7045 77.7809 95.5767 78.1246 95.321C78.4684 95.0653 78.6403 94.6648 78.6403 94.1193V92.7898H78.555C78.4812 92.9091 78.3761 93.0568 78.2397 93.233C78.1062 93.4062 77.913 93.5611 77.6602 93.6974C77.4102 93.831 77.0721 93.8977 76.646 93.8977C76.1175 93.8977 75.6431 93.7727 75.2227 93.5227C74.805 93.2727 74.4741 92.9091 74.2298 92.4318C73.9883 91.9545 73.8675 91.375 73.8675 90.6932C73.8675 90.0227 73.9854 89.4389 74.2212 88.9418C74.457 88.4418 74.7852 88.0554 75.2056 87.7827C75.6261 87.5071 76.1119 87.3693 76.663 87.3693C77.0891 87.3693 77.4272 87.4403 77.6772 87.5824C77.93 87.7216 78.1232 87.8807 78.2567 88.0597C78.3931 88.2358 78.4982 88.3807 78.5721 88.4943H78.6744V87.4545H79.646V94.1875C79.646 94.75 79.5181 95.2074 79.2624 95.5597C79.0096 95.9148 78.6687 96.1747 78.2397 96.3395C77.8136 96.5071 77.3391 96.5909 76.8164 96.5909ZM76.7823 92.9943C77.1857 92.9943 77.5266 92.902 77.805 92.7173C78.0835 92.5327 78.2951 92.267 78.44 91.9205C78.5849 91.5739 78.6573 91.1591 78.6573 90.6761C78.6573 90.2045 78.5863 89.7884 78.4442 89.4276C78.3022 89.0668 78.092 88.7841 77.8136 88.5795C77.5352 88.375 77.1914 88.2727 76.7823 88.2727C76.3562 88.2727 76.0011 88.3807 75.717 88.5966C75.4357 88.8125 75.2241 89.1023 75.082 89.4659C74.9428 89.8295 74.8732 90.233 74.8732 90.6761C74.8732 91.1307 74.9442 91.5327 75.0863 91.8821C75.2312 92.2287 75.4442 92.5014 75.7255 92.7003C76.0096 92.8963 76.3619 92.9943 76.7823 92.9943ZM84.146 94.1364C83.555 94.1364 83.0366 93.9957 82.5906 93.7145C82.1474 93.4332 81.8008 93.0398 81.5508 92.5341C81.3036 92.0284 81.18 91.4375 81.18 90.7614C81.18 90.0795 81.3036 89.4844 81.5508 88.9759C81.8008 88.4673 82.1474 88.0724 82.5906 87.7912C83.0366 87.5099 83.555 87.3693 84.146 87.3693C84.7369 87.3693 85.2539 87.5099 85.6971 87.7912C86.1431 88.0724 86.4897 88.4673 86.7369 88.9759C86.9869 89.4844 87.1119 90.0795 87.1119 90.7614C87.1119 91.4375 86.9869 92.0284 86.7369 92.5341C86.4897 93.0398 86.1431 93.4332 85.6971 93.7145C85.2539 93.9957 84.7369 94.1364 84.146 94.1364ZM84.146 93.233C84.5948 93.233 84.9641 93.1179 85.2539 92.8878C85.5437 92.6577 85.7582 92.3551 85.8974 91.9801C86.0366 91.6051 86.1062 91.1989 86.1062 90.7614C86.1062 90.3239 86.0366 89.9162 85.8974 89.5384C85.7582 89.1605 85.5437 88.8551 85.2539 88.6222C84.9641 88.3892 84.5948 88.2727 84.146 88.2727C83.6971 88.2727 83.3278 88.3892 83.038 88.6222C82.7482 88.8551 82.5337 89.1605 82.3945 89.5384C82.2553 89.9162 82.1857 90.3239 82.1857 90.7614C82.1857 91.1989 82.2553 91.6051 82.3945 91.9801C82.5337 92.3551 82.7482 92.6577 83.038 92.8878C83.3278 93.1179 83.6971 93.233 84.146 93.233ZM92.1584 85.2727H93.4197L96.3857 92.517H96.4879L99.4538 85.2727H100.715V94H99.7266V87.3693H99.6413L96.9141 94H95.9595L93.2322 87.3693H93.147V94H92.1584V85.2727ZM105.357 94.1364C104.766 94.1364 104.248 93.9957 103.801 93.7145C103.358 93.4332 103.012 93.0398 102.762 92.5341C102.515 92.0284 102.391 91.4375 102.391 90.7614C102.391 90.0795 102.515 89.4844 102.762 88.9759C103.012 88.4673 103.358 88.0724 103.801 87.7912C104.248 87.5099 104.766 87.3693 105.357 87.3693C105.948 87.3693 106.465 87.5099 106.908 87.7912C107.354 88.0724 107.701 88.4673 107.948 88.9759C108.198 89.4844 108.323 90.0795 108.323 90.7614C108.323 91.4375 108.198 92.0284 107.948 92.5341C107.701 93.0398 107.354 93.4332 106.908 93.7145C106.465 93.9957 105.948 94.1364 105.357 94.1364ZM105.357 93.233C105.806 93.233 106.175 93.1179 106.465 92.8878C106.755 92.6577 106.969 92.3551 107.108 91.9801C107.248 91.6051 107.317 91.1989 107.317 90.7614C107.317 90.3239 107.248 89.9162 107.108 89.5384C106.969 89.1605 106.755 88.8551 106.465 88.6222C106.175 88.3892 105.806 88.2727 105.357 88.2727C104.908 88.2727 104.539 88.3892 104.249 88.6222C103.959 88.8551 103.745 89.1605 103.605 89.5384C103.466 89.9162 103.397 90.3239 103.397 90.7614C103.397 91.1989 103.466 91.6051 103.605 91.9801C103.745 92.3551 103.959 92.6577 104.249 92.8878C104.539 93.1179 104.908 93.233 105.357 93.233ZM112.33 94.1364C111.784 94.1364 111.303 93.9986 110.885 93.723C110.467 93.4446 110.141 93.0526 109.905 92.5469C109.669 92.0384 109.551 91.4375 109.551 90.7443C109.551 90.0568 109.669 89.4602 109.905 88.9545C110.141 88.4489 110.469 88.0582 110.889 87.7827C111.31 87.5071 111.795 87.3693 112.347 87.3693C112.773 87.3693 113.109 87.4403 113.357 87.5824C113.607 87.7216 113.797 87.8807 113.928 88.0597C114.061 88.2358 114.165 88.3807 114.239 88.4943H114.324V85.2727H115.33V94H114.358V92.9943H114.239C114.165 93.1136 114.06 93.2642 113.923 93.446C113.787 93.625 113.592 93.7855 113.339 93.9276C113.087 94.0668 112.75 94.1364 112.33 94.1364ZM112.466 93.233C112.869 93.233 113.21 93.1278 113.489 92.9176C113.767 92.7045 113.979 92.4105 114.124 92.0355C114.268 91.6577 114.341 91.2216 114.341 90.7273C114.341 90.2386 114.27 89.8111 114.128 89.4446C113.986 89.0753 113.776 88.7884 113.497 88.5838C113.219 88.3764 112.875 88.2727 112.466 88.2727C112.04 88.2727 111.685 88.3821 111.401 88.6009C111.119 88.8168 110.908 89.1108 110.766 89.483C110.626 89.8523 110.557 90.267 110.557 90.7273C110.557 91.1932 110.628 91.6165 110.77 91.9972C110.915 92.375 111.128 92.6761 111.409 92.9006C111.693 93.1222 112.045 93.233 112.466 93.233ZM121.436 91.3239V87.4545H122.442V94H121.436V92.892H121.368C121.214 93.2244 120.976 93.5071 120.652 93.7401C120.328 93.9702 119.919 94.0852 119.425 94.0852C119.016 94.0852 118.652 93.9957 118.334 93.8168C118.016 93.6349 117.766 93.3622 117.584 92.9986C117.402 92.6321 117.311 92.1705 117.311 91.6136V87.4545H118.317V91.5455C118.317 92.0227 118.45 92.4034 118.717 92.6875C118.987 92.9716 119.331 93.1136 119.749 93.1136C119.999 93.1136 120.253 93.0497 120.511 92.9219C120.773 92.794 120.991 92.598 121.168 92.3338C121.347 92.0696 121.436 91.733 121.436 91.3239ZM125.289 85.2727V94H124.284V85.2727H125.289ZM129.876 94.1364C129.245 94.1364 128.701 93.9972 128.244 93.7188C127.789 93.4375 127.438 93.0455 127.191 92.5426C126.947 92.0369 126.825 91.4489 126.825 90.7784C126.825 90.108 126.947 89.517 127.191 89.0057C127.438 88.4915 127.782 88.0909 128.222 87.804C128.665 87.5142 129.183 87.3693 129.773 87.3693C130.114 87.3693 130.451 87.4261 130.783 87.5398C131.116 87.6534 131.418 87.8381 131.691 88.0938C131.964 88.3466 132.181 88.6818 132.343 89.0994C132.505 89.517 132.586 90.0312 132.586 90.642V91.0682H127.54V90.1989H131.563C131.563 89.8295 131.489 89.5 131.342 89.2102C131.197 88.9205 130.989 88.6918 130.719 88.5241C130.452 88.3565 130.137 88.2727 129.773 88.2727C129.373 88.2727 129.026 88.3722 128.734 88.571C128.444 88.767 128.221 89.0227 128.065 89.3381C127.908 89.6534 127.83 89.9915 127.83 90.3523V90.9318C127.83 91.4261 127.915 91.8452 128.086 92.1889C128.259 92.5298 128.499 92.7898 128.806 92.9688C129.113 93.1449 129.469 93.233 129.876 93.233C130.14 93.233 130.379 93.196 130.592 93.1222C130.808 93.0455 130.994 92.9318 131.15 92.7812C131.306 92.6278 131.427 92.4375 131.512 92.2102L132.484 92.483C132.381 92.8125 132.21 93.1023 131.968 93.3523C131.727 93.5994 131.428 93.7926 131.073 93.9318C130.718 94.0682 130.319 94.1364 129.876 94.1364ZM137.627 94V85.2727H142.86V86.2102H138.684V89.1591H142.468V90.0966H138.684V94H137.627ZM144.534 94V87.4545H145.539V94H144.534ZM145.045 86.3636C144.849 86.3636 144.68 86.2969 144.538 86.1634C144.399 86.0298 144.329 85.8693 144.329 85.6818C144.329 85.4943 144.399 85.3338 144.538 85.2003C144.68 85.0668 144.849 85 145.045 85C145.241 85 145.409 85.0668 145.548 85.2003C145.69 85.3338 145.761 85.4943 145.761 85.6818C145.761 85.8693 145.69 86.0298 145.548 86.1634C145.409 86.2969 145.241 86.3636 145.045 86.3636ZM148.387 90.0625V94H147.381V87.4545H148.353V88.4773H148.438C148.592 88.1449 148.825 87.8778 149.137 87.6761C149.45 87.4716 149.853 87.3693 150.347 87.3693C150.79 87.3693 151.178 87.4602 151.511 87.642C151.843 87.821 152.102 88.0938 152.286 88.4602C152.471 88.8239 152.563 89.2841 152.563 89.8409V94H151.558V89.9091C151.558 89.3949 151.424 88.9943 151.157 88.7074C150.89 88.4176 150.523 88.2727 150.058 88.2727C149.737 88.2727 149.45 88.3423 149.197 88.4815C148.947 88.6207 148.749 88.8239 148.604 89.0909C148.46 89.358 148.387 89.6818 148.387 90.0625ZM156.327 94.1534C155.912 94.1534 155.536 94.0753 155.198 93.919C154.86 93.7599 154.591 93.5312 154.392 93.233C154.194 92.9318 154.094 92.5682 154.094 92.142C154.094 91.767 154.168 91.4631 154.316 91.2301C154.463 90.9943 154.661 90.8097 154.908 90.6761C155.155 90.5426 155.428 90.4432 155.726 90.3778C156.027 90.3097 156.33 90.2557 156.634 90.2159C157.032 90.1648 157.354 90.1264 157.601 90.1009C157.851 90.0724 158.033 90.0256 158.147 89.9602C158.263 89.8949 158.321 89.7812 158.321 89.6193V89.5852C158.321 89.1648 158.206 88.8381 157.976 88.6051C157.749 88.3722 157.404 88.2557 156.941 88.2557C156.461 88.2557 156.084 88.3608 155.811 88.571C155.539 88.7812 155.347 89.0057 155.236 89.2443L154.282 88.9034C154.452 88.5057 154.679 88.196 154.963 87.9744C155.25 87.75 155.563 87.5937 155.901 87.5057C156.242 87.4148 156.577 87.3693 156.907 87.3693C157.117 87.3693 157.358 87.3949 157.631 87.446C157.907 87.4943 158.172 87.5952 158.428 87.7486C158.686 87.902 158.901 88.1335 159.071 88.4432C159.242 88.7528 159.327 89.1676 159.327 89.6875V94H158.321V93.1136H158.27C158.202 93.2557 158.088 93.4077 157.929 93.5696C157.77 93.7315 157.559 93.8693 157.294 93.983C157.03 94.0966 156.708 94.1534 156.327 94.1534ZM156.48 93.25C156.878 93.25 157.213 93.1719 157.486 93.0156C157.762 92.8594 157.969 92.6577 158.108 92.4105C158.25 92.1634 158.321 91.9034 158.321 91.6307V90.7102C158.279 90.7614 158.185 90.8082 158.04 90.8509C157.898 90.8906 157.733 90.9261 157.546 90.9574C157.361 90.9858 157.181 91.0114 157.005 91.0341C156.831 91.054 156.691 91.071 156.583 91.0852C156.321 91.1193 156.077 91.1747 155.85 91.2514C155.625 91.3253 155.444 91.4375 155.304 91.5881C155.168 91.7358 155.1 91.9375 155.1 92.1932C155.1 92.5426 155.229 92.8068 155.488 92.9858C155.749 93.1619 156.08 93.25 156.48 93.25ZM162.168 85.2727V94H161.163V85.2727H162.168ZM167.522 94V85.2727H170.471C171.155 85.2727 171.715 85.3963 172.15 85.6435C172.587 85.8878 172.911 86.2188 173.121 86.6364C173.331 87.054 173.436 87.5199 173.436 88.0341C173.436 88.5483 173.331 89.0156 173.121 89.4361C172.914 89.8565 172.593 90.1918 172.158 90.4418C171.723 90.6889 171.167 90.8125 170.488 90.8125H168.374V89.875H170.453C170.922 89.875 171.299 89.794 171.583 89.6321C171.867 89.4702 172.073 89.2514 172.201 88.9759C172.331 88.6974 172.397 88.3835 172.397 88.0341C172.397 87.6847 172.331 87.3722 172.201 87.0966C172.073 86.821 171.865 86.6051 171.578 86.4489C171.292 86.2898 170.911 86.2102 170.436 86.2102H168.578V94H167.522ZM175.002 94V87.4545H175.974V88.4432H176.042C176.162 88.1193 176.377 87.8565 176.69 87.6548C177.002 87.4531 177.355 87.3523 177.747 87.3523C177.821 87.3523 177.913 87.3537 178.024 87.3565C178.135 87.3594 178.218 87.3636 178.275 87.3693V88.392C178.241 88.3835 178.163 88.3707 178.041 88.3537C177.922 88.3338 177.795 88.3239 177.662 88.3239C177.343 88.3239 177.059 88.3906 176.809 88.5241C176.562 88.6548 176.366 88.8366 176.221 89.0696C176.079 89.2997 176.008 89.5625 176.008 89.858V94H175.002ZM181.927 94.1364C181.336 94.1364 180.818 93.9957 180.372 93.7145C179.929 93.4332 179.582 93.0398 179.332 92.5341C179.085 92.0284 178.961 91.4375 178.961 90.7614C178.961 90.0795 179.085 89.4844 179.332 88.9759C179.582 88.4673 179.929 88.0724 180.372 87.7912C180.818 87.5099 181.336 87.3693 181.927 87.3693C182.518 87.3693 183.035 87.5099 183.478 87.7912C183.924 88.0724 184.271 88.4673 184.518 88.9759C184.768 89.4844 184.893 90.0795 184.893 90.7614C184.893 91.4375 184.768 92.0284 184.518 92.5341C184.271 93.0398 183.924 93.4332 183.478 93.7145C183.035 93.9957 182.518 94.1364 181.927 94.1364ZM181.927 93.233C182.376 93.233 182.745 93.1179 183.035 92.8878C183.325 92.6577 183.539 92.3551 183.679 91.9801C183.818 91.6051 183.887 91.1989 183.887 90.7614C183.887 90.3239 183.818 89.9162 183.679 89.5384C183.539 89.1605 183.325 88.8551 183.035 88.6222C182.745 88.3892 182.376 88.2727 181.927 88.2727C181.478 88.2727 181.109 88.3892 180.819 88.6222C180.529 88.8551 180.315 89.1605 180.176 89.5384C180.037 89.9162 179.967 90.3239 179.967 90.7614C179.967 91.1989 180.037 91.6051 180.176 91.9801C180.315 92.3551 180.529 92.6577 180.819 92.8878C181.109 93.1179 181.478 93.233 181.927 93.233ZM186.428 87.4545H187.434V94.4773C187.434 94.8807 187.364 95.2301 187.225 95.5256C187.089 95.821 186.881 96.0497 186.603 96.2116C186.327 96.3736 185.979 96.4545 185.559 96.4545C185.525 96.4545 185.491 96.4545 185.457 96.4545C185.423 96.4545 185.388 96.4545 185.354 96.4545V95.517C185.388 95.517 185.42 95.517 185.448 95.517C185.477 95.517 185.508 95.517 185.542 95.517C185.849 95.517 186.073 95.4261 186.215 95.2443C186.357 95.0653 186.428 94.8097 186.428 94.4773V87.4545ZM186.923 86.3636C186.727 86.3636 186.558 86.2969 186.415 86.1634C186.276 86.0298 186.207 85.8693 186.207 85.6818C186.207 85.4943 186.276 85.3338 186.415 85.2003C186.558 85.0668 186.727 85 186.923 85C187.119 85 187.286 85.0668 187.425 85.2003C187.567 85.3338 187.638 85.4943 187.638 85.6818C187.638 85.8693 187.567 86.0298 187.425 86.1634C187.286 86.2969 187.119 86.3636 186.923 86.3636ZM192.02 94.1364C191.39 94.1364 190.846 93.9972 190.388 93.7188C189.934 93.4375 189.583 93.0455 189.336 92.5426C189.091 92.0369 188.969 91.4489 188.969 90.7784C188.969 90.108 189.091 89.517 189.336 89.0057C189.583 88.4915 189.926 88.0909 190.367 87.804C190.81 87.5142 191.327 87.3693 191.918 87.3693C192.259 87.3693 192.596 87.4261 192.928 87.5398C193.26 87.6534 193.563 87.8381 193.836 88.0938C194.108 88.3466 194.326 88.6818 194.488 89.0994C194.65 89.517 194.73 90.0312 194.73 90.642V91.0682H189.685V90.1989H193.708C193.708 89.8295 193.634 89.5 193.486 89.2102C193.341 88.9205 193.134 88.6918 192.864 88.5241C192.597 88.3565 192.282 88.2727 191.918 88.2727C191.517 88.2727 191.171 88.3722 190.878 88.571C190.588 88.767 190.365 89.0227 190.209 89.3381C190.053 89.6534 189.975 89.9915 189.975 90.3523V90.9318C189.975 91.4261 190.06 91.8452 190.23 92.1889C190.404 92.5298 190.644 92.7898 190.951 92.9688C191.257 93.1449 191.614 93.233 192.02 93.233C192.284 93.233 192.523 93.196 192.736 93.1222C192.952 93.0455 193.138 92.9318 193.294 92.7812C193.451 92.6278 193.571 92.4375 193.657 92.2102L194.628 92.483C194.526 92.8125 194.354 93.1023 194.113 93.3523C193.871 93.5994 193.573 93.7926 193.218 93.9318C192.863 94.0682 192.463 94.1364 192.02 94.1364ZM198.919 94.1364C198.306 94.1364 197.777 93.9915 197.334 93.7017C196.891 93.4119 196.55 93.0128 196.311 92.5043C196.073 91.9957 195.953 91.4148 195.953 90.7614C195.953 90.0966 196.076 89.5099 196.32 89.0014C196.567 88.4901 196.911 88.0909 197.351 87.804C197.794 87.5142 198.311 87.3693 198.902 87.3693C199.363 87.3693 199.777 87.4545 200.147 87.625C200.516 87.7955 200.819 88.0341 201.054 88.3409C201.29 88.6477 201.436 89.0057 201.493 89.4148H200.488C200.411 89.1165 200.24 88.8523 199.976 88.6222C199.715 88.3892 199.363 88.2727 198.919 88.2727C198.527 88.2727 198.184 88.375 197.888 88.5795C197.596 88.7812 197.367 89.0668 197.202 89.4361C197.04 89.8026 196.959 90.233 196.959 90.7273C196.959 91.233 197.039 91.6733 197.198 92.0483C197.36 92.4233 197.587 92.7145 197.88 92.9219C198.175 93.1293 198.522 93.233 198.919 93.233C199.181 93.233 199.418 93.1875 199.631 93.0966C199.844 93.0057 200.025 92.875 200.172 92.7045C200.32 92.5341 200.425 92.3295 200.488 92.0909H201.493C201.436 92.4773 201.296 92.8253 201.071 93.1349C200.85 93.4418 200.556 93.6861 200.189 93.8679C199.826 94.0469 199.402 94.1364 198.919 94.1364ZM205.81 87.4545V88.3068H202.418V87.4545H205.81ZM203.407 85.8864H204.412V92.125C204.412 92.4091 204.453 92.6222 204.536 92.7642C204.621 92.9034 204.729 92.9972 204.86 93.0455C204.993 93.0909 205.134 93.1136 205.282 93.1136C205.392 93.1136 205.483 93.108 205.554 93.0966C205.625 93.0824 205.682 93.071 205.725 93.0625L205.929 93.9659C205.861 93.9915 205.766 94.017 205.644 94.0426C205.522 94.071 205.367 94.0852 205.179 94.0852C204.895 94.0852 204.617 94.0241 204.344 93.902C204.074 93.7798 203.85 93.5938 203.671 93.3438C203.495 93.0938 203.407 92.7784 203.407 92.3977V85.8864ZM208.056 94.0682C207.846 94.0682 207.665 93.9929 207.515 93.8423C207.364 93.6918 207.289 93.5114 207.289 93.3011C207.289 93.0909 207.364 92.9105 207.515 92.7599C207.665 92.6094 207.846 92.5341 208.056 92.5341C208.266 92.5341 208.446 92.6094 208.597 92.7599C208.748 92.9105 208.823 93.0909 208.823 93.3011C208.823 93.4403 208.787 93.5682 208.716 93.6847C208.648 93.8011 208.556 93.8949 208.439 93.9659C208.326 94.0341 208.198 94.0682 208.056 94.0682ZM208.056 89.2102C207.846 89.2102 207.665 89.1349 207.515 88.9844C207.364 88.8338 207.289 88.6534 207.289 88.4432C207.289 88.233 207.364 88.0526 207.515 87.902C207.665 87.7514 207.846 87.6761 208.056 87.6761C208.266 87.6761 208.446 87.7514 208.597 87.902C208.748 88.0526 208.823 88.233 208.823 88.4432C208.823 88.5824 208.787 88.7102 208.716 88.8267C208.648 88.9432 208.556 89.0369 208.439 89.108C208.326 89.1761 208.198 89.2102 208.056 89.2102ZM214.139 94V85.2727H219.406V86.2102H215.196V89.1591H219.133V90.0966H215.196V93.0625H219.474V94H214.139ZM224.106 94.1193C223.544 94.1193 223.042 94.0227 222.602 93.8295C222.164 93.6364 221.816 93.3679 221.558 93.0241C221.302 92.6776 221.163 92.2756 221.14 91.8182H222.214C222.237 92.0994 222.333 92.3423 222.504 92.5469C222.674 92.7486 222.897 92.9048 223.173 93.0156C223.449 93.1264 223.754 93.1818 224.089 93.1818C224.464 93.1818 224.797 93.1165 225.086 92.9858C225.376 92.8551 225.603 92.6733 225.768 92.4403C225.933 92.2074 226.015 91.9375 226.015 91.6307C226.015 91.3097 225.936 91.027 225.777 90.7827C225.618 90.5355 225.385 90.3423 225.078 90.2031C224.771 90.0639 224.396 89.9943 223.953 89.9943H223.254V89.0568H223.953C224.299 89.0568 224.603 88.9943 224.865 88.8693C225.129 88.7443 225.335 88.5682 225.483 88.3409C225.633 88.1136 225.708 87.8466 225.708 87.5398C225.708 87.2443 225.643 86.9872 225.512 86.7685C225.382 86.5497 225.197 86.3793 224.958 86.2571C224.723 86.1349 224.444 86.0739 224.123 86.0739C223.822 86.0739 223.538 86.1293 223.271 86.2401C223.007 86.348 222.791 86.5057 222.623 86.7131C222.456 86.9176 222.365 87.1648 222.35 87.4545H221.328C221.345 86.9972 221.483 86.5966 221.741 86.2528C222 85.9062 222.338 85.6364 222.755 85.4432C223.176 85.25 223.637 85.1534 224.14 85.1534C224.68 85.1534 225.143 85.2628 225.529 85.4815C225.916 85.6974 226.213 85.983 226.42 86.3381C226.627 86.6932 226.731 87.0767 226.731 87.4886C226.731 87.9801 226.602 88.3991 226.343 88.7457C226.088 89.0923 225.74 89.3324 225.299 89.4659V89.5341C225.85 89.625 226.281 89.8594 226.591 90.2372C226.9 90.6122 227.055 91.0767 227.055 91.6307C227.055 92.1051 226.926 92.5312 226.667 92.9091C226.412 93.2841 226.062 93.5795 225.619 93.7955C225.176 94.0114 224.672 94.1193 224.106 94.1193ZM232.326 94V85.2727H233.383V93.0625H237.44V94H232.326ZM238.94 94V87.4545H239.946V94H238.94ZM239.451 86.3636C239.255 86.3636 239.086 86.2969 238.944 86.1634C238.805 86.0298 238.735 85.8693 238.735 85.6818C238.735 85.4943 238.805 85.3338 238.944 85.2003C239.086 85.0668 239.255 85 239.451 85C239.647 85 239.815 85.0668 239.954 85.2003C240.096 85.3338 240.167 85.4943 240.167 85.6818C240.167 85.8693 240.096 86.0298 239.954 86.1634C239.815 86.2969 239.647 86.3636 239.451 86.3636ZM247.14 87.4545L244.719 94H243.697L241.276 87.4545H242.367L244.174 92.6705H244.242L246.049 87.4545H247.14ZM250.977 94.1364C250.347 94.1364 249.803 93.9972 249.345 93.7188C248.891 93.4375 248.54 93.0455 248.293 92.5426C248.048 92.0369 247.926 91.4489 247.926 90.7784C247.926 90.108 248.048 89.517 248.293 89.0057C248.54 88.4915 248.884 88.0909 249.324 87.804C249.767 87.5142 250.284 87.3693 250.875 87.3693C251.216 87.3693 251.553 87.4261 251.885 87.5398C252.217 87.6534 252.52 87.8381 252.793 88.0938C253.065 88.3466 253.283 88.6818 253.445 89.0994C253.607 89.517 253.688 90.0312 253.688 90.642V91.0682H248.642V90.1989H252.665C252.665 89.8295 252.591 89.5 252.443 89.2102C252.298 88.9205 252.091 88.6918 251.821 88.5241C251.554 88.3565 251.239 88.2727 250.875 88.2727C250.474 88.2727 250.128 88.3722 249.835 88.571C249.545 88.767 249.322 89.0227 249.166 89.3381C249.01 89.6534 248.932 89.9915 248.932 90.3523V90.9318C248.932 91.4261 249.017 91.8452 249.188 92.1889C249.361 92.5298 249.601 92.7898 249.908 92.9688C250.214 93.1449 250.571 93.233 250.977 93.233C251.241 93.233 251.48 93.196 251.693 93.1222C251.909 93.0455 252.095 92.9318 252.251 92.7812C252.408 92.6278 252.528 92.4375 252.614 92.2102L253.585 92.483C253.483 92.8125 253.311 93.1023 253.07 93.3523C252.828 93.5994 252.53 93.7926 252.175 93.9318C251.82 94.0682 251.42 94.1364 250.977 94.1364ZM258.729 94V85.2727H263.996V86.2102H259.786V89.1591H263.723V90.0966H259.786V93.0625H264.064V94H258.729ZM271.116 87.4545L268.696 94H267.673L265.253 87.4545H266.344L268.151 92.6705H268.219L270.026 87.4545H271.116ZM274.954 94.1364C274.323 94.1364 273.779 93.9972 273.322 93.7188C272.867 93.4375 272.516 93.0455 272.269 92.5426C272.025 92.0369 271.903 91.4489 271.903 90.7784C271.903 90.108 272.025 89.517 272.269 89.0057C272.516 88.4915 272.86 88.0909 273.3 87.804C273.744 87.5142 274.261 87.3693 274.852 87.3693C275.192 87.3693 275.529 87.4261 275.862 87.5398C276.194 87.6534 276.496 87.8381 276.769 88.0938C277.042 88.3466 277.259 88.6818 277.421 89.0994C277.583 89.517 277.664 90.0312 277.664 90.642V91.0682H272.619V90.1989H276.641C276.641 89.8295 276.567 89.5 276.42 89.2102C276.275 88.9205 276.067 88.6918 275.798 88.5241C275.531 88.3565 275.215 88.2727 274.852 88.2727C274.451 88.2727 274.104 88.3722 273.812 88.571C273.522 88.767 273.299 89.0227 273.143 89.3381C272.987 89.6534 272.908 89.9915 272.908 90.3523V90.9318C272.908 91.4261 272.994 91.8452 273.164 92.1889C273.337 92.5298 273.577 92.7898 273.884 92.9688C274.191 93.1449 274.548 93.233 274.954 93.233C275.218 93.233 275.457 93.196 275.67 93.1222C275.886 93.0455 276.072 92.9318 276.228 92.7812C276.384 92.6278 276.505 92.4375 276.59 92.2102L277.562 92.483C277.46 92.8125 277.288 93.1023 277.046 93.3523C276.805 93.5994 276.506 93.7926 276.151 93.9318C275.796 94.0682 275.397 94.1364 274.954 94.1364ZM280.2 90.0625V94H279.194V87.4545H280.165V88.4773H280.251C280.404 88.1449 280.637 87.8778 280.95 87.6761C281.262 87.4716 281.665 87.3693 282.16 87.3693C282.603 87.3693 282.991 87.4602 283.323 87.642C283.656 87.821 283.914 88.0938 284.099 88.4602C284.283 88.8239 284.376 89.2841 284.376 89.8409V94H283.37V89.9091C283.37 89.3949 283.237 88.9943 282.969 88.7074C282.702 88.4176 282.336 88.2727 281.87 88.2727C281.549 88.2727 281.262 88.3423 281.009 88.4815C280.759 88.6207 280.562 88.8239 280.417 89.0909C280.272 89.358 280.2 89.6818 280.2 90.0625ZM289.06 87.4545V88.3068H285.668V87.4545H289.06ZM286.657 85.8864H287.662V92.125C287.662 92.4091 287.703 92.6222 287.786 92.7642C287.871 92.9034 287.979 92.9972 288.11 93.0455C288.243 93.0909 288.384 93.1136 288.532 93.1136C288.642 93.1136 288.733 93.108 288.804 93.0966C288.875 93.0824 288.932 93.071 288.975 93.0625L289.179 93.9659C289.111 93.9915 289.016 94.017 288.894 94.0426C288.772 94.071 288.617 94.0852 288.429 94.0852C288.145 94.0852 287.867 94.0241 287.594 93.902C287.324 93.7798 287.1 93.5938 286.921 93.3438C286.745 93.0938 286.657 92.7784 286.657 92.3977V85.8864ZM295.669 94L293.283 85.2727H294.357L296.181 92.3807H296.266L298.124 85.2727H299.317L301.175 92.3807H301.26L303.084 85.2727H304.158L301.772 94H300.681L298.755 87.0455H298.686L296.76 94H295.669ZM307.473 94.1364C306.843 94.1364 306.299 93.9972 305.841 93.7188C305.387 93.4375 305.036 93.0455 304.789 92.5426C304.544 92.0369 304.422 91.4489 304.422 90.7784C304.422 90.108 304.544 89.517 304.789 89.0057C305.036 88.4915 305.38 88.0909 305.82 87.804C306.263 87.5142 306.78 87.3693 307.371 87.3693C307.712 87.3693 308.049 87.4261 308.381 87.5398C308.713 87.6534 309.016 87.8381 309.289 88.0938C309.561 88.3466 309.779 88.6818 309.941 89.0994C310.103 89.517 310.184 90.0312 310.184 90.642V91.0682H305.138V90.1989H309.161C309.161 89.8295 309.087 89.5 308.939 89.2102C308.794 88.9205 308.587 88.6918 308.317 88.5241C308.05 88.3565 307.735 88.2727 307.371 88.2727C306.971 88.2727 306.624 88.3722 306.331 88.571C306.042 88.767 305.819 89.0227 305.662 89.3381C305.506 89.6534 305.428 89.9915 305.428 90.3523V90.9318C305.428 91.4261 305.513 91.8452 305.684 92.1889C305.857 92.5298 306.097 92.7898 306.404 92.9688C306.711 93.1449 307.067 93.233 307.473 93.233C307.738 93.233 307.976 93.196 308.189 93.1222C308.405 93.0455 308.591 92.9318 308.748 92.7812C308.904 92.6278 309.025 92.4375 309.11 92.2102L310.081 92.483C309.979 92.8125 309.807 93.1023 309.566 93.3523C309.324 93.5994 309.026 93.7926 308.671 93.9318C308.316 94.0682 307.917 94.1364 307.473 94.1364ZM311.85 94V85.2727H312.855V88.4943H312.941C313.015 88.3807 313.117 88.2358 313.248 88.0597C313.381 87.8807 313.571 87.7216 313.819 87.5824C314.069 87.4403 314.407 87.3693 314.833 87.3693C315.384 87.3693 315.87 87.5071 316.29 87.7827C316.711 88.0582 317.039 88.4489 317.275 88.9545C317.51 89.4602 317.628 90.0568 317.628 90.7443C317.628 91.4375 317.51 92.0384 317.275 92.5469C317.039 93.0526 316.712 93.4446 316.294 93.723C315.877 93.9986 315.395 94.1364 314.85 94.1364C314.429 94.1364 314.093 94.0668 313.84 93.9276C313.587 93.7855 313.392 93.625 313.256 93.446C313.12 93.2642 313.015 93.1136 312.941 92.9943H312.821V94H311.85ZM312.838 90.7273C312.838 91.2216 312.911 91.6577 313.056 92.0355C313.201 92.4105 313.412 92.7045 313.691 92.9176C313.969 93.1278 314.31 93.233 314.713 93.233C315.134 93.233 315.485 93.1222 315.766 92.9006C316.05 92.6761 316.263 92.375 316.405 91.9972C316.55 91.6165 316.623 91.1932 316.623 90.7273C316.623 90.267 316.551 89.8523 316.409 89.483C316.27 89.1108 316.059 88.8168 315.775 88.6009C315.493 88.3821 315.14 88.2727 314.713 88.2727C314.304 88.2727 313.961 88.3764 313.682 88.5838C313.404 88.7884 313.194 89.0753 313.051 89.4446C312.909 89.8111 312.838 90.2386 312.838 90.7273ZM323.803 88.9205L322.9 89.1761C322.843 89.0256 322.759 88.8793 322.648 88.7372C322.54 88.5923 322.392 88.473 322.205 88.3793C322.017 88.2855 321.777 88.2386 321.485 88.2386C321.084 88.2386 320.75 88.331 320.483 88.5156C320.219 88.6974 320.087 88.929 320.087 89.2102C320.087 89.4602 320.178 89.6577 320.36 89.8026C320.542 89.9474 320.826 90.0682 321.212 90.1648L322.184 90.4034C322.769 90.5455 323.205 90.7628 323.492 91.0554C323.779 91.3452 323.922 91.7187 323.922 92.1761C323.922 92.5511 323.814 92.8864 323.598 93.1818C323.385 93.4773 323.087 93.7102 322.703 93.8807C322.32 94.0511 321.874 94.1364 321.365 94.1364C320.698 94.1364 320.145 93.9915 319.708 93.7017C319.27 93.4119 318.993 92.9886 318.877 92.4318L319.831 92.1932C319.922 92.5455 320.094 92.8097 320.347 92.9858C320.603 93.1619 320.936 93.25 321.348 93.25C321.817 93.25 322.189 93.1506 322.465 92.9517C322.743 92.75 322.882 92.5085 322.882 92.2273C322.882 92 322.803 91.8097 322.644 91.6562C322.485 91.5 322.24 91.3835 321.911 91.3068L320.82 91.0511C320.221 90.9091 319.78 90.6889 319.499 90.3906C319.221 90.0895 319.081 89.7131 319.081 89.2614C319.081 88.892 319.185 88.5653 319.392 88.2812C319.603 87.9972 319.888 87.7741 320.249 87.6122C320.613 87.4503 321.025 87.3693 321.485 87.3693C322.132 87.3693 322.641 87.5114 323.01 87.7955C323.382 88.0795 323.647 88.4545 323.803 88.9205ZM325.436 94V87.4545H326.442V94H325.436ZM325.947 86.3636C325.751 86.3636 325.582 86.2969 325.44 86.1634C325.301 86.0298 325.232 85.8693 325.232 85.6818C325.232 85.4943 325.301 85.3338 325.44 85.2003C325.582 85.0668 325.751 85 325.947 85C326.143 85 326.311 85.0668 326.45 85.2003C326.592 85.3338 326.663 85.4943 326.663 85.6818C326.663 85.8693 326.592 86.0298 326.45 86.1634C326.311 86.2969 326.143 86.3636 325.947 86.3636ZM331.13 87.4545V88.3068H327.738V87.4545H331.13ZM328.727 85.8864H329.733V92.125C329.733 92.4091 329.774 92.6222 329.856 92.7642C329.941 92.9034 330.049 92.9972 330.18 93.0455C330.314 93.0909 330.454 93.1136 330.602 93.1136C330.713 93.1136 330.804 93.108 330.875 93.0966C330.946 93.0824 331.002 93.071 331.045 93.0625L331.25 93.9659C331.181 93.9915 331.086 94.017 330.964 94.0426C330.842 94.071 330.687 94.0852 330.5 94.0852C330.216 94.0852 329.937 94.0241 329.664 93.902C329.395 93.7798 329.17 93.5938 328.991 93.3438C328.815 93.0938 328.727 92.7784 328.727 92.3977V85.8864ZM335.317 94.1364C334.686 94.1364 334.142 93.9972 333.685 93.7188C333.23 93.4375 332.88 93.0455 332.632 92.5426C332.388 92.0369 332.266 91.4489 332.266 90.7784C332.266 90.108 332.388 89.517 332.632 89.0057C332.88 88.4915 333.223 88.0909 333.664 87.804C334.107 87.5142 334.624 87.3693 335.215 87.3693C335.556 87.3693 335.892 87.4261 336.225 87.5398C336.557 87.6534 336.86 87.8381 337.132 88.0938C337.405 88.3466 337.623 88.6818 337.784 89.0994C337.946 89.517 338.027 90.0312 338.027 90.642V91.0682H332.982V90.1989H337.005C337.005 89.8295 336.931 89.5 336.783 89.2102C336.638 88.9205 336.431 88.6918 336.161 88.5241C335.894 88.3565 335.578 88.2727 335.215 88.2727C334.814 88.2727 334.468 88.3722 334.175 88.571C333.885 88.767 333.662 89.0227 333.506 89.3381C333.35 89.6534 333.272 89.9915 333.272 90.3523V90.9318C333.272 91.4261 333.357 91.8452 333.527 92.1889C333.701 92.5298 333.941 92.7898 334.248 92.9688C334.554 93.1449 334.911 93.233 335.317 93.233C335.581 93.233 335.82 93.196 336.033 93.1222C336.249 93.0455 336.435 92.9318 336.591 92.7812C336.748 92.6278 336.868 92.4375 336.953 92.2102L337.925 92.483C337.823 92.8125 337.651 93.1023 337.409 93.3523C337.168 93.5994 336.87 93.7926 336.515 93.9318C336.159 94.0682 335.76 94.1364 335.317 94.1364ZM343.069 94V85.2727H346.12C346.728 85.2727 347.229 85.3778 347.624 85.5881C348.019 85.7955 348.313 86.0753 348.506 86.4276C348.699 86.777 348.796 87.1648 348.796 87.5909C348.796 87.9659 348.729 88.2756 348.596 88.5199C348.465 88.7642 348.292 88.9574 348.076 89.0994C347.863 89.2415 347.631 89.3466 347.381 89.4148V89.5C347.648 89.517 347.917 89.6108 348.186 89.7812C348.456 89.9517 348.682 90.196 348.864 90.5142C349.046 90.8324 349.137 91.2216 349.137 91.6818C349.137 92.1193 349.037 92.5128 348.838 92.8622C348.64 93.2116 348.326 93.4886 347.897 93.6932C347.468 93.8977 346.909 94 346.222 94H343.069ZM344.125 93.0625H346.222C346.912 93.0625 347.402 92.929 347.692 92.6619C347.985 92.392 348.131 92.0653 348.131 91.6818C348.131 91.3864 348.056 91.1136 347.905 90.8636C347.755 90.6108 347.54 90.4091 347.262 90.2585C346.983 90.1051 346.654 90.0284 346.273 90.0284H344.125V93.0625ZM344.125 89.108H346.086C346.404 89.108 346.691 89.0455 346.946 88.9205C347.205 88.7955 347.409 88.6193 347.56 88.392C347.713 88.1648 347.79 87.8977 347.79 87.5909C347.79 87.2074 347.657 86.8821 347.39 86.6151C347.123 86.3452 346.699 86.2102 346.12 86.2102H344.125V89.108ZM354.862 91.3239V87.4545H355.868V94H354.862V92.892H354.794C354.64 93.2244 354.402 93.5071 354.078 93.7401C353.754 93.9702 353.345 94.0852 352.85 94.0852C352.441 94.0852 352.078 93.9957 351.76 93.8168C351.441 93.6349 351.191 93.3622 351.01 92.9986C350.828 92.6321 350.737 92.1705 350.737 91.6136V87.4545H351.743V91.5455C351.743 92.0227 351.876 92.4034 352.143 92.6875C352.413 92.9716 352.757 93.1136 353.174 93.1136C353.424 93.1136 353.679 93.0497 353.937 92.9219C354.199 92.794 354.417 92.598 354.593 92.3338C354.772 92.0696 354.862 91.733 354.862 91.3239ZM357.71 94V87.4545H358.715V94H357.71ZM358.221 86.3636C358.025 86.3636 357.856 86.2969 357.714 86.1634C357.575 86.0298 357.505 85.8693 357.505 85.6818C357.505 85.4943 357.575 85.3338 357.714 85.2003C357.856 85.0668 358.025 85 358.221 85C358.417 85 358.585 85.0668 358.724 85.2003C358.866 85.3338 358.937 85.4943 358.937 85.6818C358.937 85.8693 358.866 86.0298 358.724 86.1634C358.585 86.2969 358.417 86.3636 358.221 86.3636ZM361.563 85.2727V94H360.557V85.2727H361.563ZM366.251 87.4545V88.3068H362.859V87.4545H366.251ZM363.848 85.8864H364.854V92.125C364.854 92.4091 364.895 92.6222 364.977 92.7642C365.063 92.9034 365.17 92.9972 365.301 93.0455C365.435 93.0909 365.575 93.1136 365.723 93.1136C365.834 93.1136 365.925 93.108 365.996 93.0966C366.067 93.0824 366.124 93.071 366.166 93.0625L366.371 93.9659C366.303 93.9915 366.207 94.017 366.085 94.0426C365.963 94.071 365.808 94.0852 365.621 94.0852C365.337 94.0852 365.058 94.0241 364.786 93.902C364.516 93.7798 364.291 93.5938 364.112 93.3438C363.936 93.0938 363.848 92.7784 363.848 92.3977V85.8864ZM50.4034 109L48.4091 102.455H49.4659L50.8807 107.466H50.9489L52.3466 102.455H53.4205L54.8011 107.449H54.8693L56.2841 102.455H57.3409L55.3466 109H54.358L52.9261 103.972H52.8239L51.392 109H50.4034ZM58.6705 109V102.455H59.6761V109H58.6705ZM59.1818 101.364C58.9858 101.364 58.8168 101.297 58.6747 101.163C58.5355 101.03 58.4659 100.869 58.4659 100.682C58.4659 100.494 58.5355 100.334 58.6747 100.2C58.8168 100.067 58.9858 100 59.1818 100C59.3778 100 59.5455 100.067 59.6847 100.2C59.8267 100.334 59.8977 100.494 59.8977 100.682C59.8977 100.869 59.8267 101.03 59.6847 101.163C59.5455 101.297 59.3778 101.364 59.1818 101.364ZM64.3647 102.455V103.307H60.9727V102.455H64.3647ZM61.9613 100.886H62.967V107.125C62.967 107.409 63.0082 107.622 63.0906 107.764C63.1758 107.903 63.2837 107.997 63.4144 108.045C63.5479 108.091 63.6886 108.114 63.8363 108.114C63.9471 108.114 64.038 108.108 64.109 108.097C64.18 108.082 64.2369 108.071 64.2795 108.062L64.484 108.966C64.4158 108.991 64.3207 109.017 64.1985 109.043C64.0763 109.071 63.9215 109.085 63.734 109.085C63.4499 109.085 63.1715 109.024 62.8988 108.902C62.6289 108.78 62.4045 108.594 62.2255 108.344C62.0494 108.094 61.9613 107.778 61.9613 107.398V100.886ZM67.0238 105.062V109H66.0181V100.273H67.0238V103.477H67.109C67.2624 103.139 67.4925 102.871 67.7994 102.672C68.109 102.47 68.521 102.369 69.0352 102.369C69.4812 102.369 69.8718 102.459 70.207 102.638C70.5423 102.814 70.8022 103.085 70.9869 103.452C71.1744 103.815 71.2681 104.278 71.2681 104.841V109H70.2624V104.909C70.2624 104.389 70.1275 103.987 69.8576 103.703C69.5906 103.416 69.2198 103.273 68.7454 103.273C68.4158 103.273 68.1204 103.342 67.859 103.482C67.6005 103.621 67.396 103.824 67.2454 104.091C67.0977 104.358 67.0238 104.682 67.0238 105.062ZM79.3125 109H76.6193V100.273H79.4318C80.2784 100.273 81.0028 100.447 81.6051 100.797C82.2074 101.143 82.669 101.642 82.9901 102.293C83.3111 102.94 83.4716 103.716 83.4716 104.619C83.4716 105.528 83.3097 106.311 82.9858 106.967C82.6619 107.621 82.1903 108.124 81.571 108.476C80.9517 108.825 80.1989 109 79.3125 109ZM77.6761 108.062H79.2443C79.9659 108.062 80.5639 107.923 81.0384 107.645C81.5128 107.366 81.8665 106.97 82.0994 106.456C82.3324 105.942 82.4489 105.33 82.4489 104.619C82.4489 103.915 82.3338 103.308 82.1037 102.8C81.8736 102.288 81.5298 101.896 81.0724 101.624C80.6151 101.348 80.0455 101.21 79.3636 101.21H77.6761V108.062ZM85.108 102.455H86.1136V109.477C86.1136 109.881 86.044 110.23 85.9048 110.526C85.7685 110.821 85.5611 111.05 85.2827 111.212C85.0071 111.374 84.6591 111.455 84.2386 111.455C84.2045 111.455 84.1705 111.455 84.1364 111.455C84.1023 111.455 84.0682 111.455 84.0341 111.455V110.517C84.0682 110.517 84.0994 110.517 84.1278 110.517C84.1562 110.517 84.1875 110.517 84.2216 110.517C84.5284 110.517 84.7528 110.426 84.8949 110.244C85.0369 110.065 85.108 109.81 85.108 109.477V102.455ZM85.6023 101.364C85.4063 101.364 85.2372 101.297 85.0952 101.163C84.956 101.03 84.8864 100.869 84.8864 100.682C84.8864 100.494 84.956 100.334 85.0952 100.2C85.2372 100.067 85.4063 100 85.6023 100C85.7983 100 85.9659 100.067 86.1051 100.2C86.2472 100.334 86.3182 100.494 86.3182 100.682C86.3182 100.869 86.2472 101.03 86.1051 101.163C85.9659 101.297 85.7983 101.364 85.6023 101.364ZM89.8817 109.153C89.467 109.153 89.0906 109.075 88.7525 108.919C88.4144 108.76 88.146 108.531 87.9471 108.233C87.7482 107.932 87.6488 107.568 87.6488 107.142C87.6488 106.767 87.7227 106.463 87.8704 106.23C88.0181 105.994 88.2156 105.81 88.4627 105.676C88.7099 105.543 88.9826 105.443 89.2809 105.378C89.582 105.31 89.8846 105.256 90.1886 105.216C90.5863 105.165 90.9087 105.126 91.1559 105.101C91.4059 105.072 91.5877 105.026 91.7013 104.96C91.8178 104.895 91.8761 104.781 91.8761 104.619V104.585C91.8761 104.165 91.761 103.838 91.5309 103.605C91.3036 103.372 90.9585 103.256 90.4954 103.256C90.0153 103.256 89.6388 103.361 89.3661 103.571C89.0934 103.781 88.9016 104.006 88.7908 104.244L87.8363 103.903C88.0067 103.506 88.234 103.196 88.5181 102.974C88.805 102.75 89.1175 102.594 89.4556 102.506C89.7965 102.415 90.1317 102.369 90.4613 102.369C90.6715 102.369 90.913 102.395 91.1857 102.446C91.4613 102.494 91.7269 102.595 91.9826 102.749C92.2411 102.902 92.4556 103.134 92.6261 103.443C92.7965 103.753 92.8817 104.168 92.8817 104.688V109H91.8761V108.114H91.8249C91.7567 108.256 91.6431 108.408 91.484 108.57C91.3249 108.732 91.1133 108.869 90.8491 108.983C90.5849 109.097 90.2624 109.153 89.8817 109.153ZM90.0352 108.25C90.4329 108.25 90.7681 108.172 91.0408 108.016C91.3164 107.859 91.5238 107.658 91.663 107.411C91.805 107.163 91.8761 106.903 91.8761 106.631V105.71C91.8335 105.761 91.7397 105.808 91.5948 105.851C91.4528 105.891 91.288 105.926 91.1005 105.957C90.9158 105.986 90.7354 106.011 90.5593 106.034C90.386 106.054 90.2454 106.071 90.1374 106.085C89.8761 106.119 89.6317 106.175 89.4045 106.251C89.18 106.325 88.9982 106.437 88.859 106.588C88.7227 106.736 88.6545 106.937 88.6545 107.193C88.6545 107.543 88.7837 107.807 89.0423 107.986C89.3036 108.162 89.6346 108.25 90.0352 108.25ZM95.723 105.062V109H94.7173V102.455H95.6889V103.477H95.7741C95.9276 103.145 96.1605 102.878 96.473 102.676C96.7855 102.472 97.1889 102.369 97.6832 102.369C98.1264 102.369 98.5142 102.46 98.8466 102.642C99.179 102.821 99.4375 103.094 99.6222 103.46C99.8068 103.824 99.8991 104.284 99.8991 104.841V109H98.8935V104.909C98.8935 104.395 98.7599 103.994 98.4929 103.707C98.2259 103.418 97.8594 103.273 97.3935 103.273C97.0724 103.273 96.7855 103.342 96.5327 103.482C96.2827 103.621 96.0852 103.824 95.9403 104.091C95.7955 104.358 95.723 104.682 95.723 105.062ZM104.379 111.591C103.893 111.591 103.475 111.528 103.126 111.403C102.777 111.281 102.485 111.119 102.252 110.918C102.022 110.719 101.839 110.506 101.703 110.278L102.504 109.716C102.595 109.835 102.71 109.972 102.849 110.125C102.988 110.281 103.179 110.416 103.42 110.53C103.664 110.646 103.984 110.705 104.379 110.705C104.907 110.705 105.343 110.577 105.687 110.321C106.031 110.065 106.203 109.665 106.203 109.119V107.79H106.118C106.044 107.909 105.939 108.057 105.802 108.233C105.669 108.406 105.475 108.561 105.223 108.697C104.973 108.831 104.635 108.898 104.208 108.898C103.68 108.898 103.206 108.773 102.785 108.523C102.368 108.273 102.037 107.909 101.792 107.432C101.551 106.955 101.43 106.375 101.43 105.693C101.43 105.023 101.548 104.439 101.784 103.942C102.02 103.442 102.348 103.055 102.768 102.783C103.189 102.507 103.674 102.369 104.225 102.369C104.652 102.369 104.99 102.44 105.24 102.582C105.493 102.722 105.686 102.881 105.819 103.06C105.956 103.236 106.061 103.381 106.135 103.494H106.237V102.455H107.208V109.188C107.208 109.75 107.081 110.207 106.825 110.56C106.572 110.915 106.231 111.175 105.802 111.339C105.376 111.507 104.902 111.591 104.379 111.591ZM104.345 107.994C104.748 107.994 105.089 107.902 105.368 107.717C105.646 107.533 105.858 107.267 106.002 106.92C106.147 106.574 106.22 106.159 106.22 105.676C106.22 105.205 106.149 104.788 106.007 104.428C105.865 104.067 105.654 103.784 105.376 103.58C105.098 103.375 104.754 103.273 104.345 103.273C103.919 103.273 103.564 103.381 103.279 103.597C102.998 103.812 102.787 104.102 102.645 104.466C102.505 104.83 102.436 105.233 102.436 105.676C102.436 106.131 102.507 106.533 102.649 106.882C102.794 107.229 103.007 107.501 103.288 107.7C103.572 107.896 103.924 107.994 104.345 107.994ZM111.708 109.136C111.118 109.136 110.599 108.996 110.153 108.714C109.71 108.433 109.363 108.04 109.113 107.534C108.866 107.028 108.743 106.437 108.743 105.761C108.743 105.08 108.866 104.484 109.113 103.976C109.363 103.467 109.71 103.072 110.153 102.791C110.599 102.51 111.118 102.369 111.708 102.369C112.299 102.369 112.816 102.51 113.26 102.791C113.706 103.072 114.052 103.467 114.299 103.976C114.549 104.484 114.674 105.08 114.674 105.761C114.674 106.437 114.549 107.028 114.299 107.534C114.052 108.04 113.706 108.433 113.26 108.714C112.816 108.996 112.299 109.136 111.708 109.136ZM111.708 108.233C112.157 108.233 112.527 108.118 112.816 107.888C113.106 107.658 113.321 107.355 113.46 106.98C113.599 106.605 113.669 106.199 113.669 105.761C113.669 105.324 113.599 104.916 113.46 104.538C113.321 104.161 113.106 103.855 112.816 103.622C112.527 103.389 112.157 103.273 111.708 103.273C111.26 103.273 110.89 103.389 110.6 103.622C110.311 103.855 110.096 104.161 109.957 104.538C109.818 104.916 109.748 105.324 109.748 105.761C109.748 106.199 109.818 106.605 109.957 106.98C110.096 107.355 110.311 107.658 110.6 107.888C110.89 108.118 111.26 108.233 111.708 108.233Z" fill="#363636"/>
<circle cx="36" cy="27" r="4" fill="#FF5F56"/>
<circle cx="48" cy="27" r="4" fill="#FFBD2E"/>
<circle cx="60" cy="27" r="4" fill="#27C93F"/>
</g>
<defs>
<filter id="filter0_d_309_202" x="0" y="0" width="420" height="150" filterUnits="userSpaceOnUse" color-interpolation-filters="sRGB">
<feFlood flood-opacity="0" result="BackgroundImageFix"/>
<feColorMatrix in="SourceAlpha" type="matrix" values="0 0 0 0 0 0 0 0 0 0 0 0 0 0 0 0 0 0 127 0" result="hardAlpha"/>
<feOffset dy="4"/>
<feGaussianBlur stdDeviation="7.5"/>
<feComposite in2="hardAlpha" operator="out"/>
<feColorMatrix type="matrix" values="0 0 0 0 0 0 0 0 0 0 0 0 0 0 0 0 0 0 0.1 0"/>
<feBlend mode="normal" in2="BackgroundImageFix" result="effect1_dropShadow_309_202"/>
<feBlend mode="normal" in="SourceGraphic" in2="effect1_dropShadow_309_202" result="shape"/>
</filter>
</defs>
</svg>
