<svg width="420" height="150" viewBox="0 0 420 150" fill="none" xmlns="http://www.w3.org/2000/svg">
<g filter="url(#filter0_d_309_207)">
<rect x="15" y="11" width="390" height="120" rx="8" fill="white"/>
<path d="M49.1477 68V56.3636H53.5114C54.4053 56.3636 55.1553 56.5303 55.7614 56.8636C56.3712 57.197 56.8314 57.6553 57.142 58.2386C57.4564 58.8182 57.6136 59.4773 57.6136 60.2159C57.6136 60.9621 57.4564 61.625 57.142 62.2045C56.8277 62.7841 56.3636 63.2405 55.75 63.5739C55.1364 63.9034 54.3807 64.0682 53.483 64.0682H50.5909V62.3352H53.1989C53.7216 62.3352 54.1496 62.2443 54.483 62.0625C54.8163 61.8807 55.0625 61.6307 55.2216 61.3125C55.3845 60.9943 55.4659 60.6288 55.4659 60.2159C55.4659 59.803 55.3845 59.4394 55.2216 59.125C55.0625 58.8106 54.8144 58.5663 54.4773 58.392C54.1439 58.214 53.714 58.125 53.1875 58.125H51.2557V68H49.1477ZM61.7088 68.1761C61.1558 68.1761 60.6577 68.0777 60.2145 67.8807C59.7751 67.6799 59.4266 67.3845 59.169 66.9943C58.9152 66.6042 58.7884 66.1231 58.7884 65.5511C58.7884 65.0587 58.8793 64.6515 59.0611 64.3295C59.2429 64.0076 59.491 63.75 59.8054 63.5568C60.1198 63.3636 60.474 63.2178 60.8679 63.1193C61.2656 63.017 61.6766 62.9432 62.1009 62.8977C62.6122 62.8447 63.027 62.7973 63.3452 62.7557C63.6634 62.7102 63.8944 62.642 64.0384 62.5511C64.1861 62.4564 64.2599 62.3106 64.2599 62.1136V62.0795C64.2599 61.6515 64.133 61.3201 63.8793 61.0852C63.6255 60.8504 63.2599 60.733 62.7827 60.733C62.2789 60.733 61.8793 60.8428 61.5838 61.0625C61.2921 61.2822 61.0952 61.5417 60.9929 61.8409L59.0724 61.5682C59.224 61.0379 59.474 60.5947 59.8224 60.2386C60.1709 59.8788 60.5971 59.6098 61.1009 59.4318C61.6046 59.25 62.1615 59.1591 62.7713 59.1591C63.1918 59.1591 63.6103 59.2083 64.027 59.3068C64.4437 59.4053 64.8243 59.5682 65.169 59.7955C65.5137 60.0189 65.7902 60.3239 65.9986 60.7102C66.2107 61.0966 66.3168 61.5795 66.3168 62.1591V68H64.3395V66.8011H64.2713C64.1463 67.0436 63.9702 67.2708 63.7429 67.483C63.5194 67.6913 63.2372 67.8598 62.8963 67.9886C62.5592 68.1136 62.1634 68.1761 61.7088 68.1761ZM62.2429 66.6648C62.6558 66.6648 63.0137 66.5833 63.3168 66.4205C63.6198 66.2538 63.8527 66.0341 64.0156 65.7614C64.1823 65.4886 64.2656 65.1913 64.2656 64.8693V63.8409C64.2012 63.8939 64.0914 63.9432 63.9361 63.9886C63.7846 64.0341 63.6141 64.0739 63.4247 64.108C63.2353 64.142 63.0478 64.1723 62.8622 64.1989C62.6766 64.2254 62.5156 64.2481 62.3793 64.267C62.0724 64.3087 61.7978 64.3769 61.5554 64.4716C61.313 64.5663 61.1217 64.6989 60.9815 64.8693C60.8414 65.036 60.7713 65.2519 60.7713 65.517C60.7713 65.8958 60.9096 66.1818 61.1861 66.375C61.4626 66.5682 61.8149 66.6648 62.2429 66.6648ZM75.2827 61.5795L73.4077 61.7841C73.3546 61.5947 73.2618 61.4167 73.1293 61.25C73.0005 61.0833 72.8262 60.9489 72.6065 60.8466C72.3868 60.7443 72.1179 60.6932 71.7997 60.6932C71.3717 60.6932 71.0118 60.786 70.7202 60.9716C70.4323 61.1572 70.2902 61.3977 70.294 61.6932C70.2902 61.947 70.383 62.1534 70.5724 62.3125C70.7656 62.4716 71.0838 62.6023 71.527 62.7045L73.0156 63.0227C73.8414 63.2008 74.455 63.483 74.8565 63.8693C75.2618 64.2557 75.4664 64.7614 75.4702 65.3864C75.4664 65.9356 75.3054 66.4205 74.9872 66.8409C74.6728 67.2576 74.2353 67.5833 73.6747 67.8182C73.1141 68.053 72.4702 68.1705 71.7429 68.1705C70.6747 68.1705 69.8149 67.947 69.1634 67.5C68.5118 67.0492 68.1236 66.4223 67.9986 65.6193L70.0043 65.4261C70.0952 65.8201 70.2884 66.1174 70.5838 66.3182C70.8793 66.5189 71.2637 66.6193 71.7372 66.6193C72.2259 66.6193 72.6179 66.5189 72.9134 66.3182C73.2126 66.1174 73.3622 65.8693 73.3622 65.5739C73.3622 65.3239 73.2656 65.1174 73.0724 64.9545C72.883 64.7917 72.5876 64.6667 72.1861 64.5795L70.6974 64.267C69.8603 64.0928 69.241 63.7992 68.8395 63.3864C68.438 62.9697 68.2391 62.4432 68.2429 61.8068C68.2391 61.2689 68.3849 60.803 68.6804 60.4091C68.9796 60.0114 69.3944 59.7045 69.9247 59.4886C70.4588 59.2689 71.0743 59.1591 71.7713 59.1591C72.794 59.1591 73.599 59.3769 74.1861 59.8125C74.777 60.2481 75.1425 60.8371 75.2827 61.5795ZM81.5241 59.2727V60.8636H76.5071V59.2727H81.5241ZM77.7457 57.1818H79.8026V65.375C79.8026 65.6515 79.8442 65.8636 79.9276 66.0114C80.0147 66.1553 80.1283 66.2538 80.2685 66.3068C80.4086 66.3598 80.5639 66.3864 80.7344 66.3864C80.8632 66.3864 80.9806 66.3769 81.0866 66.358C81.1965 66.339 81.2798 66.322 81.3366 66.3068L81.6832 67.9148C81.5734 67.9527 81.4162 67.9943 81.2116 68.0398C81.0109 68.0852 80.7647 68.1117 80.473 68.1193C79.9579 68.1345 79.4938 68.0568 79.081 67.8864C78.6681 67.7121 78.3404 67.4432 78.098 67.0795C77.8594 66.7159 77.742 66.2614 77.7457 65.7159V57.1818ZM87.0142 68.1705C86.1392 68.1705 85.3835 67.9886 84.7472 67.625C84.1146 67.2576 83.6278 66.7386 83.2869 66.0682C82.946 65.3939 82.7756 64.6004 82.7756 63.6875C82.7756 62.7898 82.946 62.0019 83.2869 61.3239C83.6316 60.642 84.1127 60.1117 84.7301 59.733C85.3475 59.3504 86.0729 59.1591 86.9062 59.1591C87.4441 59.1591 87.9517 59.2462 88.429 59.4205C88.91 59.5909 89.3343 59.8561 89.7017 60.2159C90.0729 60.5758 90.3646 61.0341 90.5767 61.5909C90.7888 62.1439 90.8949 62.803 90.8949 63.5682V64.1989H83.7415V62.8125H88.9233C88.9195 62.4186 88.8343 62.0682 88.6676 61.7614C88.5009 61.4508 88.268 61.2064 87.9688 61.0284C87.6733 60.8504 87.3286 60.7614 86.9347 60.7614C86.5142 60.7614 86.1449 60.8636 85.8267 61.0682C85.5085 61.2689 85.2604 61.5341 85.0824 61.8636C84.9081 62.1894 84.8191 62.5473 84.8153 62.9375V64.1477C84.8153 64.6553 84.9081 65.0909 85.0938 65.4545C85.2794 65.8144 85.5388 66.0909 85.8722 66.2841C86.2055 66.4735 86.5956 66.5682 87.0426 66.5682C87.3419 66.5682 87.6127 66.5265 87.8551 66.4432C88.0975 66.3561 88.3078 66.2292 88.4858 66.0625C88.6638 65.8958 88.7983 65.6894 88.8892 65.4432L90.8097 65.6591C90.6884 66.1667 90.4574 66.6098 90.1165 66.9886C89.7794 67.3636 89.3475 67.6553 88.821 67.8636C88.2945 68.0682 87.6922 68.1705 87.0142 68.1705ZM94.6918 56.3636V68H92.6349V56.3636H94.6918ZM100.67 68.1705C99.7955 68.1705 99.0398 67.9886 98.4034 67.625C97.7708 67.2576 97.2841 66.7386 96.9432 66.0682C96.6023 65.3939 96.4318 64.6004 96.4318 63.6875C96.4318 62.7898 96.6023 62.0019 96.9432 61.3239C97.2879 60.642 97.7689 60.1117 98.3864 59.733C99.0038 59.3504 99.7292 59.1591 100.562 59.1591C101.1 59.1591 101.608 59.2462 102.085 59.4205C102.566 59.5909 102.991 59.8561 103.358 60.2159C103.729 60.5758 104.021 61.0341 104.233 61.5909C104.445 62.1439 104.551 62.803 104.551 63.5682V64.1989H97.3977V62.8125H102.58C102.576 62.4186 102.491 62.0682 102.324 61.7614C102.157 61.4508 101.924 61.2064 101.625 61.0284C101.33 60.8504 100.985 60.7614 100.591 60.7614C100.17 60.7614 99.8011 60.8636 99.483 61.0682C99.1648 61.2689 98.9167 61.5341 98.7386 61.8636C98.5644 62.1894 98.4754 62.5473 98.4716 62.9375V64.1477C98.4716 64.6553 98.5644 65.0909 98.75 65.4545C98.9356 65.8144 99.1951 66.0909 99.5284 66.2841C99.8617 66.4735 100.252 66.5682 100.699 66.5682C100.998 66.5682 101.269 66.5265 101.511 66.4432C101.754 66.3561 101.964 66.2292 102.142 66.0625C102.32 65.8958 102.455 65.6894 102.545 65.4432L104.466 65.6591C104.345 66.1667 104.114 66.6098 103.773 66.9886C103.436 67.3636 103.004 67.6553 102.477 67.8636C101.951 68.0682 101.348 68.1705 100.67 68.1705ZM106.291 68V59.2727H108.286V60.7273H108.376C108.536 60.2235 108.808 59.8352 109.195 59.5625C109.585 59.286 110.03 59.1477 110.53 59.1477C110.643 59.1477 110.77 59.1534 110.911 59.1648C111.054 59.1723 111.174 59.1856 111.268 59.2045V61.0966C111.181 61.0663 111.043 61.0398 110.854 61.017C110.668 60.9905 110.488 60.9773 110.314 60.9773C109.939 60.9773 109.602 61.0587 109.303 61.2216C109.007 61.3807 108.774 61.6023 108.604 61.8864C108.433 62.1705 108.348 62.4981 108.348 62.8693V68H106.291ZM112.635 68V59.2727H114.692V68H112.635ZM112.879 58.125L114.152 55.5284H116.163L114.419 58.125H112.879ZM119.318 68.1761C118.765 68.1761 118.267 68.0777 117.824 67.8807C117.384 67.6799 117.036 67.3845 116.778 66.9943C116.525 66.6042 116.398 66.1231 116.398 65.5511C116.398 65.0587 116.489 64.6515 116.67 64.3295C116.852 64.0076 117.1 63.75 117.415 63.5568C117.729 63.3636 118.083 63.2178 118.477 63.1193C118.875 63.017 119.286 62.9432 119.71 62.8977C120.222 62.8447 120.636 62.7973 120.955 62.7557C121.273 62.7102 121.504 62.642 121.648 62.5511C121.795 62.4564 121.869 62.3106 121.869 62.1136V62.0795C121.869 61.6515 121.742 61.3201 121.489 61.0852C121.235 60.8504 120.869 60.733 120.392 60.733C119.888 60.733 119.489 60.8428 119.193 61.0625C118.902 61.2822 118.705 61.5417 118.602 61.8409L116.682 61.5682C116.833 61.0379 117.083 60.5947 117.432 60.2386C117.78 59.8788 118.206 59.6098 118.71 59.4318C119.214 59.25 119.771 59.1591 120.381 59.1591C120.801 59.1591 121.22 59.2083 121.636 59.3068C122.053 59.4053 122.434 59.5682 122.778 59.7955C123.123 60.0189 123.4 60.3239 123.608 60.7102C123.82 61.0966 123.926 61.5795 123.926 62.1591V68H121.949V66.8011H121.881C121.756 67.0436 121.58 67.2708 121.352 67.483C121.129 67.6913 120.847 67.8598 120.506 67.9886C120.169 68.1136 119.773 68.1761 119.318 68.1761ZM119.852 66.6648C120.265 66.6648 120.623 66.5833 120.926 66.4205C121.229 66.2538 121.462 66.0341 121.625 65.7614C121.792 65.4886 121.875 65.1913 121.875 64.8693V63.8409C121.811 63.8939 121.701 63.9432 121.545 63.9886C121.394 64.0341 121.223 64.0739 121.034 64.108C120.845 64.142 120.657 64.1723 120.472 64.1989C120.286 64.2254 120.125 64.2481 119.989 64.267C119.682 64.3087 119.407 64.3769 119.165 64.4716C118.922 64.5663 118.731 64.6989 118.591 64.8693C118.451 65.036 118.381 65.2519 118.381 65.517C118.381 65.8958 118.519 66.1818 118.795 66.375C119.072 66.5682 119.424 66.6648 119.852 66.6648ZM130.054 68V56.3636H134.509C135.349 56.3636 136.048 56.4962 136.605 56.7614C137.166 57.0227 137.584 57.3807 137.861 57.8352C138.141 58.2898 138.281 58.8049 138.281 59.3807C138.281 59.8542 138.19 60.2595 138.009 60.5966C137.827 60.9299 137.582 61.2008 137.276 61.4091C136.969 61.6174 136.626 61.767 136.247 61.858V61.9716C136.66 61.9943 137.056 62.1212 137.435 62.3523C137.817 62.5795 138.13 62.9015 138.372 63.3182C138.615 63.7348 138.736 64.2386 138.736 64.8295C138.736 65.4318 138.59 65.9735 138.298 66.4545C138.007 66.9318 137.567 67.3087 136.98 67.5852C136.393 67.8617 135.654 68 134.764 68H130.054ZM132.162 66.2386H134.429C135.194 66.2386 135.745 66.0928 136.082 65.8011C136.423 65.5057 136.594 65.1269 136.594 64.6648C136.594 64.3201 136.509 64.0095 136.338 63.733C136.168 63.4527 135.925 63.233 135.611 63.0739C135.296 62.911 134.921 62.8295 134.486 62.8295H132.162V66.2386ZM132.162 61.3125H134.247C134.611 61.3125 134.938 61.2462 135.23 61.1136C135.522 60.9773 135.751 60.786 135.918 60.5398C136.088 60.2898 136.173 59.9943 136.173 59.6534C136.173 59.2027 136.014 58.8314 135.696 58.5398C135.382 58.2481 134.914 58.1023 134.293 58.1023H132.162V61.3125ZM144.342 68.1705C143.467 68.1705 142.712 67.9886 142.075 67.625C141.443 67.2576 140.956 66.7386 140.615 66.0682C140.274 65.3939 140.104 64.6004 140.104 63.6875C140.104 62.7898 140.274 62.0019 140.615 61.3239C140.96 60.642 141.441 60.1117 142.058 59.733C142.676 59.3504 143.401 59.1591 144.234 59.1591C144.772 59.1591 145.28 59.2462 145.757 59.4205C146.238 59.5909 146.662 59.8561 147.03 60.2159C147.401 60.5758 147.693 61.0341 147.905 61.5909C148.117 62.1439 148.223 62.803 148.223 63.5682V64.1989H141.07V62.8125H146.251C146.248 62.4186 146.162 62.0682 145.996 61.7614C145.829 61.4508 145.596 61.2064 145.297 61.0284C145.001 60.8504 144.657 60.7614 144.263 60.7614C143.842 60.7614 143.473 60.8636 143.155 61.0682C142.837 61.2689 142.589 61.5341 142.411 61.8636C142.236 62.1894 142.147 62.5473 142.143 62.9375V64.1477C142.143 64.6553 142.236 65.0909 142.422 65.4545C142.607 65.8144 142.867 66.0909 143.2 66.2841C143.534 66.4735 143.924 66.5682 144.371 66.5682C144.67 66.5682 144.941 66.5265 145.183 66.4432C145.426 66.3561 145.636 66.2292 145.814 66.0625C145.992 65.8958 146.126 65.6894 146.217 65.4432L148.138 65.6591C148.017 66.1667 147.786 66.6098 147.445 66.9886C147.107 67.3636 146.676 67.6553 146.149 67.8636C145.623 68.0682 145.02 68.1705 144.342 68.1705ZM153.202 68.1534C152.516 68.1534 151.902 67.9773 151.361 67.625C150.819 67.2727 150.391 66.7614 150.077 66.0909C149.762 65.4205 149.605 64.6061 149.605 63.6477C149.605 62.678 149.764 61.8598 150.082 61.1932C150.404 60.5227 150.838 60.017 151.384 59.6761C151.929 59.3314 152.537 59.1591 153.207 59.1591C153.719 59.1591 154.139 59.2462 154.469 59.4205C154.798 59.5909 155.06 59.7973 155.253 60.0398C155.446 60.2784 155.596 60.5038 155.702 60.7159H155.787V56.3636H157.849V68H155.827V66.625H155.702C155.596 66.8371 155.442 67.0625 155.241 67.3011C155.041 67.536 154.776 67.7367 154.446 67.9034C154.116 68.0701 153.702 68.1534 153.202 68.1534ZM153.776 66.4659C154.211 66.4659 154.582 66.3485 154.889 66.1136C155.196 65.875 155.429 65.5436 155.588 65.1193C155.747 64.6951 155.827 64.2008 155.827 63.6364C155.827 63.072 155.747 62.5814 155.588 62.1648C155.433 61.7481 155.202 61.4242 154.895 61.1932C154.592 60.9621 154.219 60.8466 153.776 60.8466C153.317 60.8466 152.935 60.9659 152.628 61.2045C152.321 61.4432 152.09 61.7727 151.935 62.1932C151.779 62.6136 151.702 63.0947 151.702 63.6364C151.702 64.1818 151.779 64.6686 151.935 65.0966C152.094 65.5208 152.327 65.8561 152.634 66.1023C152.944 66.3447 153.325 66.4659 153.776 66.4659ZM165.604 64.3295V59.2727H167.661V68H165.666V66.4489H165.575C165.378 66.9375 165.054 67.3371 164.604 67.6477C164.157 67.9583 163.606 68.1136 162.95 68.1136C162.378 68.1136 161.873 67.9867 161.433 67.733C160.998 67.4754 160.657 67.1023 160.411 66.6136C160.164 66.1212 160.041 65.5265 160.041 64.8295V59.2727H162.098V64.5114C162.098 65.0644 162.25 65.5038 162.553 65.8295C162.856 66.1553 163.253 66.3182 163.746 66.3182C164.049 66.3182 164.342 66.2443 164.626 66.0966C164.911 65.9489 165.143 65.7292 165.325 65.4375C165.511 65.142 165.604 64.7727 165.604 64.3295Z" fill="#363636"/>
<path d="M49.0568 94V85.2727H52.108C52.7159 85.2727 53.2173 85.3778 53.6122 85.5881C54.0071 85.7955 54.3011 86.0753 54.4943 86.4276C54.6875 86.777 54.7841 87.1648 54.7841 87.5909C54.7841 87.9659 54.7173 88.2756 54.5838 88.5199C54.4531 88.7642 54.2798 88.9574 54.0639 89.0994C53.8509 89.2415 53.6193 89.3466 53.3693 89.4148V89.5C53.6364 89.517 53.9048 89.6108 54.1747 89.7812C54.4446 89.9517 54.6705 90.196 54.8523 90.5142C55.0341 90.8324 55.125 91.2216 55.125 91.6818C55.125 92.1193 55.0256 92.5128 54.8267 92.8622C54.6278 93.2116 54.3139 93.4886 53.8849 93.6932C53.456 93.8977 52.8977 94 52.2102 94H49.0568ZM50.1136 93.0625H52.2102C52.9006 93.0625 53.3906 92.929 53.6804 92.6619C53.973 92.392 54.1193 92.0653 54.1193 91.6818C54.1193 91.3864 54.044 91.1136 53.8935 90.8636C53.7429 90.6108 53.5284 90.4091 53.25 90.2585C52.9716 90.1051 52.642 90.0284 52.2614 90.0284H50.1136V93.0625ZM50.1136 89.108H52.0739C52.392 89.108 52.679 89.0455 52.9347 88.9205C53.1932 88.7955 53.3977 88.6193 53.5483 88.392C53.7017 88.1648 53.7784 87.8977 53.7784 87.5909C53.7784 87.2074 53.6449 86.8821 53.3778 86.6151C53.1108 86.3452 52.6875 86.2102 52.108 86.2102H50.1136V89.108ZM58.6513 94.1534C58.2365 94.1534 57.8601 94.0753 57.522 93.919C57.1839 93.7599 56.9155 93.5312 56.7166 93.233C56.5178 92.9318 56.4183 92.5682 56.4183 92.142C56.4183 91.767 56.4922 91.4631 56.6399 91.2301C56.7876 90.9943 56.9851 90.8097 57.2322 90.6761C57.4794 90.5426 57.7521 90.4432 58.0504 90.3778C58.3516 90.3097 58.6541 90.2557 58.9581 90.2159C59.3558 90.1648 59.6783 90.1264 59.9254 90.1009C60.1754 90.0724 60.3572 90.0256 60.4709 89.9602C60.5874 89.8949 60.6456 89.7812 60.6456 89.6193V89.5852C60.6456 89.1648 60.5305 88.8381 60.3004 88.6051C60.0732 88.3722 59.728 88.2557 59.2649 88.2557C58.7848 88.2557 58.4084 88.3608 58.1357 88.571C57.8629 88.7812 57.6712 89.0057 57.5604 89.2443L56.6058 88.9034C56.7763 88.5057 57.0036 88.196 57.2876 87.9744C57.5746 87.75 57.8871 87.5937 58.2251 87.5057C58.5661 87.4148 58.9013 87.3693 59.2308 87.3693C59.4411 87.3693 59.6825 87.3949 59.9553 87.446C60.2308 87.4943 60.4964 87.5952 60.7521 87.7486C61.0107 87.902 61.2251 88.1335 61.3956 88.4432C61.5661 88.7528 61.6513 89.1676 61.6513 89.6875V94H60.6456V93.1136H60.5945C60.5263 93.2557 60.4126 93.4077 60.2536 93.5696C60.0945 93.7315 59.8828 93.8693 59.6186 93.983C59.3544 94.0966 59.032 94.1534 58.6513 94.1534ZM58.8047 93.25C59.2024 93.25 59.5376 93.1719 59.8104 93.0156C60.0859 92.8594 60.2933 92.6577 60.4325 92.4105C60.5746 92.1634 60.6456 91.9034 60.6456 91.6307V90.7102C60.603 90.7614 60.5092 90.8082 60.3643 90.8509C60.2223 90.8906 60.0575 90.9261 59.87 90.9574C59.6854 90.9858 59.505 91.0114 59.3288 91.0341C59.1555 91.054 59.0149 91.071 58.907 91.0852C58.6456 91.1193 58.4013 91.1747 58.174 91.2514C57.9496 91.3253 57.7678 91.4375 57.6286 91.5881C57.4922 91.7358 57.424 91.9375 57.424 92.1932C57.424 92.5426 57.5533 92.8068 57.8118 92.9858C58.0732 93.1619 58.4041 93.25 58.8047 93.25ZM64.4244 91.6136L64.4073 90.3693H64.6119L67.4755 87.4545H68.7198L65.6687 90.5398H65.5835L64.4244 91.6136ZM63.4869 94V85.2727H64.4925V94H63.4869ZM67.646 94L65.0891 90.7614L65.805 90.0625L68.9244 94H67.646ZM72.489 94.1364C71.8583 94.1364 71.3143 93.9972 70.8569 93.7188C70.4023 93.4375 70.0515 93.0455 69.8043 92.5426C69.56 92.0369 69.4379 91.4489 69.4379 90.7784C69.4379 90.108 69.56 89.517 69.8043 89.0057C70.0515 88.4915 70.3952 88.0909 70.8356 87.804C71.2788 87.5142 71.7958 87.3693 72.3867 87.3693C72.7276 87.3693 73.0643 87.4261 73.3967 87.5398C73.729 87.6534 74.0316 87.8381 74.3043 88.0938C74.5771 88.3466 74.7944 88.6818 74.9563 89.0994C75.1183 89.517 75.1992 90.0312 75.1992 90.642V91.0682H70.1538V90.1989H74.1765C74.1765 89.8295 74.1026 89.5 73.9549 89.2102C73.81 88.9205 73.6026 88.6918 73.3327 88.5241C73.0657 88.3565 72.7504 88.2727 72.3867 88.2727C71.9862 88.2727 71.6396 88.3722 71.3469 88.571C71.0572 88.767 70.8342 89.0227 70.6779 89.3381C70.5217 89.6534 70.4435 89.9915 70.4435 90.3523V90.9318C70.4435 91.4261 70.5288 91.8452 70.6992 92.1889C70.8725 92.5298 71.1126 92.7898 71.4194 92.9688C71.7262 93.1449 72.0827 93.233 72.489 93.233C72.7532 93.233 72.9918 93.196 73.2049 93.1222C73.4208 93.0455 73.6069 92.9318 73.7631 92.7812C73.9194 92.6278 74.0401 92.4375 74.1254 92.2102L75.0969 92.483C74.9947 92.8125 74.8228 93.1023 74.5813 93.3523C74.3398 93.5994 74.0415 93.7926 73.6864 93.9318C73.3313 94.0682 72.9322 94.1364 72.489 94.1364ZM84.7404 88.9205L83.837 89.1761C83.7802 89.0256 83.6964 88.8793 83.5856 88.7372C83.4776 88.5923 83.3299 88.473 83.1424 88.3793C82.9549 88.2855 82.7148 88.2386 82.4222 88.2386C82.0217 88.2386 81.6879 88.331 81.4208 88.5156C81.1566 88.6974 81.0245 88.929 81.0245 89.2102C81.0245 89.4602 81.1154 89.6577 81.2972 89.8026C81.479 89.9474 81.7631 90.0682 82.1495 90.1648L83.1211 90.4034C83.7063 90.5455 84.1424 90.7628 84.4293 91.0554C84.7163 91.3452 84.8597 91.7187 84.8597 92.1761C84.8597 92.5511 84.7518 92.8864 84.5359 93.1818C84.3228 93.4773 84.0245 93.7102 83.641 93.8807C83.2575 94.0511 82.8114 94.1364 82.3029 94.1364C81.6353 94.1364 81.0827 93.9915 80.6452 93.7017C80.2077 93.4119 79.9308 92.9886 79.8143 92.4318L80.7688 92.1932C80.8597 92.5455 81.0316 92.8097 81.2844 92.9858C81.5401 93.1619 81.8739 93.25 82.2859 93.25C82.7546 93.25 83.1268 93.1506 83.4023 92.9517C83.6808 92.75 83.82 92.5085 83.82 92.2273C83.82 92 83.7404 91.8097 83.5813 91.6562C83.4222 91.5 83.1779 91.3835 82.8484 91.3068L81.7575 91.0511C81.158 90.9091 80.7177 90.6889 80.4364 90.3906C80.158 90.0895 80.0188 89.7131 80.0188 89.2614C80.0188 88.892 80.1225 88.5653 80.3299 88.2812C80.5401 87.9972 80.8256 87.7741 81.1864 87.6122C81.5501 87.4503 81.962 87.3693 82.4222 87.3693C83.07 87.3693 83.5785 87.5114 83.9478 87.7955C84.32 88.0795 84.5842 88.4545 84.7404 88.9205ZM88.2997 94.1534C87.8849 94.1534 87.5085 94.0753 87.1705 93.919C86.8324 93.7599 86.5639 93.5312 86.3651 93.233C86.1662 92.9318 86.0668 92.5682 86.0668 92.142C86.0668 91.767 86.1406 91.4631 86.2884 91.2301C86.4361 90.9943 86.6335 90.8097 86.8807 90.6761C87.1278 90.5426 87.4006 90.4432 87.6989 90.3778C88 90.3097 88.3026 90.2557 88.6065 90.2159C89.0043 90.1648 89.3267 90.1264 89.5739 90.1009C89.8239 90.0724 90.0057 90.0256 90.1193 89.9602C90.2358 89.8949 90.294 89.7812 90.294 89.6193V89.5852C90.294 89.1648 90.179 88.8381 89.9489 88.6051C89.7216 88.3722 89.3764 88.2557 88.9134 88.2557C88.4332 88.2557 88.0568 88.3608 87.7841 88.571C87.5114 88.7812 87.3196 89.0057 87.2088 89.2443L86.2543 88.9034C86.4247 88.5057 86.652 88.196 86.9361 87.9744C87.223 87.75 87.5355 87.5937 87.8736 87.5057C88.2145 87.4148 88.5497 87.3693 88.8793 87.3693C89.0895 87.3693 89.331 87.3949 89.6037 87.446C89.8793 87.4943 90.1449 87.5952 90.4006 87.7486C90.6591 87.902 90.8736 88.1335 91.044 88.4432C91.2145 88.7528 91.2997 89.1676 91.2997 89.6875V94H90.294V93.1136H90.2429C90.1747 93.2557 90.0611 93.4077 89.902 93.5696C89.7429 93.7315 89.5313 93.8693 89.267 93.983C89.0028 94.0966 88.6804 94.1534 88.2997 94.1534ZM88.4531 93.25C88.8509 93.25 89.1861 93.1719 89.4588 93.0156C89.7344 92.8594 89.9418 92.6577 90.081 92.4105C90.223 92.1634 90.294 91.9034 90.294 91.6307V90.7102C90.2514 90.7614 90.1577 90.8082 90.0128 90.8509C89.8707 90.8906 89.706 90.9261 89.5185 90.9574C89.3338 90.9858 89.1534 91.0114 88.9773 91.0341C88.804 91.054 88.6634 91.071 88.5554 91.0852C88.294 91.1193 88.0497 91.1747 87.8224 91.2514C87.598 91.3253 87.4162 91.4375 87.277 91.5881C87.1406 91.7358 87.0724 91.9375 87.0724 92.1932C87.0724 92.5426 87.2017 92.8068 87.4602 92.9858C87.7216 93.1619 88.0526 93.25 88.4531 93.25ZM94.141 85.2727V94H93.1353V85.2727H94.141ZM98.7273 94.1364C98.0966 94.1364 97.5526 93.9972 97.0952 93.7188C96.6406 93.4375 96.2898 93.0455 96.0426 92.5426C95.7983 92.0369 95.6761 91.4489 95.6761 90.7784C95.6761 90.108 95.7983 89.517 96.0426 89.0057C96.2898 88.4915 96.6335 88.0909 97.0739 87.804C97.517 87.5142 98.0341 87.3693 98.625 87.3693C98.9659 87.3693 99.3026 87.4261 99.6349 87.5398C99.9673 87.6534 100.27 87.8381 100.543 88.0938C100.815 88.3466 101.033 88.6818 101.195 89.0994C101.357 89.517 101.438 90.0312 101.438 90.642V91.0682H96.392V90.1989H100.415C100.415 89.8295 100.341 89.5 100.193 89.2102C100.048 88.9205 99.8409 88.6918 99.571 88.5241C99.304 88.3565 98.9886 88.2727 98.625 88.2727C98.2244 88.2727 97.8778 88.3722 97.5852 88.571C97.2955 88.767 97.0724 89.0227 96.9162 89.3381C96.7599 89.6534 96.6818 89.9915 96.6818 90.3523V90.9318C96.6818 91.4261 96.767 91.8452 96.9375 92.1889C97.1108 92.5298 97.3509 92.7898 97.6577 92.9688C97.9645 93.1449 98.321 93.233 98.7273 93.233C98.9915 93.233 99.2301 93.196 99.4432 93.1222C99.6591 93.0455 99.8452 92.9318 100.001 92.7812C100.158 92.6278 100.278 92.4375 100.364 92.2102L101.335 92.483C101.233 92.8125 101.061 93.1023 100.82 93.3523C100.578 93.5994 100.28 93.7926 99.9247 93.9318C99.5696 94.0682 99.1705 94.1364 98.7273 94.1364ZM107.604 88.9205L106.7 89.1761C106.643 89.0256 106.56 88.8793 106.449 88.7372C106.341 88.5923 106.193 88.473 106.006 88.3793C105.818 88.2855 105.578 88.2386 105.286 88.2386C104.885 88.2386 104.551 88.331 104.284 88.5156C104.02 88.6974 103.888 88.929 103.888 89.2102C103.888 89.4602 103.979 89.6577 104.161 89.8026C104.342 89.9474 104.626 90.0682 105.013 90.1648L105.984 90.4034C106.57 90.5455 107.006 90.7628 107.293 91.0554C107.58 91.3452 107.723 91.7187 107.723 92.1761C107.723 92.5511 107.615 92.8864 107.399 93.1818C107.186 93.4773 106.888 93.7102 106.504 93.8807C106.121 94.0511 105.675 94.1364 105.166 94.1364C104.499 94.1364 103.946 93.9915 103.509 93.7017C103.071 93.4119 102.794 92.9886 102.678 92.4318L103.632 92.1932C103.723 92.5455 103.895 92.8097 104.148 92.9858C104.403 93.1619 104.737 93.25 105.149 93.25C105.618 93.25 105.99 93.1506 106.266 92.9517C106.544 92.75 106.683 92.5085 106.683 92.2273C106.683 92 106.604 91.8097 106.445 91.6562C106.286 91.5 106.041 91.3835 105.712 91.3068L104.621 91.0511C104.021 90.9091 103.581 90.6889 103.3 90.3906C103.021 90.0895 102.882 89.7131 102.882 89.2614C102.882 88.892 102.986 88.5653 103.193 88.2812C103.403 87.9972 103.689 87.7741 104.05 87.6122C104.413 87.4503 104.825 87.3693 105.286 87.3693C105.933 87.3693 106.442 87.5114 106.811 87.7955C107.183 88.0795 107.447 88.4545 107.604 88.9205ZM117.248 88.9205L116.345 89.1761C116.288 89.0256 116.204 88.8793 116.093 88.7372C115.985 88.5923 115.838 88.473 115.65 88.3793C115.463 88.2855 115.223 88.2386 114.93 88.2386C114.529 88.2386 114.196 88.331 113.929 88.5156C113.664 88.6974 113.532 88.929 113.532 89.2102C113.532 89.4602 113.623 89.6577 113.805 89.8026C113.987 89.9474 114.271 90.0682 114.657 90.1648L115.629 90.4034C116.214 90.5455 116.65 90.7628 116.937 91.0554C117.224 91.3452 117.368 91.7187 117.368 92.1761C117.368 92.5511 117.26 92.8864 117.044 93.1818C116.831 93.4773 116.532 93.7102 116.149 93.8807C115.765 94.0511 115.319 94.1364 114.811 94.1364C114.143 94.1364 113.591 93.9915 113.153 93.7017C112.716 93.4119 112.439 92.9886 112.322 92.4318L113.277 92.1932C113.368 92.5455 113.539 92.8097 113.792 92.9858C114.048 93.1619 114.382 93.25 114.794 93.25C115.262 93.25 115.635 93.1506 115.91 92.9517C116.189 92.75 116.328 92.5085 116.328 92.2273C116.328 92 116.248 91.8097 116.089 91.6562C115.93 91.5 115.686 91.3835 115.356 91.3068L114.265 91.0511C113.666 90.9091 113.225 90.6889 112.944 90.3906C112.666 90.0895 112.527 89.7131 112.527 89.2614C112.527 88.892 112.63 88.5653 112.838 88.2812C113.048 87.9972 113.333 87.7741 113.694 87.6122C114.058 87.4503 114.47 87.3693 114.93 87.3693C115.578 87.3693 116.086 87.5114 116.456 87.7955C116.828 88.0795 117.092 88.4545 117.248 88.9205ZM119.529 96.4545C119.359 96.4545 119.207 96.4403 119.073 96.4119C118.94 96.3864 118.847 96.3608 118.796 96.3352L119.052 95.4489C119.296 95.5114 119.512 95.5341 119.7 95.517C119.887 95.5 120.053 95.4162 120.198 95.2656C120.346 95.1179 120.481 94.8778 120.603 94.5455L120.79 94.0341L118.37 87.4545H119.461L121.268 92.6705H121.336L123.143 87.4545H124.234L121.455 94.9545C121.33 95.2926 121.175 95.5724 120.991 95.794C120.806 96.0185 120.592 96.1847 120.347 96.2926C120.106 96.4006 119.833 96.4545 119.529 96.4545ZM130.197 88.9205L129.294 89.1761C129.237 89.0256 129.153 88.8793 129.043 88.7372C128.935 88.5923 128.787 88.473 128.599 88.3793C128.412 88.2855 128.172 88.2386 127.879 88.2386C127.479 88.2386 127.145 88.331 126.878 88.5156C126.614 88.6974 126.482 88.929 126.482 89.2102C126.482 89.4602 126.572 89.6577 126.754 89.8026C126.936 89.9474 127.22 90.0682 127.607 90.1648L128.578 90.4034C129.163 90.5455 129.599 90.7628 129.886 91.0554C130.173 91.3452 130.317 91.7187 130.317 92.1761C130.317 92.5511 130.209 92.8864 129.993 93.1818C129.78 93.4773 129.482 93.7102 129.098 93.8807C128.714 94.0511 128.268 94.1364 127.76 94.1364C127.092 94.1364 126.54 93.9915 126.102 93.7017C125.665 93.4119 125.388 92.9886 125.271 92.4318L126.226 92.1932C126.317 92.5455 126.489 92.8097 126.741 92.9858C126.997 93.1619 127.331 93.25 127.743 93.25C128.212 93.25 128.584 93.1506 128.859 92.9517C129.138 92.75 129.277 92.5085 129.277 92.2273C129.277 92 129.197 91.8097 129.038 91.6562C128.879 91.5 128.635 91.3835 128.305 91.3068L127.214 91.0511C126.615 90.9091 126.175 90.6889 125.893 90.3906C125.615 90.0895 125.476 89.7131 125.476 89.2614C125.476 88.892 125.58 88.5653 125.787 88.2812C125.997 87.9972 126.283 87.7741 126.643 87.6122C127.007 87.4503 127.419 87.3693 127.879 87.3693C128.527 87.3693 129.036 87.5114 129.405 87.7955C129.777 88.0795 130.041 88.4545 130.197 88.9205ZM134.677 87.4545V88.3068H131.285V87.4545H134.677ZM132.274 85.8864H133.279V92.125C133.279 92.4091 133.321 92.6222 133.403 92.7642C133.488 92.9034 133.596 92.9972 133.727 93.0455C133.86 93.0909 134.001 93.1136 134.149 93.1136C134.26 93.1136 134.35 93.108 134.422 93.0966C134.493 93.0824 134.549 93.071 134.592 93.0625L134.797 93.9659C134.728 93.9915 134.633 94.017 134.511 94.0426C134.389 94.071 134.234 94.0852 134.047 94.0852C133.762 94.0852 133.484 94.0241 133.211 93.902C132.941 93.7798 132.717 93.5938 132.538 93.3438C132.362 93.0938 132.274 92.7784 132.274 92.3977V85.8864ZM138.864 94.1364C138.233 94.1364 137.689 93.9972 137.232 93.7188C136.777 93.4375 136.426 93.0455 136.179 92.5426C135.935 92.0369 135.813 91.4489 135.813 90.7784C135.813 90.108 135.935 89.517 136.179 89.0057C136.426 88.4915 136.77 88.0909 137.211 87.804C137.654 87.5142 138.171 87.3693 138.762 87.3693C139.103 87.3693 139.439 87.4261 139.772 87.5398C140.104 87.6534 140.407 87.8381 140.679 88.0938C140.952 88.3466 141.169 88.6818 141.331 89.0994C141.493 89.517 141.574 90.0312 141.574 90.642V91.0682H136.529V90.1989H140.551C140.551 89.8295 140.478 89.5 140.33 89.2102C140.185 88.9205 139.978 88.6918 139.708 88.5241C139.441 88.3565 139.125 88.2727 138.762 88.2727C138.361 88.2727 138.015 88.3722 137.722 88.571C137.432 88.767 137.209 89.0227 137.053 89.3381C136.897 89.6534 136.819 89.9915 136.819 90.3523V90.9318C136.819 91.4261 136.904 91.8452 137.074 92.1889C137.248 92.5298 137.488 92.7898 137.794 92.9688C138.101 93.1449 138.458 93.233 138.864 93.233C139.128 93.233 139.367 93.196 139.58 93.1222C139.796 93.0455 139.982 92.9318 140.138 92.7812C140.294 92.6278 140.415 92.4375 140.5 92.2102L141.472 92.483C141.37 92.8125 141.198 93.1023 140.956 93.3523C140.715 93.5994 140.417 93.7926 140.061 93.9318C139.706 94.0682 139.307 94.1364 138.864 94.1364ZM143.104 94V87.4545H144.076V88.4773H144.161C144.297 88.1278 144.517 87.8565 144.821 87.6634C145.125 87.4673 145.49 87.3693 145.917 87.3693C146.348 87.3693 146.708 87.4673 146.995 87.6634C147.284 87.8565 147.51 88.1278 147.672 88.4773H147.74C147.908 88.1392 148.159 87.8707 148.495 87.6719C148.83 87.4702 149.232 87.3693 149.701 87.3693C150.286 87.3693 150.765 87.5526 151.137 87.919C151.509 88.2827 151.695 88.8494 151.695 89.6193V94H150.689V89.6193C150.689 89.1364 150.557 88.7912 150.293 88.5838C150.029 88.3764 149.718 88.2727 149.36 88.2727C148.9 88.2727 148.543 88.4119 148.29 88.6903C148.037 88.9659 147.911 89.3153 147.911 89.7386V94H146.888V89.517C146.888 89.1449 146.767 88.8452 146.526 88.6179C146.284 88.3878 145.973 88.2727 145.593 88.2727C145.331 88.2727 145.087 88.3423 144.86 88.4815C144.635 88.6207 144.453 88.8139 144.314 89.0611C144.178 89.3054 144.11 89.5881 144.11 89.9091V94H143.104ZM161.034 91.3239V87.4545H162.039V94H161.034V92.892H160.966C160.812 93.2244 160.574 93.5071 160.25 93.7401C159.926 93.9702 159.517 94.0852 159.022 94.0852C158.613 94.0852 158.25 93.9957 157.931 93.8168C157.613 93.6349 157.363 93.3622 157.181 92.9986C157 92.6321 156.909 92.1705 156.909 91.6136V87.4545H157.914V91.5455C157.914 92.0227 158.048 92.4034 158.315 92.6875C158.585 92.9716 158.929 93.1136 159.346 93.1136C159.596 93.1136 159.85 93.0497 160.109 92.9219C160.37 92.794 160.589 92.598 160.765 92.3338C160.944 92.0696 161.034 91.733 161.034 91.3239ZM168.518 88.9205L167.614 89.1761C167.558 89.0256 167.474 88.8793 167.363 88.7372C167.255 88.5923 167.107 88.473 166.92 88.3793C166.732 88.2855 166.492 88.2386 166.2 88.2386C165.799 88.2386 165.465 88.331 165.198 88.5156C164.934 88.6974 164.802 88.929 164.802 89.2102C164.802 89.4602 164.893 89.6577 165.075 89.8026C165.256 89.9474 165.54 90.0682 165.927 90.1648L166.898 90.4034C167.484 90.5455 167.92 90.7628 168.207 91.0554C168.494 91.3452 168.637 91.7187 168.637 92.1761C168.637 92.5511 168.529 92.8864 168.313 93.1818C168.1 93.4773 167.802 93.7102 167.418 93.8807C167.035 94.0511 166.589 94.1364 166.08 94.1364C165.413 94.1364 164.86 93.9915 164.423 93.7017C163.985 93.4119 163.708 92.9886 163.592 92.4318L164.546 92.1932C164.637 92.5455 164.809 92.8097 165.062 92.9858C165.317 93.1619 165.651 93.25 166.063 93.25C166.532 93.25 166.904 93.1506 167.18 92.9517C167.458 92.75 167.597 92.5085 167.597 92.2273C167.597 92 167.518 91.8097 167.359 91.6562C167.2 91.5 166.955 91.3835 166.626 91.3068L165.535 91.0511C164.935 90.9091 164.495 90.6889 164.214 90.3906C163.935 90.0895 163.796 89.7131 163.796 89.2614C163.796 88.892 163.9 88.5653 164.107 88.2812C164.317 87.9972 164.603 87.7741 164.964 87.6122C165.327 87.4503 165.739 87.3693 166.2 87.3693C166.847 87.3693 167.356 87.5114 167.725 87.7955C168.097 88.0795 168.362 88.4545 168.518 88.9205ZM170.151 94V87.4545H171.157V94H170.151ZM170.662 86.3636C170.466 86.3636 170.297 86.2969 170.155 86.1634C170.016 86.0298 169.946 85.8693 169.946 85.6818C169.946 85.4943 170.016 85.3338 170.155 85.2003C170.297 85.0668 170.466 85 170.662 85C170.858 85 171.026 85.0668 171.165 85.2003C171.307 85.3338 171.378 85.4943 171.378 85.6818C171.378 85.8693 171.307 86.0298 171.165 86.1634C171.026 86.2969 170.858 86.3636 170.662 86.3636ZM174.004 90.0625V94H172.999V87.4545H173.97V88.4773H174.055C174.209 88.1449 174.442 87.8778 174.754 87.6761C175.067 87.4716 175.47 87.3693 175.964 87.3693C176.408 87.3693 176.795 87.4602 177.128 87.642C177.46 87.821 177.719 88.0938 177.903 88.4602C178.088 88.8239 178.18 89.2841 178.18 89.8409V94H177.175V89.9091C177.175 89.3949 177.041 88.9943 176.774 88.7074C176.507 88.4176 176.141 88.2727 175.675 88.2727C175.354 88.2727 175.067 88.3423 174.814 88.4815C174.564 88.6207 174.366 88.8239 174.222 89.0909C174.077 89.358 174.004 89.6818 174.004 90.0625ZM182.66 96.5909C182.174 96.5909 181.757 96.5284 181.407 96.4034C181.058 96.2812 180.767 96.1193 180.534 95.9176C180.304 95.7188 180.12 95.5057 179.984 95.2784L180.785 94.7159C180.876 94.8352 180.991 94.9716 181.13 95.125C181.27 95.2812 181.46 95.4162 181.701 95.5298C181.946 95.6463 182.265 95.7045 182.66 95.7045C183.189 95.7045 183.625 95.5767 183.968 95.321C184.312 95.0653 184.484 94.6648 184.484 94.1193V92.7898H184.399C184.325 92.9091 184.22 93.0568 184.083 93.233C183.95 93.4062 183.757 93.5611 183.504 93.6974C183.254 93.831 182.916 93.8977 182.49 93.8977C181.961 93.8977 181.487 93.7727 181.066 93.5227C180.649 93.2727 180.318 92.9091 180.074 92.4318C179.832 91.9545 179.711 91.375 179.711 90.6932C179.711 90.0227 179.829 89.4389 180.065 88.9418C180.301 88.4418 180.629 88.0554 181.049 87.7827C181.47 87.5071 181.956 87.3693 182.507 87.3693C182.933 87.3693 183.271 87.4403 183.521 87.5824C183.774 87.7216 183.967 87.8807 184.1 88.0597C184.237 88.2358 184.342 88.3807 184.416 88.4943H184.518V87.4545H185.49V94.1875C185.49 94.75 185.362 95.2074 185.106 95.5597C184.853 95.9148 184.512 96.1747 184.083 96.3395C183.657 96.5071 183.183 96.5909 182.66 96.5909ZM182.626 92.9943C183.029 92.9943 183.37 92.902 183.649 92.7173C183.927 92.5327 184.139 92.267 184.284 91.9205C184.429 91.5739 184.501 91.1591 184.501 90.6761C184.501 90.2045 184.43 89.7884 184.288 89.4276C184.146 89.0668 183.936 88.7841 183.657 88.5795C183.379 88.375 183.035 88.2727 182.626 88.2727C182.2 88.2727 181.845 88.3807 181.561 88.5966C181.279 88.8125 181.068 89.1023 180.926 89.4659C180.787 89.8295 180.717 90.233 180.717 90.6761C180.717 91.1307 180.788 91.5327 180.93 91.8821C181.075 92.2287 181.288 92.5014 181.569 92.7003C181.853 92.8963 182.206 92.9943 182.626 92.9943ZM192.632 94.1534C192.217 94.1534 191.841 94.0753 191.502 93.919C191.164 93.7599 190.896 93.5312 190.697 93.233C190.498 92.9318 190.399 92.5682 190.399 92.142C190.399 91.767 190.473 91.4631 190.62 91.2301C190.768 90.9943 190.966 90.8097 191.213 90.6761C191.46 90.5426 191.733 90.4432 192.031 90.3778C192.332 90.3097 192.635 90.2557 192.939 90.2159C193.336 90.1648 193.659 90.1264 193.906 90.1009C194.156 90.0724 194.338 90.0256 194.451 89.9602C194.568 89.8949 194.626 89.7812 194.626 89.6193V89.5852C194.626 89.1648 194.511 88.8381 194.281 88.6051C194.054 88.3722 193.708 88.2557 193.245 88.2557C192.765 88.2557 192.389 88.3608 192.116 88.571C191.843 88.7812 191.652 89.0057 191.541 89.2443L190.586 88.9034C190.757 88.5057 190.984 88.196 191.268 87.9744C191.555 87.75 191.868 87.5937 192.206 87.5057C192.547 87.4148 192.882 87.3693 193.211 87.3693C193.422 87.3693 193.663 87.3949 193.936 87.446C194.211 87.4943 194.477 87.5952 194.733 87.7486C194.991 87.902 195.206 88.1335 195.376 88.4432C195.547 88.7528 195.632 89.1676 195.632 89.6875V94H194.626V93.1136H194.575C194.507 93.2557 194.393 93.4077 194.234 93.5696C194.075 93.7315 193.863 93.8693 193.599 93.983C193.335 94.0966 193.012 94.1534 192.632 94.1534ZM192.785 93.25C193.183 93.25 193.518 93.1719 193.791 93.0156C194.066 92.8594 194.274 92.6577 194.413 92.4105C194.555 92.1634 194.626 91.9034 194.626 91.6307V90.7102C194.583 90.7614 194.49 90.8082 194.345 90.8509C194.203 90.8906 194.038 90.9261 193.85 90.9574C193.666 90.9858 193.485 91.0114 193.309 91.0341C193.136 91.054 192.995 91.071 192.887 91.0852C192.626 91.1193 192.382 91.1747 192.154 91.2514C191.93 91.3253 191.748 91.4375 191.609 91.5881C191.473 91.7358 191.404 91.9375 191.404 92.1932C191.404 92.5426 191.534 92.8068 191.792 92.9858C192.054 93.1619 192.385 93.25 192.785 93.25ZM200.979 94V85.2727H203.928C204.609 85.2727 205.169 85.3892 205.607 85.6222C206.044 85.8523 206.368 86.169 206.578 86.5724C206.788 86.9759 206.893 87.4347 206.893 87.9489C206.893 88.4631 206.788 88.919 206.578 89.3168C206.368 89.7145 206.045 90.027 205.611 90.2543C205.176 90.4787 204.621 90.5909 203.945 90.5909H201.558V89.6364H203.911C204.376 89.6364 204.751 89.5682 205.036 89.4318C205.322 89.2955 205.53 89.1023 205.658 88.8523C205.788 88.5994 205.854 88.2983 205.854 87.9489C205.854 87.5994 205.788 87.294 205.658 87.0327C205.527 86.7713 205.318 86.5696 205.031 86.4276C204.744 86.2827 204.365 86.2102 203.893 86.2102H202.036V94H200.979ZM205.087 90.0795L207.234 94H206.007L203.893 90.0795H205.087ZM211.192 94.1364C210.561 94.1364 210.017 93.9972 209.56 93.7188C209.105 93.4375 208.755 93.0455 208.507 92.5426C208.263 92.0369 208.141 91.4489 208.141 90.7784C208.141 90.108 208.263 89.517 208.507 89.0057C208.755 88.4915 209.098 88.0909 209.539 87.804C209.982 87.5142 210.499 87.3693 211.09 87.3693C211.431 87.3693 211.767 87.4261 212.1 87.5398C212.432 87.6534 212.735 87.8381 213.007 88.0938C213.28 88.3466 213.498 88.6818 213.659 89.0994C213.821 89.517 213.902 90.0312 213.902 90.642V91.0682H208.857V90.1989H212.88C212.88 89.8295 212.806 89.5 212.658 89.2102C212.513 88.9205 212.306 88.6918 212.036 88.5241C211.769 88.3565 211.453 88.2727 211.09 88.2727C210.689 88.2727 210.343 88.3722 210.05 88.571C209.76 88.767 209.537 89.0227 209.381 89.3381C209.225 89.6534 209.147 89.9915 209.147 90.3523V90.9318C209.147 91.4261 209.232 91.8452 209.402 92.1889C209.576 92.5298 209.816 92.7898 210.123 92.9688C210.429 93.1449 210.786 93.233 211.192 93.233C211.456 93.233 211.695 93.196 211.908 93.1222C212.124 93.0455 212.31 92.9318 212.466 92.7812C212.623 92.6278 212.743 92.4375 212.828 92.2102L213.8 92.483C213.698 92.8125 213.526 93.1023 213.284 93.3523C213.043 93.5994 212.745 93.7926 212.39 93.9318C212.034 94.0682 211.635 94.1364 211.192 94.1364ZM220.069 88.9205L219.165 89.1761C219.108 89.0256 219.025 88.8793 218.914 88.7372C218.806 88.5923 218.658 88.473 218.471 88.3793C218.283 88.2855 218.043 88.2386 217.75 88.2386C217.35 88.2386 217.016 88.331 216.749 88.5156C216.485 88.6974 216.353 88.929 216.353 89.2102C216.353 89.4602 216.444 89.6577 216.625 89.8026C216.807 89.9474 217.091 90.0682 217.478 90.1648L218.449 90.4034C219.034 90.5455 219.471 90.7628 219.757 91.0554C220.044 91.3452 220.188 91.7187 220.188 92.1761C220.188 92.5511 220.08 92.8864 219.864 93.1818C219.651 93.4773 219.353 93.7102 218.969 93.8807C218.586 94.0511 218.14 94.1364 217.631 94.1364C216.963 94.1364 216.411 93.9915 215.973 93.7017C215.536 93.4119 215.259 92.9886 215.142 92.4318L216.097 92.1932C216.188 92.5455 216.36 92.8097 216.613 92.9858C216.868 93.1619 217.202 93.25 217.614 93.25C218.083 93.25 218.455 93.1506 218.73 92.9517C219.009 92.75 219.148 92.5085 219.148 92.2273C219.148 92 219.069 91.8097 218.909 91.6562C218.75 91.5 218.506 91.3835 218.176 91.3068L217.086 91.0511C216.486 90.9091 216.046 90.6889 215.765 90.3906C215.486 90.0895 215.347 89.7131 215.347 89.2614C215.347 88.892 215.451 88.5653 215.658 88.2812C215.868 87.9972 216.154 87.7741 216.515 87.6122C216.878 87.4503 217.29 87.3693 217.75 87.3693C218.398 87.3693 218.907 87.5114 219.276 87.7955C219.648 88.0795 219.912 88.4545 220.069 88.9205ZM224.548 87.4545V88.3068H221.156V87.4545H224.548ZM222.145 85.8864H223.151V92.125C223.151 92.4091 223.192 92.6222 223.274 92.7642C223.359 92.9034 223.467 92.9972 223.598 93.0455C223.732 93.0909 223.872 93.1136 224.02 93.1136C224.131 93.1136 224.222 93.108 224.293 93.0966C224.364 93.0824 224.42 93.071 224.463 93.0625L224.668 93.9659C224.599 93.9915 224.504 94.017 224.382 94.0426C224.26 94.071 224.105 94.0852 223.918 94.0852C223.634 94.0852 223.355 94.0241 223.082 93.902C222.813 93.7798 222.588 93.5938 222.409 93.3438C222.233 93.0938 222.145 92.7784 222.145 92.3977V85.8864ZM229.93 94H228.822L232.027 85.2727H233.118L236.322 94H235.214L232.607 86.6534H232.538L229.93 94ZM230.339 90.5909H234.805V91.5284H230.339V90.5909ZM237.682 94V85.2727H240.631C241.315 85.2727 241.875 85.3963 242.31 85.6435C242.747 85.8878 243.071 86.2188 243.281 86.6364C243.491 87.054 243.597 87.5199 243.597 88.0341C243.597 88.5483 243.491 89.0156 243.281 89.4361C243.074 89.8565 242.753 90.1918 242.318 90.4418C241.884 90.6889 241.327 90.8125 240.648 90.8125H238.534V89.875H240.614C241.082 89.875 241.459 89.794 241.743 89.6321C242.027 89.4702 242.233 89.2514 242.361 88.9759C242.491 88.6974 242.557 88.3835 242.557 88.0341C242.557 87.6847 242.491 87.3722 242.361 87.0966C242.233 86.821 242.026 86.6051 241.739 86.4489C241.452 86.2898 241.071 86.2102 240.597 86.2102H238.739V94H237.682ZM246.356 85.2727V94H245.299V85.2727H246.356ZM251.85 94V85.2727H252.855V88.4943H252.941C253.015 88.3807 253.117 88.2358 253.248 88.0597C253.381 87.8807 253.571 87.7216 253.819 87.5824C254.069 87.4403 254.407 87.3693 254.833 87.3693C255.384 87.3693 255.87 87.5071 256.29 87.7827C256.711 88.0582 257.039 88.4489 257.275 88.9545C257.51 89.4602 257.628 90.0568 257.628 90.7443C257.628 91.4375 257.51 92.0384 257.275 92.5469C257.039 93.0526 256.712 93.4446 256.294 93.723C255.877 93.9986 255.395 94.1364 254.85 94.1364C254.429 94.1364 254.093 94.0668 253.84 93.9276C253.587 93.7855 253.392 93.625 253.256 93.446C253.12 93.2642 253.015 93.1136 252.941 92.9943H252.821V94H251.85ZM252.838 90.7273C252.838 91.2216 252.911 91.6577 253.056 92.0355C253.201 92.4105 253.412 92.7045 253.691 92.9176C253.969 93.1278 254.31 93.233 254.713 93.233C255.134 93.233 255.485 93.1222 255.766 92.9006C256.05 92.6761 256.263 92.375 256.405 91.9972C256.55 91.6165 256.623 91.1932 256.623 90.7273C256.623 90.267 256.551 89.8523 256.409 89.483C256.27 89.1108 256.059 88.8168 255.775 88.6009C255.493 88.3821 255.14 88.2727 254.713 88.2727C254.304 88.2727 253.961 88.3764 253.682 88.5838C253.404 88.7884 253.194 89.0753 253.051 89.4446C252.909 89.8111 252.838 90.2386 252.838 90.7273ZM263.292 91.3239V87.4545H264.297V94H263.292V92.892H263.223C263.07 93.2244 262.831 93.5071 262.507 93.7401C262.184 93.9702 261.775 94.0852 261.28 94.0852C260.871 94.0852 260.507 93.9957 260.189 93.8168C259.871 93.6349 259.621 93.3622 259.439 92.9986C259.257 92.6321 259.167 92.1705 259.167 91.6136V87.4545H260.172V91.5455C260.172 92.0227 260.306 92.4034 260.573 92.6875C260.843 92.9716 261.186 93.1136 261.604 93.1136C261.854 93.1136 262.108 93.0497 262.367 92.9219C262.628 92.794 262.847 92.598 263.023 92.3338C263.202 92.0696 263.292 91.733 263.292 91.3239ZM266.139 94V87.4545H267.145V94H266.139ZM266.651 86.3636C266.455 86.3636 266.286 86.2969 266.143 86.1634C266.004 86.0298 265.935 85.8693 265.935 85.6818C265.935 85.4943 266.004 85.3338 266.143 85.2003C266.286 85.0668 266.455 85 266.651 85C266.847 85 267.014 85.0668 267.153 85.2003C267.295 85.3338 267.366 85.4943 267.366 85.6818C267.366 85.8693 267.295 86.0298 267.153 86.1634C267.014 86.2969 266.847 86.3636 266.651 86.3636ZM269.993 85.2727V94H268.987V85.2727H269.993ZM274.681 87.4545V88.3068H271.289V87.4545H274.681ZM272.278 85.8864H273.283V92.125C273.283 92.4091 273.325 92.6222 273.407 92.7642C273.492 92.9034 273.6 92.9972 273.731 93.0455C273.864 93.0909 274.005 93.1136 274.153 93.1136C274.263 93.1136 274.354 93.108 274.425 93.0966C274.496 93.0824 274.553 93.071 274.596 93.0625L274.8 93.9659C274.732 93.9915 274.637 94.017 274.515 94.0426C274.393 94.071 274.238 94.0852 274.05 94.0852C273.766 94.0852 273.488 94.0241 273.215 93.902C272.945 93.7798 272.721 93.5938 272.542 93.3438C272.366 93.0938 272.278 92.7784 272.278 92.3977V85.8864ZM281.052 94L279.058 87.4545H280.114L281.529 92.4659H281.597L282.995 87.4545H284.069L285.45 92.4489H285.518L286.933 87.4545H287.989L285.995 94H285.006L283.575 88.9716H283.472L282.04 94H281.052ZM289.319 94V87.4545H290.325V94H289.319ZM289.83 86.3636C289.634 86.3636 289.465 86.2969 289.323 86.1634C289.184 86.0298 289.114 85.8693 289.114 85.6818C289.114 85.4943 289.184 85.3338 289.323 85.2003C289.465 85.0668 289.634 85 289.83 85C290.026 85 290.194 85.0668 290.333 85.2003C290.475 85.3338 290.546 85.4943 290.546 85.6818C290.546 85.8693 290.475 86.0298 290.333 86.1634C290.194 86.2969 290.026 86.3636 289.83 86.3636ZM295.013 87.4545V88.3068H291.621V87.4545H295.013ZM292.61 85.8864H293.615V92.125C293.615 92.4091 293.657 92.6222 293.739 92.7642C293.824 92.9034 293.932 92.9972 294.063 93.0455C294.196 93.0909 294.337 93.1136 294.485 93.1136C294.596 93.1136 294.686 93.108 294.757 93.0966C294.828 93.0824 294.885 93.071 294.928 93.0625L295.132 93.9659C295.064 93.9915 294.969 94.017 294.847 94.0426C294.725 94.071 294.57 94.0852 294.382 94.0852C294.098 94.0852 293.82 94.0241 293.547 93.902C293.277 93.7798 293.053 93.5938 292.874 93.3438C292.698 93.0938 292.61 92.7784 292.61 92.3977V85.8864ZM297.672 90.0625V94H296.667V85.2727H297.672V88.4773H297.757C297.911 88.1392 298.141 87.8707 298.448 87.6719C298.757 87.4702 299.169 87.3693 299.684 87.3693C300.13 87.3693 300.52 87.4588 300.855 87.6378C301.191 87.8139 301.451 88.0852 301.635 88.4517C301.823 88.8153 301.917 89.2784 301.917 89.8409V94H300.911V89.9091C300.911 89.3892 300.776 88.9872 300.506 88.7031C300.239 88.4162 299.868 88.2727 299.394 88.2727C299.064 88.2727 298.769 88.3423 298.507 88.4815C298.249 88.6207 298.044 88.8239 297.894 89.0909C297.746 89.358 297.672 89.6818 297.672 90.0625ZM314.188 85.2727V94H313.165L308.41 87.1477H308.325V94H307.268V85.2727H308.29L313.063 92.142H313.148V85.2727H314.188ZM318.826 94.1364C318.235 94.1364 317.716 93.9957 317.27 93.7145C316.827 93.4332 316.48 93.0398 316.23 92.5341C315.983 92.0284 315.86 91.4375 315.86 90.7614C315.86 90.0795 315.983 89.4844 316.23 88.9759C316.48 88.4673 316.827 88.0724 317.27 87.7912C317.716 87.5099 318.235 87.3693 318.826 87.3693C319.417 87.3693 319.934 87.5099 320.377 87.7912C320.823 88.0724 321.169 88.4673 321.417 88.9759C321.667 89.4844 321.792 90.0795 321.792 90.7614C321.792 91.4375 321.667 92.0284 321.417 92.5341C321.169 93.0398 320.823 93.4332 320.377 93.7145C319.934 93.9957 319.417 94.1364 318.826 94.1364ZM318.826 93.233C319.275 93.233 319.644 93.1179 319.934 92.8878C320.223 92.6577 320.438 92.3551 320.577 91.9801C320.716 91.6051 320.786 91.1989 320.786 90.7614C320.786 90.3239 320.716 89.9162 320.577 89.5384C320.438 89.1605 320.223 88.8551 319.934 88.6222C319.644 88.3892 319.275 88.2727 318.826 88.2727C318.377 88.2727 318.007 88.3892 317.718 88.6222C317.428 88.8551 317.213 89.1605 317.074 89.5384C316.935 89.9162 316.865 90.3239 316.865 90.7614C316.865 91.1989 316.935 91.6051 317.074 91.9801C317.213 92.3551 317.428 92.6577 317.718 92.8878C318.007 93.1179 318.377 93.233 318.826 93.233ZM325.798 94.1364C325.253 94.1364 324.771 93.9986 324.354 93.723C323.936 93.4446 323.609 93.0526 323.374 92.5469C323.138 92.0384 323.02 91.4375 323.02 90.7443C323.02 90.0568 323.138 89.4602 323.374 88.9545C323.609 88.4489 323.938 88.0582 324.358 87.7827C324.778 87.5071 325.264 87.3693 325.815 87.3693C326.241 87.3693 326.578 87.4403 326.825 87.5824C327.075 87.7216 327.266 87.8807 327.396 88.0597C327.53 88.2358 327.634 88.3807 327.707 88.4943H327.793V85.2727H328.798V94H327.827V92.9943H327.707C327.634 93.1136 327.528 93.2642 327.392 93.446C327.256 93.625 327.061 93.7855 326.808 93.9276C326.555 94.0668 326.219 94.1364 325.798 94.1364ZM325.935 93.233C326.338 93.233 326.679 93.1278 326.957 92.9176C327.236 92.7045 327.447 92.4105 327.592 92.0355C327.737 91.6577 327.81 91.2216 327.81 90.7273C327.81 90.2386 327.739 89.8111 327.597 89.4446C327.455 89.0753 327.244 88.7884 326.966 88.5838C326.688 88.3764 326.344 88.2727 325.935 88.2727C325.509 88.2727 325.153 88.3821 324.869 88.6009C324.588 88.8168 324.376 89.1108 324.234 89.483C324.095 89.8523 324.026 90.267 324.026 90.7273C324.026 91.1932 324.097 91.6165 324.239 91.9972C324.384 92.375 324.597 92.6761 324.878 92.9006C325.162 93.1222 325.514 93.233 325.935 93.233ZM333.524 94.1364C332.893 94.1364 332.349 93.9972 331.892 93.7188C331.438 93.4375 331.087 93.0455 330.839 92.5426C330.595 92.0369 330.473 91.4489 330.473 90.7784C330.473 90.108 330.595 89.517 330.839 89.0057C331.087 88.4915 331.43 88.0909 331.871 87.804C332.314 87.5142 332.831 87.3693 333.422 87.3693C333.763 87.3693 334.099 87.4261 334.432 87.5398C334.764 87.6534 335.067 87.8381 335.339 88.0938C335.612 88.3466 335.83 88.6818 335.991 89.0994C336.153 89.517 336.234 90.0312 336.234 90.642V91.0682H331.189V90.1989H335.212C335.212 89.8295 335.138 89.5 334.99 89.2102C334.845 88.9205 334.638 88.6918 334.368 88.5241C334.101 88.3565 333.786 88.2727 333.422 88.2727C333.021 88.2727 332.675 88.3722 332.382 88.571C332.092 88.767 331.869 89.0227 331.713 89.3381C331.557 89.6534 331.479 89.9915 331.479 90.3523V90.9318C331.479 91.4261 331.564 91.8452 331.734 92.1889C331.908 92.5298 332.148 92.7898 332.455 92.9688C332.761 93.1449 333.118 93.233 333.524 93.233C333.788 93.233 334.027 93.196 334.24 93.1222C334.456 93.0455 334.642 92.9318 334.798 92.7812C334.955 92.6278 335.075 92.4375 335.161 92.2102L336.132 92.483C336.03 92.8125 335.858 93.1023 335.616 93.3523C335.375 93.5994 335.077 93.7926 334.722 93.9318C334.366 94.0682 333.967 94.1364 333.524 94.1364ZM343.065 94.1534C342.651 94.1534 342.274 94.0753 341.936 93.919C341.598 93.7599 341.33 93.5312 341.131 93.233C340.932 92.9318 340.832 92.5682 340.832 92.142C340.832 91.767 340.906 91.4631 341.054 91.2301C341.202 90.9943 341.399 90.8097 341.646 90.6761C341.893 90.5426 342.166 90.4432 342.464 90.3778C342.766 90.3097 343.068 90.2557 343.372 90.2159C343.77 90.1648 344.092 90.1264 344.339 90.1009C344.589 90.0724 344.771 90.0256 344.885 89.9602C345.001 89.8949 345.06 89.7812 345.06 89.6193V89.5852C345.06 89.1648 344.945 88.8381 344.714 88.6051C344.487 88.3722 344.142 88.2557 343.679 88.2557C343.199 88.2557 342.822 88.3608 342.55 88.571C342.277 88.7812 342.085 89.0057 341.974 89.2443L341.02 88.9034C341.19 88.5057 341.418 88.196 341.702 87.9744C341.989 87.75 342.301 87.5937 342.639 87.5057C342.98 87.4148 343.315 87.3693 343.645 87.3693C343.855 87.3693 344.097 87.3949 344.369 87.446C344.645 87.4943 344.911 87.5952 345.166 87.7486C345.425 87.902 345.639 88.1335 345.81 88.4432C345.98 88.7528 346.065 89.1676 346.065 89.6875V94H345.06V93.1136H345.009C344.94 93.2557 344.827 93.4077 344.668 93.5696C344.509 93.7315 344.297 93.8693 344.033 93.983C343.768 94.0966 343.446 94.1534 343.065 94.1534ZM343.219 93.25C343.616 93.25 343.952 93.1719 344.224 93.0156C344.5 92.8594 344.707 92.6577 344.847 92.4105C344.989 92.1634 345.06 91.9034 345.06 91.6307V90.7102C345.017 90.7614 344.923 90.8082 344.778 90.8509C344.636 90.8906 344.472 90.9261 344.284 90.9574C344.099 90.9858 343.919 91.0114 343.743 91.0341C343.57 91.054 343.429 91.071 343.321 91.0852C343.06 91.1193 342.815 91.1747 342.588 91.2514C342.364 91.3253 342.182 91.4375 342.043 91.5881C341.906 91.7358 341.838 91.9375 341.838 92.1932C341.838 92.5426 341.967 92.8068 342.226 92.9858C342.487 93.1619 342.818 93.25 343.219 93.25ZM348.907 90.0625V94H347.901V87.4545H348.873V88.4773H348.958C349.111 88.1449 349.344 87.8778 349.657 87.6761C349.969 87.4716 350.373 87.3693 350.867 87.3693C351.31 87.3693 351.698 87.4602 352.03 87.642C352.363 87.821 352.621 88.0938 352.806 88.4602C352.99 88.8239 353.083 89.2841 353.083 89.8409V94H352.077V89.9091C352.077 89.3949 351.944 88.9943 351.676 88.7074C351.409 88.4176 351.043 88.2727 350.577 88.2727C350.256 88.2727 349.969 88.3423 349.716 88.4815C349.466 88.6207 349.269 88.8239 349.124 89.0909C348.979 89.358 348.907 89.6818 348.907 90.0625ZM357.392 94.1364C356.847 94.1364 356.365 93.9986 355.947 93.723C355.53 93.4446 355.203 93.0526 354.967 92.5469C354.732 92.0384 354.614 91.4375 354.614 90.7443C354.614 90.0568 354.732 89.4602 354.967 88.9545C355.203 88.4489 355.531 88.0582 355.952 87.7827C356.372 87.5071 356.858 87.3693 357.409 87.3693C357.835 87.3693 358.172 87.4403 358.419 87.5824C358.669 87.7216 358.859 87.8807 358.99 88.0597C359.124 88.2358 359.227 88.3807 359.301 88.4943H359.386V85.2727H360.392V94H359.42V92.9943H359.301C359.227 93.1136 359.122 93.2642 358.986 93.446C358.849 93.625 358.655 93.7855 358.402 93.9276C358.149 94.0668 357.813 94.1364 357.392 94.1364ZM357.528 93.233C357.932 93.233 358.273 93.1278 358.551 92.9176C358.83 92.7045 359.041 92.4105 359.186 92.0355C359.331 91.6577 359.403 91.2216 359.403 90.7273C359.403 90.2386 359.332 89.8111 359.19 89.4446C359.048 89.0753 358.838 88.7884 358.56 88.5838C358.281 88.3764 357.938 88.2727 357.528 88.2727C357.102 88.2727 356.747 88.3821 356.463 88.6009C356.182 88.8168 355.97 89.1108 355.828 89.483C355.689 89.8523 355.619 90.267 355.619 90.7273C355.619 91.1932 355.69 91.6165 355.832 91.9972C355.977 92.375 356.19 92.6761 356.472 92.9006C356.756 93.1222 357.108 93.233 357.528 93.233ZM49.0568 109V100.273H54.3239V101.21H50.1136V104.159H54.0511V105.097H50.1136V108.062H54.392V109H49.0568ZM56.8423 102.455L58.4105 105.131L59.9787 102.455H61.1378L59.0241 105.727L61.1378 109H59.9787L58.4105 106.46L56.8423 109H55.6832L57.7628 105.727L55.6832 102.455H56.8423ZM62.5728 111.455V102.455H63.5444V103.494H63.6637C63.7376 103.381 63.8398 103.236 63.9705 103.06C64.104 102.881 64.2944 102.722 64.5415 102.582C64.7915 102.44 65.1296 102.369 65.5558 102.369C66.1069 102.369 66.5927 102.507 67.0131 102.783C67.4336 103.058 67.7617 103.449 67.9975 103.955C68.2333 104.46 68.3512 105.057 68.3512 105.744C68.3512 106.438 68.2333 107.038 67.9975 107.547C67.7617 108.053 67.435 108.445 67.0174 108.723C66.5998 108.999 66.1183 109.136 65.5728 109.136C65.1523 109.136 64.8157 109.067 64.5629 108.928C64.31 108.786 64.1154 108.625 63.979 108.446C63.8427 108.264 63.7376 108.114 63.6637 107.994H63.5785V111.455H62.5728ZM63.5614 105.727C63.5614 106.222 63.6339 106.658 63.7788 107.036C63.9237 107.411 64.1353 107.705 64.4137 107.918C64.6921 108.128 65.033 108.233 65.4364 108.233C65.8569 108.233 66.2077 108.122 66.489 107.901C66.7731 107.676 66.9862 107.375 67.1282 106.997C67.2731 106.616 67.3455 106.193 67.3455 105.727C67.3455 105.267 67.2745 104.852 67.1325 104.483C66.9933 104.111 66.7816 103.817 66.4975 103.601C66.2163 103.382 65.8626 103.273 65.4364 103.273C65.0273 103.273 64.6836 103.376 64.4052 103.584C64.1268 103.788 63.9165 104.075 63.7745 104.445C63.6325 104.811 63.5614 105.239 63.5614 105.727ZM69.8853 109V102.455H70.8569V103.443H70.9251C71.0444 103.119 71.2603 102.857 71.5728 102.655C71.8853 102.453 72.2376 102.352 72.6296 102.352C72.7035 102.352 72.7958 102.354 72.9066 102.357C73.0174 102.359 73.1012 102.364 73.158 102.369V103.392C73.1239 103.384 73.0458 103.371 72.9237 103.354C72.8043 103.334 72.6779 103.324 72.5444 103.324C72.2262 103.324 71.9421 103.391 71.6921 103.524C71.445 103.655 71.2489 103.837 71.104 104.07C70.962 104.3 70.891 104.562 70.891 104.858V109H69.8853ZM76.8952 109.136C76.2646 109.136 75.7205 108.997 75.2631 108.719C74.8086 108.438 74.4577 108.045 74.2106 107.543C73.9663 107.037 73.8441 106.449 73.8441 105.778C73.8441 105.108 73.9663 104.517 74.2106 104.006C74.4577 103.491 74.8015 103.091 75.2418 102.804C75.685 102.514 76.2021 102.369 76.793 102.369C77.1339 102.369 77.4705 102.426 77.8029 102.54C78.1353 102.653 78.4379 102.838 78.7106 103.094C78.9833 103.347 79.2006 103.682 79.3626 104.099C79.5245 104.517 79.6055 105.031 79.6055 105.642V106.068H74.56V105.199H78.5827C78.5827 104.83 78.5089 104.5 78.3612 104.21C78.2163 103.92 78.0089 103.692 77.739 103.524C77.4719 103.357 77.1566 103.273 76.793 103.273C76.3924 103.273 76.0458 103.372 75.7532 103.571C75.4634 103.767 75.2404 104.023 75.0842 104.338C74.9279 104.653 74.8498 104.991 74.8498 105.352V105.932C74.8498 106.426 74.935 106.845 75.1055 107.189C75.2788 107.53 75.5188 107.79 75.8256 107.969C76.1325 108.145 76.489 108.233 76.8952 108.233C77.1594 108.233 77.3981 108.196 77.6112 108.122C77.8271 108.045 78.0131 107.932 78.1694 107.781C78.3256 107.628 78.4464 107.437 78.5316 107.21L79.5032 107.483C79.4009 107.812 79.229 108.102 78.9876 108.352C78.7461 108.599 78.4478 108.793 78.0927 108.932C77.7376 109.068 77.3384 109.136 76.8952 109.136ZM85.7717 103.92L84.8683 104.176C84.8114 104.026 84.7276 103.879 84.6168 103.737C84.5089 103.592 84.3612 103.473 84.1737 103.379C83.9862 103.286 83.7461 103.239 83.4535 103.239C83.0529 103.239 82.7191 103.331 82.4521 103.516C82.1879 103.697 82.0558 103.929 82.0558 104.21C82.0558 104.46 82.1467 104.658 82.3285 104.803C82.5103 104.947 82.7944 105.068 83.1808 105.165L84.1523 105.403C84.7376 105.545 85.1737 105.763 85.4606 106.055C85.7475 106.345 85.891 106.719 85.891 107.176C85.891 107.551 85.783 107.886 85.5671 108.182C85.354 108.477 85.0558 108.71 84.6722 108.881C84.2887 109.051 83.8427 109.136 83.3342 109.136C82.6665 109.136 82.114 108.991 81.6765 108.702C81.239 108.412 80.962 107.989 80.8455 107.432L81.8001 107.193C81.891 107.545 82.0629 107.81 82.3157 107.986C82.5714 108.162 82.9052 108.25 83.3171 108.25C83.7859 108.25 84.158 108.151 84.4336 107.952C84.712 107.75 84.8512 107.509 84.8512 107.227C84.8512 107 84.7717 106.81 84.6126 106.656C84.4535 106.5 84.2092 106.384 83.8796 106.307L82.7887 106.051C82.1893 105.909 81.7489 105.689 81.4677 105.391C81.1893 105.089 81.0501 104.713 81.0501 104.261C81.0501 103.892 81.1538 103.565 81.3612 103.281C81.5714 102.997 81.8569 102.774 82.2177 102.612C82.5813 102.45 82.9933 102.369 83.4535 102.369C84.1012 102.369 84.6097 102.511 84.979 102.795C85.3512 103.08 85.6154 103.455 85.7717 103.92ZM92.0412 103.92L91.1378 104.176C91.081 104.026 90.9972 103.879 90.8864 103.737C90.7784 103.592 90.6307 103.473 90.4432 103.379C90.2557 103.286 90.0156 103.239 89.723 103.239C89.3224 103.239 88.9886 103.331 88.7216 103.516C88.4574 103.697 88.3253 103.929 88.3253 104.21C88.3253 104.46 88.4162 104.658 88.598 104.803C88.7798 104.947 89.0639 105.068 89.4503 105.165L90.4219 105.403C91.0071 105.545 91.4432 105.763 91.7301 106.055C92.017 106.345 92.1605 106.719 92.1605 107.176C92.1605 107.551 92.0526 107.886 91.8366 108.182C91.6236 108.477 91.3253 108.71 90.9418 108.881C90.5582 109.051 90.1122 109.136 89.6037 109.136C88.9361 109.136 88.3835 108.991 87.946 108.702C87.5085 108.412 87.2315 107.989 87.1151 107.432L88.0696 107.193C88.1605 107.545 88.3324 107.81 88.5852 107.986C88.8409 108.162 89.1747 108.25 89.5866 108.25C90.0554 108.25 90.4276 108.151 90.7031 107.952C90.9815 107.75 91.1207 107.509 91.1207 107.227C91.1207 107 91.0412 106.81 90.8821 106.656C90.723 106.5 90.4787 106.384 90.1491 106.307L89.0582 106.051C88.4588 105.909 88.0185 105.689 87.7372 105.391C87.4588 105.089 87.3196 104.713 87.3196 104.261C87.3196 103.892 87.4233 103.565 87.6307 103.281C87.8409 102.997 88.1264 102.774 88.4872 102.612C88.8509 102.45 89.2628 102.369 89.723 102.369C90.3707 102.369 90.8793 102.511 91.2486 102.795C91.6207 103.08 91.8849 103.455 92.0412 103.92ZM99.7085 109.136C99.0948 109.136 98.5664 108.991 98.1232 108.702C97.68 108.412 97.3391 108.013 97.1005 107.504C96.8619 106.996 96.7425 106.415 96.7425 105.761C96.7425 105.097 96.8647 104.51 97.109 104.001C97.3562 103.49 97.6999 103.091 98.1403 102.804C98.5835 102.514 99.1005 102.369 99.6914 102.369C100.152 102.369 100.566 102.455 100.936 102.625C101.305 102.795 101.608 103.034 101.843 103.341C102.079 103.648 102.225 104.006 102.282 104.415H101.277C101.2 104.116 101.029 103.852 100.765 103.622C100.504 103.389 100.152 103.273 99.7085 103.273C99.3164 103.273 98.9727 103.375 98.6772 103.58C98.3846 103.781 98.1559 104.067 97.9911 104.436C97.8292 104.803 97.7482 105.233 97.7482 105.727C97.7482 106.233 97.8278 106.673 97.9869 107.048C98.1488 107.423 98.3761 107.714 98.6687 107.922C98.9641 108.129 99.3107 108.233 99.7085 108.233C99.9698 108.233 100.207 108.188 100.42 108.097C100.633 108.006 100.814 107.875 100.961 107.705C101.109 107.534 101.214 107.33 101.277 107.091H102.282C102.225 107.477 102.085 107.825 101.86 108.135C101.639 108.442 101.345 108.686 100.978 108.868C100.615 109.047 100.191 109.136 99.7085 109.136ZM106.412 109.136C105.821 109.136 105.302 108.996 104.856 108.714C104.413 108.433 104.066 108.04 103.816 107.534C103.569 107.028 103.446 106.437 103.446 105.761C103.446 105.08 103.569 104.484 103.816 103.976C104.066 103.467 104.413 103.072 104.856 102.791C105.302 102.51 105.821 102.369 106.412 102.369C107.002 102.369 107.52 102.51 107.963 102.791C108.409 103.072 108.755 103.467 109.002 103.976C109.252 104.484 109.377 105.08 109.377 105.761C109.377 106.437 109.252 107.028 109.002 107.534C108.755 108.04 108.409 108.433 107.963 108.714C107.52 108.996 107.002 109.136 106.412 109.136ZM106.412 108.233C106.86 108.233 107.23 108.118 107.52 107.888C107.809 107.658 108.024 107.355 108.163 106.98C108.302 106.605 108.372 106.199 108.372 105.761C108.372 105.324 108.302 104.916 108.163 104.538C108.024 104.161 107.809 103.855 107.52 103.622C107.23 103.389 106.86 103.273 106.412 103.273C105.963 103.273 105.593 103.389 105.304 103.622C105.014 103.855 104.799 104.161 104.66 104.538C104.521 104.916 104.451 105.324 104.451 105.761C104.451 106.199 104.521 106.605 104.66 106.98C104.799 107.355 105.014 107.658 105.304 107.888C105.593 108.118 105.963 108.233 106.412 108.233ZM111.918 105.062V109H110.913V102.455H111.884V103.477H111.969C112.123 103.145 112.356 102.878 112.668 102.676C112.981 102.472 113.384 102.369 113.879 102.369C114.322 102.369 114.71 102.46 115.042 102.642C115.374 102.821 115.633 103.094 115.817 103.46C116.002 103.824 116.094 104.284 116.094 104.841V109H115.089V104.909C115.089 104.395 114.955 103.994 114.688 103.707C114.421 103.418 114.055 103.273 113.589 103.273C113.268 103.273 112.981 103.342 112.728 103.482C112.478 103.621 112.281 103.824 112.136 104.091C111.991 104.358 111.918 104.682 111.918 105.062ZM118.938 105.062V109H117.932V102.455H118.904V103.477H118.989C119.142 103.145 119.375 102.878 119.688 102.676C120 102.472 120.404 102.369 120.898 102.369C121.341 102.369 121.729 102.46 122.061 102.642C122.394 102.821 122.652 103.094 122.837 103.46C123.022 103.824 123.114 104.284 123.114 104.841V109H122.108V104.909C122.108 104.395 121.975 103.994 121.708 103.707C121.441 103.418 121.074 103.273 120.608 103.273C120.287 103.273 120 103.342 119.748 103.482C119.498 103.621 119.3 103.824 119.155 104.091C119.01 104.358 118.938 104.682 118.938 105.062ZM127.696 109.136C127.065 109.136 126.521 108.997 126.064 108.719C125.609 108.438 125.259 108.045 125.011 107.543C124.767 107.037 124.645 106.449 124.645 105.778C124.645 105.108 124.767 104.517 125.011 104.006C125.259 103.491 125.602 103.091 126.043 102.804C126.486 102.514 127.003 102.369 127.594 102.369C127.935 102.369 128.271 102.426 128.604 102.54C128.936 102.653 129.239 102.838 129.511 103.094C129.784 103.347 130.001 103.682 130.163 104.099C130.325 104.517 130.406 105.031 130.406 105.642V106.068H125.361V105.199H129.384C129.384 104.83 129.31 104.5 129.162 104.21C129.017 103.92 128.81 103.692 128.54 103.524C128.273 103.357 127.957 103.273 127.594 103.273C127.193 103.273 126.847 103.372 126.554 103.571C126.264 103.767 126.041 104.023 125.885 104.338C125.729 104.653 125.651 104.991 125.651 105.352V105.932C125.651 106.426 125.736 106.845 125.906 107.189C126.08 107.53 126.32 107.79 126.626 107.969C126.933 108.145 127.29 108.233 127.696 108.233C127.96 108.233 128.199 108.196 128.412 108.122C128.628 108.045 128.814 107.932 128.97 107.781C129.126 107.628 129.247 107.437 129.332 107.21L130.304 107.483C130.202 107.812 130.03 108.102 129.788 108.352C129.547 108.599 129.249 108.793 128.893 108.932C128.538 109.068 128.139 109.136 127.696 109.136ZM134.595 109.136C133.982 109.136 133.453 108.991 133.01 108.702C132.567 108.412 132.226 108.013 131.987 107.504C131.749 106.996 131.629 106.415 131.629 105.761C131.629 105.097 131.751 104.51 131.996 104.001C132.243 103.49 132.587 103.091 133.027 102.804C133.47 102.514 133.987 102.369 134.578 102.369C135.038 102.369 135.453 102.455 135.822 102.625C136.192 102.795 136.494 103.034 136.73 103.341C136.966 103.648 137.112 104.006 137.169 104.415H136.163C136.087 104.116 135.916 103.852 135.652 103.622C135.391 103.389 135.038 103.273 134.595 103.273C134.203 103.273 133.859 103.375 133.564 103.58C133.271 103.781 133.043 104.067 132.878 104.436C132.716 104.803 132.635 105.233 132.635 105.727C132.635 106.233 132.714 106.673 132.874 107.048C133.036 107.423 133.263 107.714 133.555 107.922C133.851 108.129 134.197 108.233 134.595 108.233C134.857 108.233 135.094 108.188 135.307 108.097C135.52 108.006 135.7 107.875 135.848 107.705C135.996 107.534 136.101 107.33 136.163 107.091H137.169C137.112 107.477 136.972 107.825 136.747 108.135C136.526 108.442 136.232 108.686 135.865 108.868C135.501 109.047 135.078 109.136 134.595 109.136ZM141.486 102.455V103.307H138.094V102.455H141.486ZM139.082 100.886H140.088V107.125C140.088 107.409 140.129 107.622 140.212 107.764C140.297 107.903 140.405 107.997 140.536 108.045C140.669 108.091 140.81 108.114 140.957 108.114C141.068 108.114 141.159 108.108 141.23 108.097C141.301 108.082 141.358 108.071 141.401 108.062L141.605 108.966C141.537 108.991 141.442 109.017 141.32 109.043C141.197 109.071 141.043 109.085 140.855 109.085C140.571 109.085 140.293 109.024 140.02 108.902C139.75 108.78 139.526 108.594 139.347 108.344C139.17 108.094 139.082 107.778 139.082 107.398V100.886ZM145.673 109.136C145.042 109.136 144.498 108.997 144.04 108.719C143.586 108.438 143.235 108.045 142.988 107.543C142.744 107.037 142.621 106.449 142.621 105.778C142.621 105.108 142.744 104.517 142.988 104.006C143.235 103.491 143.579 103.091 144.019 102.804C144.462 102.514 144.979 102.369 145.57 102.369C145.911 102.369 146.248 102.426 146.58 102.54C146.913 102.653 147.215 102.838 147.488 103.094C147.761 103.347 147.978 103.682 148.14 104.099C148.302 104.517 148.383 105.031 148.383 105.642V106.068H143.337V105.199H147.36C147.36 104.83 147.286 104.5 147.138 104.21C146.994 103.92 146.786 103.692 146.516 103.524C146.249 103.357 145.934 103.273 145.57 103.273C145.17 103.273 144.823 103.372 144.531 103.571C144.241 103.767 144.018 104.023 143.862 104.338C143.705 104.653 143.627 104.991 143.627 105.352V105.932C143.627 106.426 143.712 106.845 143.883 107.189C144.056 107.53 144.296 107.79 144.603 107.969C144.91 108.145 145.266 108.233 145.673 108.233C145.937 108.233 146.175 108.196 146.388 108.122C146.604 108.045 146.79 107.932 146.947 107.781C147.103 107.628 147.224 107.437 147.309 107.21L148.281 107.483C148.178 107.812 148.006 108.102 147.765 108.352C147.523 108.599 147.225 108.793 146.87 108.932C146.515 109.068 146.116 109.136 145.673 109.136ZM152.384 109.136C151.839 109.136 151.357 108.999 150.94 108.723C150.522 108.445 150.195 108.053 149.96 107.547C149.724 107.038 149.606 106.438 149.606 105.744C149.606 105.057 149.724 104.46 149.96 103.955C150.195 103.449 150.523 103.058 150.944 102.783C151.364 102.507 151.85 102.369 152.401 102.369C152.827 102.369 153.164 102.44 153.411 102.582C153.661 102.722 153.852 102.881 153.982 103.06C154.116 103.236 154.219 103.381 154.293 103.494H154.379V100.273H155.384V109H154.413V107.994H154.293C154.219 108.114 154.114 108.264 153.978 108.446C153.842 108.625 153.647 108.786 153.394 108.928C153.141 109.067 152.805 109.136 152.384 109.136ZM152.521 108.233C152.924 108.233 153.265 108.128 153.543 107.918C153.822 107.705 154.033 107.411 154.178 107.036C154.323 106.658 154.396 106.222 154.396 105.727C154.396 105.239 154.325 104.811 154.183 104.445C154.04 104.075 153.83 103.788 153.552 103.584C153.273 103.376 152.93 103.273 152.521 103.273C152.094 103.273 151.739 103.382 151.455 103.601C151.174 103.817 150.962 104.111 150.82 104.483C150.681 104.852 150.612 105.267 150.612 105.727C150.612 106.193 150.683 106.616 150.825 106.997C150.969 107.375 151.183 107.676 151.464 107.901C151.748 108.122 152.1 108.233 152.521 108.233ZM163.587 102.455V103.307H160.195V102.455H163.587ZM161.184 100.886H162.19V107.125C162.19 107.409 162.231 107.622 162.313 107.764C162.398 107.903 162.506 107.997 162.637 108.045C162.771 108.091 162.911 108.114 163.059 108.114C163.17 108.114 163.261 108.108 163.332 108.097C163.403 108.082 163.46 108.071 163.502 108.062L163.707 108.966C163.638 108.991 163.543 109.017 163.421 109.043C163.299 109.071 163.144 109.085 162.957 109.085C162.673 109.085 162.394 109.024 162.121 108.902C161.852 108.78 161.627 108.594 161.448 108.344C161.272 108.094 161.184 107.778 161.184 107.398V100.886ZM167.689 109.136C167.098 109.136 166.58 108.996 166.134 108.714C165.69 108.433 165.344 108.04 165.094 107.534C164.847 107.028 164.723 106.437 164.723 105.761C164.723 105.08 164.847 104.484 165.094 103.976C165.344 103.467 165.69 103.072 166.134 102.791C166.58 102.51 167.098 102.369 167.689 102.369C168.28 102.369 168.797 102.51 169.24 102.791C169.686 103.072 170.033 103.467 170.28 103.976C170.53 104.484 170.655 105.08 170.655 105.761C170.655 106.437 170.53 107.028 170.28 107.534C170.033 108.04 169.686 108.433 169.24 108.714C168.797 108.996 168.28 109.136 167.689 109.136ZM167.689 108.233C168.138 108.233 168.507 108.118 168.797 107.888C169.087 107.658 169.301 107.355 169.44 106.98C169.58 106.605 169.649 106.199 169.649 105.761C169.649 105.324 169.58 104.916 169.44 104.538C169.301 104.161 169.087 103.855 168.797 103.622C168.507 103.389 168.138 103.273 167.689 103.273C167.24 103.273 166.871 103.389 166.581 103.622C166.291 103.855 166.077 104.161 165.938 104.538C165.798 104.916 165.729 105.324 165.729 105.761C165.729 106.199 165.798 106.605 165.938 106.98C166.077 107.355 166.291 107.658 166.581 107.888C166.871 108.118 167.24 108.233 167.689 108.233ZM175.701 109V100.273H178.65C179.335 100.273 179.895 100.396 180.329 100.643C180.767 100.888 181.091 101.219 181.301 101.636C181.511 102.054 181.616 102.52 181.616 103.034C181.616 103.548 181.511 104.016 181.301 104.436C181.093 104.857 180.772 105.192 180.338 105.442C179.903 105.689 179.346 105.812 178.667 105.812H176.554V104.875H178.633C179.102 104.875 179.478 104.794 179.762 104.632C180.047 104.47 180.252 104.251 180.38 103.976C180.511 103.697 180.576 103.384 180.576 103.034C180.576 102.685 180.511 102.372 180.38 102.097C180.252 101.821 180.045 101.605 179.758 101.449C179.471 101.29 179.091 101.21 178.616 101.21H176.758V109H175.701ZM185.771 109.136C185.18 109.136 184.662 108.996 184.216 108.714C183.772 108.433 183.426 108.04 183.176 107.534C182.929 107.028 182.805 106.437 182.805 105.761C182.805 105.08 182.929 104.484 183.176 103.976C183.426 103.467 183.772 103.072 184.216 102.791C184.662 102.51 185.18 102.369 185.771 102.369C186.362 102.369 186.879 102.51 187.322 102.791C187.768 103.072 188.115 103.467 188.362 103.976C188.612 104.484 188.737 105.08 188.737 105.761C188.737 106.437 188.612 107.028 188.362 107.534C188.115 108.04 187.768 108.433 187.322 108.714C186.879 108.996 186.362 109.136 185.771 109.136ZM185.771 108.233C186.22 108.233 186.589 108.118 186.879 107.888C187.169 107.658 187.383 107.355 187.522 106.98C187.662 106.605 187.731 106.199 187.731 105.761C187.731 105.324 187.662 104.916 187.522 104.538C187.383 104.161 187.169 103.855 186.879 103.622C186.589 103.389 186.22 103.273 185.771 103.273C185.322 103.273 184.953 103.389 184.663 103.622C184.373 103.855 184.159 104.161 184.02 104.538C183.88 104.916 183.811 105.324 183.811 105.761C183.811 106.199 183.88 106.605 184.02 106.98C184.159 107.355 184.373 107.658 184.663 107.888C184.953 108.118 185.322 108.233 185.771 108.233ZM194.908 103.92L194.005 104.176C193.948 104.026 193.864 103.879 193.754 103.737C193.646 103.592 193.498 103.473 193.31 103.379C193.123 103.286 192.883 103.239 192.59 103.239C192.19 103.239 191.856 103.331 191.589 103.516C191.325 103.697 191.192 103.929 191.192 104.21C191.192 104.46 191.283 104.658 191.465 104.803C191.647 104.947 191.931 105.068 192.317 105.165L193.289 105.403C193.874 105.545 194.31 105.763 194.597 106.055C194.884 106.345 195.028 106.719 195.028 107.176C195.028 107.551 194.92 107.886 194.704 108.182C194.491 108.477 194.192 108.71 193.809 108.881C193.425 109.051 192.979 109.136 192.471 109.136C191.803 109.136 191.251 108.991 190.813 108.702C190.376 108.412 190.099 107.989 189.982 107.432L190.937 107.193C191.028 107.545 191.2 107.81 191.452 107.986C191.708 108.162 192.042 108.25 192.454 108.25C192.923 108.25 193.295 108.151 193.57 107.952C193.849 107.75 193.988 107.509 193.988 107.227C193.988 107 193.908 106.81 193.749 106.656C193.59 106.5 193.346 106.384 193.016 106.307L191.925 106.051C191.326 105.909 190.886 105.689 190.604 105.391C190.326 105.089 190.187 104.713 190.187 104.261C190.187 103.892 190.29 103.565 190.498 103.281C190.708 102.997 190.994 102.774 191.354 102.612C191.718 102.45 192.13 102.369 192.59 102.369C193.238 102.369 193.746 102.511 194.116 102.795C194.488 103.08 194.752 103.455 194.908 103.92ZM199.388 102.455V103.307H195.996V102.455H199.388ZM196.985 100.886H197.99V107.125C197.99 107.409 198.032 107.622 198.114 107.764C198.199 107.903 198.307 107.997 198.438 108.045C198.571 108.091 198.712 108.114 198.86 108.114C198.971 108.114 199.061 108.108 199.132 108.097C199.203 108.082 199.26 108.071 199.303 108.062L199.507 108.966C199.439 108.991 199.344 109.017 199.222 109.043C199.1 109.071 198.945 109.085 198.757 109.085C198.473 109.085 198.195 109.024 197.922 108.902C197.652 108.78 197.428 108.594 197.249 108.344C197.073 108.094 196.985 107.778 196.985 107.398V100.886ZM203.473 111.591C202.987 111.591 202.569 111.528 202.22 111.403C201.87 111.281 201.579 111.119 201.346 110.918C201.116 110.719 200.933 110.506 200.797 110.278L201.598 109.716C201.689 109.835 201.804 109.972 201.943 110.125C202.082 110.281 202.272 110.416 202.514 110.53C202.758 110.646 203.078 110.705 203.473 110.705C204.001 110.705 204.437 110.577 204.781 110.321C205.125 110.065 205.297 109.665 205.297 109.119V107.79H205.211C205.137 107.909 205.032 108.057 204.896 108.233C204.762 108.406 204.569 108.561 204.316 108.697C204.066 108.831 203.728 108.898 203.302 108.898C202.774 108.898 202.299 108.773 201.879 108.523C201.461 108.273 201.13 107.909 200.886 107.432C200.645 106.955 200.524 106.375 200.524 105.693C200.524 105.023 200.642 104.439 200.877 103.942C201.113 103.442 201.441 103.055 201.862 102.783C202.282 102.507 202.768 102.369 203.319 102.369C203.745 102.369 204.083 102.44 204.333 102.582C204.586 102.722 204.779 102.881 204.913 103.06C205.049 103.236 205.154 103.381 205.228 103.494H205.331V102.455H206.302V109.188C206.302 109.75 206.174 110.207 205.919 110.56C205.666 110.915 205.325 111.175 204.896 111.339C204.47 111.507 203.995 111.591 203.473 111.591ZM203.439 107.994C203.842 107.994 204.183 107.902 204.461 107.717C204.74 107.533 204.951 107.267 205.096 106.92C205.241 106.574 205.314 106.159 205.314 105.676C205.314 105.205 205.243 104.788 205.1 104.428C204.958 104.067 204.748 103.784 204.47 103.58C204.191 103.375 203.848 103.273 203.439 103.273C203.012 103.273 202.657 103.381 202.373 103.597C202.092 103.812 201.88 104.102 201.738 104.466C201.599 104.83 201.529 105.233 201.529 105.676C201.529 106.131 201.6 106.533 201.743 106.882C201.887 107.229 202.1 107.501 202.382 107.7C202.666 107.896 203.018 107.994 203.439 107.994ZM208.143 109V102.455H209.115V103.443H209.183C209.302 103.119 209.518 102.857 209.831 102.655C210.143 102.453 210.495 102.352 210.887 102.352C210.961 102.352 211.054 102.354 211.164 102.357C211.275 102.359 211.359 102.364 211.416 102.369V103.392C211.382 103.384 211.304 103.371 211.181 103.354C211.062 103.334 210.936 103.324 210.802 103.324C210.484 103.324 210.2 103.391 209.95 103.524C209.703 103.655 209.507 103.837 209.362 104.07C209.22 104.3 209.149 104.562 209.149 104.858V109H208.143ZM215.153 109.136C214.522 109.136 213.978 108.997 213.521 108.719C213.066 108.438 212.716 108.045 212.468 107.543C212.224 107.037 212.102 106.449 212.102 105.778C212.102 105.108 212.224 104.517 212.468 104.006C212.716 103.491 213.059 103.091 213.5 102.804C213.943 102.514 214.46 102.369 215.051 102.369C215.392 102.369 215.728 102.426 216.061 102.54C216.393 102.653 216.696 102.838 216.968 103.094C217.241 103.347 217.458 103.682 217.62 104.099C217.782 104.517 217.863 105.031 217.863 105.642V106.068H212.818V105.199H216.841C216.841 104.83 216.767 104.5 216.619 104.21C216.474 103.92 216.267 103.692 215.997 103.524C215.73 103.357 215.414 103.273 215.051 103.273C214.65 103.273 214.304 103.372 214.011 103.571C213.721 103.767 213.498 104.023 213.342 104.338C213.186 104.653 213.108 104.991 213.108 105.352V105.932C213.108 106.426 213.193 106.845 213.363 107.189C213.537 107.53 213.777 107.79 214.083 107.969C214.39 108.145 214.747 108.233 215.153 108.233C215.417 108.233 215.656 108.196 215.869 108.122C216.085 108.045 216.271 107.932 216.427 107.781C216.583 107.628 216.704 107.437 216.789 107.21L217.761 107.483C217.659 107.812 217.487 108.102 217.245 108.352C217.004 108.599 216.706 108.793 216.35 108.932C215.995 109.068 215.596 109.136 215.153 109.136ZM224.302 102.455C224.251 102.023 224.044 101.688 223.68 101.449C223.316 101.21 222.87 101.091 222.342 101.091C221.956 101.091 221.618 101.153 221.328 101.278C221.041 101.403 220.816 101.575 220.654 101.794C220.495 102.013 220.416 102.261 220.416 102.54C220.416 102.773 220.471 102.973 220.582 103.141C220.696 103.305 220.841 103.443 221.017 103.554C221.193 103.662 221.377 103.751 221.571 103.822C221.764 103.891 221.941 103.946 222.103 103.989L222.99 104.227C223.217 104.287 223.47 104.369 223.748 104.474C224.029 104.58 224.298 104.723 224.554 104.905C224.812 105.084 225.025 105.314 225.193 105.595C225.36 105.876 225.444 106.222 225.444 106.631C225.444 107.102 225.321 107.528 225.074 107.909C224.829 108.29 224.471 108.592 224 108.817C223.531 109.041 222.961 109.153 222.291 109.153C221.666 109.153 221.125 109.053 220.667 108.851C220.213 108.649 219.855 108.368 219.593 108.007C219.335 107.646 219.189 107.227 219.154 106.75H220.245C220.274 107.08 220.385 107.352 220.578 107.568C220.774 107.781 221.021 107.94 221.319 108.045C221.62 108.148 221.944 108.199 222.291 108.199C222.694 108.199 223.056 108.134 223.377 108.003C223.699 107.869 223.953 107.685 224.14 107.449C224.328 107.21 224.422 106.932 224.422 106.614C224.422 106.324 224.341 106.088 224.179 105.906C224.017 105.724 223.804 105.577 223.539 105.463C223.275 105.349 222.99 105.25 222.683 105.165L221.609 104.858C220.927 104.662 220.387 104.382 219.99 104.018C219.592 103.655 219.393 103.179 219.393 102.591C219.393 102.102 219.525 101.676 219.789 101.312C220.056 100.946 220.414 100.662 220.863 100.46C221.315 100.256 221.819 100.153 222.376 100.153C222.939 100.153 223.439 100.254 223.876 100.456C224.314 100.655 224.66 100.928 224.916 101.274C225.174 101.621 225.311 102.014 225.325 102.455H224.302ZM230.352 106.273H231.511L232.483 107.551L232.739 107.892L234.188 109.818H233.028L232.074 108.54L231.835 108.216L230.352 106.273ZM234.545 104.636C234.545 105.557 234.379 106.352 234.047 107.023C233.714 107.693 233.259 108.21 232.679 108.574C232.099 108.938 231.438 109.119 230.693 109.119C229.949 109.119 229.287 108.938 228.707 108.574C228.128 108.21 227.672 107.693 227.339 107.023C227.007 106.352 226.841 105.557 226.841 104.636C226.841 103.716 227.007 102.92 227.339 102.25C227.672 101.58 228.128 101.062 228.707 100.699C229.287 100.335 229.949 100.153 230.693 100.153C231.438 100.153 232.099 100.335 232.679 100.699C233.259 101.062 233.714 101.58 234.047 102.25C234.379 102.92 234.545 103.716 234.545 104.636ZM233.523 104.636C233.523 103.881 233.396 103.243 233.143 102.723C232.893 102.203 232.554 101.81 232.125 101.543C231.699 101.276 231.222 101.142 230.693 101.142C230.165 101.142 229.686 101.276 229.257 101.543C228.831 101.81 228.491 102.203 228.239 102.723C227.989 103.243 227.864 103.881 227.864 104.636C227.864 105.392 227.989 106.03 228.239 106.55C228.491 107.07 228.831 107.463 229.257 107.73C229.686 107.997 230.165 108.131 230.693 108.131C231.222 108.131 231.699 107.997 232.125 107.73C232.554 107.463 232.893 107.07 233.143 106.55C233.396 106.03 233.523 105.392 233.523 104.636ZM236.322 109V100.273H237.379V108.062H241.436V109H236.322Z" fill="#363636"/>
<circle cx="36" cy="27" r="4" fill="#FF5F56"/>
<circle cx="48" cy="27" r="4" fill="#FFBD2E"/>
<circle cx="60" cy="27" r="4" fill="#27C93F"/>
</g>
<defs>
<filter id="filter0_d_309_207" x="0" y="0" width="420" height="150" filterUnits="userSpaceOnUse" color-interpolation-filters="sRGB">
<feFlood flood-opacity="0" result="BackgroundImageFix"/>
<feColorMatrix in="SourceAlpha" type="matrix" values="0 0 0 0 0 0 0 0 0 0 0 0 0 0 0 0 0 0 127 0" result="hardAlpha"/>
<feOffset dy="4"/>
<feGaussianBlur stdDeviation="7.5"/>
<feComposite in2="hardAlpha" operator="out"/>
<feColorMatrix type="matrix" values="0 0 0 0 0 0 0 0 0 0 0 0 0 0 0 0 0 0 0.1 0"/>
<feBlend mode="normal" in2="BackgroundImageFix" result="effect1_dropShadow_309_207"/>
<feBlend mode="normal" in="SourceGraphic" in2="effect1_dropShadow_309_207" result="shape"/>
</filter>
</defs>
</svg>
