<svg width="381" height="119" viewBox="0 0 381 119" fill="none" xmlns="http://www.w3.org/2000/svg">
<g filter="url(#filter0_d_309_207)">
<rect x="15" y="11" width="351" height="89" rx="8" fill="white"/>
<path d="M49.1477 41V29.3636H53.5114C54.4053 29.3636 55.1553 29.5303 55.7614 29.8636C56.3712 30.197 56.8314 30.6553 57.142 31.2386C57.4564 31.8182 57.6136 32.4773 57.6136 33.2159C57.6136 33.9621 57.4564 34.625 57.142 35.2045C56.8277 35.7841 56.3636 36.2405 55.75 36.5739C55.1364 36.9034 54.3807 37.0682 53.483 37.0682H50.5909V35.3352H53.1989C53.7216 35.3352 54.1496 35.2443 54.483 35.0625C54.8163 34.8807 55.0625 34.6307 55.2216 34.3125C55.3845 33.9943 55.4659 33.6288 55.4659 33.2159C55.4659 32.803 55.3845 32.4394 55.2216 32.125C55.0625 31.8106 54.8144 31.5663 54.4773 31.392C54.1439 31.214 53.714 31.125 53.1875 31.125H51.2557V41H49.1477ZM61.7088 41.1761C61.1558 41.1761 60.6577 41.0777 60.2145 40.8807C59.7751 40.6799 59.4266 40.3845 59.169 39.9943C58.9152 39.6042 58.7884 39.1231 58.7884 38.5511C58.7884 38.0587 58.8793 37.6515 59.0611 37.3295C59.2429 37.0076 59.491 36.75 59.8054 36.5568C60.1198 36.3636 60.474 36.2178 60.8679 36.1193C61.2656 36.017 61.6766 35.9432 62.1009 35.8977C62.6122 35.8447 63.027 35.7973 63.3452 35.7557C63.6634 35.7102 63.8944 35.642 64.0384 35.5511C64.1861 35.4564 64.2599 35.3106 64.2599 35.1136V35.0795C64.2599 34.6515 64.133 34.3201 63.8793 34.0852C63.6255 33.8504 63.2599 33.733 62.7827 33.733C62.2789 33.733 61.8793 33.8428 61.5838 34.0625C61.2921 34.2822 61.0952 34.5417 60.9929 34.8409L59.0724 34.5682C59.224 34.0379 59.474 33.5947 59.8224 33.2386C60.1709 32.8788 60.5971 32.6098 61.1009 32.4318C61.6046 32.25 62.1615 32.1591 62.7713 32.1591C63.1918 32.1591 63.6103 32.2083 64.027 32.3068C64.4437 32.4053 64.8243 32.5682 65.169 32.7955C65.5137 33.0189 65.7902 33.3239 65.9986 33.7102C66.2107 34.0966 66.3168 34.5795 66.3168 35.1591V41H64.3395V39.8011H64.2713C64.1463 40.0436 63.9702 40.2708 63.7429 40.483C63.5194 40.6913 63.2372 40.8598 62.8963 40.9886C62.5592 41.1136 62.1634 41.1761 61.7088 41.1761ZM62.2429 39.6648C62.6558 39.6648 63.0137 39.5833 63.3168 39.4205C63.6198 39.2538 63.8527 39.0341 64.0156 38.7614C64.1823 38.4886 64.2656 38.1913 64.2656 37.8693V36.8409C64.2012 36.8939 64.0914 36.9432 63.9361 36.9886C63.7846 37.0341 63.6141 37.0739 63.4247 37.108C63.2353 37.142 63.0478 37.1723 62.8622 37.1989C62.6766 37.2254 62.5156 37.2481 62.3793 37.267C62.0724 37.3087 61.7978 37.3769 61.5554 37.4716C61.313 37.5663 61.1217 37.6989 60.9815 37.8693C60.8414 38.036 60.7713 38.2519 60.7713 38.517C60.7713 38.8958 60.9096 39.1818 61.1861 39.375C61.4626 39.5682 61.8149 39.6648 62.2429 39.6648ZM75.2827 34.5795L73.4077 34.7841C73.3546 34.5947 73.2618 34.4167 73.1293 34.25C73.0005 34.0833 72.8262 33.9489 72.6065 33.8466C72.3868 33.7443 72.1179 33.6932 71.7997 33.6932C71.3717 33.6932 71.0118 33.786 70.7202 33.9716C70.4323 34.1572 70.2902 34.3977 70.294 34.6932C70.2902 34.947 70.383 35.1534 70.5724 35.3125C70.7656 35.4716 71.0838 35.6023 71.527 35.7045L73.0156 36.0227C73.8414 36.2008 74.455 36.483 74.8565 36.8693C75.2618 37.2557 75.4664 37.7614 75.4702 38.3864C75.4664 38.9356 75.3054 39.4205 74.9872 39.8409C74.6728 40.2576 74.2353 40.5833 73.6747 40.8182C73.1141 41.053 72.4702 41.1705 71.7429 41.1705C70.6747 41.1705 69.8149 40.947 69.1634 40.5C68.5118 40.0492 68.1236 39.4223 67.9986 38.6193L70.0043 38.4261C70.0952 38.8201 70.2884 39.1174 70.5838 39.3182C70.8793 39.5189 71.2637 39.6193 71.7372 39.6193C72.2259 39.6193 72.6179 39.5189 72.9134 39.3182C73.2126 39.1174 73.3622 38.8693 73.3622 38.5739C73.3622 38.3239 73.2656 38.1174 73.0724 37.9545C72.883 37.7917 72.5876 37.6667 72.1861 37.5795L70.6974 37.267C69.8603 37.0928 69.241 36.7992 68.8395 36.3864C68.438 35.9697 68.2391 35.4432 68.2429 34.8068C68.2391 34.2689 68.3849 33.803 68.6804 33.4091C68.9796 33.0114 69.3944 32.7045 69.9247 32.4886C70.4588 32.2689 71.0743 32.1591 71.7713 32.1591C72.794 32.1591 73.599 32.3769 74.1861 32.8125C74.777 33.2481 75.1425 33.8371 75.2827 34.5795ZM81.5241 32.2727V33.8636H76.5071V32.2727H81.5241ZM77.7457 30.1818H79.8026V38.375C79.8026 38.6515 79.8442 38.8636 79.9276 39.0114C80.0147 39.1553 80.1283 39.2538 80.2685 39.3068C80.4086 39.3598 80.5639 39.3864 80.7344 39.3864C80.8632 39.3864 80.9806 39.3769 81.0866 39.358C81.1965 39.339 81.2798 39.322 81.3366 39.3068L81.6832 40.9148C81.5734 40.9527 81.4162 40.9943 81.2116 41.0398C81.0109 41.0852 80.7647 41.1117 80.473 41.1193C79.9579 41.1345 79.4938 41.0568 79.081 40.8864C78.6681 40.7121 78.3404 40.4432 78.098 40.0795C77.8594 39.7159 77.742 39.2614 77.7457 38.7159V30.1818ZM87.0142 41.1705C86.1392 41.1705 85.3835 40.9886 84.7472 40.625C84.1146 40.2576 83.6278 39.7386 83.2869 39.0682C82.946 38.3939 82.7756 37.6004 82.7756 36.6875C82.7756 35.7898 82.946 35.0019 83.2869 34.3239C83.6316 33.642 84.1127 33.1117 84.7301 32.733C85.3475 32.3504 86.0729 32.1591 86.9062 32.1591C87.4441 32.1591 87.9517 32.2462 88.429 32.4205C88.91 32.5909 89.3343 32.8561 89.7017 33.2159C90.0729 33.5758 90.3646 34.0341 90.5767 34.5909C90.7888 35.1439 90.8949 35.803 90.8949 36.5682V37.1989H83.7415V35.8125H88.9233C88.9195 35.4186 88.8343 35.0682 88.6676 34.7614C88.5009 34.4508 88.268 34.2064 87.9688 34.0284C87.6733 33.8504 87.3286 33.7614 86.9347 33.7614C86.5142 33.7614 86.1449 33.8636 85.8267 34.0682C85.5085 34.2689 85.2604 34.5341 85.0824 34.8636C84.9081 35.1894 84.8191 35.5473 84.8153 35.9375V37.1477C84.8153 37.6553 84.9081 38.0909 85.0938 38.4545C85.2794 38.8144 85.5388 39.0909 85.8722 39.2841C86.2055 39.4735 86.5956 39.5682 87.0426 39.5682C87.3419 39.5682 87.6127 39.5265 87.8551 39.4432C88.0975 39.3561 88.3078 39.2292 88.4858 39.0625C88.6638 38.8958 88.7983 38.6894 88.8892 38.4432L90.8097 38.6591C90.6884 39.1667 90.4574 39.6098 90.1165 39.9886C89.7794 40.3636 89.3475 40.6553 88.821 40.8636C88.2945 41.0682 87.6922 41.1705 87.0142 41.1705ZM94.6918 29.3636V41H92.6349V29.3636H94.6918ZM100.67 41.1705C99.7955 41.1705 99.0398 40.9886 98.4034 40.625C97.7708 40.2576 97.2841 39.7386 96.9432 39.0682C96.6023 38.3939 96.4318 37.6004 96.4318 36.6875C96.4318 35.7898 96.6023 35.0019 96.9432 34.3239C97.2879 33.642 97.7689 33.1117 98.3864 32.733C99.0038 32.3504 99.7292 32.1591 100.562 32.1591C101.1 32.1591 101.608 32.2462 102.085 32.4205C102.566 32.5909 102.991 32.8561 103.358 33.2159C103.729 33.5758 104.021 34.0341 104.233 34.5909C104.445 35.1439 104.551 35.803 104.551 36.5682V37.1989H97.3977V35.8125H102.58C102.576 35.4186 102.491 35.0682 102.324 34.7614C102.157 34.4508 101.924 34.2064 101.625 34.0284C101.33 33.8504 100.985 33.7614 100.591 33.7614C100.17 33.7614 99.8011 33.8636 99.483 34.0682C99.1648 34.2689 98.9167 34.5341 98.7386 34.8636C98.5644 35.1894 98.4754 35.5473 98.4716 35.9375V37.1477C98.4716 37.6553 98.5644 38.0909 98.75 38.4545C98.9356 38.8144 99.1951 39.0909 99.5284 39.2841C99.8617 39.4735 100.252 39.5682 100.699 39.5682C100.998 39.5682 101.269 39.5265 101.511 39.4432C101.754 39.3561 101.964 39.2292 102.142 39.0625C102.32 38.8958 102.455 38.6894 102.545 38.4432L104.466 38.6591C104.345 39.1667 104.114 39.6098 103.773 39.9886C103.436 40.3636 103.004 40.6553 102.477 40.8636C101.951 41.0682 101.348 41.1705 100.67 41.1705ZM106.291 41V32.2727H108.286V33.7273H108.376C108.536 33.2235 108.808 32.8352 109.195 32.5625C109.585 32.286 110.03 32.1477 110.53 32.1477C110.643 32.1477 110.77 32.1534 110.911 32.1648C111.054 32.1723 111.174 32.1856 111.268 32.2045V34.0966C111.181 34.0663 111.043 34.0398 110.854 34.017C110.668 33.9905 110.488 33.9773 110.314 33.9773C109.939 33.9773 109.602 34.0587 109.303 34.2216C109.007 34.3807 108.774 34.6023 108.604 34.8864C108.433 35.1705 108.348 35.4981 108.348 35.8693V41H106.291ZM112.635 41V32.2727H114.692V41H112.635ZM112.879 31.125L114.152 28.5284H116.163L114.419 31.125H112.879ZM119.318 41.1761C118.765 41.1761 118.267 41.0777 117.824 40.8807C117.384 40.6799 117.036 40.3845 116.778 39.9943C116.525 39.6042 116.398 39.1231 116.398 38.5511C116.398 38.0587 116.489 37.6515 116.67 37.3295C116.852 37.0076 117.1 36.75 117.415 36.5568C117.729 36.3636 118.083 36.2178 118.477 36.1193C118.875 36.017 119.286 35.9432 119.71 35.8977C120.222 35.8447 120.636 35.7973 120.955 35.7557C121.273 35.7102 121.504 35.642 121.648 35.5511C121.795 35.4564 121.869 35.3106 121.869 35.1136V35.0795C121.869 34.6515 121.742 34.3201 121.489 34.0852C121.235 33.8504 120.869 33.733 120.392 33.733C119.888 33.733 119.489 33.8428 119.193 34.0625C118.902 34.2822 118.705 34.5417 118.602 34.8409L116.682 34.5682C116.833 34.0379 117.083 33.5947 117.432 33.2386C117.78 32.8788 118.206 32.6098 118.71 32.4318C119.214 32.25 119.771 32.1591 120.381 32.1591C120.801 32.1591 121.22 32.2083 121.636 32.3068C122.053 32.4053 122.434 32.5682 122.778 32.7955C123.123 33.0189 123.4 33.3239 123.608 33.7102C123.82 34.0966 123.926 34.5795 123.926 35.1591V41H121.949V39.8011H121.881C121.756 40.0436 121.58 40.2708 121.352 40.483C121.129 40.6913 120.847 40.8598 120.506 40.9886C120.169 41.1136 119.773 41.1761 119.318 41.1761ZM119.852 39.6648C120.265 39.6648 120.623 39.5833 120.926 39.4205C121.229 39.2538 121.462 39.0341 121.625 38.7614C121.792 38.4886 121.875 38.1913 121.875 37.8693V36.8409C121.811 36.8939 121.701 36.9432 121.545 36.9886C121.394 37.0341 121.223 37.0739 121.034 37.108C120.845 37.142 120.657 37.1723 120.472 37.1989C120.286 37.2254 120.125 37.2481 119.989 37.267C119.682 37.3087 119.407 37.3769 119.165 37.4716C118.922 37.5663 118.731 37.6989 118.591 37.8693C118.451 38.036 118.381 38.2519 118.381 38.517C118.381 38.8958 118.519 39.1818 118.795 39.375C119.072 39.5682 119.424 39.6648 119.852 39.6648ZM130.054 41V29.3636H134.509C135.349 29.3636 136.048 29.4962 136.605 29.7614C137.166 30.0227 137.584 30.3807 137.861 30.8352C138.141 31.2898 138.281 31.8049 138.281 32.3807C138.281 32.8542 138.19 33.2595 138.009 33.5966C137.827 33.9299 137.582 34.2008 137.276 34.4091C136.969 34.6174 136.626 34.767 136.247 34.858V34.9716C136.66 34.9943 137.056 35.1212 137.435 35.3523C137.817 35.5795 138.13 35.9015 138.372 36.3182C138.615 36.7348 138.736 37.2386 138.736 37.8295C138.736 38.4318 138.59 38.9735 138.298 39.4545C138.007 39.9318 137.567 40.3087 136.98 40.5852C136.393 40.8617 135.654 41 134.764 41H130.054ZM132.162 39.2386H134.429C135.194 39.2386 135.745 39.0928 136.082 38.8011C136.423 38.5057 136.594 38.1269 136.594 37.6648C136.594 37.3201 136.509 37.0095 136.338 36.733C136.168 36.4527 135.925 36.233 135.611 36.0739C135.296 35.911 134.921 35.8295 134.486 35.8295H132.162V39.2386ZM132.162 34.3125H134.247C134.611 34.3125 134.938 34.2462 135.23 34.1136C135.522 33.9773 135.751 33.786 135.918 33.5398C136.088 33.2898 136.173 32.9943 136.173 32.6534C136.173 32.2027 136.014 31.8314 135.696 31.5398C135.382 31.2481 134.914 31.1023 134.293 31.1023H132.162V34.3125ZM144.342 41.1705C143.467 41.1705 142.712 40.9886 142.075 40.625C141.443 40.2576 140.956 39.7386 140.615 39.0682C140.274 38.3939 140.104 37.6004 140.104 36.6875C140.104 35.7898 140.274 35.0019 140.615 34.3239C140.96 33.642 141.441 33.1117 142.058 32.733C142.676 32.3504 143.401 32.1591 144.234 32.1591C144.772 32.1591 145.28 32.2462 145.757 32.4205C146.238 32.5909 146.662 32.8561 147.03 33.2159C147.401 33.5758 147.693 34.0341 147.905 34.5909C148.117 35.1439 148.223 35.803 148.223 36.5682V37.1989H141.07V35.8125H146.251C146.248 35.4186 146.162 35.0682 145.996 34.7614C145.829 34.4508 145.596 34.2064 145.297 34.0284C145.001 33.8504 144.657 33.7614 144.263 33.7614C143.842 33.7614 143.473 33.8636 143.155 34.0682C142.837 34.2689 142.589 34.5341 142.411 34.8636C142.236 35.1894 142.147 35.5473 142.143 35.9375V37.1477C142.143 37.6553 142.236 38.0909 142.422 38.4545C142.607 38.8144 142.867 39.0909 143.2 39.2841C143.534 39.4735 143.924 39.5682 144.371 39.5682C144.67 39.5682 144.941 39.5265 145.183 39.4432C145.426 39.3561 145.636 39.2292 145.814 39.0625C145.992 38.8958 146.126 38.6894 146.217 38.4432L148.138 38.6591C148.017 39.1667 147.786 39.6098 147.445 39.9886C147.107 40.3636 146.676 40.6553 146.149 40.8636C145.623 41.0682 145.02 41.1705 144.342 41.1705ZM153.202 41.1534C152.516 41.1534 151.902 40.9773 151.361 40.625C150.819 40.2727 150.391 39.7614 150.077 39.0909C149.762 38.4205 149.605 37.6061 149.605 36.6477C149.605 35.678 149.764 34.8598 150.082 34.1932C150.404 33.5227 150.838 33.017 151.384 32.6761C151.929 32.3314 152.537 32.1591 153.207 32.1591C153.719 32.1591 154.139 32.2462 154.469 32.4205C154.798 32.5909 155.06 32.7973 155.253 33.0398C155.446 33.2784 155.596 33.5038 155.702 33.7159H155.787V29.3636H157.849V41H155.827V39.625H155.702C155.596 39.8371 155.442 40.0625 155.241 40.3011C155.041 40.536 154.776 40.7367 154.446 40.9034C154.116 41.0701 153.702 41.1534 153.202 41.1534ZM153.776 39.4659C154.211 39.4659 154.582 39.3485 154.889 39.1136C155.196 38.875 155.429 38.5436 155.588 38.1193C155.747 37.6951 155.827 37.2008 155.827 36.6364C155.827 36.072 155.747 35.5814 155.588 35.1648C155.433 34.7481 155.202 34.4242 154.895 34.1932C154.592 33.9621 154.219 33.8466 153.776 33.8466C153.317 33.8466 152.935 33.9659 152.628 34.2045C152.321 34.4432 152.09 34.7727 151.935 35.1932C151.779 35.6136 151.702 36.0947 151.702 36.6364C151.702 37.1818 151.779 37.6686 151.935 38.0966C152.094 38.5208 152.327 38.8561 152.634 39.1023C152.944 39.3447 153.325 39.4659 153.776 39.4659ZM165.604 37.3295V32.2727H167.661V41H165.666V39.4489H165.575C165.378 39.9375 165.054 40.3371 164.604 40.6477C164.157 40.9583 163.606 41.1136 162.95 41.1136C162.378 41.1136 161.873 40.9867 161.433 40.733C160.998 40.4754 160.657 40.1023 160.411 39.6136C160.164 39.1212 160.041 38.5265 160.041 37.8295V32.2727H162.098V37.5114C162.098 38.0644 162.25 38.5038 162.553 38.8295C162.856 39.1553 163.253 39.3182 163.746 39.3182C164.049 39.3182 164.342 39.2443 164.626 39.0966C164.911 38.9489 165.143 38.7292 165.325 38.4375C165.511 38.142 165.604 37.7727 165.604 37.3295Z" fill="#363636"/>
<path d="M49.0568 67V58.2727H52.108C52.7159 58.2727 53.2173 58.3778 53.6122 58.5881C54.0071 58.7955 54.3011 59.0753 54.4943 59.4276C54.6875 59.777 54.7841 60.1648 54.7841 60.5909C54.7841 60.9659 54.7173 61.2756 54.5838 61.5199C54.4531 61.7642 54.2798 61.9574 54.0639 62.0994C53.8509 62.2415 53.6193 62.3466 53.3693 62.4148V62.5C53.6364 62.517 53.9048 62.6108 54.1747 62.7812C54.4446 62.9517 54.6705 63.196 54.8523 63.5142C55.0341 63.8324 55.125 64.2216 55.125 64.6818C55.125 65.1193 55.0256 65.5128 54.8267 65.8622C54.6278 66.2116 54.3139 66.4886 53.8849 66.6932C53.456 66.8977 52.8977 67 52.2102 67H49.0568ZM50.1136 66.0625H52.2102C52.9006 66.0625 53.3906 65.929 53.6804 65.6619C53.973 65.392 54.1193 65.0653 54.1193 64.6818C54.1193 64.3864 54.044 64.1136 53.8935 63.8636C53.7429 63.6108 53.5284 63.4091 53.25 63.2585C52.9716 63.1051 52.642 63.0284 52.2614 63.0284H50.1136V66.0625ZM50.1136 62.108H52.0739C52.392 62.108 52.679 62.0455 52.9347 61.9205C53.1932 61.7955 53.3977 61.6193 53.5483 61.392C53.7017 61.1648 53.7784 60.8977 53.7784 60.5909C53.7784 60.2074 53.6449 59.8821 53.3778 59.6151C53.1108 59.3452 52.6875 59.2102 52.108 59.2102H50.1136V62.108ZM58.6513 67.1534C58.2365 67.1534 57.8601 67.0753 57.522 66.919C57.1839 66.7599 56.9155 66.5312 56.7166 66.233C56.5178 65.9318 56.4183 65.5682 56.4183 65.142C56.4183 64.767 56.4922 64.4631 56.6399 64.2301C56.7876 63.9943 56.9851 63.8097 57.2322 63.6761C57.4794 63.5426 57.7521 63.4432 58.0504 63.3778C58.3516 63.3097 58.6541 63.2557 58.9581 63.2159C59.3558 63.1648 59.6783 63.1264 59.9254 63.1009C60.1754 63.0724 60.3572 63.0256 60.4709 62.9602C60.5874 62.8949 60.6456 62.7812 60.6456 62.6193V62.5852C60.6456 62.1648 60.5305 61.8381 60.3004 61.6051C60.0732 61.3722 59.728 61.2557 59.2649 61.2557C58.7848 61.2557 58.4084 61.3608 58.1357 61.571C57.8629 61.7812 57.6712 62.0057 57.5604 62.2443L56.6058 61.9034C56.7763 61.5057 57.0036 61.196 57.2876 60.9744C57.5746 60.75 57.8871 60.5937 58.2251 60.5057C58.5661 60.4148 58.9013 60.3693 59.2308 60.3693C59.4411 60.3693 59.6825 60.3949 59.9553 60.446C60.2308 60.4943 60.4964 60.5952 60.7521 60.7486C61.0107 60.902 61.2251 61.1335 61.3956 61.4432C61.5661 61.7528 61.6513 62.1676 61.6513 62.6875V67H60.6456V66.1136H60.5945C60.5263 66.2557 60.4126 66.4077 60.2536 66.5696C60.0945 66.7315 59.8828 66.8693 59.6186 66.983C59.3544 67.0966 59.032 67.1534 58.6513 67.1534ZM58.8047 66.25C59.2024 66.25 59.5376 66.1719 59.8104 66.0156C60.0859 65.8594 60.2933 65.6577 60.4325 65.4105C60.5746 65.1634 60.6456 64.9034 60.6456 64.6307V63.7102C60.603 63.7614 60.5092 63.8082 60.3643 63.8509C60.2223 63.8906 60.0575 63.9261 59.87 63.9574C59.6854 63.9858 59.505 64.0114 59.3288 64.0341C59.1555 64.054 59.0149 64.071 58.907 64.0852C58.6456 64.1193 58.4013 64.1747 58.174 64.2514C57.9496 64.3253 57.7678 64.4375 57.6286 64.5881C57.4922 64.7358 57.424 64.9375 57.424 65.1932C57.424 65.5426 57.5533 65.8068 57.8118 65.9858C58.0732 66.1619 58.4041 66.25 58.8047 66.25ZM64.4244 64.6136L64.4073 63.3693H64.6119L67.4755 60.4545H68.7198L65.6687 63.5398H65.5835L64.4244 64.6136ZM63.4869 67V58.2727H64.4925V67H63.4869ZM67.646 67L65.0891 63.7614L65.805 63.0625L68.9244 67H67.646ZM72.489 67.1364C71.8583 67.1364 71.3143 66.9972 70.8569 66.7188C70.4023 66.4375 70.0515 66.0455 69.8043 65.5426C69.56 65.0369 69.4379 64.4489 69.4379 63.7784C69.4379 63.108 69.56 62.517 69.8043 62.0057C70.0515 61.4915 70.3952 61.0909 70.8356 60.804C71.2788 60.5142 71.7958 60.3693 72.3867 60.3693C72.7276 60.3693 73.0643 60.4261 73.3967 60.5398C73.729 60.6534 74.0316 60.8381 74.3043 61.0938C74.5771 61.3466 74.7944 61.6818 74.9563 62.0994C75.1183 62.517 75.1992 63.0312 75.1992 63.642V64.0682H70.1538V63.1989H74.1765C74.1765 62.8295 74.1026 62.5 73.9549 62.2102C73.81 61.9205 73.6026 61.6918 73.3327 61.5241C73.0657 61.3565 72.7504 61.2727 72.3867 61.2727C71.9862 61.2727 71.6396 61.3722 71.3469 61.571C71.0572 61.767 70.8342 62.0227 70.6779 62.3381C70.5217 62.6534 70.4435 62.9915 70.4435 63.3523V63.9318C70.4435 64.4261 70.5288 64.8452 70.6992 65.1889C70.8725 65.5298 71.1126 65.7898 71.4194 65.9688C71.7262 66.1449 72.0827 66.233 72.489 66.233C72.7532 66.233 72.9918 66.196 73.2049 66.1222C73.4208 66.0455 73.6069 65.9318 73.7631 65.7812C73.9194 65.6278 74.0401 65.4375 74.1254 65.2102L75.0969 65.483C74.9947 65.8125 74.8228 66.1023 74.5813 66.3523C74.3398 66.5994 74.0415 66.7926 73.6864 66.9318C73.3313 67.0682 72.9322 67.1364 72.489 67.1364ZM84.7404 61.9205L83.837 62.1761C83.7802 62.0256 83.6964 61.8793 83.5856 61.7372C83.4776 61.5923 83.3299 61.473 83.1424 61.3793C82.9549 61.2855 82.7148 61.2386 82.4222 61.2386C82.0217 61.2386 81.6879 61.331 81.4208 61.5156C81.1566 61.6974 81.0245 61.929 81.0245 62.2102C81.0245 62.4602 81.1154 62.6577 81.2972 62.8026C81.479 62.9474 81.7631 63.0682 82.1495 63.1648L83.1211 63.4034C83.7063 63.5455 84.1424 63.7628 84.4293 64.0554C84.7163 64.3452 84.8597 64.7187 84.8597 65.1761C84.8597 65.5511 84.7518 65.8864 84.5359 66.1818C84.3228 66.4773 84.0245 66.7102 83.641 66.8807C83.2575 67.0511 82.8114 67.1364 82.3029 67.1364C81.6353 67.1364 81.0827 66.9915 80.6452 66.7017C80.2077 66.4119 79.9308 65.9886 79.8143 65.4318L80.7688 65.1932C80.8597 65.5455 81.0316 65.8097 81.2844 65.9858C81.5401 66.1619 81.8739 66.25 82.2859 66.25C82.7546 66.25 83.1268 66.1506 83.4023 65.9517C83.6808 65.75 83.82 65.5085 83.82 65.2273C83.82 65 83.7404 64.8097 83.5813 64.6562C83.4222 64.5 83.1779 64.3835 82.8484 64.3068L81.7575 64.0511C81.158 63.9091 80.7177 63.6889 80.4364 63.3906C80.158 63.0895 80.0188 62.7131 80.0188 62.2614C80.0188 61.892 80.1225 61.5653 80.3299 61.2812C80.5401 60.9972 80.8256 60.7741 81.1864 60.6122C81.5501 60.4503 81.962 60.3693 82.4222 60.3693C83.07 60.3693 83.5785 60.5114 83.9478 60.7955C84.32 61.0795 84.5842 61.4545 84.7404 61.9205ZM88.2997 67.1534C87.8849 67.1534 87.5085 67.0753 87.1705 66.919C86.8324 66.7599 86.5639 66.5312 86.3651 66.233C86.1662 65.9318 86.0668 65.5682 86.0668 65.142C86.0668 64.767 86.1406 64.4631 86.2884 64.2301C86.4361 63.9943 86.6335 63.8097 86.8807 63.6761C87.1278 63.5426 87.4006 63.4432 87.6989 63.3778C88 63.3097 88.3026 63.2557 88.6065 63.2159C89.0043 63.1648 89.3267 63.1264 89.5739 63.1009C89.8239 63.0724 90.0057 63.0256 90.1193 62.9602C90.2358 62.8949 90.294 62.7812 90.294 62.6193V62.5852C90.294 62.1648 90.179 61.8381 89.9489 61.6051C89.7216 61.3722 89.3764 61.2557 88.9134 61.2557C88.4332 61.2557 88.0568 61.3608 87.7841 61.571C87.5114 61.7812 87.3196 62.0057 87.2088 62.2443L86.2543 61.9034C86.4247 61.5057 86.652 61.196 86.9361 60.9744C87.223 60.75 87.5355 60.5937 87.8736 60.5057C88.2145 60.4148 88.5497 60.3693 88.8793 60.3693C89.0895 60.3693 89.331 60.3949 89.6037 60.446C89.8793 60.4943 90.1449 60.5952 90.4006 60.7486C90.6591 60.902 90.8736 61.1335 91.044 61.4432C91.2145 61.7528 91.2997 62.1676 91.2997 62.6875V67H90.294V66.1136H90.2429C90.1747 66.2557 90.0611 66.4077 89.902 66.5696C89.7429 66.7315 89.5313 66.8693 89.267 66.983C89.0028 67.0966 88.6804 67.1534 88.2997 67.1534ZM88.4531 66.25C88.8509 66.25 89.1861 66.1719 89.4588 66.0156C89.7344 65.8594 89.9418 65.6577 90.081 65.4105C90.223 65.1634 90.294 64.9034 90.294 64.6307V63.7102C90.2514 63.7614 90.1577 63.8082 90.0128 63.8509C89.8707 63.8906 89.706 63.9261 89.5185 63.9574C89.3338 63.9858 89.1534 64.0114 88.9773 64.0341C88.804 64.054 88.6634 64.071 88.5554 64.0852C88.294 64.1193 88.0497 64.1747 87.8224 64.2514C87.598 64.3253 87.4162 64.4375 87.277 64.5881C87.1406 64.7358 87.0724 64.9375 87.0724 65.1932C87.0724 65.5426 87.2017 65.8068 87.4602 65.9858C87.7216 66.1619 88.0526 66.25 88.4531 66.25ZM94.141 58.2727V67H93.1353V58.2727H94.141ZM98.7273 67.1364C98.0966 67.1364 97.5526 66.9972 97.0952 66.7188C96.6406 66.4375 96.2898 66.0455 96.0426 65.5426C95.7983 65.0369 95.6761 64.4489 95.6761 63.7784C95.6761 63.108 95.7983 62.517 96.0426 62.0057C96.2898 61.4915 96.6335 61.0909 97.0739 60.804C97.517 60.5142 98.0341 60.3693 98.625 60.3693C98.9659 60.3693 99.3026 60.4261 99.6349 60.5398C99.9673 60.6534 100.27 60.8381 100.543 61.0938C100.815 61.3466 101.033 61.6818 101.195 62.0994C101.357 62.517 101.438 63.0312 101.438 63.642V64.0682H96.392V63.1989H100.415C100.415 62.8295 100.341 62.5 100.193 62.2102C100.048 61.9205 99.8409 61.6918 99.571 61.5241C99.304 61.3565 98.9886 61.2727 98.625 61.2727C98.2244 61.2727 97.8778 61.3722 97.5852 61.571C97.2955 61.767 97.0724 62.0227 96.9162 62.3381C96.7599 62.6534 96.6818 62.9915 96.6818 63.3523V63.9318C96.6818 64.4261 96.767 64.8452 96.9375 65.1889C97.1108 65.5298 97.3509 65.7898 97.6577 65.9688C97.9645 66.1449 98.321 66.233 98.7273 66.233C98.9915 66.233 99.2301 66.196 99.4432 66.1222C99.6591 66.0455 99.8452 65.9318 100.001 65.7812C100.158 65.6278 100.278 65.4375 100.364 65.2102L101.335 65.483C101.233 65.8125 101.061 66.1023 100.82 66.3523C100.578 66.5994 100.28 66.7926 99.9247 66.9318C99.5696 67.0682 99.1705 67.1364 98.7273 67.1364ZM107.604 61.9205L106.7 62.1761C106.643 62.0256 106.56 61.8793 106.449 61.7372C106.341 61.5923 106.193 61.473 106.006 61.3793C105.818 61.2855 105.578 61.2386 105.286 61.2386C104.885 61.2386 104.551 61.331 104.284 61.5156C104.02 61.6974 103.888 61.929 103.888 62.2102C103.888 62.4602 103.979 62.6577 104.161 62.8026C104.342 62.9474 104.626 63.0682 105.013 63.1648L105.984 63.4034C106.57 63.5455 107.006 63.7628 107.293 64.0554C107.58 64.3452 107.723 64.7187 107.723 65.1761C107.723 65.5511 107.615 65.8864 107.399 66.1818C107.186 66.4773 106.888 66.7102 106.504 66.8807C106.121 67.0511 105.675 67.1364 105.166 67.1364C104.499 67.1364 103.946 66.9915 103.509 66.7017C103.071 66.4119 102.794 65.9886 102.678 65.4318L103.632 65.1932C103.723 65.5455 103.895 65.8097 104.148 65.9858C104.403 66.1619 104.737 66.25 105.149 66.25C105.618 66.25 105.99 66.1506 106.266 65.9517C106.544 65.75 106.683 65.5085 106.683 65.2273C106.683 65 106.604 64.8097 106.445 64.6562C106.286 64.5 106.041 64.3835 105.712 64.3068L104.621 64.0511C104.021 63.9091 103.581 63.6889 103.3 63.3906C103.021 63.0895 102.882 62.7131 102.882 62.2614C102.882 61.892 102.986 61.5653 103.193 61.2812C103.403 60.9972 103.689 60.7741 104.05 60.6122C104.413 60.4503 104.825 60.3693 105.286 60.3693C105.933 60.3693 106.442 60.5114 106.811 60.7955C107.183 61.0795 107.447 61.4545 107.604 61.9205ZM117.248 61.9205L116.345 62.1761C116.288 62.0256 116.204 61.8793 116.093 61.7372C115.985 61.5923 115.838 61.473 115.65 61.3793C115.463 61.2855 115.223 61.2386 114.93 61.2386C114.529 61.2386 114.196 61.331 113.929 61.5156C113.664 61.6974 113.532 61.929 113.532 62.2102C113.532 62.4602 113.623 62.6577 113.805 62.8026C113.987 62.9474 114.271 63.0682 114.657 63.1648L115.629 63.4034C116.214 63.5455 116.65 63.7628 116.937 64.0554C117.224 64.3452 117.368 64.7187 117.368 65.1761C117.368 65.5511 117.26 65.8864 117.044 66.1818C116.831 66.4773 116.532 66.7102 116.149 66.8807C115.765 67.0511 115.319 67.1364 114.811 67.1364C114.143 67.1364 113.591 66.9915 113.153 66.7017C112.716 66.4119 112.439 65.9886 112.322 65.4318L113.277 65.1932C113.368 65.5455 113.539 65.8097 113.792 65.9858C114.048 66.1619 114.382 66.25 114.794 66.25C115.262 66.25 115.635 66.1506 115.91 65.9517C116.189 65.75 116.328 65.5085 116.328 65.2273C116.328 65 116.248 64.8097 116.089 64.6562C115.93 64.5 115.686 64.3835 115.356 64.3068L114.265 64.0511C113.666 63.9091 113.225 63.6889 112.944 63.3906C112.666 63.0895 112.527 62.7131 112.527 62.2614C112.527 61.892 112.63 61.5653 112.838 61.2812C113.048 60.9972 113.333 60.7741 113.694 60.6122C114.058 60.4503 114.47 60.3693 114.93 60.3693C115.578 60.3693 116.086 60.5114 116.456 60.7955C116.828 61.0795 117.092 61.4545 117.248 61.9205ZM119.529 69.4545C119.359 69.4545 119.207 69.4403 119.073 69.4119C118.94 69.3864 118.847 69.3608 118.796 69.3352L119.052 68.4489C119.296 68.5114 119.512 68.5341 119.7 68.517C119.887 68.5 120.053 68.4162 120.198 68.2656C120.346 68.1179 120.481 67.8778 120.603 67.5455L120.79 67.0341L118.37 60.4545H119.461L121.268 65.6705H121.336L123.143 60.4545H124.234L121.455 67.9545C121.33 68.2926 121.175 68.5724 120.991 68.794C120.806 69.0185 120.592 69.1847 120.347 69.2926C120.106 69.4006 119.833 69.4545 119.529 69.4545ZM130.197 61.9205L129.294 62.1761C129.237 62.0256 129.153 61.8793 129.043 61.7372C128.935 61.5923 128.787 61.473 128.599 61.3793C128.412 61.2855 128.172 61.2386 127.879 61.2386C127.479 61.2386 127.145 61.331 126.878 61.5156C126.614 61.6974 126.482 61.929 126.482 62.2102C126.482 62.4602 126.572 62.6577 126.754 62.8026C126.936 62.9474 127.22 63.0682 127.607 63.1648L128.578 63.4034C129.163 63.5455 129.599 63.7628 129.886 64.0554C130.173 64.3452 130.317 64.7187 130.317 65.1761C130.317 65.5511 130.209 65.8864 129.993 66.1818C129.78 66.4773 129.482 66.7102 129.098 66.8807C128.714 67.0511 128.268 67.1364 127.76 67.1364C127.092 67.1364 126.54 66.9915 126.102 66.7017C125.665 66.4119 125.388 65.9886 125.271 65.4318L126.226 65.1932C126.317 65.5455 126.489 65.8097 126.741 65.9858C126.997 66.1619 127.331 66.25 127.743 66.25C128.212 66.25 128.584 66.1506 128.859 65.9517C129.138 65.75 129.277 65.5085 129.277 65.2273C129.277 65 129.197 64.8097 129.038 64.6562C128.879 64.5 128.635 64.3835 128.305 64.3068L127.214 64.0511C126.615 63.9091 126.175 63.6889 125.893 63.3906C125.615 63.0895 125.476 62.7131 125.476 62.2614C125.476 61.892 125.58 61.5653 125.787 61.2812C125.997 60.9972 126.283 60.7741 126.643 60.6122C127.007 60.4503 127.419 60.3693 127.879 60.3693C128.527 60.3693 129.036 60.5114 129.405 60.7955C129.777 61.0795 130.041 61.4545 130.197 61.9205ZM134.677 60.4545V61.3068H131.285V60.4545H134.677ZM132.274 58.8864H133.279V65.125C133.279 65.4091 133.321 65.6222 133.403 65.7642C133.488 65.9034 133.596 65.9972 133.727 66.0455C133.86 66.0909 134.001 66.1136 134.149 66.1136C134.26 66.1136 134.35 66.108 134.422 66.0966C134.493 66.0824 134.549 66.071 134.592 66.0625L134.797 66.9659C134.728 66.9915 134.633 67.017 134.511 67.0426C134.389 67.071 134.234 67.0852 134.047 67.0852C133.762 67.0852 133.484 67.0241 133.211 66.902C132.941 66.7798 132.717 66.5938 132.538 66.3438C132.362 66.0938 132.274 65.7784 132.274 65.3977V58.8864ZM138.864 67.1364C138.233 67.1364 137.689 66.9972 137.232 66.7188C136.777 66.4375 136.426 66.0455 136.179 65.5426C135.935 65.0369 135.813 64.4489 135.813 63.7784C135.813 63.108 135.935 62.517 136.179 62.0057C136.426 61.4915 136.77 61.0909 137.211 60.804C137.654 60.5142 138.171 60.3693 138.762 60.3693C139.103 60.3693 139.439 60.4261 139.772 60.5398C140.104 60.6534 140.407 60.8381 140.679 61.0938C140.952 61.3466 141.169 61.6818 141.331 62.0994C141.493 62.517 141.574 63.0312 141.574 63.642V64.0682H136.529V63.1989H140.551C140.551 62.8295 140.478 62.5 140.33 62.2102C140.185 61.9205 139.978 61.6918 139.708 61.5241C139.441 61.3565 139.125 61.2727 138.762 61.2727C138.361 61.2727 138.015 61.3722 137.722 61.571C137.432 61.767 137.209 62.0227 137.053 62.3381C136.897 62.6534 136.819 62.9915 136.819 63.3523V63.9318C136.819 64.4261 136.904 64.8452 137.074 65.1889C137.248 65.5298 137.488 65.7898 137.794 65.9688C138.101 66.1449 138.458 66.233 138.864 66.233C139.128 66.233 139.367 66.196 139.58 66.1222C139.796 66.0455 139.982 65.9318 140.138 65.7812C140.294 65.6278 140.415 65.4375 140.5 65.2102L141.472 65.483C141.37 65.8125 141.198 66.1023 140.956 66.3523C140.715 66.5994 140.417 66.7926 140.061 66.9318C139.706 67.0682 139.307 67.1364 138.864 67.1364ZM143.104 67V60.4545H144.076V61.4773H144.161C144.297 61.1278 144.517 60.8565 144.821 60.6634C145.125 60.4673 145.49 60.3693 145.917 60.3693C146.348 60.3693 146.708 60.4673 146.995 60.6634C147.284 60.8565 147.51 61.1278 147.672 61.4773H147.74C147.908 61.1392 148.159 60.8707 148.495 60.6719C148.83 60.4702 149.232 60.3693 149.701 60.3693C150.286 60.3693 150.765 60.5526 151.137 60.919C151.509 61.2827 151.695 61.8494 151.695 62.6193V67H150.689V62.6193C150.689 62.1364 150.557 61.7912 150.293 61.5838C150.029 61.3764 149.718 61.2727 149.36 61.2727C148.9 61.2727 148.543 61.4119 148.29 61.6903C148.037 61.9659 147.911 62.3153 147.911 62.7386V67H146.888V62.517C146.888 62.1449 146.767 61.8452 146.526 61.6179C146.284 61.3878 145.973 61.2727 145.593 61.2727C145.331 61.2727 145.087 61.3423 144.86 61.4815C144.635 61.6207 144.453 61.8139 144.314 62.0611C144.178 62.3054 144.11 62.5881 144.11 62.9091V67H143.104ZM161.034 64.3239V60.4545H162.039V67H161.034V65.892H160.966C160.812 66.2244 160.574 66.5071 160.25 66.7401C159.926 66.9702 159.517 67.0852 159.022 67.0852C158.613 67.0852 158.25 66.9957 157.931 66.8168C157.613 66.6349 157.363 66.3622 157.181 65.9986C157 65.6321 156.909 65.1705 156.909 64.6136V60.4545H157.914V64.5455C157.914 65.0227 158.048 65.4034 158.315 65.6875C158.585 65.9716 158.929 66.1136 159.346 66.1136C159.596 66.1136 159.85 66.0497 160.109 65.9219C160.37 65.794 160.589 65.598 160.765 65.3338C160.944 65.0696 161.034 64.733 161.034 64.3239ZM168.518 61.9205L167.614 62.1761C167.558 62.0256 167.474 61.8793 167.363 61.7372C167.255 61.5923 167.107 61.473 166.92 61.3793C166.732 61.2855 166.492 61.2386 166.2 61.2386C165.799 61.2386 165.465 61.331 165.198 61.5156C164.934 61.6974 164.802 61.929 164.802 62.2102C164.802 62.4602 164.893 62.6577 165.075 62.8026C165.256 62.9474 165.54 63.0682 165.927 63.1648L166.898 63.4034C167.484 63.5455 167.92 63.7628 168.207 64.0554C168.494 64.3452 168.637 64.7187 168.637 65.1761C168.637 65.5511 168.529 65.8864 168.313 66.1818C168.1 66.4773 167.802 66.7102 167.418 66.8807C167.035 67.0511 166.589 67.1364 166.08 67.1364C165.413 67.1364 164.86 66.9915 164.423 66.7017C163.985 66.4119 163.708 65.9886 163.592 65.4318L164.546 65.1932C164.637 65.5455 164.809 65.8097 165.062 65.9858C165.317 66.1619 165.651 66.25 166.063 66.25C166.532 66.25 166.904 66.1506 167.18 65.9517C167.458 65.75 167.597 65.5085 167.597 65.2273C167.597 65 167.518 64.8097 167.359 64.6562C167.2 64.5 166.955 64.3835 166.626 64.3068L165.535 64.0511C164.935 63.9091 164.495 63.6889 164.214 63.3906C163.935 63.0895 163.796 62.7131 163.796 62.2614C163.796 61.892 163.9 61.5653 164.107 61.2812C164.317 60.9972 164.603 60.7741 164.964 60.6122C165.327 60.4503 165.739 60.3693 166.2 60.3693C166.847 60.3693 167.356 60.5114 167.725 60.7955C168.097 61.0795 168.362 61.4545 168.518 61.9205ZM170.151 67V60.4545H171.157V67H170.151ZM170.662 59.3636C170.466 59.3636 170.297 59.2969 170.155 59.1634C170.016 59.0298 169.946 58.8693 169.946 58.6818C169.946 58.4943 170.016 58.3338 170.155 58.2003C170.297 58.0668 170.466 58 170.662 58C170.858 58 171.026 58.0668 171.165 58.2003C171.307 58.3338 171.378 58.4943 171.378 58.6818C171.378 58.8693 171.307 59.0298 171.165 59.1634C171.026 59.2969 170.858 59.3636 170.662 59.3636ZM174.004 63.0625V67H172.999V60.4545H173.97V61.4773H174.055C174.209 61.1449 174.442 60.8778 174.754 60.6761C175.067 60.4716 175.47 60.3693 175.964 60.3693C176.408 60.3693 176.795 60.4602 177.128 60.642C177.46 60.821 177.719 61.0938 177.903 61.4602C178.088 61.8239 178.18 62.2841 178.18 62.8409V67H177.175V62.9091C177.175 62.3949 177.041 61.9943 176.774 61.7074C176.507 61.4176 176.141 61.2727 175.675 61.2727C175.354 61.2727 175.067 61.3423 174.814 61.4815C174.564 61.6207 174.366 61.8239 174.222 62.0909C174.077 62.358 174.004 62.6818 174.004 63.0625ZM182.66 69.5909C182.174 69.5909 181.757 69.5284 181.407 69.4034C181.058 69.2812 180.767 69.1193 180.534 68.9176C180.304 68.7188 180.12 68.5057 179.984 68.2784L180.785 67.7159C180.876 67.8352 180.991 67.9716 181.13 68.125C181.27 68.2812 181.46 68.4162 181.701 68.5298C181.946 68.6463 182.265 68.7045 182.66 68.7045C183.189 68.7045 183.625 68.5767 183.968 68.321C184.312 68.0653 184.484 67.6648 184.484 67.1193V65.7898H184.399C184.325 65.9091 184.22 66.0568 184.083 66.233C183.95 66.4062 183.757 66.5611 183.504 66.6974C183.254 66.831 182.916 66.8977 182.49 66.8977C181.961 66.8977 181.487 66.7727 181.066 66.5227C180.649 66.2727 180.318 65.9091 180.074 65.4318C179.832 64.9545 179.711 64.375 179.711 63.6932C179.711 63.0227 179.829 62.4389 180.065 61.9418C180.301 61.4418 180.629 61.0554 181.049 60.7827C181.47 60.5071 181.956 60.3693 182.507 60.3693C182.933 60.3693 183.271 60.4403 183.521 60.5824C183.774 60.7216 183.967 60.8807 184.1 61.0597C184.237 61.2358 184.342 61.3807 184.416 61.4943H184.518V60.4545H185.49V67.1875C185.49 67.75 185.362 68.2074 185.106 68.5597C184.853 68.9148 184.512 69.1747 184.083 69.3395C183.657 69.5071 183.183 69.5909 182.66 69.5909ZM182.626 65.9943C183.029 65.9943 183.37 65.902 183.649 65.7173C183.927 65.5327 184.139 65.267 184.284 64.9205C184.429 64.5739 184.501 64.1591 184.501 63.6761C184.501 63.2045 184.43 62.7884 184.288 62.4276C184.146 62.0668 183.936 61.7841 183.657 61.5795C183.379 61.375 183.035 61.2727 182.626 61.2727C182.2 61.2727 181.845 61.3807 181.561 61.5966C181.279 61.8125 181.068 62.1023 180.926 62.4659C180.787 62.8295 180.717 63.233 180.717 63.6761C180.717 64.1307 180.788 64.5327 180.93 64.8821C181.075 65.2287 181.288 65.5014 181.569 65.7003C181.853 65.8963 182.206 65.9943 182.626 65.9943ZM192.632 67.1534C192.217 67.1534 191.841 67.0753 191.502 66.919C191.164 66.7599 190.896 66.5312 190.697 66.233C190.498 65.9318 190.399 65.5682 190.399 65.142C190.399 64.767 190.473 64.4631 190.62 64.2301C190.768 63.9943 190.966 63.8097 191.213 63.6761C191.46 63.5426 191.733 63.4432 192.031 63.3778C192.332 63.3097 192.635 63.2557 192.939 63.2159C193.336 63.1648 193.659 63.1264 193.906 63.1009C194.156 63.0724 194.338 63.0256 194.451 62.9602C194.568 62.8949 194.626 62.7812 194.626 62.6193V62.5852C194.626 62.1648 194.511 61.8381 194.281 61.6051C194.054 61.3722 193.708 61.2557 193.245 61.2557C192.765 61.2557 192.389 61.3608 192.116 61.571C191.843 61.7812 191.652 62.0057 191.541 62.2443L190.586 61.9034C190.757 61.5057 190.984 61.196 191.268 60.9744C191.555 60.75 191.868 60.5937 192.206 60.5057C192.547 60.4148 192.882 60.3693 193.211 60.3693C193.422 60.3693 193.663 60.3949 193.936 60.446C194.211 60.4943 194.477 60.5952 194.733 60.7486C194.991 60.902 195.206 61.1335 195.376 61.4432C195.547 61.7528 195.632 62.1676 195.632 62.6875V67H194.626V66.1136H194.575C194.507 66.2557 194.393 66.4077 194.234 66.5696C194.075 66.7315 193.863 66.8693 193.599 66.983C193.335 67.0966 193.012 67.1534 192.632 67.1534ZM192.785 66.25C193.183 66.25 193.518 66.1719 193.791 66.0156C194.066 65.8594 194.274 65.6577 194.413 65.4105C194.555 65.1634 194.626 64.9034 194.626 64.6307V63.7102C194.583 63.7614 194.49 63.8082 194.345 63.8509C194.203 63.8906 194.038 63.9261 193.85 63.9574C193.666 63.9858 193.485 64.0114 193.309 64.0341C193.136 64.054 192.995 64.071 192.887 64.0852C192.626 64.1193 192.382 64.1747 192.154 64.2514C191.93 64.3253 191.748 64.4375 191.609 64.5881C191.473 64.7358 191.404 64.9375 191.404 65.1932C191.404 65.5426 191.534 65.8068 191.792 65.9858C192.054 66.1619 192.385 66.25 192.785 66.25ZM200.979 67V58.2727H203.928C204.609 58.2727 205.169 58.3892 205.607 58.6222C206.044 58.8523 206.368 59.169 206.578 59.5724C206.788 59.9759 206.893 60.4347 206.893 60.9489C206.893 61.4631 206.788 61.919 206.578 62.3168C206.368 62.7145 206.045 63.027 205.611 63.2543C205.176 63.4787 204.621 63.5909 203.945 63.5909H201.558V62.6364H203.911C204.376 62.6364 204.751 62.5682 205.036 62.4318C205.322 62.2955 205.53 62.1023 205.658 61.8523C205.788 61.5994 205.854 61.2983 205.854 60.9489C205.854 60.5994 205.788 60.294 205.658 60.0327C205.527 59.7713 205.318 59.5696 205.031 59.4276C204.744 59.2827 204.365 59.2102 203.893 59.2102H202.036V67H200.979ZM205.087 63.0795L207.234 67H206.007L203.893 63.0795H205.087ZM211.192 67.1364C210.561 67.1364 210.017 66.9972 209.56 66.7188C209.105 66.4375 208.755 66.0455 208.507 65.5426C208.263 65.0369 208.141 64.4489 208.141 63.7784C208.141 63.108 208.263 62.517 208.507 62.0057C208.755 61.4915 209.098 61.0909 209.539 60.804C209.982 60.5142 210.499 60.3693 211.09 60.3693C211.431 60.3693 211.767 60.4261 212.1 60.5398C212.432 60.6534 212.735 60.8381 213.007 61.0938C213.28 61.3466 213.498 61.6818 213.659 62.0994C213.821 62.517 213.902 63.0312 213.902 63.642V64.0682H208.857V63.1989H212.88C212.88 62.8295 212.806 62.5 212.658 62.2102C212.513 61.9205 212.306 61.6918 212.036 61.5241C211.769 61.3565 211.453 61.2727 211.09 61.2727C210.689 61.2727 210.343 61.3722 210.05 61.571C209.76 61.767 209.537 62.0227 209.381 62.3381C209.225 62.6534 209.147 62.9915 209.147 63.3523V63.9318C209.147 64.4261 209.232 64.8452 209.402 65.1889C209.576 65.5298 209.816 65.7898 210.123 65.9688C210.429 66.1449 210.786 66.233 211.192 66.233C211.456 66.233 211.695 66.196 211.908 66.1222C212.124 66.0455 212.31 65.9318 212.466 65.7812C212.623 65.6278 212.743 65.4375 212.828 65.2102L213.8 65.483C213.698 65.8125 213.526 66.1023 213.284 66.3523C213.043 66.5994 212.745 66.7926 212.39 66.9318C212.034 67.0682 211.635 67.1364 211.192 67.1364ZM220.069 61.9205L219.165 62.1761C219.108 62.0256 219.025 61.8793 218.914 61.7372C218.806 61.5923 218.658 61.473 218.471 61.3793C218.283 61.2855 218.043 61.2386 217.75 61.2386C217.35 61.2386 217.016 61.331 216.749 61.5156C216.485 61.6974 216.353 61.929 216.353 62.2102C216.353 62.4602 216.444 62.6577 216.625 62.8026C216.807 62.9474 217.091 63.0682 217.478 63.1648L218.449 63.4034C219.034 63.5455 219.471 63.7628 219.757 64.0554C220.044 64.3452 220.188 64.7187 220.188 65.1761C220.188 65.5511 220.08 65.8864 219.864 66.1818C219.651 66.4773 219.353 66.7102 218.969 66.8807C218.586 67.0511 218.14 67.1364 217.631 67.1364C216.963 67.1364 216.411 66.9915 215.973 66.7017C215.536 66.4119 215.259 65.9886 215.142 65.4318L216.097 65.1932C216.188 65.5455 216.36 65.8097 216.613 65.9858C216.868 66.1619 217.202 66.25 217.614 66.25C218.083 66.25 218.455 66.1506 218.73 65.9517C219.009 65.75 219.148 65.5085 219.148 65.2273C219.148 65 219.069 64.8097 218.909 64.6562C218.75 64.5 218.506 64.3835 218.176 64.3068L217.086 64.0511C216.486 63.9091 216.046 63.6889 215.765 63.3906C215.486 63.0895 215.347 62.7131 215.347 62.2614C215.347 61.892 215.451 61.5653 215.658 61.2812C215.868 60.9972 216.154 60.7741 216.515 60.6122C216.878 60.4503 217.29 60.3693 217.75 60.3693C218.398 60.3693 218.907 60.5114 219.276 60.7955C219.648 61.0795 219.912 61.4545 220.069 61.9205ZM224.548 60.4545V61.3068H221.156V60.4545H224.548ZM222.145 58.8864H223.151V65.125C223.151 65.4091 223.192 65.6222 223.274 65.7642C223.359 65.9034 223.467 65.9972 223.598 66.0455C223.732 66.0909 223.872 66.1136 224.02 66.1136C224.131 66.1136 224.222 66.108 224.293 66.0966C224.364 66.0824 224.42 66.071 224.463 66.0625L224.668 66.9659C224.599 66.9915 224.504 67.017 224.382 67.0426C224.26 67.071 224.105 67.0852 223.918 67.0852C223.634 67.0852 223.355 67.0241 223.082 66.902C222.813 66.7798 222.588 66.5938 222.409 66.3438C222.233 66.0938 222.145 65.7784 222.145 65.3977V58.8864ZM229.93 67H228.822L232.027 58.2727H233.118L236.322 67H235.214L232.607 59.6534H232.538L229.93 67ZM230.339 63.5909H234.805V64.5284H230.339V63.5909ZM237.682 67V58.2727H240.631C241.315 58.2727 241.875 58.3963 242.31 58.6435C242.747 58.8878 243.071 59.2188 243.281 59.6364C243.491 60.054 243.597 60.5199 243.597 61.0341C243.597 61.5483 243.491 62.0156 243.281 62.4361C243.074 62.8565 242.753 63.1918 242.318 63.4418C241.884 63.6889 241.327 63.8125 240.648 63.8125H238.534V62.875H240.614C241.082 62.875 241.459 62.794 241.743 62.6321C242.027 62.4702 242.233 62.2514 242.361 61.9759C242.491 61.6974 242.557 61.3835 242.557 61.0341C242.557 60.6847 242.491 60.3722 242.361 60.0966C242.233 59.821 242.026 59.6051 241.739 59.4489C241.452 59.2898 241.071 59.2102 240.597 59.2102H238.739V67H237.682ZM246.356 58.2727V67H245.299V58.2727H246.356ZM251.85 67V58.2727H252.855V61.4943H252.941C253.015 61.3807 253.117 61.2358 253.248 61.0597C253.381 60.8807 253.571 60.7216 253.819 60.5824C254.069 60.4403 254.407 60.3693 254.833 60.3693C255.384 60.3693 255.87 60.5071 256.29 60.7827C256.711 61.0582 257.039 61.4489 257.275 61.9545C257.51 62.4602 257.628 63.0568 257.628 63.7443C257.628 64.4375 257.51 65.0384 257.275 65.5469C257.039 66.0526 256.712 66.4446 256.294 66.723C255.877 66.9986 255.395 67.1364 254.85 67.1364C254.429 67.1364 254.093 67.0668 253.84 66.9276C253.587 66.7855 253.392 66.625 253.256 66.446C253.12 66.2642 253.015 66.1136 252.941 65.9943H252.821V67H251.85ZM252.838 63.7273C252.838 64.2216 252.911 64.6577 253.056 65.0355C253.201 65.4105 253.412 65.7045 253.691 65.9176C253.969 66.1278 254.31 66.233 254.713 66.233C255.134 66.233 255.485 66.1222 255.766 65.9006C256.05 65.6761 256.263 65.375 256.405 64.9972C256.55 64.6165 256.623 64.1932 256.623 63.7273C256.623 63.267 256.551 62.8523 256.409 62.483C256.27 62.1108 256.059 61.8168 255.775 61.6009C255.493 61.3821 255.14 61.2727 254.713 61.2727C254.304 61.2727 253.961 61.3764 253.682 61.5838C253.404 61.7884 253.194 62.0753 253.051 62.4446C252.909 62.8111 252.838 63.2386 252.838 63.7273ZM263.292 64.3239V60.4545H264.297V67H263.292V65.892H263.223C263.07 66.2244 262.831 66.5071 262.507 66.7401C262.184 66.9702 261.775 67.0852 261.28 67.0852C260.871 67.0852 260.507 66.9957 260.189 66.8168C259.871 66.6349 259.621 66.3622 259.439 65.9986C259.257 65.6321 259.167 65.1705 259.167 64.6136V60.4545H260.172V64.5455C260.172 65.0227 260.306 65.4034 260.573 65.6875C260.843 65.9716 261.186 66.1136 261.604 66.1136C261.854 66.1136 262.108 66.0497 262.367 65.9219C262.628 65.794 262.847 65.598 263.023 65.3338C263.202 65.0696 263.292 64.733 263.292 64.3239ZM266.139 67V60.4545H267.145V67H266.139ZM266.651 59.3636C266.455 59.3636 266.286 59.2969 266.143 59.1634C266.004 59.0298 265.935 58.8693 265.935 58.6818C265.935 58.4943 266.004 58.3338 266.143 58.2003C266.286 58.0668 266.455 58 266.651 58C266.847 58 267.014 58.0668 267.153 58.2003C267.295 58.3338 267.366 58.4943 267.366 58.6818C267.366 58.8693 267.295 59.0298 267.153 59.1634C267.014 59.2969 266.847 59.3636 266.651 59.3636ZM269.993 58.2727V67H268.987V58.2727H269.993ZM274.681 60.4545V61.3068H271.289V60.4545H274.681ZM272.278 58.8864H273.283V65.125C273.283 65.4091 273.325 65.6222 273.407 65.7642C273.492 65.9034 273.6 65.9972 273.731 66.0455C273.864 66.0909 274.005 66.1136 274.153 66.1136C274.263 66.1136 274.354 66.108 274.425 66.0966C274.496 66.0824 274.553 66.071 274.596 66.0625L274.8 66.9659C274.732 66.9915 274.637 67.017 274.515 67.0426C274.393 67.071 274.238 67.0852 274.05 67.0852C273.766 67.0852 273.488 67.0241 273.215 66.902C272.945 66.7798 272.721 66.5938 272.542 66.3438C272.366 66.0938 272.278 65.7784 272.278 65.3977V58.8864ZM281.052 67L279.058 60.4545H280.114L281.529 65.4659H281.597L282.995 60.4545H284.069L285.45 65.4489H285.518L286.933 60.4545H287.989L285.995 67H285.006L283.575 61.9716H283.472L282.04 67H281.052ZM289.319 67V60.4545H290.325V67H289.319ZM289.83 59.3636C289.634 59.3636 289.465 59.2969 289.323 59.1634C289.184 59.0298 289.114 58.8693 289.114 58.6818C289.114 58.4943 289.184 58.3338 289.323 58.2003C289.465 58.0668 289.634 58 289.83 58C290.026 58 290.194 58.0668 290.333 58.2003C290.475 58.3338 290.546 58.4943 290.546 58.6818C290.546 58.8693 290.475 59.0298 290.333 59.1634C290.194 59.2969 290.026 59.3636 289.83 59.3636ZM295.013 60.4545V61.3068H291.621V60.4545H295.013ZM292.61 58.8864H293.615V65.125C293.615 65.4091 293.657 65.6222 293.739 65.7642C293.824 65.9034 293.932 65.9972 294.063 66.0455C294.196 66.0909 294.337 66.1136 294.485 66.1136C294.596 66.1136 294.686 66.108 294.757 66.0966C294.828 66.0824 294.885 66.071 294.928 66.0625L295.132 66.9659C295.064 66.9915 294.969 67.017 294.847 67.0426C294.725 67.071 294.57 67.0852 294.382 67.0852C294.098 67.0852 293.82 67.0241 293.547 66.902C293.277 66.7798 293.053 66.5938 292.874 66.3438C292.698 66.0938 292.61 65.7784 292.61 65.3977V58.8864ZM297.672 63.0625V67H296.667V58.2727H297.672V61.4773H297.757C297.911 61.1392 298.141 60.8707 298.448 60.6719C298.757 60.4702 299.169 60.3693 299.684 60.3693C300.13 60.3693 300.52 60.4588 300.855 60.6378C301.191 60.8139 301.451 61.0852 301.635 61.4517C301.823 61.8153 301.917 62.2784 301.917 62.8409V67H300.911V62.9091C300.911 62.3892 300.776 61.9872 300.506 61.7031C300.239 61.4162 299.868 61.2727 299.394 61.2727C299.064 61.2727 298.769 61.3423 298.507 61.4815C298.249 61.6207 298.044 61.8239 297.894 62.0909C297.746 62.358 297.672 62.6818 297.672 63.0625ZM314.188 58.2727V67H313.165L308.41 60.1477H308.325V67H307.268V58.2727H308.29L313.063 65.142H313.148V58.2727H314.188ZM318.826 67.1364C318.235 67.1364 317.716 66.9957 317.27 66.7145C316.827 66.4332 316.48 66.0398 316.23 65.5341C315.983 65.0284 315.86 64.4375 315.86 63.7614C315.86 63.0795 315.983 62.4844 316.23 61.9759C316.48 61.4673 316.827 61.0724 317.27 60.7912C317.716 60.5099 318.235 60.3693 318.826 60.3693C319.417 60.3693 319.934 60.5099 320.377 60.7912C320.823 61.0724 321.169 61.4673 321.417 61.9759C321.667 62.4844 321.792 63.0795 321.792 63.7614C321.792 64.4375 321.667 65.0284 321.417 65.5341C321.169 66.0398 320.823 66.4332 320.377 66.7145C319.934 66.9957 319.417 67.1364 318.826 67.1364ZM318.826 66.233C319.275 66.233 319.644 66.1179 319.934 65.8878C320.223 65.6577 320.438 65.3551 320.577 64.9801C320.716 64.6051 320.786 64.1989 320.786 63.7614C320.786 63.3239 320.716 62.9162 320.577 62.5384C320.438 62.1605 320.223 61.8551 319.934 61.6222C319.644 61.3892 319.275 61.2727 318.826 61.2727C318.377 61.2727 318.007 61.3892 317.718 61.6222C317.428 61.8551 317.213 62.1605 317.074 62.5384C316.935 62.9162 316.865 63.3239 316.865 63.7614C316.865 64.1989 316.935 64.6051 317.074 64.9801C317.213 65.3551 317.428 65.6577 317.718 65.8878C318.007 66.1179 318.377 66.233 318.826 66.233ZM325.798 67.1364C325.253 67.1364 324.771 66.9986 324.354 66.723C323.936 66.4446 323.609 66.0526 323.374 65.5469C323.138 65.0384 323.02 64.4375 323.02 63.7443C323.02 63.0568 323.138 62.4602 323.374 61.9545C323.609 61.4489 323.938 61.0582 324.358 60.7827C324.778 60.5071 325.264 60.3693 325.815 60.3693C326.241 60.3693 326.578 60.4403 326.825 60.5824C327.075 60.7216 327.266 60.8807 327.396 61.0597C327.53 61.2358 327.634 61.3807 327.707 61.4943H327.793V58.2727H328.798V67H327.827V65.9943H327.707C327.634 66.1136 327.528 66.2642 327.392 66.446C327.256 66.625 327.061 66.7855 326.808 66.9276C326.555 67.0668 326.219 67.1364 325.798 67.1364ZM325.935 66.233C326.338 66.233 326.679 66.1278 326.957 65.9176C327.236 65.7045 327.447 65.4105 327.592 65.0355C327.737 64.6577 327.81 64.2216 327.81 63.7273C327.81 63.2386 327.739 62.8111 327.597 62.4446C327.455 62.0753 327.244 61.7884 326.966 61.5838C326.688 61.3764 326.344 61.2727 325.935 61.2727C325.509 61.2727 325.153 61.3821 324.869 61.6009C324.588 61.8168 324.376 62.1108 324.234 62.483C324.095 62.8523 324.026 63.267 324.026 63.7273C324.026 64.1932 324.097 64.6165 324.239 64.9972C324.384 65.375 324.597 65.6761 324.878 65.9006C325.162 66.1222 325.514 66.233 325.935 66.233ZM333.524 67.1364C332.893 67.1364 332.349 66.9972 331.892 66.7188C331.438 66.4375 331.087 66.0455 330.839 65.5426C330.595 65.0369 330.473 64.4489 330.473 63.7784C330.473 63.108 330.595 62.517 330.839 62.0057C331.087 61.4915 331.43 61.0909 331.871 60.804C332.314 60.5142 332.831 60.3693 333.422 60.3693C333.763 60.3693 334.099 60.4261 334.432 60.5398C334.764 60.6534 335.067 60.8381 335.339 61.0938C335.612 61.3466 335.83 61.6818 335.991 62.0994C336.153 62.517 336.234 63.0312 336.234 63.642V64.0682H331.189V63.1989H335.212C335.212 62.8295 335.138 62.5 334.99 62.2102C334.845 61.9205 334.638 61.6918 334.368 61.5241C334.101 61.3565 333.786 61.2727 333.422 61.2727C333.021 61.2727 332.675 61.3722 332.382 61.571C332.092 61.767 331.869 62.0227 331.713 62.3381C331.557 62.6534 331.479 62.9915 331.479 63.3523V63.9318C331.479 64.4261 331.564 64.8452 331.734 65.1889C331.908 65.5298 332.148 65.7898 332.455 65.9688C332.761 66.1449 333.118 66.233 333.524 66.233C333.788 66.233 334.027 66.196 334.24 66.1222C334.456 66.0455 334.642 65.9318 334.798 65.7812C334.955 65.6278 335.075 65.4375 335.161 65.2102L336.132 65.483C336.03 65.8125 335.858 66.1023 335.616 66.3523C335.375 66.5994 335.077 66.7926 334.722 66.9318C334.366 67.0682 333.967 67.1364 333.524 67.1364ZM50.8466 82.1534C50.4318 82.1534 50.0554 82.0753 49.7173 81.919C49.3793 81.7599 49.1108 81.5312 48.9119 81.233C48.7131 80.9318 48.6136 80.5682 48.6136 80.142C48.6136 79.767 48.6875 79.4631 48.8352 79.2301C48.983 78.9943 49.1804 78.8097 49.4276 78.6761C49.6747 78.5426 49.9474 78.4432 50.2457 78.3778C50.5469 78.3097 50.8494 78.2557 51.1534 78.2159C51.5511 78.1648 51.8736 78.1264 52.1207 78.1009C52.3707 78.0724 52.5526 78.0256 52.6662 77.9602C52.7827 77.8949 52.8409 77.7812 52.8409 77.6193V77.5852C52.8409 77.1648 52.7259 76.8381 52.4957 76.6051C52.2685 76.3722 51.9233 76.2557 51.4602 76.2557C50.9801 76.2557 50.6037 76.3608 50.331 76.571C50.0582 76.7812 49.8665 77.0057 49.7557 77.2443L48.8011 76.9034C48.9716 76.5057 49.1989 76.196 49.483 75.9744C49.7699 75.75 50.0824 75.5937 50.4205 75.5057C50.7614 75.4148 51.0966 75.3693 51.4261 75.3693C51.6364 75.3693 51.8778 75.3949 52.1506 75.446C52.4261 75.4943 52.6918 75.5952 52.9474 75.7486C53.206 75.902 53.4205 76.1335 53.5909 76.4432C53.7614 76.7528 53.8466 77.1676 53.8466 77.6875V82H52.8409V81.1136H52.7898C52.7216 81.2557 52.608 81.4077 52.4489 81.5696C52.2898 81.7315 52.0781 81.8693 51.8139 81.983C51.5497 82.0966 51.2273 82.1534 50.8466 82.1534ZM51 81.25C51.3977 81.25 51.733 81.1719 52.0057 81.0156C52.2813 80.8594 52.4886 80.6577 52.6278 80.4105C52.7699 80.1634 52.8409 79.9034 52.8409 79.6307V78.7102C52.7983 78.7614 52.7045 78.8082 52.5597 78.8509C52.4176 78.8906 52.2528 78.9261 52.0653 78.9574C51.8807 78.9858 51.7003 79.0114 51.5241 79.0341C51.3509 79.054 51.2102 79.071 51.1023 79.0852C50.8409 79.1193 50.5966 79.1747 50.3693 79.2514C50.1449 79.3253 49.9631 79.4375 49.8239 79.5881C49.6875 79.7358 49.6193 79.9375 49.6193 80.1932C49.6193 80.5426 49.7486 80.8068 50.0071 80.9858C50.2685 81.1619 50.5994 81.25 51 81.25ZM56.6879 78.0625V82H55.6822V75.4545H56.6538V76.4773H56.739C56.8924 76.1449 57.1254 75.8778 57.4379 75.6761C57.7504 75.4716 58.1538 75.3693 58.6481 75.3693C59.0913 75.3693 59.479 75.4602 59.8114 75.642C60.1438 75.821 60.4023 76.0938 60.587 76.4602C60.7717 76.8239 60.864 77.2841 60.864 77.8409V82H59.8583V77.9091C59.8583 77.3949 59.7248 76.9943 59.4577 76.7074C59.1907 76.4176 58.8242 76.2727 58.3583 76.2727C58.0373 76.2727 57.7504 76.3423 57.4975 76.4815C57.2475 76.6207 57.0501 76.8239 56.9052 77.0909C56.7603 77.358 56.6879 77.6818 56.6879 78.0625ZM65.1733 82.1364C64.6278 82.1364 64.1463 81.9986 63.7287 81.723C63.3111 81.4446 62.9844 81.0526 62.7486 80.5469C62.5128 80.0384 62.3949 79.4375 62.3949 78.7443C62.3949 78.0568 62.5128 77.4602 62.7486 76.9545C62.9844 76.4489 63.3125 76.0582 63.733 75.7827C64.1534 75.5071 64.6392 75.3693 65.1903 75.3693C65.6165 75.3693 65.9531 75.4403 66.2003 75.5824C66.4503 75.7216 66.6406 75.8807 66.7713 76.0597C66.9048 76.2358 67.0085 76.3807 67.0824 76.4943H67.1676V73.2727H68.1733V82H67.2017V80.9943H67.0824C67.0085 81.1136 66.9034 81.2642 66.767 81.446C66.6307 81.625 66.4361 81.7855 66.1832 81.9276C65.9304 82.0668 65.5938 82.1364 65.1733 82.1364ZM65.3097 81.233C65.7131 81.233 66.054 81.1278 66.3324 80.9176C66.6108 80.7045 66.8224 80.4105 66.9673 80.0355C67.1122 79.6577 67.1847 79.2216 67.1847 78.7273C67.1847 78.2386 67.1136 77.8111 66.9716 77.4446C66.8295 77.0753 66.6193 76.7884 66.3409 76.5838C66.0625 76.3764 65.7188 76.2727 65.3097 76.2727C64.8835 76.2727 64.5284 76.3821 64.2443 76.6009C63.9631 76.8168 63.7514 77.1108 63.6094 77.483C63.4702 77.8523 63.4006 78.267 63.4006 78.7273C63.4006 79.1932 63.4716 79.6165 63.6136 79.9972C63.7585 80.375 63.9716 80.6761 64.2528 80.9006C64.5369 81.1222 64.8892 81.233 65.3097 81.233ZM73.6662 82V73.2727H78.9332V74.2102H74.723V77.1591H78.6605V78.0966H74.723V81.0625H79.0014V82H73.6662ZM81.4517 75.4545L83.0199 78.1307L84.5881 75.4545H85.7472L83.6335 78.7273L85.7472 82H84.5881L83.0199 79.4602L81.4517 82H80.2926L82.3722 78.7273L80.2926 75.4545H81.4517ZM87.1822 84.4545V75.4545H88.1538V76.4943H88.2731C88.3469 76.3807 88.4492 76.2358 88.5799 76.0597C88.7134 75.8807 88.9038 75.7216 89.1509 75.5824C89.4009 75.4403 89.739 75.3693 90.1651 75.3693C90.7163 75.3693 91.2021 75.5071 91.6225 75.7827C92.043 76.0582 92.3711 76.4489 92.6069 76.9545C92.8427 77.4602 92.9606 78.0568 92.9606 78.7443C92.9606 79.4375 92.8427 80.0384 92.6069 80.5469C92.3711 81.0526 92.0444 81.4446 91.6268 81.723C91.2092 81.9986 90.7276 82.1364 90.1822 82.1364C89.7617 82.1364 89.4251 82.0668 89.1722 81.9276C88.9194 81.7855 88.7248 81.625 88.5884 81.446C88.4521 81.2642 88.3469 81.1136 88.2731 80.9943H88.1879V84.4545H87.1822ZM88.1708 78.7273C88.1708 79.2216 88.2433 79.6577 88.3881 80.0355C88.533 80.4105 88.7447 80.7045 89.0231 80.9176C89.3015 81.1278 89.6424 81.233 90.0458 81.233C90.4663 81.233 90.8171 81.1222 91.0984 80.9006C91.3825 80.6761 91.5955 80.375 91.7376 79.9972C91.8825 79.6165 91.9549 79.1932 91.9549 78.7273C91.9549 78.267 91.8839 77.8523 91.7418 77.483C91.6026 77.1108 91.391 76.8168 91.1069 76.6009C90.8256 76.3821 90.4719 76.2727 90.0458 76.2727C89.6367 76.2727 89.293 76.3764 89.0146 76.5838C88.7362 76.7884 88.5259 77.0753 88.3839 77.4446C88.2418 77.8111 88.1708 78.2386 88.1708 78.7273ZM94.4947 82V75.4545H95.4663V76.4432H95.5344C95.6538 76.1193 95.8697 75.8565 96.1822 75.6548C96.4947 75.4531 96.8469 75.3523 97.239 75.3523C97.3129 75.3523 97.4052 75.3537 97.516 75.3565C97.6268 75.3594 97.7106 75.3636 97.7674 75.3693V76.392C97.7333 76.3835 97.6552 76.3707 97.533 76.3537C97.4137 76.3338 97.2873 76.3239 97.1538 76.3239C96.8356 76.3239 96.5515 76.3906 96.3015 76.5241C96.0543 76.6548 95.8583 76.8366 95.7134 77.0696C95.5714 77.2997 95.5004 77.5625 95.5004 77.858V82H94.4947ZM101.505 82.1364C100.874 82.1364 100.33 81.9972 99.8725 81.7188C99.418 81.4375 99.0671 81.0455 98.82 80.5426C98.5756 80.0369 98.4535 79.4489 98.4535 78.7784C98.4535 78.108 98.5756 77.517 98.82 77.0057C99.0671 76.4915 99.4109 76.0909 99.8512 75.804C100.294 75.5142 100.811 75.3693 101.402 75.3693C101.743 75.3693 102.08 75.4261 102.412 75.5398C102.745 75.6534 103.047 75.8381 103.32 76.0938C103.593 76.3466 103.81 76.6818 103.972 77.0994C104.134 77.517 104.215 78.0312 104.215 78.642V79.0682H99.1694V78.1989H103.192C103.192 77.8295 103.118 77.5 102.971 77.2102C102.826 76.9205 102.618 76.6918 102.348 76.5241C102.081 76.3565 101.766 76.2727 101.402 76.2727C101.002 76.2727 100.655 76.3722 100.363 76.571C100.073 76.767 99.8498 77.0227 99.6935 77.3381C99.5373 77.6534 99.4592 77.9915 99.4592 78.3523V78.9318C99.4592 79.4261 99.5444 79.8452 99.7148 80.1889C99.8881 80.5298 100.128 80.7898 100.435 80.9688C100.742 81.1449 101.098 81.233 101.505 81.233C101.769 81.233 102.007 81.196 102.221 81.1222C102.436 81.0455 102.623 80.9318 102.779 80.7812C102.935 80.6278 103.056 80.4375 103.141 80.2102L104.113 80.483C104.01 80.8125 103.838 81.1023 103.597 81.3523C103.355 81.5994 103.057 81.7926 102.702 81.9318C102.347 82.0682 101.948 82.1364 101.505 82.1364ZM110.381 76.9205L109.478 77.1761C109.421 77.0256 109.337 76.8793 109.226 76.7372C109.118 76.5923 108.971 76.473 108.783 76.3793C108.596 76.2855 108.355 76.2386 108.063 76.2386C107.662 76.2386 107.328 76.331 107.061 76.5156C106.797 76.6974 106.665 76.929 106.665 77.2102C106.665 77.4602 106.756 77.6577 106.938 77.8026C107.12 77.9474 107.404 78.0682 107.79 78.1648L108.762 78.4034C109.347 78.5455 109.783 78.7628 110.07 79.0554C110.357 79.3452 110.5 79.7187 110.5 80.1761C110.5 80.5511 110.392 80.8864 110.176 81.1818C109.963 81.4773 109.665 81.7102 109.282 81.8807C108.898 82.0511 108.452 82.1364 107.944 82.1364C107.276 82.1364 106.723 81.9915 106.286 81.7017C105.848 81.4119 105.571 80.9886 105.455 80.4318L106.409 80.1932C106.5 80.5455 106.672 80.8097 106.925 80.9858C107.181 81.1619 107.515 81.25 107.926 81.25C108.395 81.25 108.767 81.1506 109.043 80.9517C109.321 80.75 109.461 80.5085 109.461 80.2273C109.461 80 109.381 79.8097 109.222 79.6562C109.063 79.5 108.819 79.3835 108.489 79.3068L107.398 79.0511C106.799 78.9091 106.358 78.6889 106.077 78.3906C105.799 78.0895 105.659 77.7131 105.659 77.2614C105.659 76.892 105.763 76.5653 105.971 76.2812C106.181 75.9972 106.466 75.7741 106.827 75.6122C107.191 75.4503 107.603 75.3693 108.063 75.3693C108.711 75.3693 109.219 75.5114 109.588 75.7955C109.961 76.0795 110.225 76.4545 110.381 76.9205ZM116.651 76.9205L115.747 77.1761C115.69 77.0256 115.607 76.8793 115.496 76.7372C115.388 76.5923 115.24 76.473 115.053 76.3793C114.865 76.2855 114.625 76.2386 114.332 76.2386C113.932 76.2386 113.598 76.331 113.331 76.5156C113.067 76.6974 112.935 76.929 112.935 77.2102C112.935 77.4602 113.026 77.6577 113.207 77.8026C113.389 77.9474 113.673 78.0682 114.06 78.1648L115.031 78.4034C115.616 78.5455 116.053 78.7628 116.339 79.0554C116.626 79.3452 116.77 79.7187 116.77 80.1761C116.77 80.5511 116.662 80.8864 116.446 81.1818C116.233 81.4773 115.935 81.7102 115.551 81.8807C115.168 82.0511 114.722 82.1364 114.213 82.1364C113.545 82.1364 112.993 81.9915 112.555 81.7017C112.118 81.4119 111.841 80.9886 111.724 80.4318L112.679 80.1932C112.77 80.5455 112.942 80.8097 113.195 80.9858C113.45 81.1619 113.784 81.25 114.196 81.25C114.665 81.25 115.037 81.1506 115.312 80.9517C115.591 80.75 115.73 80.5085 115.73 80.2273C115.73 80 115.651 79.8097 115.491 79.6562C115.332 79.5 115.088 79.3835 114.759 79.3068L113.668 79.0511C113.068 78.9091 112.628 78.6889 112.347 78.3906C112.068 78.0895 111.929 77.7131 111.929 77.2614C111.929 76.892 112.033 76.5653 112.24 76.2812C112.45 75.9972 112.736 75.7741 113.097 75.6122C113.46 75.4503 113.872 75.3693 114.332 75.3693C114.98 75.3693 115.489 75.5114 115.858 75.7955C116.23 76.0795 116.494 76.4545 116.651 76.9205ZM124.318 82.1364C123.704 82.1364 123.176 81.9915 122.733 81.7017C122.289 81.4119 121.949 81.0128 121.71 80.5043C121.471 79.9957 121.352 79.4148 121.352 78.7614C121.352 78.0966 121.474 77.5099 121.718 77.0014C121.966 76.4901 122.309 76.0909 122.75 75.804C123.193 75.5142 123.71 75.3693 124.301 75.3693C124.761 75.3693 125.176 75.4545 125.545 75.625C125.914 75.7955 126.217 76.0341 126.453 76.3409C126.689 76.6477 126.835 77.0057 126.892 77.4148H125.886C125.809 77.1165 125.639 76.8523 125.375 76.6222C125.113 76.3892 124.761 76.2727 124.318 76.2727C123.926 76.2727 123.582 76.375 123.287 76.5795C122.994 76.7812 122.765 77.0668 122.6 77.4361C122.439 77.8026 122.358 78.233 122.358 78.7273C122.358 79.233 122.437 79.6733 122.596 80.0483C122.758 80.4233 122.985 80.7145 123.278 80.9219C123.574 81.1293 123.92 81.233 124.318 81.233C124.579 81.233 124.816 81.1875 125.029 81.0966C125.243 81.0057 125.423 80.875 125.571 80.7045C125.718 80.5341 125.824 80.3295 125.886 80.0909H126.892C126.835 80.4773 126.694 80.8253 126.47 81.1349C126.248 81.4418 125.954 81.6861 125.588 81.8679C125.224 82.0469 124.801 82.1364 124.318 82.1364ZM131.021 82.1364C130.43 82.1364 129.912 81.9957 129.466 81.7145C129.022 81.4332 128.676 81.0398 128.426 80.5341C128.179 80.0284 128.055 79.4375 128.055 78.7614C128.055 78.0795 128.179 77.4844 128.426 76.9759C128.676 76.4673 129.022 76.0724 129.466 75.7912C129.912 75.5099 130.43 75.3693 131.021 75.3693C131.612 75.3693 132.129 75.5099 132.572 75.7912C133.018 76.0724 133.365 76.4673 133.612 76.9759C133.862 77.4844 133.987 78.0795 133.987 78.7614C133.987 79.4375 133.862 80.0284 133.612 80.5341C133.365 81.0398 133.018 81.4332 132.572 81.7145C132.129 81.9957 131.612 82.1364 131.021 82.1364ZM131.021 81.233C131.47 81.233 131.839 81.1179 132.129 80.8878C132.419 80.6577 132.633 80.3551 132.772 79.9801C132.912 79.6051 132.981 79.1989 132.981 78.7614C132.981 78.3239 132.912 77.9162 132.772 77.5384C132.633 77.1605 132.419 76.8551 132.129 76.6222C131.839 76.3892 131.47 76.2727 131.021 76.2727C130.572 76.2727 130.203 76.3892 129.913 76.6222C129.623 76.8551 129.409 77.1605 129.27 77.5384C129.13 77.9162 129.061 78.3239 129.061 78.7614C129.061 79.1989 129.13 79.6051 129.27 79.9801C129.409 80.3551 129.623 80.6577 129.913 80.8878C130.203 81.1179 130.572 81.233 131.021 81.233ZM136.528 78.0625V82H135.522V75.4545H136.494V76.4773H136.579C136.732 76.1449 136.965 75.8778 137.278 75.6761C137.59 75.4716 137.994 75.3693 138.488 75.3693C138.931 75.3693 139.319 75.4602 139.651 75.642C139.984 75.821 140.242 76.0938 140.427 76.4602C140.612 76.8239 140.704 77.2841 140.704 77.8409V82H139.698V77.9091C139.698 77.3949 139.565 76.9943 139.298 76.7074C139.031 76.4176 138.664 76.2727 138.198 76.2727C137.877 76.2727 137.59 76.3423 137.337 76.4815C137.087 76.6207 136.89 76.8239 136.745 77.0909C136.6 77.358 136.528 77.6818 136.528 78.0625ZM143.547 78.0625V82H142.542V75.4545H143.513V76.4773H143.598C143.752 76.1449 143.985 75.8778 144.297 75.6761C144.61 75.4716 145.013 75.3693 145.507 75.3693C145.951 75.3693 146.338 75.4602 146.671 75.642C147.003 75.821 147.262 76.0938 147.446 76.4602C147.631 76.8239 147.723 77.2841 147.723 77.8409V82H146.718V77.9091C146.718 77.3949 146.584 76.9943 146.317 76.7074C146.05 76.4176 145.684 76.2727 145.218 76.2727C144.897 76.2727 144.61 76.3423 144.357 76.4815C144.107 76.6207 143.909 76.8239 143.765 77.0909C143.62 77.358 143.547 77.6818 143.547 78.0625ZM152.305 82.1364C151.675 82.1364 151.131 81.9972 150.673 81.7188C150.219 81.4375 149.868 81.0455 149.621 80.5426C149.376 80.0369 149.254 79.4489 149.254 78.7784C149.254 78.108 149.376 77.517 149.621 77.0057C149.868 76.4915 150.212 76.0909 150.652 75.804C151.095 75.5142 151.612 75.3693 152.203 75.3693C152.544 75.3693 152.881 75.4261 153.213 75.5398C153.545 75.6534 153.848 75.8381 154.121 76.0938C154.393 76.3466 154.611 76.6818 154.773 77.0994C154.935 77.517 155.016 78.0312 155.016 78.642V79.0682H149.97V78.1989H153.993C153.993 77.8295 153.919 77.5 153.771 77.2102C153.626 76.9205 153.419 76.6918 153.149 76.5241C152.882 76.3565 152.567 76.2727 152.203 76.2727C151.803 76.2727 151.456 76.3722 151.163 76.571C150.874 76.767 150.651 77.0227 150.494 77.3381C150.338 77.6534 150.26 77.9915 150.26 78.3523V78.9318C150.26 79.4261 150.345 79.8452 150.516 80.1889C150.689 80.5298 150.929 80.7898 151.236 80.9688C151.543 81.1449 151.899 81.233 152.305 81.233C152.57 81.233 152.808 81.196 153.021 81.1222C153.237 81.0455 153.423 80.9318 153.58 80.7812C153.736 80.6278 153.857 80.4375 153.942 80.2102L154.913 80.483C154.811 80.8125 154.639 81.1023 154.398 81.3523C154.156 81.5994 153.858 81.7926 153.503 81.9318C153.148 82.0682 152.749 82.1364 152.305 82.1364ZM159.205 82.1364C158.591 82.1364 158.063 81.9915 157.619 81.7017C157.176 81.4119 156.835 81.0128 156.597 80.5043C156.358 79.9957 156.239 79.4148 156.239 78.7614C156.239 78.0966 156.361 77.5099 156.605 77.0014C156.852 76.4901 157.196 76.0909 157.636 75.804C158.08 75.5142 158.597 75.3693 159.188 75.3693C159.648 75.3693 160.062 75.4545 160.432 75.625C160.801 75.7955 161.104 76.0341 161.339 76.3409C161.575 76.6477 161.722 77.0057 161.778 77.4148H160.773C160.696 77.1165 160.526 76.8523 160.261 76.6222C160 76.3892 159.648 76.2727 159.205 76.2727C158.813 76.2727 158.469 76.375 158.173 76.5795C157.881 76.7812 157.652 77.0668 157.487 77.4361C157.325 77.8026 157.244 78.233 157.244 78.7273C157.244 79.233 157.324 79.6733 157.483 80.0483C157.645 80.4233 157.872 80.7145 158.165 80.9219C158.46 81.1293 158.807 81.233 159.205 81.233C159.466 81.233 159.703 81.1875 159.916 81.0966C160.129 81.0057 160.31 80.875 160.457 80.7045C160.605 80.5341 160.71 80.3295 160.773 80.0909H161.778C161.722 80.4773 161.581 80.8253 161.357 81.1349C161.135 81.4418 160.841 81.6861 160.474 81.8679C160.111 82.0469 159.688 82.1364 159.205 82.1364ZM166.095 75.4545V76.3068H162.703V75.4545H166.095ZM163.692 73.8864H164.697V80.125C164.697 80.4091 164.739 80.6222 164.821 80.7642C164.906 80.9034 165.014 80.9972 165.145 81.0455C165.278 81.0909 165.419 81.1136 165.567 81.1136C165.678 81.1136 165.768 81.108 165.839 81.0966C165.911 81.0824 165.967 81.071 166.01 81.0625L166.214 81.9659C166.146 81.9915 166.051 82.017 165.929 82.0426C165.807 82.071 165.652 82.0852 165.464 82.0852C165.18 82.0852 164.902 82.0241 164.629 81.902C164.359 81.7798 164.135 81.5938 163.956 81.3438C163.78 81.0938 163.692 80.7784 163.692 80.3977V73.8864ZM170.282 82.1364C169.651 82.1364 169.107 81.9972 168.65 81.7188C168.195 81.4375 167.844 81.0455 167.597 80.5426C167.353 80.0369 167.231 79.4489 167.231 78.7784C167.231 78.108 167.353 77.517 167.597 77.0057C167.844 76.4915 168.188 76.0909 168.629 75.804C169.072 75.5142 169.589 75.3693 170.18 75.3693C170.521 75.3693 170.857 75.4261 171.19 75.5398C171.522 75.6534 171.825 75.8381 172.097 76.0938C172.37 76.3466 172.587 76.6818 172.749 77.0994C172.911 77.517 172.992 78.0312 172.992 78.642V79.0682H167.947V78.1989H171.969C171.969 77.8295 171.896 77.5 171.748 77.2102C171.603 76.9205 171.396 76.6918 171.126 76.5241C170.859 76.3565 170.543 76.2727 170.18 76.2727C169.779 76.2727 169.433 76.3722 169.14 76.571C168.85 76.767 168.627 77.0227 168.471 77.3381C168.315 77.6534 168.237 77.9915 168.237 78.3523V78.9318C168.237 79.4261 168.322 79.8452 168.492 80.1889C168.665 80.5298 168.906 80.7898 169.212 80.9688C169.519 81.1449 169.876 81.233 170.282 81.233C170.546 81.233 170.785 81.196 170.998 81.1222C171.214 81.0455 171.4 80.9318 171.556 80.7812C171.712 80.6278 171.833 80.4375 171.918 80.2102L172.89 80.483C172.788 80.8125 172.616 81.1023 172.374 81.3523C172.133 81.5994 171.835 81.7926 171.479 81.9318C171.124 82.0682 170.725 82.1364 170.282 82.1364ZM176.994 82.1364C176.448 82.1364 175.967 81.9986 175.549 81.723C175.131 81.4446 174.805 81.0526 174.569 80.5469C174.333 80.0384 174.215 79.4375 174.215 78.7443C174.215 78.0568 174.333 77.4602 174.569 76.9545C174.805 76.4489 175.133 76.0582 175.553 75.7827C175.974 75.5071 176.46 75.3693 177.011 75.3693C177.437 75.3693 177.773 75.4403 178.021 75.5824C178.271 75.7216 178.461 75.8807 178.592 76.0597C178.725 76.2358 178.829 76.3807 178.903 76.4943H178.988V73.2727H179.994V82H179.022V80.9943H178.903C178.829 81.1136 178.724 81.2642 178.587 81.446C178.451 81.625 178.256 81.7855 178.004 81.9276C177.751 82.0668 177.414 82.1364 176.994 82.1364ZM177.13 81.233C177.533 81.233 177.874 81.1278 178.153 80.9176C178.431 80.7045 178.643 80.4105 178.788 80.0355C178.933 79.6577 179.005 79.2216 179.005 78.7273C179.005 78.2386 178.934 77.8111 178.792 77.4446C178.65 77.0753 178.44 76.7884 178.161 76.5838C177.883 76.3764 177.539 76.2727 177.13 76.2727C176.704 76.2727 176.349 76.3821 176.065 76.6009C175.783 76.8168 175.572 77.1108 175.43 77.483C175.29 77.8523 175.221 78.267 175.221 78.7273C175.221 79.1932 175.292 79.6165 175.434 79.9972C175.579 80.375 175.792 80.6761 176.073 80.9006C176.357 81.1222 176.71 81.233 177.13 81.233ZM188.197 75.4545V76.3068H184.805V75.4545H188.197ZM185.793 73.8864H186.799V80.125C186.799 80.4091 186.84 80.6222 186.923 80.7642C187.008 80.9034 187.116 80.9972 187.246 81.0455C187.38 81.0909 187.521 81.1136 187.668 81.1136C187.779 81.1136 187.87 81.108 187.941 81.0966C188.012 81.0824 188.069 81.071 188.112 81.0625L188.316 81.9659C188.248 81.9915 188.153 82.017 188.031 82.0426C187.908 82.071 187.754 82.0852 187.566 82.0852C187.282 82.0852 187.004 82.0241 186.731 81.902C186.461 81.7798 186.237 81.5938 186.058 81.3438C185.881 81.0938 185.793 80.7784 185.793 80.3977V73.8864ZM192.298 82.1364C191.707 82.1364 191.189 81.9957 190.743 81.7145C190.3 81.4332 189.953 81.0398 189.703 80.5341C189.456 80.0284 189.332 79.4375 189.332 78.7614C189.332 78.0795 189.456 77.4844 189.703 76.9759C189.953 76.4673 190.3 76.0724 190.743 75.7912C191.189 75.5099 191.707 75.3693 192.298 75.3693C192.889 75.3693 193.406 75.5099 193.849 75.7912C194.295 76.0724 194.642 76.4673 194.889 76.9759C195.139 77.4844 195.264 78.0795 195.264 78.7614C195.264 79.4375 195.139 80.0284 194.889 80.5341C194.642 81.0398 194.295 81.4332 193.849 81.7145C193.406 81.9957 192.889 82.1364 192.298 82.1364ZM192.298 81.233C192.747 81.233 193.116 81.1179 193.406 80.8878C193.696 80.6577 193.911 80.3551 194.05 79.9801C194.189 79.6051 194.259 79.1989 194.259 78.7614C194.259 78.3239 194.189 77.9162 194.05 77.5384C193.911 77.1605 193.696 76.8551 193.406 76.6222C193.116 76.3892 192.747 76.2727 192.298 76.2727C191.849 76.2727 191.48 76.3892 191.19 76.6222C190.901 76.8551 190.686 77.1605 190.547 77.5384C190.408 77.9162 190.338 78.3239 190.338 78.7614C190.338 79.1989 190.408 79.6051 190.547 79.9801C190.686 80.3551 190.901 80.6577 191.19 80.8878C191.48 81.1179 191.849 81.233 192.298 81.233ZM200.311 82V73.2727H203.26C203.944 73.2727 204.504 73.3963 204.939 73.6435C205.376 73.8878 205.7 74.2188 205.91 74.6364C206.12 75.054 206.225 75.5199 206.225 76.0341C206.225 76.5483 206.12 77.0156 205.91 77.4361C205.703 77.8565 205.382 78.1918 204.947 78.4418C204.512 78.6889 203.956 78.8125 203.277 78.8125H201.163V77.875H203.243C203.711 77.875 204.088 77.794 204.372 77.6321C204.656 77.4702 204.862 77.2514 204.99 76.9759C205.12 76.6974 205.186 76.3835 205.186 76.0341C205.186 75.6847 205.12 75.3722 204.99 75.0966C204.862 74.821 204.654 74.6051 204.368 74.4489C204.081 74.2898 203.7 74.2102 203.225 74.2102H201.368V82H200.311ZM210.38 82.1364C209.789 82.1364 209.271 81.9957 208.825 81.7145C208.382 81.4332 208.035 81.0398 207.785 80.5341C207.538 80.0284 207.414 79.4375 207.414 78.7614C207.414 78.0795 207.538 77.4844 207.785 76.9759C208.035 76.4673 208.382 76.0724 208.825 75.7912C209.271 75.5099 209.789 75.3693 210.38 75.3693C210.971 75.3693 211.488 75.5099 211.931 75.7912C212.377 76.0724 212.724 76.4673 212.971 76.9759C213.221 77.4844 213.346 78.0795 213.346 78.7614C213.346 79.4375 213.221 80.0284 212.971 80.5341C212.724 81.0398 212.377 81.4332 211.931 81.7145C211.488 81.9957 210.971 82.1364 210.38 82.1364ZM210.38 81.233C210.829 81.233 211.199 81.1179 211.488 80.8878C211.778 80.6577 211.993 80.3551 212.132 79.9801C212.271 79.6051 212.341 79.1989 212.341 78.7614C212.341 78.3239 212.271 77.9162 212.132 77.5384C211.993 77.1605 211.778 76.8551 211.488 76.6222C211.199 76.3892 210.829 76.2727 210.38 76.2727C209.931 76.2727 209.562 76.3892 209.272 76.6222C208.983 76.8551 208.768 77.1605 208.629 77.5384C208.49 77.9162 208.42 78.3239 208.42 78.7614C208.42 79.1989 208.49 79.6051 208.629 79.9801C208.768 80.3551 208.983 80.6577 209.272 80.8878C209.562 81.1179 209.931 81.233 210.38 81.233ZM219.518 76.9205L218.614 77.1761C218.558 77.0256 218.474 76.8793 218.363 76.7372C218.255 76.5923 218.107 76.473 217.92 76.3793C217.732 76.2855 217.492 76.2386 217.2 76.2386C216.799 76.2386 216.465 76.331 216.198 76.5156C215.934 76.6974 215.802 76.929 215.802 77.2102C215.802 77.4602 215.893 77.6577 216.075 77.8026C216.256 77.9474 216.54 78.0682 216.927 78.1648L217.898 78.4034C218.484 78.5455 218.92 78.7628 219.207 79.0554C219.494 79.3452 219.637 79.7187 219.637 80.1761C219.637 80.5511 219.529 80.8864 219.313 81.1818C219.1 81.4773 218.802 81.7102 218.418 81.8807C218.035 82.0511 217.589 82.1364 217.08 82.1364C216.413 82.1364 215.86 81.9915 215.423 81.7017C214.985 81.4119 214.708 80.9886 214.592 80.4318L215.546 80.1932C215.637 80.5455 215.809 80.8097 216.062 80.9858C216.317 81.1619 216.651 81.25 217.063 81.25C217.532 81.25 217.904 81.1506 218.18 80.9517C218.458 80.75 218.597 80.5085 218.597 80.2273C218.597 80 218.518 79.8097 218.359 79.6562C218.2 79.5 217.955 79.3835 217.626 79.3068L216.535 79.0511C215.935 78.9091 215.495 78.6889 215.214 78.3906C214.935 78.0895 214.796 77.7131 214.796 77.2614C214.796 76.892 214.9 76.5653 215.107 76.2812C215.317 75.9972 215.603 75.7741 215.964 75.6122C216.327 75.4503 216.739 75.3693 217.2 75.3693C217.847 75.3693 218.356 75.5114 218.725 75.7955C219.097 76.0795 219.362 76.4545 219.518 76.9205ZM223.998 75.4545V76.3068H220.605V75.4545H223.998ZM221.594 73.8864H222.6V80.125C222.6 80.4091 222.641 80.6222 222.723 80.7642C222.809 80.9034 222.917 80.9972 223.047 81.0455C223.181 81.0909 223.321 81.1136 223.469 81.1136C223.58 81.1136 223.671 81.108 223.742 81.0966C223.813 81.0824 223.87 81.071 223.912 81.0625L224.117 81.9659C224.049 81.9915 223.953 82.017 223.831 82.0426C223.709 82.071 223.554 82.0852 223.367 82.0852C223.083 82.0852 222.804 82.0241 222.532 81.902C222.262 81.7798 222.037 81.5938 221.858 81.3438C221.682 81.0938 221.594 80.7784 221.594 80.3977V73.8864ZM228.082 84.5909C227.596 84.5909 227.179 84.5284 226.829 84.4034C226.48 84.2812 226.189 84.1193 225.956 83.9176C225.725 83.7188 225.542 83.5057 225.406 83.2784L226.207 82.7159C226.298 82.8352 226.413 82.9716 226.552 83.125C226.691 83.2812 226.882 83.4162 227.123 83.5298C227.368 83.6463 227.687 83.7045 228.082 83.7045C228.61 83.7045 229.047 83.5767 229.39 83.321C229.734 83.0653 229.906 82.6648 229.906 82.1193V80.7898H229.821C229.747 80.9091 229.642 81.0568 229.505 81.233C229.372 81.4062 229.179 81.5611 228.926 81.6974C228.676 81.831 228.338 81.8977 227.912 81.8977C227.383 81.8977 226.909 81.7727 226.488 81.5227C226.071 81.2727 225.74 80.9091 225.495 80.4318C225.254 79.9545 225.133 79.375 225.133 78.6932C225.133 78.0227 225.251 77.4389 225.487 76.9418C225.723 76.4418 226.051 76.0554 226.471 75.7827C226.892 75.5071 227.377 75.3693 227.929 75.3693C228.355 75.3693 228.693 75.4403 228.943 75.5824C229.196 75.7216 229.389 75.8807 229.522 76.0597C229.659 76.2358 229.764 76.3807 229.838 76.4943H229.94V75.4545H230.912V82.1875C230.912 82.75 230.784 83.2074 230.528 83.5597C230.275 83.9148 229.934 84.1747 229.505 84.3395C229.079 84.5071 228.605 84.5909 228.082 84.5909ZM228.048 80.9943C228.451 80.9943 228.792 80.902 229.071 80.7173C229.349 80.5327 229.561 80.267 229.706 79.9205C229.85 79.5739 229.923 79.1591 229.923 78.6761C229.923 78.2045 229.852 77.7884 229.71 77.4276C229.568 77.0668 229.358 76.7841 229.079 76.5795C228.801 76.375 228.457 76.2727 228.048 76.2727C227.622 76.2727 227.267 76.3807 226.983 76.5966C226.701 76.8125 226.49 77.1023 226.348 77.4659C226.208 77.8295 226.139 78.233 226.139 78.6761C226.139 79.1307 226.21 79.5327 226.352 79.8821C226.497 80.2287 226.71 80.5014 226.991 80.7003C227.275 80.8963 227.627 80.9943 228.048 80.9943ZM232.752 82V75.4545H233.724V76.4432H233.792C233.912 76.1193 234.127 75.8565 234.44 75.6548C234.752 75.4531 235.105 75.3523 235.497 75.3523C235.571 75.3523 235.663 75.3537 235.774 75.3565C235.885 75.3594 235.968 75.3636 236.025 75.3693V76.392C235.991 76.3835 235.913 76.3707 235.791 76.3537C235.672 76.3338 235.545 76.3239 235.412 76.3239C235.093 76.3239 234.809 76.3906 234.559 76.5241C234.312 76.6548 234.116 76.8366 233.971 77.0696C233.829 77.2997 233.758 77.5625 233.758 77.858V82H232.752ZM239.762 82.1364C239.132 82.1364 238.588 81.9972 238.13 81.7188C237.676 81.4375 237.325 81.0455 237.078 80.5426C236.833 80.0369 236.711 79.4489 236.711 78.7784C236.711 78.108 236.833 77.517 237.078 77.0057C237.325 76.4915 237.669 76.0909 238.109 75.804C238.552 75.5142 239.069 75.3693 239.66 75.3693C240.001 75.3693 240.338 75.4261 240.67 75.5398C241.002 75.6534 241.305 75.8381 241.578 76.0938C241.85 76.3466 242.068 76.6818 242.23 77.0994C242.392 77.517 242.473 78.0312 242.473 78.642V79.0682H237.427V78.1989H241.45C241.45 77.8295 241.376 77.5 241.228 77.2102C241.083 76.9205 240.876 76.6918 240.606 76.5241C240.339 76.3565 240.024 76.2727 239.66 76.2727C239.26 76.2727 238.913 76.3722 238.62 76.571C238.331 76.767 238.108 77.0227 237.951 77.3381C237.795 77.6534 237.717 77.9915 237.717 78.3523V78.9318C237.717 79.4261 237.802 79.8452 237.973 80.1889C238.146 80.5298 238.386 80.7898 238.693 80.9688C239 81.1449 239.356 81.233 239.762 81.233C240.027 81.233 240.265 81.196 240.478 81.1222C240.694 81.0455 240.88 80.9318 241.037 80.7812C241.193 80.6278 241.314 80.4375 241.399 80.2102L242.37 80.483C242.268 80.8125 242.096 81.1023 241.855 81.3523C241.613 81.5994 241.315 81.7926 240.96 81.9318C240.605 82.0682 240.206 82.1364 239.762 82.1364ZM248.912 75.4545C248.86 75.0227 248.653 74.6875 248.289 74.4489C247.926 74.2102 247.48 74.0909 246.951 74.0909C246.565 74.0909 246.227 74.1534 245.937 74.2784C245.65 74.4034 245.426 74.5753 245.264 74.794C245.105 75.0128 245.025 75.2614 245.025 75.5398C245.025 75.7727 245.081 75.973 245.191 76.1406C245.305 76.3054 245.45 76.4432 245.626 76.554C245.802 76.6619 245.987 76.7514 246.18 76.8224C246.373 76.8906 246.551 76.946 246.713 76.9886L247.599 77.2273C247.826 77.2869 248.079 77.3693 248.358 77.4744C248.639 77.5795 248.907 77.723 249.163 77.9048C249.422 78.0838 249.635 78.3139 249.802 78.5952C249.97 78.8764 250.054 79.2216 250.054 79.6307C250.054 80.1023 249.93 80.5284 249.683 80.9091C249.439 81.2898 249.081 81.5923 248.609 81.8168C248.14 82.0412 247.571 82.1534 246.9 82.1534C246.275 82.1534 245.734 82.0526 245.277 81.8509C244.822 81.6491 244.464 81.3679 244.203 81.0071C243.944 80.6463 243.798 80.2273 243.764 79.75H244.855C244.883 80.0795 244.994 80.3523 245.187 80.5682C245.383 80.7812 245.63 80.9403 245.929 81.0455C246.23 81.1477 246.554 81.1989 246.9 81.1989C247.304 81.1989 247.666 81.1335 247.987 81.0028C248.308 80.8693 248.562 80.6847 248.75 80.4489C248.937 80.2102 249.031 79.9318 249.031 79.6136C249.031 79.3239 248.95 79.0881 248.788 78.9062C248.626 78.7244 248.413 78.5767 248.149 78.4631C247.885 78.3494 247.599 78.25 247.292 78.1648L246.218 77.858C245.537 77.6619 244.997 77.3821 244.599 77.0185C244.201 76.6548 244.002 76.179 244.002 75.5909C244.002 75.1023 244.135 74.6761 244.399 74.3125C244.666 73.946 245.024 73.6619 245.473 73.4602C245.924 73.2557 246.429 73.1534 246.985 73.1534C247.548 73.1534 248.048 73.2543 248.485 73.456C248.923 73.6548 249.27 73.9276 249.525 74.2741C249.784 74.6207 249.92 75.0142 249.934 75.4545H248.912ZM254.962 79.2727H256.121L257.092 80.5511L257.348 80.892L258.797 82.8182H257.638L256.683 81.5398L256.445 81.2159L254.962 79.2727ZM259.155 77.6364C259.155 78.5568 258.989 79.3523 258.656 80.0227C258.324 80.6932 257.868 81.2102 257.288 81.5739C256.709 81.9375 256.047 82.1193 255.303 82.1193C254.558 82.1193 253.896 81.9375 253.317 81.5739C252.737 81.2102 252.281 80.6932 251.949 80.0227C251.616 79.3523 251.45 78.5568 251.45 77.6364C251.45 76.7159 251.616 75.9205 251.949 75.25C252.281 74.5795 252.737 74.0625 253.317 73.6989C253.896 73.3352 254.558 73.1534 255.303 73.1534C256.047 73.1534 256.709 73.3352 257.288 73.6989C257.868 74.0625 258.324 74.5795 258.656 75.25C258.989 75.9205 259.155 76.7159 259.155 77.6364ZM258.132 77.6364C258.132 76.8807 258.006 76.2429 257.753 75.723C257.503 75.2031 257.163 74.8097 256.734 74.5426C256.308 74.2756 255.831 74.142 255.303 74.142C254.774 74.142 254.295 74.2756 253.866 74.5426C253.44 74.8097 253.101 75.2031 252.848 75.723C252.598 76.2429 252.473 76.8807 252.473 77.6364C252.473 78.392 252.598 79.0298 252.848 79.5497C253.101 80.0696 253.44 80.4631 253.866 80.7301C254.295 80.9972 254.774 81.1307 255.303 81.1307C255.831 81.1307 256.308 80.9972 256.734 80.7301C257.163 80.4631 257.503 80.0696 257.753 79.5497C258.006 79.0298 258.132 78.392 258.132 77.6364ZM260.932 82V73.2727H261.989V81.0625H266.045V82H260.932Z" fill="black"/>
</g>
<defs>
<filter id="filter0_d_309_207" x="0" y="0" width="381" height="119" filterUnits="userSpaceOnUse" color-interpolation-filters="sRGB">
<feFlood flood-opacity="0" result="BackgroundImageFix"/>
<feColorMatrix in="SourceAlpha" type="matrix" values="0 0 0 0 0 0 0 0 0 0 0 0 0 0 0 0 0 0 127 0" result="hardAlpha"/>
<feOffset dy="4"/>
<feGaussianBlur stdDeviation="7.5"/>
<feComposite in2="hardAlpha" operator="out"/>
<feColorMatrix type="matrix" values="0 0 0 0 0 0 0 0 0 0 0 0 0 0 0 0 0 0 0.1 0"/>
<feBlend mode="normal" in2="BackgroundImageFix" result="effect1_dropShadow_309_207"/>
<feBlend mode="normal" in="SourceGraphic" in2="effect1_dropShadow_309_207" result="shape"/>
</filter>
</defs>
</svg>
