<svg width="420" height="119" viewBox="0 0 420 119" fill="none" xmlns="http://www.w3.org/2000/svg">
<g filter="url(#filter0_d_309_207)">
<rect x="15" y="11" width="390" height="89" rx="8" fill="white"/>
<path d="M49.1477 41V29.3636H53.5114C54.4053 29.3636 55.1553 29.5303 55.7614 29.8636C56.3712 30.197 56.8314 30.6553 57.142 31.2386C57.4564 31.8182 57.6136 32.4773 57.6136 33.2159C57.6136 33.9621 57.4564 34.625 57.142 35.2045C56.8277 35.7841 56.3636 36.2405 55.75 36.5739C55.1364 36.9034 54.3807 37.0682 53.483 37.0682H50.5909V35.3352H53.1989C53.7216 35.3352 54.1496 35.2443 54.483 35.0625C54.8163 34.8807 55.0625 34.6307 55.2216 34.3125C55.3845 33.9943 55.4659 33.6288 55.4659 33.2159C55.4659 32.803 55.3845 32.4394 55.2216 32.125C55.0625 31.8106 54.8144 31.5663 54.4773 31.392C54.1439 31.214 53.714 31.125 53.1875 31.125H51.2557V41H49.1477ZM61.7088 41.1761C61.1558 41.1761 60.6577 41.0777 60.2145 40.8807C59.7751 40.6799 59.4266 40.3845 59.169 39.9943C58.9152 39.6042 58.7884 39.1231 58.7884 38.5511C58.7884 38.0587 58.8793 37.6515 59.0611 37.3295C59.2429 37.0076 59.491 36.75 59.8054 36.5568C60.1198 36.3636 60.474 36.2178 60.8679 36.1193C61.2656 36.017 61.6766 35.9432 62.1009 35.8977C62.6122 35.8447 63.027 35.7973 63.3452 35.7557C63.6634 35.7102 63.8944 35.642 64.0384 35.5511C64.1861 35.4564 64.2599 35.3106 64.2599 35.1136V35.0795C64.2599 34.6515 64.133 34.3201 63.8793 34.0852C63.6255 33.8504 63.2599 33.733 62.7827 33.733C62.2789 33.733 61.8793 33.8428 61.5838 34.0625C61.2921 34.2822 61.0952 34.5417 60.9929 34.8409L59.0724 34.5682C59.224 34.0379 59.474 33.5947 59.8224 33.2386C60.1709 32.8788 60.5971 32.6098 61.1009 32.4318C61.6046 32.25 62.1615 32.1591 62.7713 32.1591C63.1918 32.1591 63.6103 32.2083 64.027 32.3068C64.4437 32.4053 64.8243 32.5682 65.169 32.7955C65.5137 33.0189 65.7902 33.3239 65.9986 33.7102C66.2107 34.0966 66.3168 34.5795 66.3168 35.1591V41H64.3395V39.8011H64.2713C64.1463 40.0436 63.9702 40.2708 63.7429 40.483C63.5194 40.6913 63.2372 40.8598 62.8963 40.9886C62.5592 41.1136 62.1634 41.1761 61.7088 41.1761ZM62.2429 39.6648C62.6558 39.6648 63.0137 39.5833 63.3168 39.4205C63.6198 39.2538 63.8527 39.0341 64.0156 38.7614C64.1823 38.4886 64.2656 38.1913 64.2656 37.8693V36.8409C64.2012 36.8939 64.0914 36.9432 63.9361 36.9886C63.7846 37.0341 63.6141 37.0739 63.4247 37.108C63.2353 37.142 63.0478 37.1723 62.8622 37.1989C62.6766 37.2254 62.5156 37.2481 62.3793 37.267C62.0724 37.3087 61.7978 37.3769 61.5554 37.4716C61.313 37.5663 61.1217 37.6989 60.9815 37.8693C60.8414 38.036 60.7713 38.2519 60.7713 38.517C60.7713 38.8958 60.9096 39.1818 61.1861 39.375C61.4626 39.5682 61.8149 39.6648 62.2429 39.6648ZM75.2827 34.5795L73.4077 34.7841C73.3546 34.5947 73.2618 34.4167 73.1293 34.25C73.0005 34.0833 72.8262 33.9489 72.6065 33.8466C72.3868 33.7443 72.1179 33.6932 71.7997 33.6932C71.3717 33.6932 71.0118 33.786 70.7202 33.9716C70.4323 34.1572 70.2902 34.3977 70.294 34.6932C70.2902 34.947 70.383 35.1534 70.5724 35.3125C70.7656 35.4716 71.0838 35.6023 71.527 35.7045L73.0156 36.0227C73.8414 36.2008 74.455 36.483 74.8565 36.8693C75.2618 37.2557 75.4664 37.7614 75.4702 38.3864C75.4664 38.9356 75.3054 39.4205 74.9872 39.8409C74.6728 40.2576 74.2353 40.5833 73.6747 40.8182C73.1141 41.053 72.4702 41.1705 71.7429 41.1705C70.6747 41.1705 69.8149 40.947 69.1634 40.5C68.5118 40.0492 68.1236 39.4223 67.9986 38.6193L70.0043 38.4261C70.0952 38.8201 70.2884 39.1174 70.5838 39.3182C70.8793 39.5189 71.2637 39.6193 71.7372 39.6193C72.2259 39.6193 72.6179 39.5189 72.9134 39.3182C73.2126 39.1174 73.3622 38.8693 73.3622 38.5739C73.3622 38.3239 73.2656 38.1174 73.0724 37.9545C72.883 37.7917 72.5876 37.6667 72.1861 37.5795L70.6974 37.267C69.8603 37.0928 69.241 36.7992 68.8395 36.3864C68.438 35.9697 68.2391 35.4432 68.2429 34.8068C68.2391 34.2689 68.3849 33.803 68.6804 33.4091C68.9796 33.0114 69.3944 32.7045 69.9247 32.4886C70.4588 32.2689 71.0743 32.1591 71.7713 32.1591C72.794 32.1591 73.599 32.3769 74.1861 32.8125C74.777 33.2481 75.1425 33.8371 75.2827 34.5795ZM81.5241 32.2727V33.8636H76.5071V32.2727H81.5241ZM77.7457 30.1818H79.8026V38.375C79.8026 38.6515 79.8442 38.8636 79.9276 39.0114C80.0147 39.1553 80.1283 39.2538 80.2685 39.3068C80.4086 39.3598 80.5639 39.3864 80.7344 39.3864C80.8632 39.3864 80.9806 39.3769 81.0866 39.358C81.1965 39.339 81.2798 39.322 81.3366 39.3068L81.6832 40.9148C81.5734 40.9527 81.4162 40.9943 81.2116 41.0398C81.0109 41.0852 80.7647 41.1117 80.473 41.1193C79.9579 41.1345 79.4938 41.0568 79.081 40.8864C78.6681 40.7121 78.3404 40.4432 78.098 40.0795C77.8594 39.7159 77.742 39.2614 77.7457 38.7159V30.1818ZM87.0142 41.1705C86.1392 41.1705 85.3835 40.9886 84.7472 40.625C84.1146 40.2576 83.6278 39.7386 83.2869 39.0682C82.946 38.3939 82.7756 37.6004 82.7756 36.6875C82.7756 35.7898 82.946 35.0019 83.2869 34.3239C83.6316 33.642 84.1127 33.1117 84.7301 32.733C85.3475 32.3504 86.0729 32.1591 86.9062 32.1591C87.4441 32.1591 87.9517 32.2462 88.429 32.4205C88.91 32.5909 89.3343 32.8561 89.7017 33.2159C90.0729 33.5758 90.3646 34.0341 90.5767 34.5909C90.7888 35.1439 90.8949 35.803 90.8949 36.5682V37.1989H83.7415V35.8125H88.9233C88.9195 35.4186 88.8343 35.0682 88.6676 34.7614C88.5009 34.4508 88.268 34.2064 87.9688 34.0284C87.6733 33.8504 87.3286 33.7614 86.9347 33.7614C86.5142 33.7614 86.1449 33.8636 85.8267 34.0682C85.5085 34.2689 85.2604 34.5341 85.0824 34.8636C84.9081 35.1894 84.8191 35.5473 84.8153 35.9375V37.1477C84.8153 37.6553 84.9081 38.0909 85.0938 38.4545C85.2794 38.8144 85.5388 39.0909 85.8722 39.2841C86.2055 39.4735 86.5956 39.5682 87.0426 39.5682C87.3419 39.5682 87.6127 39.5265 87.8551 39.4432C88.0975 39.3561 88.3078 39.2292 88.4858 39.0625C88.6638 38.8958 88.7983 38.6894 88.8892 38.4432L90.8097 38.6591C90.6884 39.1667 90.4574 39.6098 90.1165 39.9886C89.7794 40.3636 89.3475 40.6553 88.821 40.8636C88.2945 41.0682 87.6922 41.1705 87.0142 41.1705ZM94.6918 29.3636V41H92.6349V29.3636H94.6918ZM100.67 41.1705C99.7955 41.1705 99.0398 40.9886 98.4034 40.625C97.7708 40.2576 97.2841 39.7386 96.9432 39.0682C96.6023 38.3939 96.4318 37.6004 96.4318 36.6875C96.4318 35.7898 96.6023 35.0019 96.9432 34.3239C97.2879 33.642 97.7689 33.1117 98.3864 32.733C99.0038 32.3504 99.7292 32.1591 100.562 32.1591C101.1 32.1591 101.608 32.2462 102.085 32.4205C102.566 32.5909 102.991 32.8561 103.358 33.2159C103.729 33.5758 104.021 34.0341 104.233 34.5909C104.445 35.1439 104.551 35.803 104.551 36.5682V37.1989H97.3977V35.8125H102.58C102.576 35.4186 102.491 35.0682 102.324 34.7614C102.157 34.4508 101.924 34.2064 101.625 34.0284C101.33 33.8504 100.985 33.7614 100.591 33.7614C100.17 33.7614 99.8011 33.8636 99.483 34.0682C99.1648 34.2689 98.9167 34.5341 98.7386 34.8636C98.5644 35.1894 98.4754 35.5473 98.4716 35.9375V37.1477C98.4716 37.6553 98.5644 38.0909 98.75 38.4545C98.9356 38.8144 99.1951 39.0909 99.5284 39.2841C99.8617 39.4735 100.252 39.5682 100.699 39.5682C100.998 39.5682 101.269 39.5265 101.511 39.4432C101.754 39.3561 101.964 39.2292 102.142 39.0625C102.32 38.8958 102.455 38.6894 102.545 38.4432L104.466 38.6591C104.345 39.1667 104.114 39.6098 103.773 39.9886C103.436 40.3636 103.004 40.6553 102.477 40.8636C101.951 41.0682 101.348 41.1705 100.67 41.1705ZM106.291 41V32.2727H108.286V33.7273H108.376C108.536 33.2235 108.808 32.8352 109.195 32.5625C109.585 32.286 110.03 32.1477 110.53 32.1477C110.643 32.1477 110.77 32.1534 110.911 32.1648C111.054 32.1723 111.174 32.1856 111.268 32.2045V34.0966C111.181 34.0663 111.043 34.0398 110.854 34.017C110.668 33.9905 110.488 33.9773 110.314 33.9773C109.939 33.9773 109.602 34.0587 109.303 34.2216C109.007 34.3807 108.774 34.6023 108.604 34.8864C108.433 35.1705 108.348 35.4981 108.348 35.8693V41H106.291ZM112.635 41V32.2727H114.692V41H112.635ZM112.879 31.125L114.152 28.5284H116.163L114.419 31.125H112.879ZM119.318 41.1761C118.765 41.1761 118.267 41.0777 117.824 40.8807C117.384 40.6799 117.036 40.3845 116.778 39.9943C116.525 39.6042 116.398 39.1231 116.398 38.5511C116.398 38.0587 116.489 37.6515 116.67 37.3295C116.852 37.0076 117.1 36.75 117.415 36.5568C117.729 36.3636 118.083 36.2178 118.477 36.1193C118.875 36.017 119.286 35.9432 119.71 35.8977C120.222 35.8447 120.636 35.7973 120.955 35.7557C121.273 35.7102 121.504 35.642 121.648 35.5511C121.795 35.4564 121.869 35.3106 121.869 35.1136V35.0795C121.869 34.6515 121.742 34.3201 121.489 34.0852C121.235 33.8504 120.869 33.733 120.392 33.733C119.888 33.733 119.489 33.8428 119.193 34.0625C118.902 34.2822 118.705 34.5417 118.602 34.8409L116.682 34.5682C116.833 34.0379 117.083 33.5947 117.432 33.2386C117.78 32.8788 118.206 32.6098 118.71 32.4318C119.214 32.25 119.771 32.1591 120.381 32.1591C120.801 32.1591 121.22 32.2083 121.636 32.3068C122.053 32.4053 122.434 32.5682 122.778 32.7955C123.123 33.0189 123.4 33.3239 123.608 33.7102C123.82 34.0966 123.926 34.5795 123.926 35.1591V41H121.949V39.8011H121.881C121.756 40.0436 121.58 40.2708 121.352 40.483C121.129 40.6913 120.847 40.8598 120.506 40.9886C120.169 41.1136 119.773 41.1761 119.318 41.1761ZM119.852 39.6648C120.265 39.6648 120.623 39.5833 120.926 39.4205C121.229 39.2538 121.462 39.0341 121.625 38.7614C121.792 38.4886 121.875 38.1913 121.875 37.8693V36.8409C121.811 36.8939 121.701 36.9432 121.545 36.9886C121.394 37.0341 121.223 37.0739 121.034 37.108C120.845 37.142 120.657 37.1723 120.472 37.1989C120.286 37.2254 120.125 37.2481 119.989 37.267C119.682 37.3087 119.407 37.3769 119.165 37.4716C118.922 37.5663 118.731 37.6989 118.591 37.8693C118.451 38.036 118.381 38.2519 118.381 38.517C118.381 38.8958 118.519 39.1818 118.795 39.375C119.072 39.5682 119.424 39.6648 119.852 39.6648ZM130.054 41V29.3636H134.509C135.349 29.3636 136.048 29.4962 136.605 29.7614C137.166 30.0227 137.584 30.3807 137.861 30.8352C138.141 31.2898 138.281 31.8049 138.281 32.3807C138.281 32.8542 138.19 33.2595 138.009 33.5966C137.827 33.9299 137.582 34.2008 137.276 34.4091C136.969 34.6174 136.626 34.767 136.247 34.858V34.9716C136.66 34.9943 137.056 35.1212 137.435 35.3523C137.817 35.5795 138.13 35.9015 138.372 36.3182C138.615 36.7348 138.736 37.2386 138.736 37.8295C138.736 38.4318 138.59 38.9735 138.298 39.4545C138.007 39.9318 137.567 40.3087 136.98 40.5852C136.393 40.8617 135.654 41 134.764 41H130.054ZM132.162 39.2386H134.429C135.194 39.2386 135.745 39.0928 136.082 38.8011C136.423 38.5057 136.594 38.1269 136.594 37.6648C136.594 37.3201 136.509 37.0095 136.338 36.733C136.168 36.4527 135.925 36.233 135.611 36.0739C135.296 35.911 134.921 35.8295 134.486 35.8295H132.162V39.2386ZM132.162 34.3125H134.247C134.611 34.3125 134.938 34.2462 135.23 34.1136C135.522 33.9773 135.751 33.786 135.918 33.5398C136.088 33.2898 136.173 32.9943 136.173 32.6534C136.173 32.2027 136.014 31.8314 135.696 31.5398C135.382 31.2481 134.914 31.1023 134.293 31.1023H132.162V34.3125ZM144.342 41.1705C143.467 41.1705 142.712 40.9886 142.075 40.625C141.443 40.2576 140.956 39.7386 140.615 39.0682C140.274 38.3939 140.104 37.6004 140.104 36.6875C140.104 35.7898 140.274 35.0019 140.615 34.3239C140.96 33.642 141.441 33.1117 142.058 32.733C142.676 32.3504 143.401 32.1591 144.234 32.1591C144.772 32.1591 145.28 32.2462 145.757 32.4205C146.238 32.5909 146.662 32.8561 147.03 33.2159C147.401 33.5758 147.693 34.0341 147.905 34.5909C148.117 35.1439 148.223 35.803 148.223 36.5682V37.1989H141.07V35.8125H146.251C146.248 35.4186 146.162 35.0682 145.996 34.7614C145.829 34.4508 145.596 34.2064 145.297 34.0284C145.001 33.8504 144.657 33.7614 144.263 33.7614C143.842 33.7614 143.473 33.8636 143.155 34.0682C142.837 34.2689 142.589 34.5341 142.411 34.8636C142.236 35.1894 142.147 35.5473 142.143 35.9375V37.1477C142.143 37.6553 142.236 38.0909 142.422 38.4545C142.607 38.8144 142.867 39.0909 143.2 39.2841C143.534 39.4735 143.924 39.5682 144.371 39.5682C144.67 39.5682 144.941 39.5265 145.183 39.4432C145.426 39.3561 145.636 39.2292 145.814 39.0625C145.992 38.8958 146.126 38.6894 146.217 38.4432L148.138 38.6591C148.017 39.1667 147.786 39.6098 147.445 39.9886C147.107 40.3636 146.676 40.6553 146.149 40.8636C145.623 41.0682 145.02 41.1705 144.342 41.1705ZM153.202 41.1534C152.516 41.1534 151.902 40.9773 151.361 40.625C150.819 40.2727 150.391 39.7614 150.077 39.0909C149.762 38.4205 149.605 37.6061 149.605 36.6477C149.605 35.678 149.764 34.8598 150.082 34.1932C150.404 33.5227 150.838 33.017 151.384 32.6761C151.929 32.3314 152.537 32.1591 153.207 32.1591C153.719 32.1591 154.139 32.2462 154.469 32.4205C154.798 32.5909 155.06 32.7973 155.253 33.0398C155.446 33.2784 155.596 33.5038 155.702 33.7159H155.787V29.3636H157.849V41H155.827V39.625H155.702C155.596 39.8371 155.442 40.0625 155.241 40.3011C155.041 40.536 154.776 40.7367 154.446 40.9034C154.116 41.0701 153.702 41.1534 153.202 41.1534ZM153.776 39.4659C154.211 39.4659 154.582 39.3485 154.889 39.1136C155.196 38.875 155.429 38.5436 155.588 38.1193C155.747 37.6951 155.827 37.2008 155.827 36.6364C155.827 36.072 155.747 35.5814 155.588 35.1648C155.433 34.7481 155.202 34.4242 154.895 34.1932C154.592 33.9621 154.219 33.8466 153.776 33.8466C153.317 33.8466 152.935 33.9659 152.628 34.2045C152.321 34.4432 152.09 34.7727 151.935 35.1932C151.779 35.6136 151.702 36.0947 151.702 36.6364C151.702 37.1818 151.779 37.6686 151.935 38.0966C152.094 38.5208 152.327 38.8561 152.634 39.1023C152.944 39.3447 153.325 39.4659 153.776 39.4659ZM165.604 37.3295V32.2727H167.661V41H165.666V39.4489H165.575C165.378 39.9375 165.054 40.3371 164.604 40.6477C164.157 40.9583 163.606 41.1136 162.95 41.1136C162.378 41.1136 161.873 40.9867 161.433 40.733C160.998 40.4754 160.657 40.1023 160.411 39.6136C160.164 39.1212 160.041 38.5265 160.041 37.8295V32.2727H162.098V37.5114C162.098 38.0644 162.25 38.5038 162.553 38.8295C162.856 39.1553 163.253 39.3182 163.746 39.3182C164.049 39.3182 164.342 39.2443 164.626 39.0966C164.911 38.9489 165.143 38.7292 165.325 38.4375C165.511 38.142 165.604 37.7727 165.604 37.3295Z" fill="#363636"/>
<path d="M49.0568 67V58.2727H52.108C52.7159 58.2727 53.2173 58.3778 53.6122 58.5881C54.0071 58.7955 54.3011 59.0753 54.4943 59.4276C54.6875 59.777 54.7841 60.1648 54.7841 60.5909C54.7841 60.9659 54.7173 61.2756 54.5838 61.5199C54.4531 61.7642 54.2798 61.9574 54.0639 62.0994C53.8509 62.2415 53.6193 62.3466 53.3693 62.4148V62.5C53.6364 62.517 53.9048 62.6108 54.1747 62.7812C54.4446 62.9517 54.6705 63.196 54.8523 63.5142C55.0341 63.8324 55.125 64.2216 55.125 64.6818C55.125 65.1193 55.0256 65.5128 54.8267 65.8622C54.6278 66.2116 54.3139 66.4886 53.8849 66.6932C53.456 66.8977 52.8977 67 52.2102 67H49.0568ZM50.1136 66.0625H52.2102C52.9006 66.0625 53.3906 65.929 53.6804 65.6619C53.973 65.392 54.1193 65.0653 54.1193 64.6818C54.1193 64.3864 54.044 64.1136 53.8935 63.8636C53.7429 63.6108 53.5284 63.4091 53.25 63.2585C52.9716 63.1051 52.642 63.0284 52.2614 63.0284H50.1136V66.0625ZM50.1136 62.108H52.0739C52.392 62.108 52.679 62.0455 52.9347 61.9205C53.1932 61.7955 53.3977 61.6193 53.5483 61.392C53.7017 61.1648 53.7784 60.8977 53.7784 60.5909C53.7784 60.2074 53.6449 59.8821 53.3778 59.6151C53.1108 59.3452 52.6875 59.2102 52.108 59.2102H50.1136V62.108ZM58.6513 67.1534C58.2365 67.1534 57.8601 67.0753 57.522 66.919C57.1839 66.7599 56.9155 66.5312 56.7166 66.233C56.5178 65.9318 56.4183 65.5682 56.4183 65.142C56.4183 64.767 56.4922 64.4631 56.6399 64.2301C56.7876 63.9943 56.9851 63.8097 57.2322 63.6761C57.4794 63.5426 57.7521 63.4432 58.0504 63.3778C58.3516 63.3097 58.6541 63.2557 58.9581 63.2159C59.3558 63.1648 59.6783 63.1264 59.9254 63.1009C60.1754 63.0724 60.3572 63.0256 60.4709 62.9602C60.5874 62.8949 60.6456 62.7812 60.6456 62.6193V62.5852C60.6456 62.1648 60.5305 61.8381 60.3004 61.6051C60.0732 61.3722 59.728 61.2557 59.2649 61.2557C58.7848 61.2557 58.4084 61.3608 58.1357 61.571C57.8629 61.7812 57.6712 62.0057 57.5604 62.2443L56.6058 61.9034C56.7763 61.5057 57.0036 61.196 57.2876 60.9744C57.5746 60.75 57.8871 60.5937 58.2251 60.5057C58.5661 60.4148 58.9013 60.3693 59.2308 60.3693C59.4411 60.3693 59.6825 60.3949 59.9553 60.446C60.2308 60.4943 60.4964 60.5952 60.7521 60.7486C61.0107 60.902 61.2251 61.1335 61.3956 61.4432C61.5661 61.7528 61.6513 62.1676 61.6513 62.6875V67H60.6456V66.1136H60.5945C60.5263 66.2557 60.4126 66.4077 60.2536 66.5696C60.0945 66.7315 59.8828 66.8693 59.6186 66.983C59.3544 67.0966 59.032 67.1534 58.6513 67.1534ZM58.8047 66.25C59.2024 66.25 59.5376 66.1719 59.8104 66.0156C60.0859 65.8594 60.2933 65.6577 60.4325 65.4105C60.5746 65.1634 60.6456 64.9034 60.6456 64.6307V63.7102C60.603 63.7614 60.5092 63.8082 60.3643 63.8509C60.2223 63.8906 60.0575 63.9261 59.87 63.9574C59.6854 63.9858 59.505 64.0114 59.3288 64.0341C59.1555 64.054 59.0149 64.071 58.907 64.0852C58.6456 64.1193 58.4013 64.1747 58.174 64.2514C57.9496 64.3253 57.7678 64.4375 57.6286 64.5881C57.4922 64.7358 57.424 64.9375 57.424 65.1932C57.424 65.5426 57.5533 65.8068 57.8118 65.9858C58.0732 66.1619 58.4041 66.25 58.8047 66.25ZM64.4244 64.6136L64.4073 63.3693H64.6119L67.4755 60.4545H68.7198L65.6687 63.5398H65.5835L64.4244 64.6136ZM63.4869 67V58.2727H64.4925V67H63.4869ZM67.646 67L65.0891 63.7614L65.805 63.0625L68.9244 67H67.646ZM72.489 67.1364C71.8583 67.1364 71.3143 66.9972 70.8569 66.7188C70.4023 66.4375 70.0515 66.0455 69.8043 65.5426C69.56 65.0369 69.4379 64.4489 69.4379 63.7784C69.4379 63.108 69.56 62.517 69.8043 62.0057C70.0515 61.4915 70.3952 61.0909 70.8356 60.804C71.2788 60.5142 71.7958 60.3693 72.3867 60.3693C72.7276 60.3693 73.0643 60.4261 73.3967 60.5398C73.729 60.6534 74.0316 60.8381 74.3043 61.0938C74.5771 61.3466 74.7944 61.6818 74.9563 62.0994C75.1183 62.517 75.1992 63.0312 75.1992 63.642V64.0682H70.1538V63.1989H74.1765C74.1765 62.8295 74.1026 62.5 73.9549 62.2102C73.81 61.9205 73.6026 61.6918 73.3327 61.5241C73.0657 61.3565 72.7504 61.2727 72.3867 61.2727C71.9862 61.2727 71.6396 61.3722 71.3469 61.571C71.0572 61.767 70.8342 62.0227 70.6779 62.3381C70.5217 62.6534 70.4435 62.9915 70.4435 63.3523V63.9318C70.4435 64.4261 70.5288 64.8452 70.6992 65.1889C70.8725 65.5298 71.1126 65.7898 71.4194 65.9688C71.7262 66.1449 72.0827 66.233 72.489 66.233C72.7532 66.233 72.9918 66.196 73.2049 66.1222C73.4208 66.0455 73.6069 65.9318 73.7631 65.7812C73.9194 65.6278 74.0401 65.4375 74.1254 65.2102L75.0969 65.483C74.9947 65.8125 74.8228 66.1023 74.5813 66.3523C74.3398 66.5994 74.0415 66.7926 73.6864 66.9318C73.3313 67.0682 72.9322 67.1364 72.489 67.1364ZM84.7404 61.9205L83.837 62.1761C83.7802 62.0256 83.6964 61.8793 83.5856 61.7372C83.4776 61.5923 83.3299 61.473 83.1424 61.3793C82.9549 61.2855 82.7148 61.2386 82.4222 61.2386C82.0217 61.2386 81.6879 61.331 81.4208 61.5156C81.1566 61.6974 81.0245 61.929 81.0245 62.2102C81.0245 62.4602 81.1154 62.6577 81.2972 62.8026C81.479 62.9474 81.7631 63.0682 82.1495 63.1648L83.1211 63.4034C83.7063 63.5455 84.1424 63.7628 84.4293 64.0554C84.7163 64.3452 84.8597 64.7187 84.8597 65.1761C84.8597 65.5511 84.7518 65.8864 84.5359 66.1818C84.3228 66.4773 84.0245 66.7102 83.641 66.8807C83.2575 67.0511 82.8114 67.1364 82.3029 67.1364C81.6353 67.1364 81.0827 66.9915 80.6452 66.7017C80.2077 66.4119 79.9308 65.9886 79.8143 65.4318L80.7688 65.1932C80.8597 65.5455 81.0316 65.8097 81.2844 65.9858C81.5401 66.1619 81.8739 66.25 82.2859 66.25C82.7546 66.25 83.1268 66.1506 83.4023 65.9517C83.6808 65.75 83.82 65.5085 83.82 65.2273C83.82 65 83.7404 64.8097 83.5813 64.6562C83.4222 64.5 83.1779 64.3835 82.8484 64.3068L81.7575 64.0511C81.158 63.9091 80.7177 63.6889 80.4364 63.3906C80.158 63.0895 80.0188 62.7131 80.0188 62.2614C80.0188 61.892 80.1225 61.5653 80.3299 61.2812C80.5401 60.9972 80.8256 60.7741 81.1864 60.6122C81.5501 60.4503 81.962 60.3693 82.4222 60.3693C83.07 60.3693 83.5785 60.5114 83.9478 60.7955C84.32 61.0795 84.5842 61.4545 84.7404 61.9205ZM88.2997 67.1534C87.8849 67.1534 87.5085 67.0753 87.1705 66.919C86.8324 66.7599 86.5639 66.5312 86.3651 66.233C86.1662 65.9318 86.0668 65.5682 86.0668 65.142C86.0668 64.767 86.1406 64.4631 86.2884 64.2301C86.4361 63.9943 86.6335 63.8097 86.8807 63.6761C87.1278 63.5426 87.4006 63.4432 87.6989 63.3778C88 63.3097 88.3026 63.2557 88.6065 63.2159C89.0043 63.1648 89.3267 63.1264 89.5739 63.1009C89.8239 63.0724 90.0057 63.0256 90.1193 62.9602C90.2358 62.8949 90.294 62.7812 90.294 62.6193V62.5852C90.294 62.1648 90.179 61.8381 89.9489 61.6051C89.7216 61.3722 89.3764 61.2557 88.9134 61.2557C88.4332 61.2557 88.0568 61.3608 87.7841 61.571C87.5114 61.7812 87.3196 62.0057 87.2088 62.2443L86.2543 61.9034C86.4247 61.5057 86.652 61.196 86.9361 60.9744C87.223 60.75 87.5355 60.5937 87.8736 60.5057C88.2145 60.4148 88.5497 60.3693 88.8793 60.3693C89.0895 60.3693 89.331 60.3949 89.6037 60.446C89.8793 60.4943 90.1449 60.5952 90.4006 60.7486C90.6591 60.902 90.8736 61.1335 91.044 61.4432C91.2145 61.7528 91.2997 62.1676 91.2997 62.6875V67H90.294V66.1136H90.2429C90.1747 66.2557 90.0611 66.4077 89.902 66.5696C89.7429 66.7315 89.5313 66.8693 89.267 66.983C89.0028 67.0966 88.6804 67.1534 88.2997 67.1534ZM88.4531 66.25C88.8509 66.25 89.1861 66.1719 89.4588 66.0156C89.7344 65.8594 89.9418 65.6577 90.081 65.4105C90.223 65.1634 90.294 64.9034 90.294 64.6307V63.7102C90.2514 63.7614 90.1577 63.8082 90.0128 63.8509C89.8707 63.8906 89.706 63.9261 89.5185 63.9574C89.3338 63.9858 89.1534 64.0114 88.9773 64.0341C88.804 64.054 88.6634 64.071 88.5554 64.0852C88.294 64.1193 88.0497 64.1747 87.8224 64.2514C87.598 64.3253 87.4162 64.4375 87.277 64.5881C87.1406 64.7358 87.0724 64.9375 87.0724 65.1932C87.0724 65.5426 87.2017 65.8068 87.4602 65.9858C87.7216 66.1619 88.0526 66.25 88.4531 66.25ZM94.141 58.2727V67H93.1353V58.2727H94.141ZM98.7273 67.1364C98.0966 67.1364 97.5526 66.9972 97.0952 66.7188C96.6406 66.4375 96.2898 66.0455 96.0426 65.5426C95.7983 65.0369 95.6761 64.4489 95.6761 63.7784C95.6761 63.108 95.7983 62.517 96.0426 62.0057C96.2898 61.4915 96.6335 61.0909 97.0739 60.804C97.517 60.5142 98.0341 60.3693 98.625 60.3693C98.9659 60.3693 99.3026 60.4261 99.6349 60.5398C99.9673 60.6534 100.27 60.8381 100.543 61.0938C100.815 61.3466 101.033 61.6818 101.195 62.0994C101.357 62.517 101.438 63.0312 101.438 63.642V64.0682H96.392V63.1989H100.415C100.415 62.8295 100.341 62.5 100.193 62.2102C100.048 61.9205 99.8409 61.6918 99.571 61.5241C99.304 61.3565 98.9886 61.2727 98.625 61.2727C98.2244 61.2727 97.8778 61.3722 97.5852 61.571C97.2955 61.767 97.0724 62.0227 96.9162 62.3381C96.7599 62.6534 96.6818 62.9915 96.6818 63.3523V63.9318C96.6818 64.4261 96.767 64.8452 96.9375 65.1889C97.1108 65.5298 97.3509 65.7898 97.6577 65.9688C97.9645 66.1449 98.321 66.233 98.7273 66.233C98.9915 66.233 99.2301 66.196 99.4432 66.1222C99.6591 66.0455 99.8452 65.9318 100.001 65.7812C100.158 65.6278 100.278 65.4375 100.364 65.2102L101.335 65.483C101.233 65.8125 101.061 66.1023 100.82 66.3523C100.578 66.5994 100.28 66.7926 99.9247 66.9318C99.5696 67.0682 99.1705 67.1364 98.7273 67.1364ZM107.604 61.9205L106.7 62.1761C106.643 62.0256 106.56 61.8793 106.449 61.7372C106.341 61.5923 106.193 61.473 106.006 61.3793C105.818 61.2855 105.578 61.2386 105.286 61.2386C104.885 61.2386 104.551 61.331 104.284 61.5156C104.02 61.6974 103.888 61.929 103.888 62.2102C103.888 62.4602 103.979 62.6577 104.161 62.8026C104.342 62.9474 104.626 63.0682 105.013 63.1648L105.984 63.4034C106.57 63.5455 107.006 63.7628 107.293 64.0554C107.58 64.3452 107.723 64.7187 107.723 65.1761C107.723 65.5511 107.615 65.8864 107.399 66.1818C107.186 66.4773 106.888 66.7102 106.504 66.8807C106.121 67.0511 105.675 67.1364 105.166 67.1364C104.499 67.1364 103.946 66.9915 103.509 66.7017C103.071 66.4119 102.794 65.9886 102.678 65.4318L103.632 65.1932C103.723 65.5455 103.895 65.8097 104.148 65.9858C104.403 66.1619 104.737 66.25 105.149 66.25C105.618 66.25 105.99 66.1506 106.266 65.9517C106.544 65.75 106.683 65.5085 106.683 65.2273C106.683 65 106.604 64.8097 106.445 64.6562C106.286 64.5 106.041 64.3835 105.712 64.3068L104.621 64.0511C104.021 63.9091 103.581 63.6889 103.3 63.3906C103.021 63.0895 102.882 62.7131 102.882 62.2614C102.882 61.892 102.986 61.5653 103.193 61.2812C103.403 60.9972 103.689 60.7741 104.05 60.6122C104.413 60.4503 104.825 60.3693 105.286 60.3693C105.933 60.3693 106.442 60.5114 106.811 60.7955C107.183 61.0795 107.447 61.4545 107.604 61.9205ZM117.248 61.9205L116.345 62.1761C116.288 62.0256 116.204 61.8793 116.093 61.7372C115.985 61.5923 115.838 61.473 115.65 61.3793C115.463 61.2855 115.223 61.2386 114.93 61.2386C114.529 61.2386 114.196 61.331 113.929 61.5156C113.664 61.6974 113.532 61.929 113.532 62.2102C113.532 62.4602 113.623 62.6577 113.805 62.8026C113.987 62.9474 114.271 63.0682 114.657 63.1648L115.629 63.4034C116.214 63.5455 116.65 63.7628 116.937 64.0554C117.224 64.3452 117.368 64.7187 117.368 65.1761C117.368 65.5511 117.26 65.8864 117.044 66.1818C116.831 66.4773 116.532 66.7102 116.149 66.8807C115.765 67.0511 115.319 67.1364 114.811 67.1364C114.143 67.1364 113.591 66.9915 113.153 66.7017C112.716 66.4119 112.439 65.9886 112.322 65.4318L113.277 65.1932C113.368 65.5455 113.539 65.8097 113.792 65.9858C114.048 66.1619 114.382 66.25 114.794 66.25C115.262 66.25 115.635 66.1506 115.91 65.9517C116.189 65.75 116.328 65.5085 116.328 65.2273C116.328 65 116.248 64.8097 116.089 64.6562C115.93 64.5 115.686 64.3835 115.356 64.3068L114.265 64.0511C113.666 63.9091 113.225 63.6889 112.944 63.3906C112.666 63.0895 112.527 62.7131 112.527 62.2614C112.527 61.892 112.63 61.5653 112.838 61.2812C113.048 60.9972 113.333 60.7741 113.694 60.6122C114.058 60.4503 114.47 60.3693 114.93 60.3693C115.578 60.3693 116.086 60.5114 116.456 60.7955C116.828 61.0795 117.092 61.4545 117.248 61.9205ZM119.529 69.4545C119.359 69.4545 119.207 69.4403 119.073 69.4119C118.94 69.3864 118.847 69.3608 118.796 69.3352L119.052 68.4489C119.296 68.5114 119.512 68.5341 119.7 68.517C119.887 68.5 120.053 68.4162 120.198 68.2656C120.346 68.1179 120.481 67.8778 120.603 67.5455L120.79 67.0341L118.37 60.4545H119.461L121.268 65.6705H121.336L123.143 60.4545H124.234L121.455 67.9545C121.33 68.2926 121.175 68.5724 120.991 68.794C120.806 69.0185 120.592 69.1847 120.347 69.2926C120.106 69.4006 119.833 69.4545 119.529 69.4545ZM130.197 61.9205L129.294 62.1761C129.237 62.0256 129.153 61.8793 129.043 61.7372C128.935 61.5923 128.787 61.473 128.599 61.3793C128.412 61.2855 128.172 61.2386 127.879 61.2386C127.479 61.2386 127.145 61.331 126.878 61.5156C126.614 61.6974 126.482 61.929 126.482 62.2102C126.482 62.4602 126.572 62.6577 126.754 62.8026C126.936 62.9474 127.22 63.0682 127.607 63.1648L128.578 63.4034C129.163 63.5455 129.599 63.7628 129.886 64.0554C130.173 64.3452 130.317 64.7187 130.317 65.1761C130.317 65.5511 130.209 65.8864 129.993 66.1818C129.78 66.4773 129.482 66.7102 129.098 66.8807C128.714 67.0511 128.268 67.1364 127.76 67.1364C127.092 67.1364 126.54 66.9915 126.102 66.7017C125.665 66.4119 125.388 65.9886 125.271 65.4318L126.226 65.1932C126.317 65.5455 126.489 65.8097 126.741 65.9858C126.997 66.1619 127.331 66.25 127.743 66.25C128.212 66.25 128.584 66.1506 128.859 65.9517C129.138 65.75 129.277 65.5085 129.277 65.2273C129.277 65 129.197 64.8097 129.038 64.6562C128.879 64.5 128.635 64.3835 128.305 64.3068L127.214 64.0511C126.615 63.9091 126.175 63.6889 125.893 63.3906C125.615 63.0895 125.476 62.7131 125.476 62.2614C125.476 61.892 125.58 61.5653 125.787 61.2812C125.997 60.9972 126.283 60.7741 126.643 60.6122C127.007 60.4503 127.419 60.3693 127.879 60.3693C128.527 60.3693 129.036 60.5114 129.405 60.7955C129.777 61.0795 130.041 61.4545 130.197 61.9205ZM134.677 60.4545V61.3068H131.285V60.4545H134.677ZM132.274 58.8864H133.279V65.125C133.279 65.4091 133.321 65.6222 133.403 65.7642C133.488 65.9034 133.596 65.9972 133.727 66.0455C133.86 66.0909 134.001 66.1136 134.149 66.1136C134.26 66.1136 134.35 66.108 134.422 66.0966C134.493 66.0824 134.549 66.071 134.592 66.0625L134.797 66.9659C134.728 66.9915 134.633 67.017 134.511 67.0426C134.389 67.071 134.234 67.0852 134.047 67.0852C133.762 67.0852 133.484 67.0241 133.211 66.902C132.941 66.7798 132.717 66.5938 132.538 66.3438C132.362 66.0938 132.274 65.7784 132.274 65.3977V58.8864ZM138.864 67.1364C138.233 67.1364 137.689 66.9972 137.232 66.7188C136.777 66.4375 136.426 66.0455 136.179 65.5426C135.935 65.0369 135.813 64.4489 135.813 63.7784C135.813 63.108 135.935 62.517 136.179 62.0057C136.426 61.4915 136.77 61.0909 137.211 60.804C137.654 60.5142 138.171 60.3693 138.762 60.3693C139.103 60.3693 139.439 60.4261 139.772 60.5398C140.104 60.6534 140.407 60.8381 140.679 61.0938C140.952 61.3466 141.169 61.6818 141.331 62.0994C141.493 62.517 141.574 63.0312 141.574 63.642V64.0682H136.529V63.1989H140.551C140.551 62.8295 140.478 62.5 140.33 62.2102C140.185 61.9205 139.978 61.6918 139.708 61.5241C139.441 61.3565 139.125 61.2727 138.762 61.2727C138.361 61.2727 138.015 61.3722 137.722 61.571C137.432 61.767 137.209 62.0227 137.053 62.3381C136.897 62.6534 136.819 62.9915 136.819 63.3523V63.9318C136.819 64.4261 136.904 64.8452 137.074 65.1889C137.248 65.5298 137.488 65.7898 137.794 65.9688C138.101 66.1449 138.458 66.233 138.864 66.233C139.128 66.233 139.367 66.196 139.58 66.1222C139.796 66.0455 139.982 65.9318 140.138 65.7812C140.294 65.6278 140.415 65.4375 140.5 65.2102L141.472 65.483C141.37 65.8125 141.198 66.1023 140.956 66.3523C140.715 66.5994 140.417 66.7926 140.061 66.9318C139.706 67.0682 139.307 67.1364 138.864 67.1364ZM143.104 67V60.4545H144.076V61.4773H144.161C144.297 61.1278 144.517 60.8565 144.821 60.6634C145.125 60.4673 145.49 60.3693 145.917 60.3693C146.348 60.3693 146.708 60.4673 146.995 60.6634C147.284 60.8565 147.51 61.1278 147.672 61.4773H147.74C147.908 61.1392 148.159 60.8707 148.495 60.6719C148.83 60.4702 149.232 60.3693 149.701 60.3693C150.286 60.3693 150.765 60.5526 151.137 60.919C151.509 61.2827 151.695 61.8494 151.695 62.6193V67H150.689V62.6193C150.689 62.1364 150.557 61.7912 150.293 61.5838C150.029 61.3764 149.718 61.2727 149.36 61.2727C148.9 61.2727 148.543 61.4119 148.29 61.6903C148.037 61.9659 147.911 62.3153 147.911 62.7386V67H146.888V62.517C146.888 62.1449 146.767 61.8452 146.526 61.6179C146.284 61.3878 145.973 61.2727 145.593 61.2727C145.331 61.2727 145.087 61.3423 144.86 61.4815C144.635 61.6207 144.453 61.8139 144.314 62.0611C144.178 62.3054 144.11 62.5881 144.11 62.9091V67H143.104ZM161.034 64.3239V60.4545H162.039V67H161.034V65.892H160.966C160.812 66.2244 160.574 66.5071 160.25 66.7401C159.926 66.9702 159.517 67.0852 159.022 67.0852C158.613 67.0852 158.25 66.9957 157.931 66.8168C157.613 66.6349 157.363 66.3622 157.181 65.9986C157 65.6321 156.909 65.1705 156.909 64.6136V60.4545H157.914V64.5455C157.914 65.0227 158.048 65.4034 158.315 65.6875C158.585 65.9716 158.929 66.1136 159.346 66.1136C159.596 66.1136 159.85 66.0497 160.109 65.9219C160.37 65.794 160.589 65.598 160.765 65.3338C160.944 65.0696 161.034 64.733 161.034 64.3239ZM168.518 61.9205L167.614 62.1761C167.558 62.0256 167.474 61.8793 167.363 61.7372C167.255 61.5923 167.107 61.473 166.92 61.3793C166.732 61.2855 166.492 61.2386 166.2 61.2386C165.799 61.2386 165.465 61.331 165.198 61.5156C164.934 61.6974 164.802 61.929 164.802 62.2102C164.802 62.4602 164.893 62.6577 165.075 62.8026C165.256 62.9474 165.54 63.0682 165.927 63.1648L166.898 63.4034C167.484 63.5455 167.92 63.7628 168.207 64.0554C168.494 64.3452 168.637 64.7187 168.637 65.1761C168.637 65.5511 168.529 65.8864 168.313 66.1818C168.1 66.4773 167.802 66.7102 167.418 66.8807C167.035 67.0511 166.589 67.1364 166.08 67.1364C165.413 67.1364 164.86 66.9915 164.423 66.7017C163.985 66.4119 163.708 65.9886 163.592 65.4318L164.546 65.1932C164.637 65.5455 164.809 65.8097 165.062 65.9858C165.317 66.1619 165.651 66.25 166.063 66.25C166.532 66.25 166.904 66.1506 167.18 65.9517C167.458 65.75 167.597 65.5085 167.597 65.2273C167.597 65 167.518 64.8097 167.359 64.6562C167.2 64.5 166.955 64.3835 166.626 64.3068L165.535 64.0511C164.935 63.9091 164.495 63.6889 164.214 63.3906C163.935 63.0895 163.796 62.7131 163.796 62.2614C163.796 61.892 163.9 61.5653 164.107 61.2812C164.317 60.9972 164.603 60.7741 164.964 60.6122C165.327 60.4503 165.739 60.3693 166.2 60.3693C166.847 60.3693 167.356 60.5114 167.725 60.7955C168.097 61.0795 168.362 61.4545 168.518 61.9205ZM170.151 67V60.4545H171.157V67H170.151ZM170.662 59.3636C170.466 59.3636 170.297 59.2969 170.155 59.1634C170.016 59.0298 169.946 58.8693 169.946 58.6818C169.946 58.4943 170.016 58.3338 170.155 58.2003C170.297 58.0668 170.466 58 170.662 58C170.858 58 171.026 58.0668 171.165 58.2003C171.307 58.3338 171.378 58.4943 171.378 58.6818C171.378 58.8693 171.307 59.0298 171.165 59.1634C171.026 59.2969 170.858 59.3636 170.662 59.3636ZM174.004 63.0625V67H172.999V60.4545H173.97V61.4773H174.055C174.209 61.1449 174.442 60.8778 174.754 60.6761C175.067 60.4716 175.47 60.3693 175.964 60.3693C176.408 60.3693 176.795 60.4602 177.128 60.642C177.46 60.821 177.719 61.0938 177.903 61.4602C178.088 61.8239 178.18 62.2841 178.18 62.8409V67H177.175V62.9091C177.175 62.3949 177.041 61.9943 176.774 61.7074C176.507 61.4176 176.141 61.2727 175.675 61.2727C175.354 61.2727 175.067 61.3423 174.814 61.4815C174.564 61.6207 174.366 61.8239 174.222 62.0909C174.077 62.358 174.004 62.6818 174.004 63.0625ZM182.66 69.5909C182.174 69.5909 181.757 69.5284 181.407 69.4034C181.058 69.2812 180.767 69.1193 180.534 68.9176C180.304 68.7188 180.12 68.5057 179.984 68.2784L180.785 67.7159C180.876 67.8352 180.991 67.9716 181.13 68.125C181.27 68.2812 181.46 68.4162 181.701 68.5298C181.946 68.6463 182.265 68.7045 182.66 68.7045C183.189 68.7045 183.625 68.5767 183.968 68.321C184.312 68.0653 184.484 67.6648 184.484 67.1193V65.7898H184.399C184.325 65.9091 184.22 66.0568 184.083 66.233C183.95 66.4062 183.757 66.5611 183.504 66.6974C183.254 66.831 182.916 66.8977 182.49 66.8977C181.961 66.8977 181.487 66.7727 181.066 66.5227C180.649 66.2727 180.318 65.9091 180.074 65.4318C179.832 64.9545 179.711 64.375 179.711 63.6932C179.711 63.0227 179.829 62.4389 180.065 61.9418C180.301 61.4418 180.629 61.0554 181.049 60.7827C181.47 60.5071 181.956 60.3693 182.507 60.3693C182.933 60.3693 183.271 60.4403 183.521 60.5824C183.774 60.7216 183.967 60.8807 184.1 61.0597C184.237 61.2358 184.342 61.3807 184.416 61.4943H184.518V60.4545H185.49V67.1875C185.49 67.75 185.362 68.2074 185.106 68.5597C184.853 68.9148 184.512 69.1747 184.083 69.3395C183.657 69.5071 183.183 69.5909 182.66 69.5909ZM182.626 65.9943C183.029 65.9943 183.37 65.902 183.649 65.7173C183.927 65.5327 184.139 65.267 184.284 64.9205C184.429 64.5739 184.501 64.1591 184.501 63.6761C184.501 63.2045 184.43 62.7884 184.288 62.4276C184.146 62.0668 183.936 61.7841 183.657 61.5795C183.379 61.375 183.035 61.2727 182.626 61.2727C182.2 61.2727 181.845 61.3807 181.561 61.5966C181.279 61.8125 181.068 62.1023 180.926 62.4659C180.787 62.8295 180.717 63.233 180.717 63.6761C180.717 64.1307 180.788 64.5327 180.93 64.8821C181.075 65.2287 181.288 65.5014 181.569 65.7003C181.853 65.8963 182.206 65.9943 182.626 65.9943ZM192.632 67.1534C192.217 67.1534 191.841 67.0753 191.502 66.919C191.164 66.7599 190.896 66.5312 190.697 66.233C190.498 65.9318 190.399 65.5682 190.399 65.142C190.399 64.767 190.473 64.4631 190.62 64.2301C190.768 63.9943 190.966 63.8097 191.213 63.6761C191.46 63.5426 191.733 63.4432 192.031 63.3778C192.332 63.3097 192.635 63.2557 192.939 63.2159C193.336 63.1648 193.659 63.1264 193.906 63.1009C194.156 63.0724 194.338 63.0256 194.451 62.9602C194.568 62.8949 194.626 62.7812 194.626 62.6193V62.5852C194.626 62.1648 194.511 61.8381 194.281 61.6051C194.054 61.3722 193.708 61.2557 193.245 61.2557C192.765 61.2557 192.389 61.3608 192.116 61.571C191.843 61.7812 191.652 62.0057 191.541 62.2443L190.586 61.9034C190.757 61.5057 190.984 61.196 191.268 60.9744C191.555 60.75 191.868 60.5937 192.206 60.5057C192.547 60.4148 192.882 60.3693 193.211 60.3693C193.422 60.3693 193.663 60.3949 193.936 60.446C194.211 60.4943 194.477 60.5952 194.733 60.7486C194.991 60.902 195.206 61.1335 195.376 61.4432C195.547 61.7528 195.632 62.1676 195.632 62.6875V67H194.626V66.1136H194.575C194.507 66.2557 194.393 66.4077 194.234 66.5696C194.075 66.7315 193.863 66.8693 193.599 66.983C193.335 67.0966 193.012 67.1534 192.632 67.1534ZM192.785 66.25C193.183 66.25 193.518 66.1719 193.791 66.0156C194.066 65.8594 194.274 65.6577 194.413 65.4105C194.555 65.1634 194.626 64.9034 194.626 64.6307V63.7102C194.583 63.7614 194.49 63.8082 194.345 63.8509C194.203 63.8906 194.038 63.9261 193.85 63.9574C193.666 63.9858 193.485 64.0114 193.309 64.0341C193.136 64.054 192.995 64.071 192.887 64.0852C192.626 64.1193 192.382 64.1747 192.154 64.2514C191.93 64.3253 191.748 64.4375 191.609 64.5881C191.473 64.7358 191.404 64.9375 191.404 65.1932C191.404 65.5426 191.534 65.8068 191.792 65.9858C192.054 66.1619 192.385 66.25 192.785 66.25ZM200.979 67V58.2727H203.928C204.609 58.2727 205.169 58.3892 205.607 58.6222C206.044 58.8523 206.368 59.169 206.578 59.5724C206.788 59.9759 206.893 60.4347 206.893 60.9489C206.893 61.4631 206.788 61.919 206.578 62.3168C206.368 62.7145 206.045 63.027 205.611 63.2543C205.176 63.4787 204.621 63.5909 203.945 63.5909H201.558V62.6364H203.911C204.376 62.6364 204.751 62.5682 205.036 62.4318C205.322 62.2955 205.53 62.1023 205.658 61.8523C205.788 61.5994 205.854 61.2983 205.854 60.9489C205.854 60.5994 205.788 60.294 205.658 60.0327C205.527 59.7713 205.318 59.5696 205.031 59.4276C204.744 59.2827 204.365 59.2102 203.893 59.2102H202.036V67H200.979ZM205.087 63.0795L207.234 67H206.007L203.893 63.0795H205.087ZM211.192 67.1364C210.561 67.1364 210.017 66.9972 209.56 66.7188C209.105 66.4375 208.755 66.0455 208.507 65.5426C208.263 65.0369 208.141 64.4489 208.141 63.7784C208.141 63.108 208.263 62.517 208.507 62.0057C208.755 61.4915 209.098 61.0909 209.539 60.804C209.982 60.5142 210.499 60.3693 211.09 60.3693C211.431 60.3693 211.767 60.4261 212.1 60.5398C212.432 60.6534 212.735 60.8381 213.007 61.0938C213.28 61.3466 213.498 61.6818 213.659 62.0994C213.821 62.517 213.902 63.0312 213.902 63.642V64.0682H208.857V63.1989H212.88C212.88 62.8295 212.806 62.5 212.658 62.2102C212.513 61.9205 212.306 61.6918 212.036 61.5241C211.769 61.3565 211.453 61.2727 211.09 61.2727C210.689 61.2727 210.343 61.3722 210.05 61.571C209.76 61.767 209.537 62.0227 209.381 62.3381C209.225 62.6534 209.147 62.9915 209.147 63.3523V63.9318C209.147 64.4261 209.232 64.8452 209.402 65.1889C209.576 65.5298 209.816 65.7898 210.123 65.9688C210.429 66.1449 210.786 66.233 211.192 66.233C211.456 66.233 211.695 66.196 211.908 66.1222C212.124 66.0455 212.31 65.9318 212.466 65.7812C212.623 65.6278 212.743 65.4375 212.828 65.2102L213.8 65.483C213.698 65.8125 213.526 66.1023 213.284 66.3523C213.043 66.5994 212.745 66.7926 212.39 66.9318C212.034 67.0682 211.635 67.1364 211.192 67.1364ZM220.069 61.9205L219.165 62.1761C219.108 62.0256 219.025 61.8793 218.914 61.7372C218.806 61.5923 218.658 61.473 218.471 61.3793C218.283 61.2855 218.043 61.2386 217.75 61.2386C217.35 61.2386 217.016 61.331 216.749 61.5156C216.485 61.6974 216.353 61.929 216.353 62.2102C216.353 62.4602 216.444 62.6577 216.625 62.8026C216.807 62.9474 217.091 63.0682 217.478 63.1648L218.449 63.4034C219.034 63.5455 219.471 63.7628 219.757 64.0554C220.044 64.3452 220.188 64.7187 220.188 65.1761C220.188 65.5511 220.08 65.8864 219.864 66.1818C219.651 66.4773 219.353 66.7102 218.969 66.8807C218.586 67.0511 218.14 67.1364 217.631 67.1364C216.963 67.1364 216.411 66.9915 215.973 66.7017C215.536 66.4119 215.259 65.9886 215.142 65.4318L216.097 65.1932C216.188 65.5455 216.36 65.8097 216.613 65.9858C216.868 66.1619 217.202 66.25 217.614 66.25C218.083 66.25 218.455 66.1506 218.73 65.9517C219.009 65.75 219.148 65.5085 219.148 65.2273C219.148 65 219.069 64.8097 218.909 64.6562C218.75 64.5 218.506 64.3835 218.176 64.3068L217.086 64.0511C216.486 63.9091 216.046 63.6889 215.765 63.3906C215.486 63.0895 215.347 62.7131 215.347 62.2614C215.347 61.892 215.451 61.5653 215.658 61.2812C215.868 60.9972 216.154 60.7741 216.515 60.6122C216.878 60.4503 217.29 60.3693 217.75 60.3693C218.398 60.3693 218.907 60.5114 219.276 60.7955C219.648 61.0795 219.912 61.4545 220.069 61.9205ZM224.548 60.4545V61.3068H221.156V60.4545H224.548ZM222.145 58.8864H223.151V65.125C223.151 65.4091 223.192 65.6222 223.274 65.7642C223.359 65.9034 223.467 65.9972 223.598 66.0455C223.732 66.0909 223.872 66.1136 224.02 66.1136C224.131 66.1136 224.222 66.108 224.293 66.0966C224.364 66.0824 224.42 66.071 224.463 66.0625L224.668 66.9659C224.599 66.9915 224.504 67.017 224.382 67.0426C224.26 67.071 224.105 67.0852 223.918 67.0852C223.634 67.0852 223.355 67.0241 223.082 66.902C222.813 66.7798 222.588 66.5938 222.409 66.3438C222.233 66.0938 222.145 65.7784 222.145 65.3977V58.8864ZM229.93 67H228.822L232.027 58.2727H233.118L236.322 67H235.214L232.607 59.6534H232.538L229.93 67ZM230.339 63.5909H234.805V64.5284H230.339V63.5909ZM237.682 67V58.2727H240.631C241.315 58.2727 241.875 58.3963 242.31 58.6435C242.747 58.8878 243.071 59.2188 243.281 59.6364C243.491 60.054 243.597 60.5199 243.597 61.0341C243.597 61.5483 243.491 62.0156 243.281 62.4361C243.074 62.8565 242.753 63.1918 242.318 63.4418C241.884 63.6889 241.327 63.8125 240.648 63.8125H238.534V62.875H240.614C241.082 62.875 241.459 62.794 241.743 62.6321C242.027 62.4702 242.233 62.2514 242.361 61.9759C242.491 61.6974 242.557 61.3835 242.557 61.0341C242.557 60.6847 242.491 60.3722 242.361 60.0966C242.233 59.821 242.026 59.6051 241.739 59.4489C241.452 59.2898 241.071 59.2102 240.597 59.2102H238.739V67H237.682ZM246.356 58.2727V67H245.299V58.2727H246.356ZM251.85 67V58.2727H252.855V61.4943H252.941C253.015 61.3807 253.117 61.2358 253.248 61.0597C253.381 60.8807 253.571 60.7216 253.819 60.5824C254.069 60.4403 254.407 60.3693 254.833 60.3693C255.384 60.3693 255.87 60.5071 256.29 60.7827C256.711 61.0582 257.039 61.4489 257.275 61.9545C257.51 62.4602 257.628 63.0568 257.628 63.7443C257.628 64.4375 257.51 65.0384 257.275 65.5469C257.039 66.0526 256.712 66.4446 256.294 66.723C255.877 66.9986 255.395 67.1364 254.85 67.1364C254.429 67.1364 254.093 67.0668 253.84 66.9276C253.587 66.7855 253.392 66.625 253.256 66.446C253.12 66.2642 253.015 66.1136 252.941 65.9943H252.821V67H251.85ZM252.838 63.7273C252.838 64.2216 252.911 64.6577 253.056 65.0355C253.201 65.4105 253.412 65.7045 253.691 65.9176C253.969 66.1278 254.31 66.233 254.713 66.233C255.134 66.233 255.485 66.1222 255.766 65.9006C256.05 65.6761 256.263 65.375 256.405 64.9972C256.55 64.6165 256.623 64.1932 256.623 63.7273C256.623 63.267 256.551 62.8523 256.409 62.483C256.27 62.1108 256.059 61.8168 255.775 61.6009C255.493 61.3821 255.14 61.2727 254.713 61.2727C254.304 61.2727 253.961 61.3764 253.682 61.5838C253.404 61.7884 253.194 62.0753 253.051 62.4446C252.909 62.8111 252.838 63.2386 252.838 63.7273ZM263.292 64.3239V60.4545H264.297V67H263.292V65.892H263.223C263.07 66.2244 262.831 66.5071 262.507 66.7401C262.184 66.9702 261.775 67.0852 261.28 67.0852C260.871 67.0852 260.507 66.9957 260.189 66.8168C259.871 66.6349 259.621 66.3622 259.439 65.9986C259.257 65.6321 259.167 65.1705 259.167 64.6136V60.4545H260.172V64.5455C260.172 65.0227 260.306 65.4034 260.573 65.6875C260.843 65.9716 261.186 66.1136 261.604 66.1136C261.854 66.1136 262.108 66.0497 262.367 65.9219C262.628 65.794 262.847 65.598 263.023 65.3338C263.202 65.0696 263.292 64.733 263.292 64.3239ZM266.139 67V60.4545H267.145V67H266.139ZM266.651 59.3636C266.455 59.3636 266.286 59.2969 266.143 59.1634C266.004 59.0298 265.935 58.8693 265.935 58.6818C265.935 58.4943 266.004 58.3338 266.143 58.2003C266.286 58.0668 266.455 58 266.651 58C266.847 58 267.014 58.0668 267.153 58.2003C267.295 58.3338 267.366 58.4943 267.366 58.6818C267.366 58.8693 267.295 59.0298 267.153 59.1634C267.014 59.2969 266.847 59.3636 266.651 59.3636ZM269.993 58.2727V67H268.987V58.2727H269.993ZM274.681 60.4545V61.3068H271.289V60.4545H274.681ZM272.278 58.8864H273.283V65.125C273.283 65.4091 273.325 65.6222 273.407 65.7642C273.492 65.9034 273.6 65.9972 273.731 66.0455C273.864 66.0909 274.005 66.1136 274.153 66.1136C274.263 66.1136 274.354 66.108 274.425 66.0966C274.496 66.0824 274.553 66.071 274.596 66.0625L274.8 66.9659C274.732 66.9915 274.637 67.017 274.515 67.0426C274.393 67.071 274.238 67.0852 274.05 67.0852C273.766 67.0852 273.488 67.0241 273.215 66.902C272.945 66.7798 272.721 66.5938 272.542 66.3438C272.366 66.0938 272.278 65.7784 272.278 65.3977V58.8864ZM281.052 67L279.058 60.4545H280.114L281.529 65.4659H281.597L282.995 60.4545H284.069L285.45 65.4489H285.518L286.933 60.4545H287.989L285.995 67H285.006L283.575 61.9716H283.472L282.04 67H281.052ZM289.319 67V60.4545H290.325V67H289.319ZM289.83 59.3636C289.634 59.3636 289.465 59.2969 289.323 59.1634C289.184 59.0298 289.114 58.8693 289.114 58.6818C289.114 58.4943 289.184 58.3338 289.323 58.2003C289.465 58.0668 289.634 58 289.83 58C290.026 58 290.194 58.0668 290.333 58.2003C290.475 58.3338 290.546 58.4943 290.546 58.6818C290.546 58.8693 290.475 59.0298 290.333 59.1634C290.194 59.2969 290.026 59.3636 289.83 59.3636ZM295.013 60.4545V61.3068H291.621V60.4545H295.013ZM292.61 58.8864H293.615V65.125C293.615 65.4091 293.657 65.6222 293.739 65.7642C293.824 65.9034 293.932 65.9972 294.063 66.0455C294.196 66.0909 294.337 66.1136 294.485 66.1136C294.596 66.1136 294.686 66.108 294.757 66.0966C294.828 66.0824 294.885 66.071 294.928 66.0625L295.132 66.9659C295.064 66.9915 294.969 67.017 294.847 67.0426C294.725 67.071 294.57 67.0852 294.382 67.0852C294.098 67.0852 293.82 67.0241 293.547 66.902C293.277 66.7798 293.053 66.5938 292.874 66.3438C292.698 66.0938 292.61 65.7784 292.61 65.3977V58.8864ZM297.672 63.0625V67H296.667V58.2727H297.672V61.4773H297.757C297.911 61.1392 298.141 60.8707 298.448 60.6719C298.757 60.4702 299.169 60.3693 299.684 60.3693C300.13 60.3693 300.52 60.4588 300.855 60.6378C301.191 60.8139 301.451 61.0852 301.635 61.4517C301.823 61.8153 301.917 62.2784 301.917 62.8409V67H300.911V62.9091C300.911 62.3892 300.776 61.9872 300.506 61.7031C300.239 61.4162 299.868 61.2727 299.394 61.2727C299.064 61.2727 298.769 61.3423 298.507 61.4815C298.249 61.6207 298.044 61.8239 297.894 62.0909C297.746 62.358 297.672 62.6818 297.672 63.0625ZM314.188 58.2727V67H313.165L308.41 60.1477H308.325V67H307.268V58.2727H308.29L313.063 65.142H313.148V58.2727H314.188ZM318.826 67.1364C318.235 67.1364 317.716 66.9957 317.27 66.7145C316.827 66.4332 316.48 66.0398 316.23 65.5341C315.983 65.0284 315.86 64.4375 315.86 63.7614C315.86 63.0795 315.983 62.4844 316.23 61.9759C316.48 61.4673 316.827 61.0724 317.27 60.7912C317.716 60.5099 318.235 60.3693 318.826 60.3693C319.417 60.3693 319.934 60.5099 320.377 60.7912C320.823 61.0724 321.169 61.4673 321.417 61.9759C321.667 62.4844 321.792 63.0795 321.792 63.7614C321.792 64.4375 321.667 65.0284 321.417 65.5341C321.169 66.0398 320.823 66.4332 320.377 66.7145C319.934 66.9957 319.417 67.1364 318.826 67.1364ZM318.826 66.233C319.275 66.233 319.644 66.1179 319.934 65.8878C320.223 65.6577 320.438 65.3551 320.577 64.9801C320.716 64.6051 320.786 64.1989 320.786 63.7614C320.786 63.3239 320.716 62.9162 320.577 62.5384C320.438 62.1605 320.223 61.8551 319.934 61.6222C319.644 61.3892 319.275 61.2727 318.826 61.2727C318.377 61.2727 318.007 61.3892 317.718 61.6222C317.428 61.8551 317.213 62.1605 317.074 62.5384C316.935 62.9162 316.865 63.3239 316.865 63.7614C316.865 64.1989 316.935 64.6051 317.074 64.9801C317.213 65.3551 317.428 65.6577 317.718 65.8878C318.007 66.1179 318.377 66.233 318.826 66.233ZM325.798 67.1364C325.253 67.1364 324.771 66.9986 324.354 66.723C323.936 66.4446 323.609 66.0526 323.374 65.5469C323.138 65.0384 323.02 64.4375 323.02 63.7443C323.02 63.0568 323.138 62.4602 323.374 61.9545C323.609 61.4489 323.938 61.0582 324.358 60.7827C324.778 60.5071 325.264 60.3693 325.815 60.3693C326.241 60.3693 326.578 60.4403 326.825 60.5824C327.075 60.7216 327.266 60.8807 327.396 61.0597C327.53 61.2358 327.634 61.3807 327.707 61.4943H327.793V58.2727H328.798V67H327.827V65.9943H327.707C327.634 66.1136 327.528 66.2642 327.392 66.446C327.256 66.625 327.061 66.7855 326.808 66.9276C326.555 67.0668 326.219 67.1364 325.798 67.1364ZM325.935 66.233C326.338 66.233 326.679 66.1278 326.957 65.9176C327.236 65.7045 327.447 65.4105 327.592 65.0355C327.737 64.6577 327.81 64.2216 327.81 63.7273C327.81 63.2386 327.739 62.8111 327.597 62.4446C327.455 62.0753 327.244 61.7884 326.966 61.5838C326.688 61.3764 326.344 61.2727 325.935 61.2727C325.509 61.2727 325.153 61.3821 324.869 61.6009C324.588 61.8168 324.376 62.1108 324.234 62.483C324.095 62.8523 324.026 63.267 324.026 63.7273C324.026 64.1932 324.097 64.6165 324.239 64.9972C324.384 65.375 324.597 65.6761 324.878 65.9006C325.162 66.1222 325.514 66.233 325.935 66.233ZM333.524 67.1364C332.893 67.1364 332.349 66.9972 331.892 66.7188C331.438 66.4375 331.087 66.0455 330.839 65.5426C330.595 65.0369 330.473 64.4489 330.473 63.7784C330.473 63.108 330.595 62.517 330.839 62.0057C331.087 61.4915 331.43 61.0909 331.871 60.804C332.314 60.5142 332.831 60.3693 333.422 60.3693C333.763 60.3693 334.099 60.4261 334.432 60.5398C334.764 60.6534 335.067 60.8381 335.339 61.0938C335.612 61.3466 335.83 61.6818 335.991 62.0994C336.153 62.517 336.234 63.0312 336.234 63.642V64.0682H331.189V63.1989H335.212C335.212 62.8295 335.138 62.5 334.99 62.2102C334.845 61.9205 334.638 61.6918 334.368 61.5241C334.101 61.3565 333.786 61.2727 333.422 61.2727C333.021 61.2727 332.675 61.3722 332.382 61.571C332.092 61.767 331.869 62.0227 331.713 62.3381C331.557 62.6534 331.479 62.9915 331.479 63.3523V63.9318C331.479 64.4261 331.564 64.8452 331.734 65.1889C331.908 65.5298 332.148 65.7898 332.455 65.9688C332.761 66.1449 333.118 66.233 333.524 66.233C333.788 66.233 334.027 66.196 334.24 66.1222C334.456 66.0455 334.642 65.9318 334.798 65.7812C334.955 65.6278 335.075 65.4375 335.161 65.2102L336.132 65.483C336.03 65.8125 335.858 66.1023 335.616 66.3523C335.375 66.5994 335.077 66.7926 334.722 66.9318C334.366 67.0682 333.967 67.1364 333.524 67.1364ZM343.065 67.1534C342.651 67.1534 342.274 67.0753 341.936 66.919C341.598 66.7599 341.33 66.5312 341.131 66.233C340.932 65.9318 340.832 65.5682 340.832 65.142C340.832 64.767 340.906 64.4631 341.054 64.2301C341.202 63.9943 341.399 63.8097 341.646 63.6761C341.893 63.5426 342.166 63.4432 342.464 63.3778C342.766 63.3097 343.068 63.2557 343.372 63.2159C343.77 63.1648 344.092 63.1264 344.339 63.1009C344.589 63.0724 344.771 63.0256 344.885 62.9602C345.001 62.8949 345.06 62.7812 345.06 62.6193V62.5852C345.06 62.1648 344.945 61.8381 344.714 61.6051C344.487 61.3722 344.142 61.2557 343.679 61.2557C343.199 61.2557 342.822 61.3608 342.55 61.571C342.277 61.7812 342.085 62.0057 341.974 62.2443L341.02 61.9034C341.19 61.5057 341.418 61.196 341.702 60.9744C341.989 60.75 342.301 60.5937 342.639 60.5057C342.98 60.4148 343.315 60.3693 343.645 60.3693C343.855 60.3693 344.097 60.3949 344.369 60.446C344.645 60.4943 344.911 60.5952 345.166 60.7486C345.425 60.902 345.639 61.1335 345.81 61.4432C345.98 61.7528 346.065 62.1676 346.065 62.6875V67H345.06V66.1136H345.009C344.94 66.2557 344.827 66.4077 344.668 66.5696C344.509 66.7315 344.297 66.8693 344.033 66.983C343.768 67.0966 343.446 67.1534 343.065 67.1534ZM343.219 66.25C343.616 66.25 343.952 66.1719 344.224 66.0156C344.5 65.8594 344.707 65.6577 344.847 65.4105C344.989 65.1634 345.06 64.9034 345.06 64.6307V63.7102C345.017 63.7614 344.923 63.8082 344.778 63.8509C344.636 63.8906 344.472 63.9261 344.284 63.9574C344.099 63.9858 343.919 64.0114 343.743 64.0341C343.57 64.054 343.429 64.071 343.321 64.0852C343.06 64.1193 342.815 64.1747 342.588 64.2514C342.364 64.3253 342.182 64.4375 342.043 64.5881C341.906 64.7358 341.838 64.9375 341.838 65.1932C341.838 65.5426 341.967 65.8068 342.226 65.9858C342.487 66.1619 342.818 66.25 343.219 66.25ZM348.907 63.0625V67H347.901V60.4545H348.873V61.4773H348.958C349.111 61.1449 349.344 60.8778 349.657 60.6761C349.969 60.4716 350.373 60.3693 350.867 60.3693C351.31 60.3693 351.698 60.4602 352.03 60.642C352.363 60.821 352.621 61.0938 352.806 61.4602C352.99 61.8239 353.083 62.2841 353.083 62.8409V67H352.077V62.9091C352.077 62.3949 351.944 61.9943 351.676 61.7074C351.409 61.4176 351.043 61.2727 350.577 61.2727C350.256 61.2727 349.969 61.3423 349.716 61.4815C349.466 61.6207 349.269 61.8239 349.124 62.0909C348.979 62.358 348.907 62.6818 348.907 63.0625ZM357.392 67.1364C356.847 67.1364 356.365 66.9986 355.947 66.723C355.53 66.4446 355.203 66.0526 354.967 65.5469C354.732 65.0384 354.614 64.4375 354.614 63.7443C354.614 63.0568 354.732 62.4602 354.967 61.9545C355.203 61.4489 355.531 61.0582 355.952 60.7827C356.372 60.5071 356.858 60.3693 357.409 60.3693C357.835 60.3693 358.172 60.4403 358.419 60.5824C358.669 60.7216 358.859 60.8807 358.99 61.0597C359.124 61.2358 359.227 61.3807 359.301 61.4943H359.386V58.2727H360.392V67H359.42V65.9943H359.301C359.227 66.1136 359.122 66.2642 358.986 66.446C358.849 66.625 358.655 66.7855 358.402 66.9276C358.149 67.0668 357.813 67.1364 357.392 67.1364ZM357.528 66.233C357.932 66.233 358.273 66.1278 358.551 65.9176C358.83 65.7045 359.041 65.4105 359.186 65.0355C359.331 64.6577 359.403 64.2216 359.403 63.7273C359.403 63.2386 359.332 62.8111 359.19 62.4446C359.048 62.0753 358.838 61.7884 358.56 61.5838C358.281 61.3764 357.938 61.2727 357.528 61.2727C357.102 61.2727 356.747 61.3821 356.463 61.6009C356.182 61.8168 355.97 62.1108 355.828 62.483C355.689 62.8523 355.619 63.267 355.619 63.7273C355.619 64.1932 355.69 64.6165 355.832 64.9972C355.977 65.375 356.19 65.6761 356.472 65.9006C356.756 66.1222 357.108 66.233 357.528 66.233ZM49.0568 82V73.2727H54.3239V74.2102H50.1136V77.1591H54.0511V78.0966H50.1136V81.0625H54.392V82H49.0568ZM56.8423 75.4545L58.4105 78.1307L59.9787 75.4545H61.1378L59.0241 78.7273L61.1378 82H59.9787L58.4105 79.4602L56.8423 82H55.6832L57.7628 78.7273L55.6832 75.4545H56.8423ZM62.5728 84.4545V75.4545H63.5444V76.4943H63.6637C63.7376 76.3807 63.8398 76.2358 63.9705 76.0597C64.104 75.8807 64.2944 75.7216 64.5415 75.5824C64.7915 75.4403 65.1296 75.3693 65.5558 75.3693C66.1069 75.3693 66.5927 75.5071 67.0131 75.7827C67.4336 76.0582 67.7617 76.4489 67.9975 76.9545C68.2333 77.4602 68.3512 78.0568 68.3512 78.7443C68.3512 79.4375 68.2333 80.0384 67.9975 80.5469C67.7617 81.0526 67.435 81.4446 67.0174 81.723C66.5998 81.9986 66.1183 82.1364 65.5728 82.1364C65.1523 82.1364 64.8157 82.0668 64.5629 81.9276C64.31 81.7855 64.1154 81.625 63.979 81.446C63.8427 81.2642 63.7376 81.1136 63.6637 80.9943H63.5785V84.4545H62.5728ZM63.5614 78.7273C63.5614 79.2216 63.6339 79.6577 63.7788 80.0355C63.9237 80.4105 64.1353 80.7045 64.4137 80.9176C64.6921 81.1278 65.033 81.233 65.4364 81.233C65.8569 81.233 66.2077 81.1222 66.489 80.9006C66.7731 80.6761 66.9862 80.375 67.1282 79.9972C67.2731 79.6165 67.3455 79.1932 67.3455 78.7273C67.3455 78.267 67.2745 77.8523 67.1325 77.483C66.9933 77.1108 66.7816 76.8168 66.4975 76.6009C66.2163 76.3821 65.8626 76.2727 65.4364 76.2727C65.0273 76.2727 64.6836 76.3764 64.4052 76.5838C64.1268 76.7884 63.9165 77.0753 63.7745 77.4446C63.6325 77.8111 63.5614 78.2386 63.5614 78.7273ZM69.8853 82V75.4545H70.8569V76.4432H70.9251C71.0444 76.1193 71.2603 75.8565 71.5728 75.6548C71.8853 75.4531 72.2376 75.3523 72.6296 75.3523C72.7035 75.3523 72.7958 75.3537 72.9066 75.3565C73.0174 75.3594 73.1012 75.3636 73.158 75.3693V76.392C73.1239 76.3835 73.0458 76.3707 72.9237 76.3537C72.8043 76.3338 72.6779 76.3239 72.5444 76.3239C72.2262 76.3239 71.9421 76.3906 71.6921 76.5241C71.445 76.6548 71.2489 76.8366 71.104 77.0696C70.962 77.2997 70.891 77.5625 70.891 77.858V82H69.8853ZM76.8952 82.1364C76.2646 82.1364 75.7205 81.9972 75.2631 81.7188C74.8086 81.4375 74.4577 81.0455 74.2106 80.5426C73.9663 80.0369 73.8441 79.4489 73.8441 78.7784C73.8441 78.108 73.9663 77.517 74.2106 77.0057C74.4577 76.4915 74.8015 76.0909 75.2418 75.804C75.685 75.5142 76.2021 75.3693 76.793 75.3693C77.1339 75.3693 77.4705 75.4261 77.8029 75.5398C78.1353 75.6534 78.4379 75.8381 78.7106 76.0938C78.9833 76.3466 79.2006 76.6818 79.3626 77.0994C79.5245 77.517 79.6055 78.0312 79.6055 78.642V79.0682H74.56V78.1989H78.5827C78.5827 77.8295 78.5089 77.5 78.3612 77.2102C78.2163 76.9205 78.0089 76.6918 77.739 76.5241C77.4719 76.3565 77.1566 76.2727 76.793 76.2727C76.3924 76.2727 76.0458 76.3722 75.7532 76.571C75.4634 76.767 75.2404 77.0227 75.0842 77.3381C74.9279 77.6534 74.8498 77.9915 74.8498 78.3523V78.9318C74.8498 79.4261 74.935 79.8452 75.1055 80.1889C75.2788 80.5298 75.5188 80.7898 75.8256 80.9688C76.1325 81.1449 76.489 81.233 76.8952 81.233C77.1594 81.233 77.3981 81.196 77.6112 81.1222C77.8271 81.0455 78.0131 80.9318 78.1694 80.7812C78.3256 80.6278 78.4464 80.4375 78.5316 80.2102L79.5032 80.483C79.4009 80.8125 79.229 81.1023 78.9876 81.3523C78.7461 81.5994 78.4478 81.7926 78.0927 81.9318C77.7376 82.0682 77.3384 82.1364 76.8952 82.1364ZM85.7717 76.9205L84.8683 77.1761C84.8114 77.0256 84.7276 76.8793 84.6168 76.7372C84.5089 76.5923 84.3612 76.473 84.1737 76.3793C83.9862 76.2855 83.7461 76.2386 83.4535 76.2386C83.0529 76.2386 82.7191 76.331 82.4521 76.5156C82.1879 76.6974 82.0558 76.929 82.0558 77.2102C82.0558 77.4602 82.1467 77.6577 82.3285 77.8026C82.5103 77.9474 82.7944 78.0682 83.1808 78.1648L84.1523 78.4034C84.7376 78.5455 85.1737 78.7628 85.4606 79.0554C85.7475 79.3452 85.891 79.7187 85.891 80.1761C85.891 80.5511 85.783 80.8864 85.5671 81.1818C85.354 81.4773 85.0558 81.7102 84.6722 81.8807C84.2887 82.0511 83.8427 82.1364 83.3342 82.1364C82.6665 82.1364 82.114 81.9915 81.6765 81.7017C81.239 81.4119 80.962 80.9886 80.8455 80.4318L81.8001 80.1932C81.891 80.5455 82.0629 80.8097 82.3157 80.9858C82.5714 81.1619 82.9052 81.25 83.3171 81.25C83.7859 81.25 84.158 81.1506 84.4336 80.9517C84.712 80.75 84.8512 80.5085 84.8512 80.2273C84.8512 80 84.7717 79.8097 84.6126 79.6562C84.4535 79.5 84.2092 79.3835 83.8796 79.3068L82.7887 79.0511C82.1893 78.9091 81.7489 78.6889 81.4677 78.3906C81.1893 78.0895 81.0501 77.7131 81.0501 77.2614C81.0501 76.892 81.1538 76.5653 81.3612 76.2812C81.5714 75.9972 81.8569 75.7741 82.2177 75.6122C82.5813 75.4503 82.9933 75.3693 83.4535 75.3693C84.1012 75.3693 84.6097 75.5114 84.979 75.7955C85.3512 76.0795 85.6154 76.4545 85.7717 76.9205ZM92.0412 76.9205L91.1378 77.1761C91.081 77.0256 90.9972 76.8793 90.8864 76.7372C90.7784 76.5923 90.6307 76.473 90.4432 76.3793C90.2557 76.2855 90.0156 76.2386 89.723 76.2386C89.3224 76.2386 88.9886 76.331 88.7216 76.5156C88.4574 76.6974 88.3253 76.929 88.3253 77.2102C88.3253 77.4602 88.4162 77.6577 88.598 77.8026C88.7798 77.9474 89.0639 78.0682 89.4503 78.1648L90.4219 78.4034C91.0071 78.5455 91.4432 78.7628 91.7301 79.0554C92.017 79.3452 92.1605 79.7187 92.1605 80.1761C92.1605 80.5511 92.0526 80.8864 91.8366 81.1818C91.6236 81.4773 91.3253 81.7102 90.9418 81.8807C90.5582 82.0511 90.1122 82.1364 89.6037 82.1364C88.9361 82.1364 88.3835 81.9915 87.946 81.7017C87.5085 81.4119 87.2315 80.9886 87.1151 80.4318L88.0696 80.1932C88.1605 80.5455 88.3324 80.8097 88.5852 80.9858C88.8409 81.1619 89.1747 81.25 89.5866 81.25C90.0554 81.25 90.4276 81.1506 90.7031 80.9517C90.9815 80.75 91.1207 80.5085 91.1207 80.2273C91.1207 80 91.0412 79.8097 90.8821 79.6562C90.723 79.5 90.4787 79.3835 90.1491 79.3068L89.0582 79.0511C88.4588 78.9091 88.0185 78.6889 87.7372 78.3906C87.4588 78.0895 87.3196 77.7131 87.3196 77.2614C87.3196 76.892 87.4233 76.5653 87.6307 76.2812C87.8409 75.9972 88.1264 75.7741 88.4872 75.6122C88.8509 75.4503 89.2628 75.3693 89.723 75.3693C90.3707 75.3693 90.8793 75.5114 91.2486 75.7955C91.6207 76.0795 91.8849 76.4545 92.0412 76.9205ZM99.7085 82.1364C99.0948 82.1364 98.5664 81.9915 98.1232 81.7017C97.68 81.4119 97.3391 81.0128 97.1005 80.5043C96.8619 79.9957 96.7425 79.4148 96.7425 78.7614C96.7425 78.0966 96.8647 77.5099 97.109 77.0014C97.3562 76.4901 97.6999 76.0909 98.1403 75.804C98.5835 75.5142 99.1005 75.3693 99.6914 75.3693C100.152 75.3693 100.566 75.4545 100.936 75.625C101.305 75.7955 101.608 76.0341 101.843 76.3409C102.079 76.6477 102.225 77.0057 102.282 77.4148H101.277C101.2 77.1165 101.029 76.8523 100.765 76.6222C100.504 76.3892 100.152 76.2727 99.7085 76.2727C99.3164 76.2727 98.9727 76.375 98.6772 76.5795C98.3846 76.7812 98.1559 77.0668 97.9911 77.4361C97.8292 77.8026 97.7482 78.233 97.7482 78.7273C97.7482 79.233 97.8278 79.6733 97.9869 80.0483C98.1488 80.4233 98.3761 80.7145 98.6687 80.9219C98.9641 81.1293 99.3107 81.233 99.7085 81.233C99.9698 81.233 100.207 81.1875 100.42 81.0966C100.633 81.0057 100.814 80.875 100.961 80.7045C101.109 80.5341 101.214 80.3295 101.277 80.0909H102.282C102.225 80.4773 102.085 80.8253 101.86 81.1349C101.639 81.4418 101.345 81.6861 100.978 81.8679C100.615 82.0469 100.191 82.1364 99.7085 82.1364ZM106.412 82.1364C105.821 82.1364 105.302 81.9957 104.856 81.7145C104.413 81.4332 104.066 81.0398 103.816 80.5341C103.569 80.0284 103.446 79.4375 103.446 78.7614C103.446 78.0795 103.569 77.4844 103.816 76.9759C104.066 76.4673 104.413 76.0724 104.856 75.7912C105.302 75.5099 105.821 75.3693 106.412 75.3693C107.002 75.3693 107.52 75.5099 107.963 75.7912C108.409 76.0724 108.755 76.4673 109.002 76.9759C109.252 77.4844 109.377 78.0795 109.377 78.7614C109.377 79.4375 109.252 80.0284 109.002 80.5341C108.755 81.0398 108.409 81.4332 107.963 81.7145C107.52 81.9957 107.002 82.1364 106.412 82.1364ZM106.412 81.233C106.86 81.233 107.23 81.1179 107.52 80.8878C107.809 80.6577 108.024 80.3551 108.163 79.9801C108.302 79.6051 108.372 79.1989 108.372 78.7614C108.372 78.3239 108.302 77.9162 108.163 77.5384C108.024 77.1605 107.809 76.8551 107.52 76.6222C107.23 76.3892 106.86 76.2727 106.412 76.2727C105.963 76.2727 105.593 76.3892 105.304 76.6222C105.014 76.8551 104.799 77.1605 104.66 77.5384C104.521 77.9162 104.451 78.3239 104.451 78.7614C104.451 79.1989 104.521 79.6051 104.66 79.9801C104.799 80.3551 105.014 80.6577 105.304 80.8878C105.593 81.1179 105.963 81.233 106.412 81.233ZM111.918 78.0625V82H110.913V75.4545H111.884V76.4773H111.969C112.123 76.1449 112.356 75.8778 112.668 75.6761C112.981 75.4716 113.384 75.3693 113.879 75.3693C114.322 75.3693 114.71 75.4602 115.042 75.642C115.374 75.821 115.633 76.0938 115.817 76.4602C116.002 76.8239 116.094 77.2841 116.094 77.8409V82H115.089V77.9091C115.089 77.3949 114.955 76.9943 114.688 76.7074C114.421 76.4176 114.055 76.2727 113.589 76.2727C113.268 76.2727 112.981 76.3423 112.728 76.4815C112.478 76.6207 112.281 76.8239 112.136 77.0909C111.991 77.358 111.918 77.6818 111.918 78.0625ZM118.938 78.0625V82H117.932V75.4545H118.904V76.4773H118.989C119.142 76.1449 119.375 75.8778 119.688 75.6761C120 75.4716 120.404 75.3693 120.898 75.3693C121.341 75.3693 121.729 75.4602 122.061 75.642C122.394 75.821 122.652 76.0938 122.837 76.4602C123.022 76.8239 123.114 77.2841 123.114 77.8409V82H122.108V77.9091C122.108 77.3949 121.975 76.9943 121.708 76.7074C121.441 76.4176 121.074 76.2727 120.608 76.2727C120.287 76.2727 120 76.3423 119.748 76.4815C119.498 76.6207 119.3 76.8239 119.155 77.0909C119.01 77.358 118.938 77.6818 118.938 78.0625ZM127.696 82.1364C127.065 82.1364 126.521 81.9972 126.064 81.7188C125.609 81.4375 125.259 81.0455 125.011 80.5426C124.767 80.0369 124.645 79.4489 124.645 78.7784C124.645 78.108 124.767 77.517 125.011 77.0057C125.259 76.4915 125.602 76.0909 126.043 75.804C126.486 75.5142 127.003 75.3693 127.594 75.3693C127.935 75.3693 128.271 75.4261 128.604 75.5398C128.936 75.6534 129.239 75.8381 129.511 76.0938C129.784 76.3466 130.001 76.6818 130.163 77.0994C130.325 77.517 130.406 78.0312 130.406 78.642V79.0682H125.361V78.1989H129.384C129.384 77.8295 129.31 77.5 129.162 77.2102C129.017 76.9205 128.81 76.6918 128.54 76.5241C128.273 76.3565 127.957 76.2727 127.594 76.2727C127.193 76.2727 126.847 76.3722 126.554 76.571C126.264 76.767 126.041 77.0227 125.885 77.3381C125.729 77.6534 125.651 77.9915 125.651 78.3523V78.9318C125.651 79.4261 125.736 79.8452 125.906 80.1889C126.08 80.5298 126.32 80.7898 126.626 80.9688C126.933 81.1449 127.29 81.233 127.696 81.233C127.96 81.233 128.199 81.196 128.412 81.1222C128.628 81.0455 128.814 80.9318 128.97 80.7812C129.126 80.6278 129.247 80.4375 129.332 80.2102L130.304 80.483C130.202 80.8125 130.03 81.1023 129.788 81.3523C129.547 81.5994 129.249 81.7926 128.893 81.9318C128.538 82.0682 128.139 82.1364 127.696 82.1364ZM134.595 82.1364C133.982 82.1364 133.453 81.9915 133.01 81.7017C132.567 81.4119 132.226 81.0128 131.987 80.5043C131.749 79.9957 131.629 79.4148 131.629 78.7614C131.629 78.0966 131.751 77.5099 131.996 77.0014C132.243 76.4901 132.587 76.0909 133.027 75.804C133.47 75.5142 133.987 75.3693 134.578 75.3693C135.038 75.3693 135.453 75.4545 135.822 75.625C136.192 75.7955 136.494 76.0341 136.73 76.3409C136.966 76.6477 137.112 77.0057 137.169 77.4148H136.163C136.087 77.1165 135.916 76.8523 135.652 76.6222C135.391 76.3892 135.038 76.2727 134.595 76.2727C134.203 76.2727 133.859 76.375 133.564 76.5795C133.271 76.7812 133.043 77.0668 132.878 77.4361C132.716 77.8026 132.635 78.233 132.635 78.7273C132.635 79.233 132.714 79.6733 132.874 80.0483C133.036 80.4233 133.263 80.7145 133.555 80.9219C133.851 81.1293 134.197 81.233 134.595 81.233C134.857 81.233 135.094 81.1875 135.307 81.0966C135.52 81.0057 135.7 80.875 135.848 80.7045C135.996 80.5341 136.101 80.3295 136.163 80.0909H137.169C137.112 80.4773 136.972 80.8253 136.747 81.1349C136.526 81.4418 136.232 81.6861 135.865 81.8679C135.501 82.0469 135.078 82.1364 134.595 82.1364ZM141.486 75.4545V76.3068H138.094V75.4545H141.486ZM139.082 73.8864H140.088V80.125C140.088 80.4091 140.129 80.6222 140.212 80.7642C140.297 80.9034 140.405 80.9972 140.536 81.0455C140.669 81.0909 140.81 81.1136 140.957 81.1136C141.068 81.1136 141.159 81.108 141.23 81.0966C141.301 81.0824 141.358 81.071 141.401 81.0625L141.605 81.9659C141.537 81.9915 141.442 82.017 141.32 82.0426C141.197 82.071 141.043 82.0852 140.855 82.0852C140.571 82.0852 140.293 82.0241 140.02 81.902C139.75 81.7798 139.526 81.5938 139.347 81.3438C139.17 81.0938 139.082 80.7784 139.082 80.3977V73.8864ZM145.673 82.1364C145.042 82.1364 144.498 81.9972 144.04 81.7188C143.586 81.4375 143.235 81.0455 142.988 80.5426C142.744 80.0369 142.621 79.4489 142.621 78.7784C142.621 78.108 142.744 77.517 142.988 77.0057C143.235 76.4915 143.579 76.0909 144.019 75.804C144.462 75.5142 144.979 75.3693 145.57 75.3693C145.911 75.3693 146.248 75.4261 146.58 75.5398C146.913 75.6534 147.215 75.8381 147.488 76.0938C147.761 76.3466 147.978 76.6818 148.14 77.0994C148.302 77.517 148.383 78.0312 148.383 78.642V79.0682H143.337V78.1989H147.36C147.36 77.8295 147.286 77.5 147.138 77.2102C146.994 76.9205 146.786 76.6918 146.516 76.5241C146.249 76.3565 145.934 76.2727 145.57 76.2727C145.17 76.2727 144.823 76.3722 144.531 76.571C144.241 76.767 144.018 77.0227 143.862 77.3381C143.705 77.6534 143.627 77.9915 143.627 78.3523V78.9318C143.627 79.4261 143.712 79.8452 143.883 80.1889C144.056 80.5298 144.296 80.7898 144.603 80.9688C144.91 81.1449 145.266 81.233 145.673 81.233C145.937 81.233 146.175 81.196 146.388 81.1222C146.604 81.0455 146.79 80.9318 146.947 80.7812C147.103 80.6278 147.224 80.4375 147.309 80.2102L148.281 80.483C148.178 80.8125 148.006 81.1023 147.765 81.3523C147.523 81.5994 147.225 81.7926 146.87 81.9318C146.515 82.0682 146.116 82.1364 145.673 82.1364ZM152.384 82.1364C151.839 82.1364 151.357 81.9986 150.94 81.723C150.522 81.4446 150.195 81.0526 149.96 80.5469C149.724 80.0384 149.606 79.4375 149.606 78.7443C149.606 78.0568 149.724 77.4602 149.96 76.9545C150.195 76.4489 150.523 76.0582 150.944 75.7827C151.364 75.5071 151.85 75.3693 152.401 75.3693C152.827 75.3693 153.164 75.4403 153.411 75.5824C153.661 75.7216 153.852 75.8807 153.982 76.0597C154.116 76.2358 154.219 76.3807 154.293 76.4943H154.379V73.2727H155.384V82H154.413V80.9943H154.293C154.219 81.1136 154.114 81.2642 153.978 81.446C153.842 81.625 153.647 81.7855 153.394 81.9276C153.141 82.0668 152.805 82.1364 152.384 82.1364ZM152.521 81.233C152.924 81.233 153.265 81.1278 153.543 80.9176C153.822 80.7045 154.033 80.4105 154.178 80.0355C154.323 79.6577 154.396 79.2216 154.396 78.7273C154.396 78.2386 154.325 77.8111 154.183 77.4446C154.04 77.0753 153.83 76.7884 153.552 76.5838C153.273 76.3764 152.93 76.2727 152.521 76.2727C152.094 76.2727 151.739 76.3821 151.455 76.6009C151.174 76.8168 150.962 77.1108 150.82 77.483C150.681 77.8523 150.612 78.267 150.612 78.7273C150.612 79.1932 150.683 79.6165 150.825 79.9972C150.969 80.375 151.183 80.6761 151.464 80.9006C151.748 81.1222 152.1 81.233 152.521 81.233ZM163.587 75.4545V76.3068H160.195V75.4545H163.587ZM161.184 73.8864H162.19V80.125C162.19 80.4091 162.231 80.6222 162.313 80.7642C162.398 80.9034 162.506 80.9972 162.637 81.0455C162.771 81.0909 162.911 81.1136 163.059 81.1136C163.17 81.1136 163.261 81.108 163.332 81.0966C163.403 81.0824 163.46 81.071 163.502 81.0625L163.707 81.9659C163.638 81.9915 163.543 82.017 163.421 82.0426C163.299 82.071 163.144 82.0852 162.957 82.0852C162.673 82.0852 162.394 82.0241 162.121 81.902C161.852 81.7798 161.627 81.5938 161.448 81.3438C161.272 81.0938 161.184 80.7784 161.184 80.3977V73.8864ZM167.689 82.1364C167.098 82.1364 166.58 81.9957 166.134 81.7145C165.69 81.4332 165.344 81.0398 165.094 80.5341C164.847 80.0284 164.723 79.4375 164.723 78.7614C164.723 78.0795 164.847 77.4844 165.094 76.9759C165.344 76.4673 165.69 76.0724 166.134 75.7912C166.58 75.5099 167.098 75.3693 167.689 75.3693C168.28 75.3693 168.797 75.5099 169.24 75.7912C169.686 76.0724 170.033 76.4673 170.28 76.9759C170.53 77.4844 170.655 78.0795 170.655 78.7614C170.655 79.4375 170.53 80.0284 170.28 80.5341C170.033 81.0398 169.686 81.4332 169.24 81.7145C168.797 81.9957 168.28 82.1364 167.689 82.1364ZM167.689 81.233C168.138 81.233 168.507 81.1179 168.797 80.8878C169.087 80.6577 169.301 80.3551 169.44 79.9801C169.58 79.6051 169.649 79.1989 169.649 78.7614C169.649 78.3239 169.58 77.9162 169.44 77.5384C169.301 77.1605 169.087 76.8551 168.797 76.6222C168.507 76.3892 168.138 76.2727 167.689 76.2727C167.24 76.2727 166.871 76.3892 166.581 76.6222C166.291 76.8551 166.077 77.1605 165.938 77.5384C165.798 77.9162 165.729 78.3239 165.729 78.7614C165.729 79.1989 165.798 79.6051 165.938 79.9801C166.077 80.3551 166.291 80.6577 166.581 80.8878C166.871 81.1179 167.24 81.233 167.689 81.233ZM175.701 82V73.2727H178.65C179.335 73.2727 179.895 73.3963 180.329 73.6435C180.767 73.8878 181.091 74.2188 181.301 74.6364C181.511 75.054 181.616 75.5199 181.616 76.0341C181.616 76.5483 181.511 77.0156 181.301 77.4361C181.093 77.8565 180.772 78.1918 180.338 78.4418C179.903 78.6889 179.346 78.8125 178.667 78.8125H176.554V77.875H178.633C179.102 77.875 179.478 77.794 179.762 77.6321C180.047 77.4702 180.252 77.2514 180.38 76.9759C180.511 76.6974 180.576 76.3835 180.576 76.0341C180.576 75.6847 180.511 75.3722 180.38 75.0966C180.252 74.821 180.045 74.6051 179.758 74.4489C179.471 74.2898 179.091 74.2102 178.616 74.2102H176.758V82H175.701ZM185.771 82.1364C185.18 82.1364 184.662 81.9957 184.216 81.7145C183.772 81.4332 183.426 81.0398 183.176 80.5341C182.929 80.0284 182.805 79.4375 182.805 78.7614C182.805 78.0795 182.929 77.4844 183.176 76.9759C183.426 76.4673 183.772 76.0724 184.216 75.7912C184.662 75.5099 185.18 75.3693 185.771 75.3693C186.362 75.3693 186.879 75.5099 187.322 75.7912C187.768 76.0724 188.115 76.4673 188.362 76.9759C188.612 77.4844 188.737 78.0795 188.737 78.7614C188.737 79.4375 188.612 80.0284 188.362 80.5341C188.115 81.0398 187.768 81.4332 187.322 81.7145C186.879 81.9957 186.362 82.1364 185.771 82.1364ZM185.771 81.233C186.22 81.233 186.589 81.1179 186.879 80.8878C187.169 80.6577 187.383 80.3551 187.522 79.9801C187.662 79.6051 187.731 79.1989 187.731 78.7614C187.731 78.3239 187.662 77.9162 187.522 77.5384C187.383 77.1605 187.169 76.8551 186.879 76.6222C186.589 76.3892 186.22 76.2727 185.771 76.2727C185.322 76.2727 184.953 76.3892 184.663 76.6222C184.373 76.8551 184.159 77.1605 184.02 77.5384C183.88 77.9162 183.811 78.3239 183.811 78.7614C183.811 79.1989 183.88 79.6051 184.02 79.9801C184.159 80.3551 184.373 80.6577 184.663 80.8878C184.953 81.1179 185.322 81.233 185.771 81.233ZM194.908 76.9205L194.005 77.1761C193.948 77.0256 193.864 76.8793 193.754 76.7372C193.646 76.5923 193.498 76.473 193.31 76.3793C193.123 76.2855 192.883 76.2386 192.59 76.2386C192.19 76.2386 191.856 76.331 191.589 76.5156C191.325 76.6974 191.192 76.929 191.192 77.2102C191.192 77.4602 191.283 77.6577 191.465 77.8026C191.647 77.9474 191.931 78.0682 192.317 78.1648L193.289 78.4034C193.874 78.5455 194.31 78.7628 194.597 79.0554C194.884 79.3452 195.028 79.7187 195.028 80.1761C195.028 80.5511 194.92 80.8864 194.704 81.1818C194.491 81.4773 194.192 81.7102 193.809 81.8807C193.425 82.0511 192.979 82.1364 192.471 82.1364C191.803 82.1364 191.251 81.9915 190.813 81.7017C190.376 81.4119 190.099 80.9886 189.982 80.4318L190.937 80.1932C191.028 80.5455 191.2 80.8097 191.452 80.9858C191.708 81.1619 192.042 81.25 192.454 81.25C192.923 81.25 193.295 81.1506 193.57 80.9517C193.849 80.75 193.988 80.5085 193.988 80.2273C193.988 80 193.908 79.8097 193.749 79.6562C193.59 79.5 193.346 79.3835 193.016 79.3068L191.925 79.0511C191.326 78.9091 190.886 78.6889 190.604 78.3906C190.326 78.0895 190.187 77.7131 190.187 77.2614C190.187 76.892 190.29 76.5653 190.498 76.2812C190.708 75.9972 190.994 75.7741 191.354 75.6122C191.718 75.4503 192.13 75.3693 192.59 75.3693C193.238 75.3693 193.746 75.5114 194.116 75.7955C194.488 76.0795 194.752 76.4545 194.908 76.9205ZM199.388 75.4545V76.3068H195.996V75.4545H199.388ZM196.985 73.8864H197.99V80.125C197.99 80.4091 198.032 80.6222 198.114 80.7642C198.199 80.9034 198.307 80.9972 198.438 81.0455C198.571 81.0909 198.712 81.1136 198.86 81.1136C198.971 81.1136 199.061 81.108 199.132 81.0966C199.203 81.0824 199.26 81.071 199.303 81.0625L199.507 81.9659C199.439 81.9915 199.344 82.017 199.222 82.0426C199.1 82.071 198.945 82.0852 198.757 82.0852C198.473 82.0852 198.195 82.0241 197.922 81.902C197.652 81.7798 197.428 81.5938 197.249 81.3438C197.073 81.0938 196.985 80.7784 196.985 80.3977V73.8864ZM203.473 84.5909C202.987 84.5909 202.569 84.5284 202.22 84.4034C201.87 84.2812 201.579 84.1193 201.346 83.9176C201.116 83.7188 200.933 83.5057 200.797 83.2784L201.598 82.7159C201.689 82.8352 201.804 82.9716 201.943 83.125C202.082 83.2812 202.272 83.4162 202.514 83.5298C202.758 83.6463 203.078 83.7045 203.473 83.7045C204.001 83.7045 204.437 83.5767 204.781 83.321C205.125 83.0653 205.297 82.6648 205.297 82.1193V80.7898H205.211C205.137 80.9091 205.032 81.0568 204.896 81.233C204.762 81.4062 204.569 81.5611 204.316 81.6974C204.066 81.831 203.728 81.8977 203.302 81.8977C202.774 81.8977 202.299 81.7727 201.879 81.5227C201.461 81.2727 201.13 80.9091 200.886 80.4318C200.645 79.9545 200.524 79.375 200.524 78.6932C200.524 78.0227 200.642 77.4389 200.877 76.9418C201.113 76.4418 201.441 76.0554 201.862 75.7827C202.282 75.5071 202.768 75.3693 203.319 75.3693C203.745 75.3693 204.083 75.4403 204.333 75.5824C204.586 75.7216 204.779 75.8807 204.913 76.0597C205.049 76.2358 205.154 76.3807 205.228 76.4943H205.331V75.4545H206.302V82.1875C206.302 82.75 206.174 83.2074 205.919 83.5597C205.666 83.9148 205.325 84.1747 204.896 84.3395C204.47 84.5071 203.995 84.5909 203.473 84.5909ZM203.439 80.9943C203.842 80.9943 204.183 80.902 204.461 80.7173C204.74 80.5327 204.951 80.267 205.096 79.9205C205.241 79.5739 205.314 79.1591 205.314 78.6761C205.314 78.2045 205.243 77.7884 205.1 77.4276C204.958 77.0668 204.748 76.7841 204.47 76.5795C204.191 76.375 203.848 76.2727 203.439 76.2727C203.012 76.2727 202.657 76.3807 202.373 76.5966C202.092 76.8125 201.88 77.1023 201.738 77.4659C201.599 77.8295 201.529 78.233 201.529 78.6761C201.529 79.1307 201.6 79.5327 201.743 79.8821C201.887 80.2287 202.1 80.5014 202.382 80.7003C202.666 80.8963 203.018 80.9943 203.439 80.9943ZM208.143 82V75.4545H209.115V76.4432H209.183C209.302 76.1193 209.518 75.8565 209.831 75.6548C210.143 75.4531 210.495 75.3523 210.887 75.3523C210.961 75.3523 211.054 75.3537 211.164 75.3565C211.275 75.3594 211.359 75.3636 211.416 75.3693V76.392C211.382 76.3835 211.304 76.3707 211.181 76.3537C211.062 76.3338 210.936 76.3239 210.802 76.3239C210.484 76.3239 210.2 76.3906 209.95 76.5241C209.703 76.6548 209.507 76.8366 209.362 77.0696C209.22 77.2997 209.149 77.5625 209.149 77.858V82H208.143ZM215.153 82.1364C214.522 82.1364 213.978 81.9972 213.521 81.7188C213.066 81.4375 212.716 81.0455 212.468 80.5426C212.224 80.0369 212.102 79.4489 212.102 78.7784C212.102 78.108 212.224 77.517 212.468 77.0057C212.716 76.4915 213.059 76.0909 213.5 75.804C213.943 75.5142 214.46 75.3693 215.051 75.3693C215.392 75.3693 215.728 75.4261 216.061 75.5398C216.393 75.6534 216.696 75.8381 216.968 76.0938C217.241 76.3466 217.458 76.6818 217.62 77.0994C217.782 77.517 217.863 78.0312 217.863 78.642V79.0682H212.818V78.1989H216.841C216.841 77.8295 216.767 77.5 216.619 77.2102C216.474 76.9205 216.267 76.6918 215.997 76.5241C215.73 76.3565 215.414 76.2727 215.051 76.2727C214.65 76.2727 214.304 76.3722 214.011 76.571C213.721 76.767 213.498 77.0227 213.342 77.3381C213.186 77.6534 213.108 77.9915 213.108 78.3523V78.9318C213.108 79.4261 213.193 79.8452 213.363 80.1889C213.537 80.5298 213.777 80.7898 214.083 80.9688C214.39 81.1449 214.747 81.233 215.153 81.233C215.417 81.233 215.656 81.196 215.869 81.1222C216.085 81.0455 216.271 80.9318 216.427 80.7812C216.583 80.6278 216.704 80.4375 216.789 80.2102L217.761 80.483C217.659 80.8125 217.487 81.1023 217.245 81.3523C217.004 81.5994 216.706 81.7926 216.35 81.9318C215.995 82.0682 215.596 82.1364 215.153 82.1364ZM224.302 75.4545C224.251 75.0227 224.044 74.6875 223.68 74.4489C223.316 74.2102 222.87 74.0909 222.342 74.0909C221.956 74.0909 221.618 74.1534 221.328 74.2784C221.041 74.4034 220.816 74.5753 220.654 74.794C220.495 75.0128 220.416 75.2614 220.416 75.5398C220.416 75.7727 220.471 75.973 220.582 76.1406C220.696 76.3054 220.841 76.4432 221.017 76.554C221.193 76.6619 221.377 76.7514 221.571 76.8224C221.764 76.8906 221.941 76.946 222.103 76.9886L222.99 77.2273C223.217 77.2869 223.47 77.3693 223.748 77.4744C224.029 77.5795 224.298 77.723 224.554 77.9048C224.812 78.0838 225.025 78.3139 225.193 78.5952C225.36 78.8764 225.444 79.2216 225.444 79.6307C225.444 80.1023 225.321 80.5284 225.074 80.9091C224.829 81.2898 224.471 81.5923 224 81.8168C223.531 82.0412 222.961 82.1534 222.291 82.1534C221.666 82.1534 221.125 82.0526 220.667 81.8509C220.213 81.6491 219.855 81.3679 219.593 81.0071C219.335 80.6463 219.189 80.2273 219.154 79.75H220.245C220.274 80.0795 220.385 80.3523 220.578 80.5682C220.774 80.7812 221.021 80.9403 221.319 81.0455C221.62 81.1477 221.944 81.1989 222.291 81.1989C222.694 81.1989 223.056 81.1335 223.377 81.0028C223.699 80.8693 223.953 80.6847 224.14 80.4489C224.328 80.2102 224.422 79.9318 224.422 79.6136C224.422 79.3239 224.341 79.0881 224.179 78.9062C224.017 78.7244 223.804 78.5767 223.539 78.4631C223.275 78.3494 222.99 78.25 222.683 78.1648L221.609 77.858C220.927 77.6619 220.387 77.3821 219.99 77.0185C219.592 76.6548 219.393 76.179 219.393 75.5909C219.393 75.1023 219.525 74.6761 219.789 74.3125C220.056 73.946 220.414 73.6619 220.863 73.4602C221.315 73.2557 221.819 73.1534 222.376 73.1534C222.939 73.1534 223.439 73.2543 223.876 73.456C224.314 73.6548 224.66 73.9276 224.916 74.2741C225.174 74.6207 225.311 75.0142 225.325 75.4545H224.302ZM230.352 79.2727H231.511L232.483 80.5511L232.739 80.892L234.188 82.8182H233.028L232.074 81.5398L231.835 81.2159L230.352 79.2727ZM234.545 77.6364C234.545 78.5568 234.379 79.3523 234.047 80.0227C233.714 80.6932 233.259 81.2102 232.679 81.5739C232.099 81.9375 231.438 82.1193 230.693 82.1193C229.949 82.1193 229.287 81.9375 228.707 81.5739C228.128 81.2102 227.672 80.6932 227.339 80.0227C227.007 79.3523 226.841 78.5568 226.841 77.6364C226.841 76.7159 227.007 75.9205 227.339 75.25C227.672 74.5795 228.128 74.0625 228.707 73.6989C229.287 73.3352 229.949 73.1534 230.693 73.1534C231.438 73.1534 232.099 73.3352 232.679 73.6989C233.259 74.0625 233.714 74.5795 234.047 75.25C234.379 75.9205 234.545 76.7159 234.545 77.6364ZM233.523 77.6364C233.523 76.8807 233.396 76.2429 233.143 75.723C232.893 75.2031 232.554 74.8097 232.125 74.5426C231.699 74.2756 231.222 74.142 230.693 74.142C230.165 74.142 229.686 74.2756 229.257 74.5426C228.831 74.8097 228.491 75.2031 228.239 75.723C227.989 76.2429 227.864 76.8807 227.864 77.6364C227.864 78.392 227.989 79.0298 228.239 79.5497C228.491 80.0696 228.831 80.4631 229.257 80.7301C229.686 80.9972 230.165 81.1307 230.693 81.1307C231.222 81.1307 231.699 80.9972 232.125 80.7301C232.554 80.4631 232.893 80.0696 233.143 79.5497C233.396 79.0298 233.523 78.392 233.523 77.6364ZM236.322 82V73.2727H237.379V81.0625H241.436V82H236.322Z" fill="#363636"/>
</g>
<defs>
<filter id="filter0_d_309_207" x="0" y="0" width="420" height="119" filterUnits="userSpaceOnUse" color-interpolation-filters="sRGB">
<feFlood flood-opacity="0" result="BackgroundImageFix"/>
<feColorMatrix in="SourceAlpha" type="matrix" values="0 0 0 0 0 0 0 0 0 0 0 0 0 0 0 0 0 0 127 0" result="hardAlpha"/>
<feOffset dy="4"/>
<feGaussianBlur stdDeviation="7.5"/>
<feComposite in2="hardAlpha" operator="out"/>
<feColorMatrix type="matrix" values="0 0 0 0 0 0 0 0 0 0 0 0 0 0 0 0 0 0 0.1 0"/>
<feBlend mode="normal" in2="BackgroundImageFix" result="effect1_dropShadow_309_207"/>
<feBlend mode="normal" in="SourceGraphic" in2="effect1_dropShadow_309_207" result="shape"/>
</filter>
</defs>
</svg>
