<svg width="397" height="135" viewBox="0 0 397 135" fill="none" xmlns="http://www.w3.org/2000/svg">
<g filter="url(#filter0_d_309_202)">
<rect x="23" y="19" width="351" height="89" rx="4" fill="white"/>
<path d="M57.1477 49V37.3636H64.7159V39.1307H59.2557V42.2898H64.3239V44.0568H59.2557V47.233H64.7614V49H57.1477ZM70.929 49.1591C70.1108 49.1591 69.3835 49.0189 68.7472 48.7386C68.1146 48.4583 67.6146 48.0682 67.2472 47.5682C66.8797 47.0682 66.6847 46.4905 66.6619 45.8352H68.7983C68.8172 46.1496 68.9214 46.4242 69.1108 46.6591C69.3002 46.8902 69.5521 47.0701 69.8665 47.1989C70.1809 47.3277 70.5331 47.392 70.9233 47.392C71.34 47.392 71.7093 47.3201 72.0312 47.1761C72.3532 47.0284 72.6051 46.8239 72.7869 46.5625C72.9688 46.3011 73.0578 46 73.054 45.6591C73.0578 45.3068 72.9669 44.9962 72.7812 44.7273C72.5956 44.4583 72.3267 44.2481 71.9744 44.0966C71.6259 43.9451 71.2055 43.8693 70.7131 43.8693H69.6847V42.2443H70.7131C71.1184 42.2443 71.4725 42.1742 71.7756 42.0341C72.0824 41.8939 72.3229 41.697 72.4972 41.4432C72.6714 41.1856 72.7566 40.8883 72.7528 40.5511C72.7566 40.2216 72.6828 39.9356 72.5312 39.6932C72.3835 39.447 72.1733 39.2557 71.9006 39.1193C71.6316 38.983 71.3153 38.9148 70.9517 38.9148C70.5956 38.9148 70.2661 38.9792 69.9631 39.108C69.66 39.2367 69.4157 39.4205 69.2301 39.6591C69.0445 39.8939 68.946 40.1742 68.9347 40.5H66.9062C66.9214 39.8485 67.1089 39.2765 67.4688 38.7841C67.8324 38.2879 68.3172 37.9015 68.9233 37.625C69.5294 37.3447 70.2093 37.2045 70.9631 37.2045C71.7396 37.2045 72.4138 37.3504 72.9858 37.642C73.5616 37.9299 74.0066 38.3182 74.321 38.8068C74.6354 39.2955 74.7926 39.8352 74.7926 40.4261C74.7964 41.0814 74.6032 41.6307 74.2131 42.0739C73.8267 42.517 73.3191 42.8068 72.6903 42.9432V43.0341C73.5085 43.1477 74.1354 43.4508 74.571 43.9432C75.0104 44.4318 75.2282 45.0398 75.2244 45.767C75.2244 46.4186 75.0388 47.0019 74.6676 47.517C74.3002 48.0284 73.7926 48.4299 73.1449 48.7216C72.5009 49.0133 71.7623 49.1591 70.929 49.1591ZM81.2571 49V37.3636H85.7116C86.5526 37.3636 87.2514 37.4962 87.8082 37.7614C88.3688 38.0227 88.7874 38.3807 89.0639 38.8352C89.3442 39.2898 89.4844 39.8049 89.4844 40.3807C89.4844 40.8542 89.3935 41.2595 89.2116 41.5966C89.0298 41.9299 88.7855 42.2008 88.4787 42.4091C88.1719 42.6174 87.8291 42.767 87.4503 42.858V42.9716C87.8632 42.9943 88.259 43.1212 88.6378 43.3523C89.0204 43.5795 89.3329 43.9015 89.5753 44.3182C89.8177 44.7348 89.9389 45.2386 89.9389 45.8295C89.9389 46.4318 89.7931 46.9735 89.5014 47.4545C89.2098 47.9318 88.7704 48.3087 88.1832 48.5852C87.5961 48.8617 86.8575 49 85.9673 49H81.2571ZM83.3651 47.2386H85.6321C86.3973 47.2386 86.9484 47.0928 87.2855 46.8011C87.6264 46.5057 87.7969 46.1269 87.7969 45.6648C87.7969 45.3201 87.7116 45.0095 87.5412 44.733C87.3707 44.4527 87.1283 44.233 86.8139 44.0739C86.4995 43.911 86.1245 43.8295 85.6889 43.8295H83.3651V47.2386ZM83.3651 42.3125H85.4503C85.8139 42.3125 86.1416 42.2462 86.4332 42.1136C86.7249 41.9773 86.9541 41.786 87.1207 41.5398C87.2912 41.2898 87.3764 40.9943 87.3764 40.6534C87.3764 40.2027 87.2173 39.8314 86.8991 39.5398C86.5848 39.2481 86.117 39.1023 85.4957 39.1023H83.3651V42.3125ZM95.5455 49.1705C94.6705 49.1705 93.9148 48.9886 93.2784 48.625C92.6458 48.2576 92.1591 47.7386 91.8182 47.0682C91.4773 46.3939 91.3068 45.6004 91.3068 44.6875C91.3068 43.7898 91.4773 43.0019 91.8182 42.3239C92.1629 41.642 92.6439 41.1117 93.2614 40.733C93.8788 40.3504 94.6042 40.1591 95.4375 40.1591C95.9754 40.1591 96.483 40.2462 96.9602 40.4205C97.4413 40.5909 97.8655 40.8561 98.233 41.2159C98.6042 41.5758 98.8958 42.0341 99.108 42.5909C99.3201 43.1439 99.4261 43.803 99.4261 44.5682V45.1989H92.2727V43.8125H97.4545C97.4508 43.4186 97.3655 43.0682 97.1989 42.7614C97.0322 42.4508 96.7992 42.2064 96.5 42.0284C96.2045 41.8504 95.8598 41.7614 95.4659 41.7614C95.0455 41.7614 94.6761 41.8636 94.358 42.0682C94.0398 42.2689 93.7917 42.5341 93.6136 42.8636C93.4394 43.1894 93.3504 43.5473 93.3466 43.9375V45.1477C93.3466 45.6553 93.4394 46.0909 93.625 46.4545C93.8106 46.8144 94.0701 47.0909 94.4034 47.2841C94.7367 47.4735 95.1269 47.5682 95.5739 47.5682C95.8731 47.5682 96.1439 47.5265 96.3864 47.4432C96.6288 47.3561 96.839 47.2292 97.017 47.0625C97.1951 46.8958 97.3295 46.6894 97.4205 46.4432L99.3409 46.6591C99.2197 47.1667 98.9886 47.6098 98.6477 47.9886C98.3106 48.3636 97.8788 48.6553 97.3523 48.8636C96.8258 49.0682 96.2235 49.1705 95.5455 49.1705ZM104.405 49.1534C103.719 49.1534 103.106 48.9773 102.564 48.625C102.022 48.2727 101.594 47.7614 101.28 47.0909C100.965 46.4205 100.808 45.6061 100.808 44.6477C100.808 43.678 100.967 42.8598 101.286 42.1932C101.607 41.5227 102.041 41.017 102.587 40.6761C103.132 40.3314 103.74 40.1591 104.411 40.1591C104.922 40.1591 105.342 40.2462 105.672 40.4205C106.001 40.5909 106.263 40.7973 106.456 41.0398C106.649 41.2784 106.799 41.5038 106.905 41.7159H106.99V37.3636H109.053V49H107.03V47.625H106.905C106.799 47.8371 106.645 48.0625 106.445 48.3011C106.244 48.536 105.979 48.7367 105.649 48.9034C105.32 49.0701 104.905 49.1534 104.405 49.1534ZM104.979 47.4659C105.414 47.4659 105.786 47.3485 106.092 47.1136C106.399 46.875 106.632 46.5436 106.791 46.1193C106.95 45.6951 107.03 45.2008 107.03 44.6364C107.03 44.072 106.95 43.5814 106.791 43.1648C106.636 42.7481 106.405 42.4242 106.098 42.1932C105.795 41.9621 105.422 41.8466 104.979 41.8466C104.52 41.8466 104.138 41.9659 103.831 42.2045C103.524 42.4432 103.293 42.7727 103.138 43.1932C102.982 43.6136 102.905 44.0947 102.905 44.6364C102.905 45.1818 102.982 45.6686 103.138 46.0966C103.297 46.5208 103.53 46.8561 103.837 47.1023C104.147 47.3447 104.528 47.4659 104.979 47.4659ZM116.807 45.3295V40.2727H118.864V49H116.869V47.4489H116.778C116.581 47.9375 116.258 48.3371 115.807 48.6477C115.36 48.9583 114.809 49.1136 114.153 49.1136C113.581 49.1136 113.076 48.9867 112.636 48.733C112.201 48.4754 111.86 48.1023 111.614 47.6136C111.367 47.1212 111.244 46.5265 111.244 45.8295V40.2727H113.301V45.5114C113.301 46.0644 113.453 46.5038 113.756 46.8295C114.059 47.1553 114.456 47.3182 114.949 47.3182C115.252 47.3182 115.545 47.2443 115.83 47.0966C116.114 46.9489 116.347 46.7292 116.528 46.4375C116.714 46.142 116.807 45.7727 116.807 45.3295Z" fill="#363636"/>
<path d="M57.0568 75V66.2727H60.0057C60.6903 66.2727 61.25 66.3963 61.6847 66.6435C62.1222 66.8878 62.446 67.2188 62.6562 67.6364C62.8665 68.054 62.9716 68.5199 62.9716 69.0341C62.9716 69.5483 62.8665 70.0156 62.6562 70.4361C62.4489 70.8565 62.1278 71.1918 61.6932 71.4418C61.2585 71.6889 60.7017 71.8125 60.0227 71.8125H57.9091V70.875H59.9886C60.4574 70.875 60.8338 70.794 61.1179 70.6321C61.402 70.4702 61.608 70.2514 61.7358 69.9759C61.8665 69.6974 61.9318 69.3835 61.9318 69.0341C61.9318 68.6847 61.8665 68.3722 61.7358 68.0966C61.608 67.821 61.4006 67.6051 61.1136 67.4489C60.8267 67.2898 60.446 67.2102 59.9716 67.2102H58.1136V75H57.0568ZM64.5376 75V68.4545H65.5092V69.4432H65.5774C65.6967 69.1193 65.9126 68.8565 66.2251 68.6548C66.5376 68.4531 66.8899 68.3523 67.282 68.3523C67.3558 68.3523 67.4482 68.3537 67.5589 68.3565C67.6697 68.3594 67.7536 68.3636 67.8104 68.3693V69.392C67.7763 69.3835 67.6982 69.3707 67.576 69.3537C67.4567 69.3338 67.3303 69.3239 67.1967 69.3239C66.8786 69.3239 66.5945 69.3906 66.3445 69.5241C66.0973 69.6548 65.9013 69.8366 65.7564 70.0696C65.6143 70.2997 65.5433 70.5625 65.5433 70.858V75H64.5376ZM71.4624 75.1364C70.8714 75.1364 70.353 74.9957 69.907 74.7145C69.4638 74.4332 69.1172 74.0398 68.8672 73.5341C68.62 73.0284 68.4964 72.4375 68.4964 71.7614C68.4964 71.0795 68.62 70.4844 68.8672 69.9759C69.1172 69.4673 69.4638 69.0724 69.907 68.7912C70.353 68.5099 70.8714 68.3693 71.4624 68.3693C72.0533 68.3693 72.5703 68.5099 73.0135 68.7912C73.4595 69.0724 73.8061 69.4673 74.0533 69.9759C74.3033 70.4844 74.4283 71.0795 74.4283 71.7614C74.4283 72.4375 74.3033 73.0284 74.0533 73.5341C73.8061 74.0398 73.4595 74.4332 73.0135 74.7145C72.5703 74.9957 72.0533 75.1364 71.4624 75.1364ZM71.4624 74.233C71.9112 74.233 72.2805 74.1179 72.5703 73.8878C72.8601 73.6577 73.0746 73.3551 73.2138 72.9801C73.353 72.6051 73.4226 72.1989 73.4226 71.7614C73.4226 71.3239 73.353 70.9162 73.2138 70.5384C73.0746 70.1605 72.8601 69.8551 72.5703 69.6222C72.2805 69.3892 71.9112 69.2727 71.4624 69.2727C71.0135 69.2727 70.6442 69.3892 70.3544 69.6222C70.0646 69.8551 69.8501 70.1605 69.7109 70.5384C69.5717 70.9162 69.5021 71.3239 69.5021 71.7614C69.5021 72.1989 69.5717 72.6051 69.7109 72.9801C69.8501 73.3551 70.0646 73.6577 70.3544 73.8878C70.6442 74.1179 71.0135 74.233 71.4624 74.233ZM76.3768 77.4545C76.2063 77.4545 76.0543 77.4403 75.9208 77.4119C75.7873 77.3864 75.695 77.3608 75.6438 77.3352L75.8995 76.4489C76.1438 76.5114 76.3597 76.5341 76.5472 76.517C76.7347 76.5 76.9009 76.4162 77.0458 76.2656C77.1935 76.1179 77.3285 75.8778 77.4506 75.5455L77.6381 75.0341L75.2177 68.4545H76.3086L78.1154 73.6705H78.1836L79.9904 68.4545H81.0813L78.3029 75.9545C78.1779 76.2926 78.0231 76.5724 77.8384 76.794C77.6538 77.0185 77.4393 77.1847 77.195 77.2926C76.9535 77.4006 76.6808 77.4545 76.3768 77.4545ZM84.9187 75.1364C84.288 75.1364 83.744 74.9972 83.2866 74.7188C82.832 74.4375 82.4812 74.0455 82.234 73.5426C81.9897 73.0369 81.8675 72.4489 81.8675 71.7784C81.8675 71.108 81.9897 70.517 82.234 70.0057C82.4812 69.4915 82.8249 69.0909 83.2653 68.804C83.7085 68.5142 84.2255 68.3693 84.8164 68.3693C85.1573 68.3693 85.494 68.4261 85.8263 68.5398C86.1587 68.6534 86.4613 68.8381 86.734 69.0938C87.0067 69.3466 87.2241 69.6818 87.386 70.0994C87.5479 70.517 87.6289 71.0312 87.6289 71.642V72.0682H82.5835V71.1989H86.6062C86.6062 70.8295 86.5323 70.5 86.3846 70.2102C86.2397 69.9205 86.0323 69.6918 85.7624 69.5241C85.4954 69.3565 85.18 69.2727 84.8164 69.2727C84.4158 69.2727 84.0692 69.3722 83.7766 69.571C83.4869 69.767 83.2638 70.0227 83.1076 70.3381C82.9513 70.6534 82.8732 70.9915 82.8732 71.3523V71.9318C82.8732 72.4261 82.9585 72.8452 83.1289 73.1889C83.3022 73.5298 83.5423 73.7898 83.8491 73.9688C84.1559 74.1449 84.5124 74.233 84.9187 74.233C85.1829 74.233 85.4215 74.196 85.6346 74.1222C85.8505 74.0455 86.0366 73.9318 86.1928 73.7812C86.3491 73.6278 86.4698 73.4375 86.555 73.2102L87.5266 73.483C87.4244 73.8125 87.2525 74.1023 87.011 74.3523C86.7695 74.5994 86.4712 74.7926 86.1161 74.9318C85.761 75.0682 85.3619 75.1364 84.9187 75.1364ZM91.8178 75.1364C91.2042 75.1364 90.6758 74.9915 90.2326 74.7017C89.7894 74.4119 89.4485 74.0128 89.2099 73.5043C88.9712 72.9957 88.8519 72.4148 88.8519 71.7614C88.8519 71.0966 88.9741 70.5099 89.2184 70.0014C89.4656 69.4901 89.8093 69.0909 90.2496 68.804C90.6928 68.5142 91.2099 68.3693 91.8008 68.3693C92.261 68.3693 92.6758 68.4545 93.0451 68.625C93.4144 68.7955 93.717 69.0341 93.9528 69.3409C94.1886 69.6477 94.3349 70.0057 94.3917 70.4148H93.386C93.3093 70.1165 93.1388 69.8523 92.8746 69.6222C92.6133 69.3892 92.261 69.2727 91.8178 69.2727C91.4258 69.2727 91.082 69.375 90.7866 69.5795C90.494 69.7812 90.2653 70.0668 90.1005 70.4361C89.9386 70.8026 89.8576 71.233 89.8576 71.7273C89.8576 72.233 89.9371 72.6733 90.0962 73.0483C90.2582 73.4233 90.4854 73.7145 90.7781 73.9219C91.0735 74.1293 91.4201 74.233 91.8178 74.233C92.0792 74.233 92.3164 74.1875 92.5295 74.0966C92.7425 74.0057 92.9229 73.875 93.0707 73.7045C93.2184 73.5341 93.3235 73.3295 93.386 73.0909H94.3917C94.3349 73.4773 94.1942 73.8253 93.9698 74.1349C93.7482 74.4418 93.4542 74.6861 93.0877 74.8679C92.7241 75.0469 92.3008 75.1364 91.8178 75.1364ZM98.7085 68.4545V69.3068H95.3164V68.4545H98.7085ZM96.305 66.8864H97.3107V73.125C97.3107 73.4091 97.3519 73.6222 97.4343 73.7642C97.5195 73.9034 97.6275 73.9972 97.7582 74.0455C97.8917 74.0909 98.0323 74.1136 98.18 74.1136C98.2908 74.1136 98.3817 74.108 98.4528 74.0966C98.5238 74.0824 98.5806 74.071 98.6232 74.0625L98.8278 74.9659C98.7596 74.9915 98.6644 75.017 98.5423 75.0426C98.4201 75.071 98.2653 75.0852 98.0778 75.0852C97.7937 75.0852 97.5153 75.0241 97.2425 74.902C96.9727 74.7798 96.7482 74.5938 96.5692 74.3438C96.3931 74.0938 96.305 73.7784 96.305 73.3977V66.8864ZM102.81 75.1364C102.219 75.1364 101.701 74.9957 101.255 74.7145C100.811 74.4332 100.465 74.0398 100.215 73.5341C99.9677 73.0284 99.8441 72.4375 99.8441 71.7614C99.8441 71.0795 99.9677 70.4844 100.215 69.9759C100.465 69.4673 100.811 69.0724 101.255 68.7912C101.701 68.5099 102.219 68.3693 102.81 68.3693C103.401 68.3693 103.918 68.5099 104.361 68.7912C104.807 69.0724 105.154 69.4673 105.401 69.9759C105.651 70.4844 105.776 71.0795 105.776 71.7614C105.776 72.4375 105.651 73.0284 105.401 73.5341C105.154 74.0398 104.807 74.4332 104.361 74.7145C103.918 74.9957 103.401 75.1364 102.81 75.1364ZM102.81 74.233C103.259 74.233 103.628 74.1179 103.918 73.8878C104.208 73.6577 104.422 73.3551 104.561 72.9801C104.701 72.6051 104.77 72.1989 104.77 71.7614C104.77 71.3239 104.701 70.9162 104.561 70.5384C104.422 70.1605 104.208 69.8551 103.918 69.6222C103.628 69.3892 103.259 69.2727 102.81 69.2727C102.361 69.2727 101.992 69.3892 101.702 69.6222C101.412 69.8551 101.198 70.1605 101.059 70.5384C100.919 70.9162 100.85 71.3239 100.85 71.7614C100.85 72.1989 100.919 72.6051 101.059 72.9801C101.198 73.3551 101.412 73.6577 101.702 73.8878C101.992 74.1179 102.361 74.233 102.81 74.233ZM110.822 75V66.2727H116.055V67.2102H111.879V70.1591H115.663V71.0966H111.879V75H110.822ZM117.729 75V68.4545H118.735V75H117.729ZM118.24 67.3636C118.044 67.3636 117.875 67.2969 117.733 67.1634C117.594 67.0298 117.525 66.8693 117.525 66.6818C117.525 66.4943 117.594 66.3338 117.733 66.2003C117.875 66.0668 118.044 66 118.24 66C118.436 66 118.604 66.0668 118.743 66.2003C118.885 66.3338 118.956 66.4943 118.956 66.6818C118.956 66.8693 118.885 67.0298 118.743 67.1634C118.604 67.2969 118.436 67.3636 118.24 67.3636ZM121.582 71.0625V75H120.577V68.4545H121.548V69.4773H121.634C121.787 69.1449 122.02 68.8778 122.332 68.6761C122.645 68.4716 123.048 68.3693 123.543 68.3693C123.986 68.3693 124.374 68.4602 124.706 68.642C125.038 68.821 125.297 69.0938 125.482 69.4602C125.666 69.8239 125.759 70.2841 125.759 70.8409V75H124.753V70.9091C124.753 70.3949 124.619 69.9943 124.352 69.7074C124.085 69.4176 123.719 69.2727 123.253 69.2727C122.932 69.2727 122.645 69.3423 122.392 69.4815C122.142 69.6207 121.945 69.8239 121.8 70.0909C121.655 70.358 121.582 70.6818 121.582 71.0625ZM129.522 75.1534C129.108 75.1534 128.731 75.0753 128.393 74.919C128.055 74.7599 127.787 74.5312 127.588 74.233C127.389 73.9318 127.289 73.5682 127.289 73.142C127.289 72.767 127.363 72.4631 127.511 72.2301C127.659 71.9943 127.856 71.8097 128.103 71.6761C128.35 71.5426 128.623 71.4432 128.922 71.3778C129.223 71.3097 129.525 71.2557 129.829 71.2159C130.227 71.1648 130.549 71.1264 130.797 71.1009C131.047 71.0724 131.228 71.0256 131.342 70.9602C131.458 70.8949 131.517 70.7812 131.517 70.6193V70.5852C131.517 70.1648 131.402 69.8381 131.172 69.6051C130.944 69.3722 130.599 69.2557 130.136 69.2557C129.656 69.2557 129.279 69.3608 129.007 69.571C128.734 69.7812 128.542 70.0057 128.431 70.2443L127.477 69.9034C127.647 69.5057 127.875 69.196 128.159 68.9744C128.446 68.75 128.758 68.5937 129.096 68.5057C129.437 68.4148 129.772 68.3693 130.102 68.3693C130.312 68.3693 130.554 68.3949 130.826 68.446C131.102 68.4943 131.368 68.5952 131.623 68.7486C131.882 68.902 132.096 69.1335 132.267 69.4432C132.437 69.7528 132.522 70.1676 132.522 70.6875V75H131.517V74.1136H131.466C131.397 74.2557 131.284 74.4077 131.125 74.5696C130.966 74.7315 130.754 74.8693 130.49 74.983C130.225 75.0966 129.903 75.1534 129.522 75.1534ZM129.676 74.25C130.074 74.25 130.409 74.1719 130.681 74.0156C130.957 73.8594 131.164 73.6577 131.304 73.4105C131.446 73.1634 131.517 72.9034 131.517 72.6307V71.7102C131.474 71.7614 131.38 71.8082 131.235 71.8509C131.093 71.8906 130.929 71.9261 130.741 71.9574C130.556 71.9858 130.376 72.0114 130.2 72.0341C130.027 72.054 129.886 72.071 129.778 72.0852C129.517 72.1193 129.272 72.1747 129.045 72.2514C128.821 72.3253 128.639 72.4375 128.5 72.5881C128.363 72.7358 128.295 72.9375 128.295 73.1932C128.295 73.5426 128.424 73.8068 128.683 73.9858C128.944 74.1619 129.275 74.25 129.676 74.25ZM135.364 66.2727V75H134.358V66.2727H135.364ZM143.052 75.1364C142.507 75.1364 142.025 74.9986 141.608 74.723C141.19 74.4446 140.863 74.0526 140.627 73.5469C140.392 73.0384 140.274 72.4375 140.274 71.7443C140.274 71.0568 140.392 70.4602 140.627 69.9545C140.863 69.4489 141.191 69.0582 141.612 68.7827C142.032 68.5071 142.518 68.3693 143.069 68.3693C143.495 68.3693 143.832 68.4403 144.079 68.5824C144.329 68.7216 144.52 68.8807 144.65 69.0597C144.784 69.2358 144.887 69.3807 144.961 69.4943H145.047V66.2727H146.052V75H145.081V73.9943H144.961C144.887 74.1136 144.782 74.2642 144.646 74.446C144.51 74.625 144.315 74.7855 144.062 74.9276C143.809 75.0668 143.473 75.1364 143.052 75.1364ZM143.189 74.233C143.592 74.233 143.933 74.1278 144.211 73.9176C144.49 73.7045 144.701 73.4105 144.846 73.0355C144.991 72.6577 145.064 72.2216 145.064 71.7273C145.064 71.2386 144.993 70.8111 144.85 70.4446C144.708 70.0753 144.498 69.7884 144.22 69.5838C143.941 69.3764 143.598 69.2727 143.189 69.2727C142.762 69.2727 142.407 69.3821 142.123 69.6009C141.842 69.8168 141.63 70.1108 141.488 70.483C141.349 70.8523 141.279 71.267 141.279 71.7273C141.279 72.1932 141.35 72.6165 141.493 72.9972C141.637 73.375 141.85 73.6761 142.132 73.9006C142.416 74.1222 142.768 74.233 143.189 74.233ZM150.778 75.1364C150.147 75.1364 149.603 74.9972 149.146 74.7188C148.691 74.4375 148.341 74.0455 148.093 73.5426C147.849 73.0369 147.727 72.4489 147.727 71.7784C147.727 71.108 147.849 70.517 148.093 70.0057C148.341 69.4915 148.684 69.0909 149.125 68.804C149.568 68.5142 150.085 68.3693 150.676 68.3693C151.017 68.3693 151.353 68.4261 151.686 68.5398C152.018 68.6534 152.321 68.8381 152.593 69.0938C152.866 69.3466 153.083 69.6818 153.245 70.0994C153.407 70.517 153.488 71.0312 153.488 71.642V72.0682H148.443V71.1989H152.466C152.466 70.8295 152.392 70.5 152.244 70.2102C152.099 69.9205 151.892 69.6918 151.622 69.5241C151.355 69.3565 151.039 69.2727 150.676 69.2727C150.275 69.2727 149.929 69.3722 149.636 69.571C149.346 69.767 149.123 70.0227 148.967 70.3381C148.811 70.6534 148.733 70.9915 148.733 71.3523V71.9318C148.733 72.4261 148.818 72.8452 148.988 73.1889C149.162 73.5298 149.402 73.7898 149.708 73.9688C150.015 74.1449 150.372 74.233 150.778 74.233C151.042 74.233 151.281 74.196 151.494 74.1222C151.71 74.0455 151.896 73.9318 152.052 73.7812C152.208 73.6278 152.329 73.4375 152.414 73.2102L153.386 73.483C153.284 73.8125 153.112 74.1023 152.87 74.3523C152.629 74.5994 152.331 74.7926 151.975 74.9318C151.62 75.0682 151.221 75.1364 150.778 75.1364ZM158.529 66.2727H159.791L162.757 73.517H162.859L165.825 66.2727H167.086V75H166.098V68.3693H166.012L163.285 75H162.331L159.603 68.3693H159.518V75H158.529V66.2727ZM171.728 75.1364C171.137 75.1364 170.619 74.9957 170.173 74.7145C169.729 74.4332 169.383 74.0398 169.133 73.5341C168.886 73.0284 168.762 72.4375 168.762 71.7614C168.762 71.0795 168.886 70.4844 169.133 69.9759C169.383 69.4673 169.729 69.0724 170.173 68.7912C170.619 68.5099 171.137 68.3693 171.728 68.3693C172.319 68.3693 172.836 68.5099 173.279 68.7912C173.725 69.0724 174.072 69.4673 174.319 69.9759C174.569 70.4844 174.694 71.0795 174.694 71.7614C174.694 72.4375 174.569 73.0284 174.319 73.5341C174.072 74.0398 173.725 74.4332 173.279 74.7145C172.836 74.9957 172.319 75.1364 171.728 75.1364ZM171.728 74.233C172.177 74.233 172.546 74.1179 172.836 73.8878C173.126 73.6577 173.34 73.3551 173.479 72.9801C173.619 72.6051 173.688 72.1989 173.688 71.7614C173.688 71.3239 173.619 70.9162 173.479 70.5384C173.34 70.1605 173.126 69.8551 172.836 69.6222C172.546 69.3892 172.177 69.2727 171.728 69.2727C171.279 69.2727 170.91 69.3892 170.62 69.6222C170.33 69.8551 170.116 70.1605 169.977 70.5384C169.837 70.9162 169.768 71.3239 169.768 71.7614C169.768 72.1989 169.837 72.6051 169.977 72.9801C170.116 73.3551 170.33 73.6577 170.62 73.8878C170.91 74.1179 171.279 74.233 171.728 74.233ZM171.268 67.5682L172.308 65.5909H173.484L172.154 67.5682H171.268ZM178.701 75.1364C178.155 75.1364 177.674 74.9986 177.256 74.723C176.838 74.4446 176.512 74.0526 176.276 73.5469C176.04 73.0384 175.922 72.4375 175.922 71.7443C175.922 71.0568 176.04 70.4602 176.276 69.9545C176.512 69.4489 176.84 69.0582 177.26 68.7827C177.681 68.5071 178.167 68.3693 178.718 68.3693C179.144 68.3693 179.48 68.4403 179.728 68.5824C179.978 68.7216 180.168 68.8807 180.299 69.0597C180.432 69.2358 180.536 69.3807 180.61 69.4943H180.695V66.2727H181.701V75H180.729V73.9943H180.61C180.536 74.1136 180.431 74.2642 180.294 74.446C180.158 74.625 179.963 74.7855 179.711 74.9276C179.458 75.0668 179.121 75.1364 178.701 75.1364ZM178.837 74.233C179.24 74.233 179.581 74.1278 179.86 73.9176C180.138 73.7045 180.35 73.4105 180.495 73.0355C180.64 72.6577 180.712 72.2216 180.712 71.7273C180.712 71.2386 180.641 70.8111 180.499 70.4446C180.357 70.0753 180.147 69.7884 179.868 69.5838C179.59 69.3764 179.246 69.2727 178.837 69.2727C178.411 69.2727 178.056 69.3821 177.772 69.6009C177.49 69.8168 177.279 70.1108 177.137 70.483C176.998 70.8523 176.928 71.267 176.928 71.7273C176.928 72.1932 176.999 72.6165 177.141 72.9972C177.286 73.375 177.499 73.6761 177.78 73.9006C178.064 74.1222 178.417 74.233 178.837 74.233ZM187.807 72.3239V68.4545H188.813V75H187.807V73.892H187.739C187.586 74.2244 187.347 74.5071 187.023 74.7401C186.699 74.9702 186.29 75.0852 185.796 75.0852C185.387 75.0852 185.023 74.9957 184.705 74.8168C184.387 74.6349 184.137 74.3622 183.955 73.9986C183.773 73.6321 183.682 73.1705 183.682 72.6136V68.4545H184.688V72.5455C184.688 73.0227 184.821 73.4034 185.088 73.6875C185.358 73.9716 185.702 74.1136 186.12 74.1136C186.37 74.1136 186.624 74.0497 186.882 73.9219C187.144 73.794 187.363 73.598 187.539 73.3338C187.718 73.0696 187.807 72.733 187.807 72.3239ZM191.661 66.2727V75H190.655V66.2727H191.661ZM196.162 75.1364C195.571 75.1364 195.052 74.9957 194.606 74.7145C194.163 74.4332 193.816 74.0398 193.566 73.5341C193.319 73.0284 193.196 72.4375 193.196 71.7614C193.196 71.0795 193.319 70.4844 193.566 69.9759C193.816 69.4673 194.163 69.0724 194.606 68.7912C195.052 68.5099 195.571 68.3693 196.162 68.3693C196.752 68.3693 197.27 68.5099 197.713 68.7912C198.159 69.0724 198.505 69.4673 198.752 69.9759C199.002 70.4844 199.127 71.0795 199.127 71.7614C199.127 72.4375 199.002 73.0284 198.752 73.5341C198.505 74.0398 198.159 74.4332 197.713 74.7145C197.27 74.9957 196.752 75.1364 196.162 75.1364ZM196.162 74.233C196.61 74.233 196.98 74.1179 197.27 73.8878C197.559 73.6577 197.774 73.3551 197.913 72.9801C198.052 72.6051 198.122 72.1989 198.122 71.7614C198.122 71.3239 198.052 70.9162 197.913 70.5384C197.774 70.1605 197.559 69.8551 197.27 69.6222C196.98 69.3892 196.61 69.2727 196.162 69.2727C195.713 69.2727 195.343 69.3892 195.054 69.6222C194.764 69.8551 194.549 70.1605 194.41 70.5384C194.271 70.9162 194.201 71.3239 194.201 71.7614C194.201 72.1989 194.271 72.6051 194.41 72.9801C194.549 73.3551 194.764 73.6577 195.054 73.8878C195.343 74.1179 195.713 74.233 196.162 74.233ZM206.867 75H204.174V66.2727H206.987C207.833 66.2727 208.558 66.4474 209.16 66.7969C209.762 67.1435 210.224 67.642 210.545 68.2926C210.866 68.9403 211.026 69.7159 211.026 70.6193C211.026 71.5284 210.864 72.3111 210.54 72.9673C210.217 73.6207 209.745 74.1236 209.126 74.4759C208.506 74.8253 207.754 75 206.867 75ZM205.231 74.0625H206.799C207.521 74.0625 208.119 73.9233 208.593 73.6449C209.067 73.3665 209.421 72.9702 209.654 72.456C209.887 71.9418 210.004 71.3295 210.004 70.6193C210.004 69.9148 209.888 69.3082 209.658 68.7997C209.428 68.2884 209.085 67.8963 208.627 67.6236C208.17 67.348 207.6 67.2102 206.918 67.2102H205.231V74.0625ZM212.663 68.4545H213.668V75.4773C213.668 75.8807 213.599 76.2301 213.46 76.5256C213.323 76.821 213.116 77.0497 212.837 77.2116C212.562 77.3736 212.214 77.4545 211.793 77.4545C211.759 77.4545 211.725 77.4545 211.691 77.4545C211.657 77.4545 211.623 77.4545 211.589 77.4545V76.517C211.623 76.517 211.654 76.517 211.683 76.517C211.711 76.517 211.742 76.517 211.776 76.517C212.083 76.517 212.308 76.4261 212.45 76.2443C212.592 76.0653 212.663 75.8097 212.663 75.4773V68.4545ZM213.157 67.3636C212.961 67.3636 212.792 67.2969 212.65 67.1634C212.511 67.0298 212.441 66.8693 212.441 66.6818C212.441 66.4943 212.511 66.3338 212.65 66.2003C212.792 66.0668 212.961 66 213.157 66C213.353 66 213.521 66.0668 213.66 66.2003C213.802 66.3338 213.873 66.4943 213.873 66.6818C213.873 66.8693 213.802 67.0298 213.66 67.1634C213.521 67.2969 213.353 67.3636 213.157 67.3636ZM217.436 75.1534C217.022 75.1534 216.645 75.0753 216.307 74.919C215.969 74.7599 215.701 74.5312 215.502 74.233C215.303 73.9318 215.203 73.5682 215.203 73.142C215.203 72.767 215.277 72.4631 215.425 72.2301C215.573 71.9943 215.77 71.8097 216.017 71.6761C216.265 71.5426 216.537 71.4432 216.836 71.3778C217.137 71.3097 217.439 71.2557 217.743 71.2159C218.141 71.1648 218.463 71.1264 218.711 71.1009C218.961 71.0724 219.142 71.0256 219.256 70.9602C219.373 70.8949 219.431 70.7812 219.431 70.6193V70.5852C219.431 70.1648 219.316 69.8381 219.086 69.6051C218.858 69.3722 218.513 69.2557 218.05 69.2557C217.57 69.2557 217.194 69.3608 216.921 69.571C216.648 69.7812 216.456 70.0057 216.346 70.2443L215.391 69.9034C215.561 69.5057 215.789 69.196 216.073 68.9744C216.36 68.75 216.672 68.5937 217.01 68.5057C217.351 68.4148 217.686 68.3693 218.016 68.3693C218.226 68.3693 218.468 68.3949 218.74 68.446C219.016 68.4943 219.282 68.5952 219.537 68.7486C219.796 68.902 220.01 69.1335 220.181 69.4432C220.351 69.7528 220.436 70.1676 220.436 70.6875V75H219.431V74.1136H219.38C219.311 74.2557 219.198 74.4077 219.039 74.5696C218.88 74.7315 218.668 74.8693 218.404 74.983C218.14 75.0966 217.817 75.1534 217.436 75.1534ZM217.59 74.25C217.988 74.25 218.323 74.1719 218.596 74.0156C218.871 73.8594 219.078 73.6577 219.218 73.4105C219.36 73.1634 219.431 72.9034 219.431 72.6307V71.7102C219.388 71.7614 219.294 71.8082 219.15 71.8509C219.007 71.8906 218.843 71.9261 218.655 71.9574C218.471 71.9858 218.29 72.0114 218.114 72.0341C217.941 72.054 217.8 72.071 217.692 72.0852C217.431 72.1193 217.186 72.1747 216.959 72.2514C216.735 72.3253 216.553 72.4375 216.414 72.5881C216.277 72.7358 216.209 72.9375 216.209 73.1932C216.209 73.5426 216.338 73.8068 216.597 73.9858C216.858 74.1619 217.189 74.25 217.59 74.25ZM223.278 71.0625V75H222.272V68.4545H223.244V69.4773H223.329C223.482 69.1449 223.715 68.8778 224.028 68.6761C224.34 68.4716 224.744 68.3693 225.238 68.3693C225.681 68.3693 226.069 68.4602 226.401 68.642C226.734 68.821 226.992 69.0938 227.177 69.4602C227.362 69.8239 227.454 70.2841 227.454 70.8409V75H226.448V70.9091C226.448 70.3949 226.315 69.9943 226.048 69.7074C225.781 69.4176 225.414 69.2727 224.948 69.2727C224.627 69.2727 224.34 69.3423 224.087 69.4815C223.837 69.6207 223.64 69.8239 223.495 70.0909C223.35 70.358 223.278 70.6818 223.278 71.0625ZM231.934 77.5909C231.448 77.5909 231.03 77.5284 230.681 77.4034C230.331 77.2812 230.04 77.1193 229.807 76.9176C229.577 76.7188 229.394 76.5057 229.257 76.2784L230.059 75.7159C230.15 75.8352 230.265 75.9716 230.404 76.125C230.543 76.2812 230.733 76.4162 230.975 76.5298C231.219 76.6463 231.539 76.7045 231.934 76.7045C232.462 76.7045 232.898 76.5767 233.242 76.321C233.586 76.0653 233.757 75.6648 233.757 75.1193V73.7898H233.672C233.598 73.9091 233.493 74.0568 233.357 74.233C233.223 74.4062 233.03 74.5611 232.777 74.6974C232.527 74.831 232.189 74.8977 231.763 74.8977C231.235 74.8977 230.76 74.7727 230.34 74.5227C229.922 74.2727 229.591 73.9091 229.347 73.4318C229.105 72.9545 228.985 72.375 228.985 71.6932C228.985 71.0227 229.103 70.4389 229.338 69.9418C229.574 69.4418 229.902 69.0554 230.323 68.7827C230.743 68.5071 231.229 68.3693 231.78 68.3693C232.206 68.3693 232.544 68.4403 232.794 68.5824C233.047 68.7216 233.24 68.8807 233.374 69.0597C233.51 69.2358 233.615 69.3807 233.689 69.4943H233.792V68.4545H234.763V75.1875C234.763 75.75 234.635 76.2074 234.38 76.5597C234.127 76.9148 233.786 77.1747 233.357 77.3395C232.931 77.5071 232.456 77.5909 231.934 77.5909ZM231.9 73.9943C232.303 73.9943 232.644 73.902 232.922 73.7173C233.201 73.5327 233.412 73.267 233.557 72.9205C233.702 72.5739 233.775 72.1591 233.775 71.6761C233.775 71.2045 233.703 70.7884 233.561 70.4276C233.419 70.0668 233.209 69.7841 232.931 69.5795C232.652 69.375 232.309 69.2727 231.9 69.2727C231.473 69.2727 231.118 69.3807 230.834 69.5966C230.553 69.8125 230.341 70.1023 230.199 70.4659C230.06 70.8295 229.99 71.233 229.99 71.6761C229.99 72.1307 230.061 72.5327 230.203 72.8821C230.348 73.2287 230.561 73.5014 230.843 73.7003C231.127 73.8963 231.479 73.9943 231.9 73.9943ZM239.263 75.1364C238.672 75.1364 238.154 74.9957 237.708 74.7145C237.265 74.4332 236.918 74.0398 236.668 73.5341C236.421 73.0284 236.297 72.4375 236.297 71.7614C236.297 71.0795 236.421 70.4844 236.668 69.9759C236.918 69.4673 237.265 69.0724 237.708 68.7912C238.154 68.5099 238.672 68.3693 239.263 68.3693C239.854 68.3693 240.371 68.5099 240.814 68.7912C241.26 69.0724 241.607 69.4673 241.854 69.9759C242.104 70.4844 242.229 71.0795 242.229 71.7614C242.229 72.4375 242.104 73.0284 241.854 73.5341C241.607 74.0398 241.26 74.4332 240.814 74.7145C240.371 74.9957 239.854 75.1364 239.263 75.1364ZM239.263 74.233C239.712 74.233 240.081 74.1179 240.371 73.8878C240.661 73.6577 240.875 73.3551 241.015 72.9801C241.154 72.6051 241.223 72.1989 241.223 71.7614C241.223 71.3239 241.154 70.9162 241.015 70.5384C240.875 70.1605 240.661 69.8551 240.371 69.6222C240.081 69.3892 239.712 69.2727 239.263 69.2727C238.814 69.2727 238.445 69.3892 238.155 69.6222C237.865 69.8551 237.651 70.1605 237.512 70.5384C237.373 70.9162 237.303 71.3239 237.303 71.7614C237.303 72.1989 237.373 72.6051 237.512 72.9801C237.651 73.3551 237.865 73.6577 238.155 73.8878C238.445 74.1179 238.814 74.233 239.263 74.233ZM244.497 75.0682C244.287 75.0682 244.107 74.9929 243.956 74.8423C243.805 74.6918 243.73 74.5114 243.73 74.3011C243.73 74.0909 243.805 73.9105 243.956 73.7599C244.107 73.6094 244.287 73.5341 244.497 73.5341C244.707 73.5341 244.888 73.6094 245.038 73.7599C245.189 73.9105 245.264 74.0909 245.264 74.3011C245.264 74.4403 245.229 74.5682 245.158 74.6847C245.089 74.8011 244.997 74.8949 244.881 74.9659C244.767 75.0341 244.639 75.0682 244.497 75.0682ZM244.497 70.2102C244.287 70.2102 244.107 70.1349 243.956 69.9844C243.805 69.8338 243.73 69.6534 243.73 69.4432C243.73 69.233 243.805 69.0526 243.956 68.902C244.107 68.7514 244.287 68.6761 244.497 68.6761C244.707 68.6761 244.888 68.7514 245.038 68.902C245.189 69.0526 245.264 69.233 245.264 69.4432C245.264 69.5824 245.229 69.7102 245.158 69.8267C245.089 69.9432 244.997 70.0369 244.881 70.108C244.767 70.1761 244.639 70.2102 244.497 70.2102ZM255.353 68.4545C255.302 68.0227 255.094 67.6875 254.731 67.4489C254.367 67.2102 253.921 67.0909 253.393 67.0909C253.006 67.0909 252.668 67.1534 252.379 67.2784C252.092 67.4034 251.867 67.5753 251.705 67.794C251.546 68.0128 251.467 68.2614 251.467 68.5398C251.467 68.7727 251.522 68.973 251.633 69.1406C251.746 69.3054 251.891 69.4432 252.067 69.554C252.244 69.6619 252.428 69.7514 252.621 69.8224C252.815 69.8906 252.992 69.946 253.154 69.9886L254.04 70.2273C254.268 70.2869 254.521 70.3693 254.799 70.4744C255.08 70.5795 255.349 70.723 255.604 70.9048C255.863 71.0838 256.076 71.3139 256.244 71.5952C256.411 71.8764 256.495 72.2216 256.495 72.6307C256.495 73.1023 256.371 73.5284 256.124 73.9091C255.88 74.2898 255.522 74.5923 255.05 74.8168C254.582 75.0412 254.012 75.1534 253.342 75.1534C252.717 75.1534 252.175 75.0526 251.718 74.8509C251.263 74.6491 250.906 74.3679 250.644 74.0071C250.386 73.6463 250.239 73.2273 250.205 72.75H251.296C251.325 73.0795 251.435 73.3523 251.629 73.5682C251.825 73.7812 252.072 73.9403 252.37 74.0455C252.671 74.1477 252.995 74.1989 253.342 74.1989C253.745 74.1989 254.107 74.1335 254.428 74.0028C254.749 73.8693 255.004 73.6847 255.191 73.4489C255.379 73.2102 255.472 72.9318 255.472 72.6136C255.472 72.3239 255.391 72.0881 255.229 71.9062C255.067 71.7244 254.854 71.5767 254.59 71.4631C254.326 71.3494 254.04 71.25 253.734 71.1648L252.66 70.858C251.978 70.6619 251.438 70.3821 251.04 70.0185C250.643 69.6548 250.444 69.179 250.444 68.5909C250.444 68.1023 250.576 67.6761 250.84 67.3125C251.107 66.946 251.465 66.6619 251.914 66.4602C252.366 66.2557 252.87 66.1534 253.427 66.1534C253.989 66.1534 254.489 66.2543 254.927 66.456C255.364 66.6548 255.711 66.9276 255.967 67.2741C256.225 67.6207 256.362 68.0142 256.376 68.4545H255.353ZM258.096 75V68.4545H259.102V75H258.096ZM258.608 67.3636C258.412 67.3636 258.243 67.2969 258.1 67.1634C257.961 67.0298 257.892 66.8693 257.892 66.6818C257.892 66.4943 257.961 66.3338 258.1 66.2003C258.243 66.0668 258.412 66 258.608 66C258.804 66 258.971 66.0668 259.11 66.2003C259.252 66.3338 259.324 66.4943 259.324 66.6818C259.324 66.8693 259.252 67.0298 259.11 67.1634C258.971 67.2969 258.804 67.3636 258.608 67.3636ZM263.79 68.4545V69.3068H260.398V68.4545H263.79ZM261.387 66.8864H262.393V73.125C262.393 73.4091 262.434 73.6222 262.516 73.7642C262.602 73.9034 262.71 73.9972 262.84 74.0455C262.974 74.0909 263.114 74.1136 263.262 74.1136C263.373 74.1136 263.464 74.108 263.535 74.0966C263.606 74.0824 263.663 74.071 263.705 74.0625L263.91 74.9659C263.842 74.9915 263.746 75.017 263.624 75.0426C263.502 75.071 263.347 75.0852 263.16 75.0852C262.876 75.0852 262.597 75.0241 262.325 74.902C262.055 74.7798 261.83 74.5938 261.651 74.3438C261.475 74.0938 261.387 73.7784 261.387 73.3977V66.8864ZM265.303 75V68.4545H266.309V75H265.303ZM265.815 67.3636C265.619 67.3636 265.45 67.2969 265.308 67.1634C265.168 67.0298 265.099 66.8693 265.099 66.6818C265.099 66.4943 265.168 66.3338 265.308 66.2003C265.45 66.0668 265.619 66 265.815 66C266.011 66 266.178 66.0668 266.317 66.2003C266.46 66.3338 266.531 66.4943 266.531 66.6818C266.531 66.8693 266.46 67.0298 266.317 67.1634C266.178 67.2969 266.011 67.3636 265.815 67.3636ZM270.81 75.1364C270.219 75.1364 269.701 74.9957 269.255 74.7145C268.811 74.4332 268.465 74.0398 268.215 73.5341C267.968 73.0284 267.844 72.4375 267.844 71.7614C267.844 71.0795 267.968 70.4844 268.215 69.9759C268.465 69.4673 268.811 69.0724 269.255 68.7912C269.701 68.5099 270.219 68.3693 270.81 68.3693C271.401 68.3693 271.918 68.5099 272.361 68.7912C272.807 69.0724 273.154 69.4673 273.401 69.9759C273.651 70.4844 273.776 71.0795 273.776 71.7614C273.776 72.4375 273.651 73.0284 273.401 73.5341C273.154 74.0398 272.807 74.4332 272.361 74.7145C271.918 74.9957 271.401 75.1364 270.81 75.1364ZM270.81 74.233C271.259 74.233 271.628 74.1179 271.918 73.8878C272.208 73.6577 272.422 73.3551 272.561 72.9801C272.701 72.6051 272.77 72.1989 272.77 71.7614C272.77 71.3239 272.701 70.9162 272.561 70.5384C272.422 70.1605 272.208 69.8551 271.918 69.6222C271.628 69.3892 271.259 69.2727 270.81 69.2727C270.361 69.2727 269.992 69.3892 269.702 69.6222C269.412 69.8551 269.198 70.1605 269.059 70.5384C268.919 70.9162 268.85 71.3239 268.85 71.7614C268.85 72.1989 268.919 72.6051 269.059 72.9801C269.198 73.3551 269.412 73.6577 269.702 73.8878C269.992 74.1179 270.361 74.233 270.81 74.233ZM280.169 75L278.175 68.4545H279.232L280.646 73.4659H280.714L282.112 68.4545H283.186L284.567 73.4489H284.635L286.05 68.4545H287.107L285.112 75H284.124L282.692 69.9716H282.589L281.158 75H280.169ZM290.958 75.1364C290.327 75.1364 289.783 74.9972 289.326 74.7188C288.871 74.4375 288.52 74.0455 288.273 73.5426C288.029 73.0369 287.907 72.4489 287.907 71.7784C287.907 71.108 288.029 70.517 288.273 70.0057C288.52 69.4915 288.864 69.0909 289.304 68.804C289.748 68.5142 290.265 68.3693 290.855 68.3693C291.196 68.3693 291.533 68.4261 291.865 68.5398C292.198 68.6534 292.5 68.8381 292.773 69.0938C293.046 69.3466 293.263 69.6818 293.425 70.0994C293.587 70.517 293.668 71.0312 293.668 71.642V72.0682H288.623V71.1989H292.645C292.645 70.8295 292.571 70.5 292.424 70.2102C292.279 69.9205 292.071 69.6918 291.801 69.5241C291.534 69.3565 291.219 69.2727 290.855 69.2727C290.455 69.2727 290.108 69.3722 289.816 69.571C289.526 69.767 289.303 70.0227 289.147 70.3381C288.99 70.6534 288.912 70.9915 288.912 71.3523V71.9318C288.912 72.4261 288.998 72.8452 289.168 73.1889C289.341 73.5298 289.581 73.7898 289.888 73.9688C290.195 74.1449 290.551 74.233 290.958 74.233C291.222 74.233 291.461 74.196 291.674 74.1222C291.89 74.0455 292.076 73.9318 292.232 73.7812C292.388 73.6278 292.509 73.4375 292.594 73.2102L293.566 73.483C293.463 73.8125 293.292 74.1023 293.05 74.3523C292.809 74.5994 292.51 74.7926 292.155 74.9318C291.8 75.0682 291.401 75.1364 290.958 75.1364ZM295.334 75V66.2727H296.34V69.4943H296.425C296.499 69.3807 296.601 69.2358 296.732 69.0597C296.865 68.8807 297.056 68.7216 297.303 68.5824C297.553 68.4403 297.891 68.3693 298.317 68.3693C298.868 68.3693 299.354 68.5071 299.775 68.7827C300.195 69.0582 300.523 69.4489 300.759 69.9545C300.995 70.4602 301.113 71.0568 301.113 71.7443C301.113 72.4375 300.995 73.0384 300.759 73.5469C300.523 74.0526 300.196 74.4446 299.779 74.723C299.361 74.9986 298.88 75.1364 298.334 75.1364C297.914 75.1364 297.577 75.0668 297.324 74.9276C297.071 74.7855 296.877 74.625 296.74 74.446C296.604 74.2642 296.499 74.1136 296.425 73.9943H296.306V75H295.334ZM296.323 71.7273C296.323 72.2216 296.395 72.6577 296.54 73.0355C296.685 73.4105 296.897 73.7045 297.175 73.9176C297.453 74.1278 297.794 74.233 298.198 74.233C298.618 74.233 298.969 74.1222 299.25 73.9006C299.534 73.6761 299.748 73.375 299.89 72.9972C300.034 72.6165 300.107 72.1932 300.107 71.7273C300.107 71.267 300.036 70.8523 299.894 70.483C299.755 70.1108 299.543 69.8168 299.259 69.6009C298.978 69.3821 298.624 69.2727 298.198 69.2727C297.789 69.2727 297.445 69.3764 297.167 69.5838C296.888 69.7884 296.678 70.0753 296.536 70.4446C296.394 70.8111 296.323 71.2386 296.323 71.7273ZM308.498 75.1364C307.952 75.1364 307.471 74.9986 307.053 74.723C306.635 74.4446 306.309 74.0526 306.073 73.5469C305.837 73.0384 305.719 72.4375 305.719 71.7443C305.719 71.0568 305.837 70.4602 306.073 69.9545C306.309 69.4489 306.637 69.0582 307.057 68.7827C307.478 68.5071 307.963 68.3693 308.515 68.3693C308.941 68.3693 309.277 68.4403 309.525 68.5824C309.775 68.7216 309.965 68.8807 310.096 69.0597C310.229 69.2358 310.333 69.3807 310.407 69.4943H310.492V66.2727H311.498V75H310.526V73.9943H310.407C310.333 74.1136 310.228 74.2642 310.091 74.446C309.955 74.625 309.76 74.7855 309.507 74.9276C309.255 75.0668 308.918 75.1364 308.498 75.1364ZM308.634 74.233C309.037 74.233 309.378 74.1278 309.657 73.9176C309.935 73.7045 310.147 73.4105 310.292 73.0355C310.436 72.6577 310.509 72.2216 310.509 71.7273C310.509 71.2386 310.438 70.8111 310.296 70.4446C310.154 70.0753 309.944 69.7884 309.665 69.5838C309.387 69.3764 309.043 69.2727 308.634 69.2727C308.208 69.2727 307.853 69.3821 307.569 69.6009C307.287 69.8168 307.076 70.1108 306.934 70.483C306.794 70.8523 306.725 71.267 306.725 71.7273C306.725 72.1932 306.796 72.6165 306.938 72.9972C307.083 73.375 307.296 73.6761 307.577 73.9006C307.861 74.1222 308.213 74.233 308.634 74.233ZM316.223 75.1364C315.593 75.1364 315.049 74.9972 314.591 74.7188C314.137 74.4375 313.786 74.0455 313.539 73.5426C313.294 73.0369 313.172 72.4489 313.172 71.7784C313.172 71.108 313.294 70.517 313.539 70.0057C313.786 69.4915 314.13 69.0909 314.57 68.804C315.013 68.5142 315.53 68.3693 316.121 68.3693C316.462 68.3693 316.799 68.4261 317.131 68.5398C317.463 68.6534 317.766 68.8381 318.039 69.0938C318.311 69.3466 318.529 69.6818 318.691 70.0994C318.853 70.517 318.934 71.0312 318.934 71.642V72.0682H313.888V71.1989H317.911C317.911 70.8295 317.837 70.5 317.689 70.2102C317.544 69.9205 317.337 69.6918 317.067 69.5241C316.8 69.3565 316.485 69.2727 316.121 69.2727C315.721 69.2727 315.374 69.3722 315.081 69.571C314.792 69.767 314.569 70.0227 314.412 70.3381C314.256 70.6534 314.178 70.9915 314.178 71.3523V71.9318C314.178 72.4261 314.263 72.8452 314.434 73.1889C314.607 73.5298 314.847 73.7898 315.154 73.9688C315.461 74.1449 315.817 74.233 316.223 74.233C316.488 74.233 316.726 74.196 316.939 74.1222C317.155 74.0455 317.341 73.9318 317.498 73.7812C317.654 73.6278 317.775 73.4375 317.86 73.2102L318.831 73.483C318.729 73.8125 318.557 74.1023 318.316 74.3523C318.074 74.5994 317.776 74.7926 317.421 74.9318C317.066 75.0682 316.667 75.1364 316.223 75.1364ZM321.469 66.2727V75H320.463V66.2727H321.469ZM59.6648 90.1364C59.0341 90.1364 58.4901 89.9972 58.0327 89.7188C57.5781 89.4375 57.2273 89.0455 56.9801 88.5426C56.7358 88.0369 56.6136 87.4489 56.6136 86.7784C56.6136 86.108 56.7358 85.517 56.9801 85.0057C57.2273 84.4915 57.571 84.0909 58.0114 83.804C58.4545 83.5142 58.9716 83.3693 59.5625 83.3693C59.9034 83.3693 60.2401 83.4261 60.5724 83.5398C60.9048 83.6534 61.2074 83.8381 61.4801 84.0938C61.7528 84.3466 61.9702 84.6818 62.1321 85.0994C62.294 85.517 62.375 86.0312 62.375 86.642V87.0682H57.3295V86.1989H61.3523C61.3523 85.8295 61.2784 85.5 61.1307 85.2102C60.9858 84.9205 60.7784 84.6918 60.5085 84.5241C60.2415 84.3565 59.9261 84.2727 59.5625 84.2727C59.1619 84.2727 58.8153 84.3722 58.5227 84.571C58.233 84.767 58.0099 85.0227 57.8537 85.3381C57.6974 85.6534 57.6193 85.9915 57.6193 86.3523V86.9318C57.6193 87.4261 57.7045 87.8452 57.875 88.1889C58.0483 88.5298 58.2884 88.7898 58.5952 88.9688C58.902 89.1449 59.2585 89.233 59.6648 89.233C59.929 89.233 60.1676 89.196 60.3807 89.1222C60.5966 89.0455 60.7827 88.9318 60.9389 88.7812C61.0952 88.6278 61.2159 88.4375 61.3011 88.2102L62.2727 88.483C62.1705 88.8125 61.9986 89.1023 61.7571 89.3523C61.5156 89.5994 61.2173 89.7926 60.8622 89.9318C60.5071 90.0682 60.108 90.1364 59.6648 90.1364ZM69.0579 83.4545L66.6374 90H65.6147L63.1942 83.4545H64.2852L66.092 88.6705H66.1602L67.967 83.4545H69.0579ZM72.8952 90.1364C72.2646 90.1364 71.7205 89.9972 71.2631 89.7188C70.8086 89.4375 70.4577 89.0455 70.2106 88.5426C69.9663 88.0369 69.8441 87.4489 69.8441 86.7784C69.8441 86.108 69.9663 85.517 70.2106 85.0057C70.4577 84.4915 70.8015 84.0909 71.2418 83.804C71.685 83.5142 72.2021 83.3693 72.793 83.3693C73.1339 83.3693 73.4705 83.4261 73.8029 83.5398C74.1353 83.6534 74.4379 83.8381 74.7106 84.0938C74.9833 84.3466 75.2006 84.6818 75.3626 85.0994C75.5245 85.517 75.6055 86.0312 75.6055 86.642V87.0682H70.56V86.1989H74.5827C74.5827 85.8295 74.5089 85.5 74.3612 85.2102C74.2163 84.9205 74.0089 84.6918 73.739 84.5241C73.4719 84.3565 73.1566 84.2727 72.793 84.2727C72.3924 84.2727 72.0458 84.3722 71.7532 84.571C71.4634 84.767 71.2404 85.0227 71.0842 85.3381C70.9279 85.6534 70.8498 85.9915 70.8498 86.3523V86.9318C70.8498 87.4261 70.935 87.8452 71.1055 88.1889C71.2788 88.5298 71.5188 88.7898 71.8256 88.9688C72.1325 89.1449 72.489 89.233 72.8952 89.233C73.1594 89.233 73.3981 89.196 73.6112 89.1222C73.8271 89.0455 74.0131 88.9318 74.1694 88.7812C74.3256 88.6278 74.4464 88.4375 74.5316 88.2102L75.5032 88.483C75.4009 88.8125 75.229 89.1023 74.9876 89.3523C74.7461 89.5994 74.4478 89.7926 74.0927 89.9318C73.7376 90.0682 73.3384 90.1364 72.8952 90.1364ZM78.141 86.0625V90H77.1353V83.4545H78.1069V84.4773H78.1921C78.3455 84.1449 78.5785 83.8778 78.891 83.6761C79.2035 83.4716 79.6069 83.3693 80.1012 83.3693C80.5444 83.3693 80.9322 83.4602 81.2646 83.642C81.5969 83.821 81.8555 84.0938 82.0401 84.4602C82.2248 84.8239 82.3171 85.2841 82.3171 85.8409V90H81.3114V85.9091C81.3114 85.3949 81.1779 84.9943 80.9109 84.7074C80.6438 84.4176 80.2773 84.2727 79.8114 84.2727C79.4904 84.2727 79.2035 84.3423 78.9506 84.4815C78.7006 84.6207 78.5032 84.8239 78.3583 85.0909C78.2134 85.358 78.141 85.6818 78.141 86.0625ZM87.0014 83.4545V84.3068H83.6094V83.4545H87.0014ZM84.598 81.8864H85.6037V88.125C85.6037 88.4091 85.6449 88.6222 85.7273 88.7642C85.8125 88.9034 85.9205 88.9972 86.0511 89.0455C86.1847 89.0909 86.3253 89.1136 86.473 89.1136C86.5838 89.1136 86.6747 89.108 86.7457 89.0966C86.8168 89.0824 86.8736 89.071 86.9162 89.0625L87.1207 89.9659C87.0526 89.9915 86.9574 90.017 86.8352 90.0426C86.7131 90.071 86.5582 90.0852 86.3707 90.0852C86.0866 90.0852 85.8082 90.0241 85.5355 89.902C85.2656 89.7798 85.0412 89.5938 84.8622 89.3438C84.6861 89.0938 84.598 88.7784 84.598 88.3977V81.8864ZM91.103 90.1364C90.5121 90.1364 89.9936 89.9957 89.5476 89.7145C89.1044 89.4332 88.7578 89.0398 88.5078 88.5341C88.2607 88.0284 88.1371 87.4375 88.1371 86.7614C88.1371 86.0795 88.2607 85.4844 88.5078 84.9759C88.7578 84.4673 89.1044 84.0724 89.5476 83.7912C89.9936 83.5099 90.5121 83.3693 91.103 83.3693C91.6939 83.3693 92.2109 83.5099 92.6541 83.7912C93.1001 84.0724 93.4467 84.4673 93.6939 84.9759C93.9439 85.4844 94.0689 86.0795 94.0689 86.7614C94.0689 87.4375 93.9439 88.0284 93.6939 88.5341C93.4467 89.0398 93.1001 89.4332 92.6541 89.7145C92.2109 89.9957 91.6939 90.1364 91.103 90.1364ZM91.103 89.233C91.5518 89.233 91.9212 89.1179 92.2109 88.8878C92.5007 88.6577 92.7152 88.3551 92.8544 87.9801C92.9936 87.6051 93.0632 87.1989 93.0632 86.7614C93.0632 86.3239 92.9936 85.9162 92.8544 85.5384C92.7152 85.1605 92.5007 84.8551 92.2109 84.6222C91.9212 84.3892 91.5518 84.2727 91.103 84.2727C90.6541 84.2727 90.2848 84.3892 89.995 84.6222C89.7053 84.8551 89.4908 85.1605 89.3516 85.5384C89.2124 85.9162 89.1428 86.3239 89.1428 86.7614C89.1428 87.1989 89.2124 87.6051 89.3516 87.9801C89.4908 88.3551 89.7053 88.6577 89.995 88.8878C90.2848 89.1179 90.6541 89.233 91.103 89.233ZM98.979 92.4545V83.4545H99.9506V84.4943H100.07C100.144 84.3807 100.246 84.2358 100.377 84.0597C100.51 83.8807 100.701 83.7216 100.948 83.5824C101.198 83.4403 101.536 83.3693 101.962 83.3693C102.513 83.3693 102.999 83.5071 103.419 83.7827C103.84 84.0582 104.168 84.4489 104.404 84.9545C104.64 85.4602 104.757 86.0568 104.757 86.7443C104.757 87.4375 104.64 88.0384 104.404 88.5469C104.168 89.0526 103.841 89.4446 103.424 89.723C103.006 89.9986 102.525 90.1364 101.979 90.1364C101.559 90.1364 101.222 90.0668 100.969 89.9276C100.716 89.7855 100.522 89.625 100.385 89.446C100.249 89.2642 100.144 89.1136 100.07 88.9943H99.9847V92.4545H98.979ZM99.9677 86.7273C99.9677 87.2216 100.04 87.6577 100.185 88.0355C100.33 88.4105 100.542 88.7045 100.82 88.9176C101.098 89.1278 101.439 89.233 101.843 89.233C102.263 89.233 102.614 89.1222 102.895 88.9006C103.179 88.6761 103.392 88.375 103.534 87.9972C103.679 87.6165 103.752 87.1932 103.752 86.7273C103.752 86.267 103.681 85.8523 103.539 85.483C103.4 85.1108 103.188 84.8168 102.904 84.6009C102.623 84.3821 102.269 84.2727 101.843 84.2727C101.434 84.2727 101.09 84.3764 100.811 84.5838C100.533 84.7884 100.323 85.0753 100.181 85.4446C100.039 85.8111 99.9677 86.2386 99.9677 86.7273ZM106.292 90V83.4545H107.263V84.4432H107.331C107.451 84.1193 107.667 83.8565 107.979 83.6548C108.292 83.4531 108.644 83.3523 109.036 83.3523C109.11 83.3523 109.202 83.3537 109.313 83.3565C109.424 83.3594 109.507 83.3636 109.564 83.3693V84.392C109.53 84.3835 109.452 84.3707 109.33 84.3537C109.211 84.3338 109.084 84.3239 108.951 84.3239C108.632 84.3239 108.348 84.3906 108.098 84.5241C107.851 84.6548 107.655 84.8366 107.51 85.0696C107.368 85.2997 107.297 85.5625 107.297 85.858V90H106.292ZM113.301 90.1364C112.671 90.1364 112.127 89.9972 111.669 89.7188C111.215 89.4375 110.864 89.0455 110.617 88.5426C110.373 88.0369 110.25 87.4489 110.25 86.7784C110.25 86.108 110.373 85.517 110.617 85.0057C110.864 84.4915 111.208 84.0909 111.648 83.804C112.091 83.5142 112.608 83.3693 113.199 83.3693C113.54 83.3693 113.877 83.4261 114.209 83.5398C114.542 83.6534 114.844 83.8381 115.117 84.0938C115.39 84.3466 115.607 84.6818 115.769 85.0994C115.931 85.517 116.012 86.0312 116.012 86.642V87.0682H110.966V86.1989H114.989C114.989 85.8295 114.915 85.5 114.767 85.2102C114.623 84.9205 114.415 84.6918 114.145 84.5241C113.878 84.3565 113.563 84.2727 113.199 84.2727C112.799 84.2727 112.452 84.3722 112.159 84.571C111.87 84.767 111.647 85.0227 111.49 85.3381C111.334 85.6534 111.256 85.9915 111.256 86.3523V86.9318C111.256 87.4261 111.341 87.8452 111.512 88.1889C111.685 88.5298 111.925 88.7898 112.232 88.9688C112.539 89.1449 112.895 89.233 113.301 89.233C113.566 89.233 113.804 89.196 114.017 89.1222C114.233 89.0455 114.419 88.9318 114.576 88.7812C114.732 88.6278 114.853 88.4375 114.938 88.2102L115.909 88.483C115.807 88.8125 115.635 89.1023 115.394 89.3523C115.152 89.5994 114.854 89.7926 114.499 89.9318C114.144 90.0682 113.745 90.1364 113.301 90.1364ZM122.178 84.9205L121.275 85.1761C121.218 85.0256 121.134 84.8793 121.023 84.7372C120.915 84.5923 120.767 84.473 120.58 84.3793C120.392 84.2855 120.152 84.2386 119.86 84.2386C119.459 84.2386 119.125 84.331 118.858 84.5156C118.594 84.6974 118.462 84.929 118.462 85.2102C118.462 85.4602 118.553 85.6577 118.735 85.8026C118.917 85.9474 119.201 86.0682 119.587 86.1648L120.559 86.4034C121.144 86.5455 121.58 86.7628 121.867 87.0554C122.154 87.3452 122.297 87.7187 122.297 88.1761C122.297 88.5511 122.189 88.8864 121.973 89.1818C121.76 89.4773 121.462 89.7102 121.078 89.8807C120.695 90.0511 120.249 90.1364 119.74 90.1364C119.073 90.1364 118.52 89.9915 118.083 89.7017C117.645 89.4119 117.368 88.9886 117.252 88.4318L118.206 88.1932C118.297 88.5455 118.469 88.8097 118.722 88.9858C118.978 89.1619 119.311 89.25 119.723 89.25C120.192 89.25 120.564 89.1506 120.84 88.9517C121.118 88.75 121.257 88.5085 121.257 88.2273C121.257 88 121.178 87.8097 121.019 87.6562C120.86 87.5 120.615 87.3835 120.286 87.3068L119.195 87.0511C118.596 86.9091 118.155 86.6889 117.874 86.3906C117.596 86.0895 117.456 85.7131 117.456 85.2614C117.456 84.892 117.56 84.5653 117.767 84.2812C117.978 83.9972 118.263 83.7741 118.624 83.6122C118.988 83.4503 119.4 83.3693 119.86 83.3693C120.507 83.3693 121.016 83.5114 121.385 83.7955C121.757 84.0795 122.022 84.4545 122.178 84.9205ZM126.555 90.1364C125.925 90.1364 125.381 89.9972 124.923 89.7188C124.469 89.4375 124.118 89.0455 123.871 88.5426C123.626 88.0369 123.504 87.4489 123.504 86.7784C123.504 86.108 123.626 85.517 123.871 85.0057C124.118 84.4915 124.462 84.0909 124.902 83.804C125.345 83.5142 125.862 83.3693 126.453 83.3693C126.794 83.3693 127.131 83.4261 127.463 83.5398C127.795 83.6534 128.098 83.8381 128.371 84.0938C128.643 84.3466 128.861 84.6818 129.023 85.0994C129.185 85.517 129.266 86.0312 129.266 86.642V87.0682H124.22V86.1989H128.243C128.243 85.8295 128.169 85.5 128.021 85.2102C127.876 84.9205 127.669 84.6918 127.399 84.5241C127.132 84.3565 126.817 84.2727 126.453 84.2727C126.053 84.2727 125.706 84.3722 125.413 84.571C125.124 84.767 124.901 85.0227 124.744 85.3381C124.588 85.6534 124.51 85.9915 124.51 86.3523V86.9318C124.51 87.4261 124.595 87.8452 124.766 88.1889C124.939 88.5298 125.179 88.7898 125.486 88.9688C125.793 89.1449 126.149 89.233 126.555 89.233C126.82 89.233 127.058 89.196 127.271 89.1222C127.487 89.0455 127.673 88.9318 127.83 88.7812C127.986 88.6278 128.107 88.4375 128.192 88.2102L129.163 88.483C129.061 88.8125 128.889 89.1023 128.648 89.3523C128.406 89.5994 128.108 89.7926 127.753 89.9318C127.398 90.0682 126.999 90.1364 126.555 90.1364ZM131.801 86.0625V90H130.795V83.4545H131.767V84.4773H131.852C132.006 84.1449 132.239 83.8778 132.551 83.6761C132.864 83.4716 133.267 83.3693 133.761 83.3693C134.205 83.3693 134.592 83.4602 134.925 83.642C135.257 83.821 135.516 84.0938 135.7 84.4602C135.885 84.8239 135.977 85.2841 135.977 85.8409V90H134.972V85.9091C134.972 85.3949 134.838 84.9943 134.571 84.7074C134.304 84.4176 133.938 84.2727 133.472 84.2727C133.151 84.2727 132.864 84.3423 132.611 84.4815C132.361 84.6207 132.163 84.8239 132.018 85.0909C131.874 85.358 131.801 85.6818 131.801 86.0625ZM140.474 90.1364C139.86 90.1364 139.332 89.9915 138.889 89.7017C138.446 89.4119 138.105 89.0128 137.866 88.5043C137.627 87.9957 137.508 87.4148 137.508 86.7614C137.508 86.0966 137.63 85.5099 137.875 85.0014C138.122 84.4901 138.466 84.0909 138.906 83.804C139.349 83.5142 139.866 83.3693 140.457 83.3693C140.917 83.3693 141.332 83.4545 141.701 83.625C142.071 83.7955 142.373 84.0341 142.609 84.3409C142.845 84.6477 142.991 85.0057 143.048 85.4148H142.042C141.966 85.1165 141.795 84.8523 141.531 84.6222C141.27 84.3892 140.917 84.2727 140.474 84.2727C140.082 84.2727 139.738 84.375 139.443 84.5795C139.15 84.7812 138.922 85.0668 138.757 85.4361C138.595 85.8026 138.514 86.233 138.514 86.7273C138.514 87.233 138.593 87.6733 138.752 88.0483C138.914 88.4233 139.142 88.7145 139.434 88.9219C139.73 89.1293 140.076 89.233 140.474 89.233C140.735 89.233 140.973 89.1875 141.186 89.0966C141.399 89.0057 141.579 88.875 141.727 88.7045C141.875 88.5341 141.98 88.3295 142.042 88.0909H143.048C142.991 88.4773 142.85 88.8253 142.626 89.1349C142.404 89.4418 142.11 89.6861 141.744 89.8679C141.38 90.0469 140.957 90.1364 140.474 90.1364ZM144.518 90V83.4545H145.524V90H144.518ZM145.029 82.3636C144.833 82.3636 144.664 82.2969 144.522 82.1634C144.383 82.0298 144.314 81.8693 144.314 81.6818C144.314 81.4943 144.383 81.3338 144.522 81.2003C144.664 81.0668 144.833 81 145.029 81C145.225 81 145.393 81.0668 145.532 81.2003C145.674 81.3338 145.745 81.4943 145.745 81.6818C145.745 81.8693 145.674 82.0298 145.532 82.1634C145.393 82.2969 145.225 82.3636 145.029 82.3636ZM149.292 90.1534C148.877 90.1534 148.501 90.0753 148.163 89.919C147.825 89.7599 147.556 89.5312 147.357 89.233C147.158 88.9318 147.059 88.5682 147.059 88.142C147.059 87.767 147.133 87.4631 147.281 87.2301C147.428 86.9943 147.626 86.8097 147.873 86.6761C148.12 86.5426 148.393 86.4432 148.691 86.3778C148.992 86.3097 149.295 86.2557 149.599 86.2159C149.996 86.1648 150.319 86.1264 150.566 86.1009C150.816 86.0724 150.998 86.0256 151.112 85.9602C151.228 85.8949 151.286 85.7812 151.286 85.6193V85.5852C151.286 85.1648 151.171 84.8381 150.941 84.6051C150.714 84.3722 150.369 84.2557 149.906 84.2557C149.425 84.2557 149.049 84.3608 148.776 84.571C148.504 84.7812 148.312 85.0057 148.201 85.2443L147.246 84.9034C147.417 84.5057 147.644 84.196 147.928 83.9744C148.215 83.75 148.528 83.5937 148.866 83.5057C149.207 83.4148 149.542 83.3693 149.871 83.3693C150.082 83.3693 150.323 83.3949 150.596 83.446C150.871 83.4943 151.137 83.5952 151.393 83.7486C151.651 83.902 151.866 84.1335 152.036 84.4432C152.207 84.7528 152.292 85.1676 152.292 85.6875V90H151.286V89.1136H151.235C151.167 89.2557 151.053 89.4077 150.894 89.5696C150.735 89.7315 150.523 89.8693 150.259 89.983C149.995 90.0966 149.673 90.1534 149.292 90.1534ZM149.445 89.25C149.843 89.25 150.178 89.1719 150.451 89.0156C150.727 88.8594 150.934 88.6577 151.073 88.4105C151.215 88.1634 151.286 87.9034 151.286 87.6307V86.7102C151.244 86.7614 151.15 86.8082 151.005 86.8509C150.863 86.8906 150.698 86.9261 150.511 86.9574C150.326 86.9858 150.146 87.0114 149.969 87.0341C149.796 87.054 149.656 87.071 149.548 87.0852C149.286 87.1193 149.042 87.1747 148.815 87.2514C148.59 87.3253 148.408 87.4375 148.269 87.5881C148.133 87.7358 148.065 87.9375 148.065 88.1932C148.065 88.5426 148.194 88.8068 148.452 88.9858C148.714 89.1619 149.045 89.25 149.445 89.25ZM155.133 81.2727V90H154.127V81.2727H155.133ZM160.487 90V81.2727H165.754V82.2102H161.543V85.1591H165.481V86.0966H161.543V89.0625H165.822V90H160.487ZM170.454 90.1193C169.891 90.1193 169.39 90.0227 168.95 89.8295C168.512 89.6364 168.164 89.3679 167.906 89.0241C167.65 88.6776 167.511 88.2756 167.488 87.8182H168.562C168.585 88.0994 168.681 88.3423 168.852 88.5469C169.022 88.7486 169.245 88.9048 169.521 89.0156C169.796 89.1264 170.102 89.1818 170.437 89.1818C170.812 89.1818 171.144 89.1165 171.434 88.9858C171.724 88.8551 171.951 88.6733 172.116 88.4403C172.281 88.2074 172.363 87.9375 172.363 87.6307C172.363 87.3097 172.283 87.027 172.124 86.7827C171.965 86.5355 171.732 86.3423 171.425 86.2031C171.119 86.0639 170.744 85.9943 170.3 85.9943H169.602V85.0568H170.3C170.647 85.0568 170.951 84.9943 171.212 84.8693C171.477 84.7443 171.683 84.5682 171.83 84.3409C171.981 84.1136 172.056 83.8466 172.056 83.5398C172.056 83.2443 171.991 82.9872 171.86 82.7685C171.729 82.5497 171.545 82.3793 171.306 82.2571C171.07 82.1349 170.792 82.0739 170.471 82.0739C170.17 82.0739 169.886 82.1293 169.619 82.2401C169.354 82.348 169.138 82.5057 168.971 82.7131C168.803 82.9176 168.712 83.1648 168.698 83.4545H167.675C167.692 82.9972 167.83 82.5966 168.089 82.2528C168.347 81.9062 168.685 81.6364 169.103 81.4432C169.523 81.25 169.985 81.1534 170.488 81.1534C171.028 81.1534 171.491 81.2628 171.877 81.4815C172.263 81.6974 172.56 81.983 172.768 82.3381C172.975 82.6932 173.079 83.0767 173.079 83.4886C173.079 83.9801 172.95 84.3991 172.691 84.7457C172.435 85.0923 172.087 85.3324 171.647 85.4659V85.5341C172.198 85.625 172.629 85.8594 172.938 86.2372C173.248 86.6122 173.403 87.0767 173.403 87.6307C173.403 88.1051 173.273 88.5312 173.015 88.9091C172.759 89.2841 172.41 89.5795 171.967 89.7955C171.523 90.0114 171.019 90.1193 170.454 90.1193ZM180.464 90.1534C180.049 90.1534 179.673 90.0753 179.335 89.919C178.996 89.7599 178.728 89.5312 178.529 89.233C178.33 88.9318 178.231 88.5682 178.231 88.142C178.231 87.767 178.305 87.4631 178.452 87.2301C178.6 86.9943 178.798 86.8097 179.045 86.6761C179.292 86.5426 179.565 86.4432 179.863 86.3778C180.164 86.3097 180.467 86.2557 180.771 86.2159C181.168 86.1648 181.491 86.1264 181.738 86.1009C181.988 86.0724 182.17 86.0256 182.283 85.9602C182.4 85.8949 182.458 85.7812 182.458 85.6193V85.5852C182.458 85.1648 182.343 84.8381 182.113 84.6051C181.886 84.3722 181.54 84.2557 181.077 84.2557C180.597 84.2557 180.221 84.3608 179.948 84.571C179.675 84.7812 179.484 85.0057 179.373 85.2443L178.418 84.9034C178.589 84.5057 178.816 84.196 179.1 83.9744C179.387 83.75 179.7 83.5937 180.038 83.5057C180.379 83.4148 180.714 83.3693 181.043 83.3693C181.254 83.3693 181.495 83.3949 181.768 83.446C182.043 83.4943 182.309 83.5952 182.565 83.7486C182.823 83.902 183.038 84.1335 183.208 84.4432C183.379 84.7528 183.464 85.1676 183.464 85.6875V90H182.458V89.1136H182.407C182.339 89.2557 182.225 89.4077 182.066 89.5696C181.907 89.7315 181.695 89.8693 181.431 89.983C181.167 90.0966 180.844 90.1534 180.464 90.1534ZM180.617 89.25C181.015 89.25 181.35 89.1719 181.623 89.0156C181.898 88.8594 182.106 88.6577 182.245 88.4105C182.387 88.1634 182.458 87.9034 182.458 87.6307V86.7102C182.415 86.7614 182.322 86.8082 182.177 86.8509C182.035 86.8906 181.87 86.9261 181.683 86.9574C181.498 86.9858 181.317 87.0114 181.141 87.0341C180.968 87.054 180.827 87.071 180.719 87.0852C180.458 87.1193 180.214 87.1747 179.987 87.2514C179.762 87.3253 179.58 87.4375 179.441 87.5881C179.305 87.7358 179.237 87.9375 179.237 88.1932C179.237 88.5426 179.366 88.8068 179.624 88.9858C179.886 89.1619 180.217 89.25 180.617 89.25ZM192.799 87.3239V83.4545H193.805V90H192.799V88.892H192.731C192.578 89.2244 192.339 89.5071 192.015 89.7401C191.691 89.9702 191.282 90.0852 190.788 90.0852C190.379 90.0852 190.015 89.9957 189.697 89.8168C189.379 89.6349 189.129 89.3622 188.947 88.9986C188.765 88.6321 188.674 88.1705 188.674 87.6136V83.4545H189.68V87.5455C189.68 88.0227 189.814 88.4034 190.081 88.6875C190.35 88.9716 190.694 89.1136 191.112 89.1136C191.362 89.1136 191.616 89.0497 191.875 88.9219C192.136 88.794 192.355 88.598 192.531 88.3338C192.71 88.0696 192.799 87.733 192.799 87.3239ZM196.653 86.0625V90H195.647V83.4545H196.619V84.4773H196.704C196.857 84.1449 197.09 83.8778 197.403 83.6761C197.715 83.4716 198.119 83.3693 198.613 83.3693C199.056 83.3693 199.444 83.4602 199.776 83.642C200.109 83.821 200.367 84.0938 200.552 84.4602C200.737 84.8239 200.829 85.2841 200.829 85.8409V90H199.823V85.9091C199.823 85.3949 199.69 84.9943 199.423 84.7074C199.156 84.4176 198.789 84.2727 198.323 84.2727C198.002 84.2727 197.715 84.3423 197.462 84.4815C197.212 84.6207 197.015 84.8239 196.87 85.0909C196.725 85.358 196.653 85.6818 196.653 86.0625ZM208.956 83.4545V84.3068H205.428V83.4545H208.956ZM206.485 90V82.5511C206.485 82.1761 206.573 81.8636 206.749 81.6136C206.925 81.3636 207.154 81.1761 207.435 81.0511C207.716 80.9261 208.013 80.8636 208.326 80.8636C208.573 80.8636 208.775 80.8835 208.931 80.9233C209.087 80.9631 209.203 81 209.28 81.0341L208.99 81.9034C208.939 81.8864 208.868 81.8651 208.777 81.8395C208.689 81.8139 208.573 81.8011 208.428 81.8011C208.096 81.8011 207.855 81.8849 207.708 82.0526C207.563 82.2202 207.49 82.4659 207.49 82.7898V90H206.485ZM212.755 90.1364C212.164 90.1364 211.646 89.9957 211.2 89.7145C210.757 89.4332 210.41 89.0398 210.16 88.5341C209.913 88.0284 209.789 87.4375 209.789 86.7614C209.789 86.0795 209.913 85.4844 210.16 84.9759C210.41 84.4673 210.757 84.0724 211.2 83.7912C211.646 83.5099 212.164 83.3693 212.755 83.3693C213.346 83.3693 213.863 83.5099 214.306 83.7912C214.752 84.0724 215.099 84.4673 215.346 84.9759C215.596 85.4844 215.721 86.0795 215.721 86.7614C215.721 87.4375 215.596 88.0284 215.346 88.5341C215.099 89.0398 214.752 89.4332 214.306 89.7145C213.863 89.9957 213.346 90.1364 212.755 90.1364ZM212.755 89.233C213.204 89.233 213.574 89.1179 213.863 88.8878C214.153 88.6577 214.368 88.3551 214.507 87.9801C214.646 87.6051 214.716 87.1989 214.716 86.7614C214.716 86.3239 214.646 85.9162 214.507 85.5384C214.368 85.1605 214.153 84.8551 213.863 84.6222C213.574 84.3892 213.204 84.2727 212.755 84.2727C212.306 84.2727 211.937 84.3892 211.647 84.6222C211.358 84.8551 211.143 85.1605 211.004 85.5384C210.865 85.9162 210.795 86.3239 210.795 86.7614C210.795 87.1989 210.865 87.6051 211.004 87.9801C211.143 88.3551 211.358 88.6577 211.647 88.8878C211.937 89.1179 212.306 89.233 212.755 89.233ZM217.256 90V83.4545H218.228V84.4432H218.296C218.415 84.1193 218.631 83.8565 218.944 83.6548C219.256 83.4531 219.609 83.3523 220.001 83.3523C220.075 83.3523 220.167 83.3537 220.278 83.3565C220.388 83.3594 220.472 83.3636 220.529 83.3693V84.392C220.495 84.3835 220.417 84.3707 220.295 84.3537C220.175 84.3338 220.049 84.3239 219.915 84.3239C219.597 84.3239 219.313 84.3906 219.063 84.5241C218.816 84.6548 218.62 84.8366 218.475 85.0696C218.333 85.2997 218.262 85.5625 218.262 85.858V90H217.256ZM221.721 90V83.4545H222.693V84.4773H222.778C222.914 84.1278 223.135 83.8565 223.439 83.6634C223.743 83.4673 224.108 83.3693 224.534 83.3693C224.966 83.3693 225.325 83.4673 225.612 83.6634C225.902 83.8565 226.127 84.1278 226.289 84.4773H226.358C226.525 84.1392 226.777 83.8707 227.112 83.6719C227.447 83.4702 227.849 83.3693 228.318 83.3693C228.903 83.3693 229.382 83.5526 229.754 83.919C230.126 84.2827 230.312 84.8494 230.312 85.6193V90H229.306V85.6193C229.306 85.1364 229.174 84.7912 228.91 84.5838C228.646 84.3764 228.335 84.2727 227.977 84.2727C227.517 84.2727 227.16 84.4119 226.907 84.6903C226.654 84.9659 226.528 85.3153 226.528 85.7386V90H225.505V85.517C225.505 85.1449 225.385 84.8452 225.143 84.6179C224.902 84.3878 224.591 84.2727 224.21 84.2727C223.949 84.2727 223.704 84.3423 223.477 84.4815C223.252 84.6207 223.071 84.8139 222.931 85.0611C222.795 85.3054 222.727 85.5881 222.727 85.9091V90H221.721ZM234.077 90.1534C233.662 90.1534 233.286 90.0753 232.948 89.919C232.61 89.7599 232.341 89.5312 232.142 89.233C231.944 88.9318 231.844 88.5682 231.844 88.142C231.844 87.767 231.918 87.4631 232.066 87.2301C232.213 86.9943 232.411 86.8097 232.658 86.6761C232.905 86.5426 233.178 86.4432 233.476 86.3778C233.777 86.3097 234.08 86.2557 234.384 86.2159C234.782 86.1648 235.104 86.1264 235.351 86.1009C235.601 86.0724 235.783 86.0256 235.897 85.9602C236.013 85.8949 236.071 85.7812 236.071 85.6193V85.5852C236.071 85.1648 235.956 84.8381 235.726 84.6051C235.499 84.3722 235.154 84.2557 234.691 84.2557C234.211 84.2557 233.834 84.3608 233.561 84.571C233.289 84.7812 233.097 85.0057 232.986 85.2443L232.032 84.9034C232.202 84.5057 232.429 84.196 232.713 83.9744C233 83.75 233.313 83.5937 233.651 83.5057C233.992 83.4148 234.327 83.3693 234.657 83.3693C234.867 83.3693 235.108 83.3949 235.381 83.446C235.657 83.4943 235.922 83.5952 236.178 83.7486C236.436 83.902 236.651 84.1335 236.821 84.4432C236.992 84.7528 237.077 85.1676 237.077 85.6875V90H236.071V89.1136H236.02C235.952 89.2557 235.838 89.4077 235.679 89.5696C235.52 89.7315 235.309 89.8693 235.044 89.983C234.78 90.0966 234.458 90.1534 234.077 90.1534ZM234.23 89.25C234.628 89.25 234.963 89.1719 235.236 89.0156C235.512 88.8594 235.719 88.6577 235.858 88.4105C236 88.1634 236.071 87.9034 236.071 87.6307V86.7102C236.029 86.7614 235.935 86.8082 235.79 86.8509C235.648 86.8906 235.483 86.9261 235.296 86.9574C235.111 86.9858 234.931 87.0114 234.755 87.0341C234.581 87.054 234.441 87.071 234.333 87.0852C234.071 87.1193 233.827 87.1747 233.6 87.2514C233.375 87.3253 233.194 87.4375 233.054 87.5881C232.918 87.7358 232.85 87.9375 232.85 88.1932C232.85 88.5426 232.979 88.8068 233.238 88.9858C233.499 89.1619 233.83 89.25 234.23 89.25ZM241.759 83.4545V84.3068H238.367V83.4545H241.759ZM239.356 81.8864H240.362V88.125C240.362 88.4091 240.403 88.6222 240.485 88.7642C240.57 88.9034 240.678 88.9972 240.809 89.0455C240.942 89.0909 241.083 89.1136 241.231 89.1136C241.342 89.1136 241.433 89.108 241.504 89.0966C241.575 89.0824 241.631 89.071 241.674 89.0625L241.879 89.9659C241.81 89.9915 241.715 90.017 241.593 90.0426C241.471 90.071 241.316 90.0852 241.129 90.0852C240.844 90.0852 240.566 90.0241 240.293 89.902C240.023 89.7798 239.799 89.5938 239.62 89.3438C239.444 89.0938 239.356 88.7784 239.356 88.3977V81.8864ZM245.861 90.1364C245.27 90.1364 244.751 89.9957 244.305 89.7145C243.862 89.4332 243.516 89.0398 243.266 88.5341C243.018 88.0284 242.895 87.4375 242.895 86.7614C242.895 86.0795 243.018 85.4844 243.266 84.9759C243.516 84.4673 243.862 84.0724 244.305 83.7912C244.751 83.5099 245.27 83.3693 245.861 83.3693C246.452 83.3693 246.969 83.5099 247.412 83.7912C247.858 84.0724 248.205 84.4673 248.452 84.9759C248.702 85.4844 248.827 86.0795 248.827 86.7614C248.827 87.4375 248.702 88.0284 248.452 88.5341C248.205 89.0398 247.858 89.4332 247.412 89.7145C246.969 89.9957 246.452 90.1364 245.861 90.1364ZM245.861 89.233C246.31 89.233 246.679 89.1179 246.969 88.8878C247.259 88.6577 247.473 88.3551 247.612 87.9801C247.751 87.6051 247.821 87.1989 247.821 86.7614C247.821 86.3239 247.751 85.9162 247.612 85.5384C247.473 85.1605 247.259 84.8551 246.969 84.6222C246.679 84.3892 246.31 84.2727 245.861 84.2727C245.412 84.2727 245.043 84.3892 244.753 84.6222C244.463 84.8551 244.249 85.1605 244.109 85.5384C243.97 85.9162 243.901 86.3239 243.901 86.7614C243.901 87.1989 243.97 87.6051 244.109 87.9801C244.249 88.3551 244.463 88.6577 244.753 88.8878C245.043 89.1179 245.412 89.233 245.861 89.233ZM256.481 90.1364C255.85 90.1364 255.306 89.9972 254.849 89.7188C254.395 89.4375 254.044 89.0455 253.797 88.5426C253.552 88.0369 253.43 87.4489 253.43 86.7784C253.43 86.108 253.552 85.517 253.797 85.0057C254.044 84.4915 254.387 84.0909 254.828 83.804C255.271 83.5142 255.788 83.3693 256.379 83.3693C256.72 83.3693 257.056 83.4261 257.389 83.5398C257.721 83.6534 258.024 83.8381 258.297 84.0938C258.569 84.3466 258.787 84.6818 258.949 85.0994C259.11 85.517 259.191 86.0312 259.191 86.642V87.0682H254.146V86.1989H258.169C258.169 85.8295 258.095 85.5 257.947 85.2102C257.802 84.9205 257.595 84.6918 257.325 84.5241C257.058 84.3565 256.743 84.2727 256.379 84.2727C255.978 84.2727 255.632 84.3722 255.339 84.571C255.049 84.767 254.826 85.0227 254.67 85.3381C254.514 85.6534 254.436 85.9915 254.436 86.3523V86.9318C254.436 87.4261 254.521 87.8452 254.691 88.1889C254.865 88.5298 255.105 88.7898 255.412 88.9688C255.718 89.1449 256.075 89.233 256.481 89.233C256.745 89.233 256.984 89.196 257.197 89.1222C257.413 89.0455 257.599 88.9318 257.755 88.7812C257.912 88.6278 258.032 88.4375 258.118 88.2102L259.089 88.483C258.987 88.8125 258.815 89.1023 258.574 89.3523C258.332 89.5994 258.034 89.7926 257.679 89.9318C257.324 90.0682 256.924 90.1364 256.481 90.1364ZM261.727 86.0625V90H260.721V83.4545H261.693V84.4773H261.778C261.931 84.1449 262.164 83.8778 262.477 83.6761C262.789 83.4716 263.193 83.3693 263.687 83.3693C264.13 83.3693 264.518 83.4602 264.85 83.642C265.183 83.821 265.441 84.0938 265.626 84.4602C265.811 84.8239 265.903 85.2841 265.903 85.8409V90H264.897V85.9091C264.897 85.3949 264.764 84.9943 264.497 84.7074C264.23 84.4176 263.863 84.2727 263.397 84.2727C263.076 84.2727 262.789 84.3423 262.537 84.4815C262.287 84.6207 262.089 84.8239 261.944 85.0909C261.799 85.358 261.727 85.6818 261.727 86.0625ZM272.121 81.2727V90H271.116V81.2727H272.121ZM273.963 90V83.4545H274.969V90H273.963ZM274.015 82.5682L275.054 80.5909H276.23L274.901 82.5682H274.015ZM277.817 86.0625V90H276.811V83.4545H277.783V84.4773H277.868C278.021 84.1449 278.254 83.8778 278.567 83.6761C278.879 83.4716 279.283 83.3693 279.777 83.3693C280.22 83.3693 280.608 83.4602 280.94 83.642C281.273 83.821 281.531 84.0938 281.716 84.4602C281.901 84.8239 281.993 85.2841 281.993 85.8409V90H280.987V85.9091C280.987 85.3949 280.854 84.9943 280.587 84.7074C280.32 84.4176 279.953 84.2727 279.487 84.2727C279.166 84.2727 278.879 84.3423 278.626 84.4815C278.376 84.6207 278.179 84.8239 278.034 85.0909C277.889 85.358 277.817 85.6818 277.817 86.0625ZM286.575 90.1364C285.944 90.1364 285.4 89.9972 284.943 89.7188C284.488 89.4375 284.137 89.0455 283.89 88.5426C283.646 88.0369 283.524 87.4489 283.524 86.7784C283.524 86.108 283.646 85.517 283.89 85.0057C284.137 84.4915 284.481 84.0909 284.922 83.804C285.365 83.5142 285.882 83.3693 286.473 83.3693C286.814 83.3693 287.15 83.4261 287.483 83.5398C287.815 83.6534 288.118 83.8381 288.39 84.0938C288.663 84.3466 288.88 84.6818 289.042 85.0994C289.204 85.517 289.285 86.0312 289.285 86.642V87.0682H284.24V86.1989H288.262C288.262 85.8295 288.189 85.5 288.041 85.2102C287.896 84.9205 287.689 84.6918 287.419 84.5241C287.152 84.3565 286.836 84.2727 286.473 84.2727C286.072 84.2727 285.725 84.3722 285.433 84.571C285.143 84.767 284.92 85.0227 284.764 85.3381C284.608 85.6534 284.529 85.9915 284.529 86.3523V86.9318C284.529 87.4261 284.615 87.8452 284.785 88.1889C284.958 88.5298 285.199 88.7898 285.505 88.9688C285.812 89.1449 286.169 89.233 286.575 89.233C286.839 89.233 287.078 89.196 287.291 89.1222C287.507 89.0455 287.693 88.9318 287.849 88.7812C288.005 88.6278 288.126 88.4375 288.211 88.2102L289.183 88.483C289.081 88.8125 288.909 89.1023 288.667 89.3523C288.426 89.5994 288.127 89.7926 287.772 89.9318C287.417 90.0682 287.018 90.1364 286.575 90.1364ZM292.741 90.1534C292.326 90.1534 291.95 90.0753 291.612 89.919C291.274 89.7599 291.005 89.5312 290.806 89.233C290.608 88.9318 290.508 88.5682 290.508 88.142C290.508 87.767 290.582 87.4631 290.73 87.2301C290.877 86.9943 291.075 86.8097 291.322 86.6761C291.569 86.5426 291.842 86.4432 292.14 86.3778C292.441 86.3097 292.744 86.2557 293.048 86.2159C293.446 86.1648 293.768 86.1264 294.015 86.1009C294.265 86.0724 294.447 86.0256 294.561 85.9602C294.677 85.8949 294.735 85.7812 294.735 85.6193V85.5852C294.735 85.1648 294.62 84.8381 294.39 84.6051C294.163 84.3722 293.818 84.2557 293.355 84.2557C292.875 84.2557 292.498 84.3608 292.225 84.571C291.953 84.7812 291.761 85.0057 291.65 85.2443L290.696 84.9034C290.866 84.5057 291.093 84.196 291.377 83.9744C291.664 83.75 291.977 83.5937 292.315 83.5057C292.656 83.4148 292.991 83.3693 293.321 83.3693C293.531 83.3693 293.772 83.3949 294.045 83.446C294.321 83.4943 294.586 83.5952 294.842 83.7486C295.1 83.902 295.315 84.1335 295.485 84.4432C295.656 84.7528 295.741 85.1676 295.741 85.6875V90H294.735V89.1136H294.684C294.616 89.2557 294.502 89.4077 294.343 89.5696C294.184 89.7315 293.973 89.8693 293.708 89.983C293.444 90.0966 293.122 90.1534 292.741 90.1534ZM292.895 89.25C293.292 89.25 293.627 89.1719 293.9 89.0156C294.176 88.8594 294.383 88.6577 294.522 88.4105C294.664 88.1634 294.735 87.9034 294.735 87.6307V86.7102C294.693 86.7614 294.599 86.8082 294.454 86.8509C294.312 86.8906 294.147 86.9261 293.96 86.9574C293.775 86.9858 293.595 87.0114 293.419 87.0341C293.245 87.054 293.105 87.071 292.997 87.0852C292.735 87.1193 292.491 87.1747 292.264 87.2514C292.039 87.3253 291.858 87.4375 291.718 87.5881C291.582 87.7358 291.514 87.9375 291.514 88.1932C291.514 88.5426 291.643 88.8068 291.902 88.9858C292.163 89.1619 292.494 89.25 292.895 89.25Z" fill="black"/>
</g>
<defs>
<filter id="filter0_d_309_202" x="0" y="0" width="397" height="135" filterUnits="userSpaceOnUse" color-interpolation-filters="sRGB">
<feFlood flood-opacity="0" result="BackgroundImageFix"/>
<feColorMatrix in="SourceAlpha" type="matrix" values="0 0 0 0 0 0 0 0 0 0 0 0 0 0 0 0 0 0 127 0" result="hardAlpha"/>
<feOffset dy="4"/>
<feGaussianBlur stdDeviation="11.5"/>
<feComposite in2="hardAlpha" operator="out"/>
<feColorMatrix type="matrix" values="0 0 0 0 0 0 0 0 0 0 0 0 0 0 0 0 0 0 0.1 0"/>
<feBlend mode="normal" in2="BackgroundImageFix" result="effect1_dropShadow_309_202"/>
<feBlend mode="normal" in="SourceGraphic" in2="effect1_dropShadow_309_202" result="shape"/>
</filter>
</defs>
</svg>
