<svg width="381" height="119" viewBox="0 0 381 119" fill="none" xmlns="http://www.w3.org/2000/svg">
<g filter="url(#filter0_d_309_202)">
<rect x="15" y="11" width="351" height="89" rx="8" fill="white"/>
<path d="M49.1477 41V29.3636H56.7159V31.1307H51.2557V34.2898H56.3239V36.0568H51.2557V39.233H56.7614V41H49.1477ZM62.929 41.1591C62.1108 41.1591 61.3835 41.0189 60.7472 40.7386C60.1146 40.4583 59.6146 40.0682 59.2472 39.5682C58.8797 39.0682 58.6847 38.4905 58.6619 37.8352H60.7983C60.8172 38.1496 60.9214 38.4242 61.1108 38.6591C61.3002 38.8902 61.5521 39.0701 61.8665 39.1989C62.1809 39.3277 62.5331 39.392 62.9233 39.392C63.34 39.392 63.7093 39.3201 64.0312 39.1761C64.3532 39.0284 64.6051 38.8239 64.7869 38.5625C64.9688 38.3011 65.0578 38 65.054 37.6591C65.0578 37.3068 64.9669 36.9962 64.7812 36.7273C64.5956 36.4583 64.3267 36.2481 63.9744 36.0966C63.6259 35.9451 63.2055 35.8693 62.7131 35.8693H61.6847V34.2443H62.7131C63.1184 34.2443 63.4725 34.1742 63.7756 34.0341C64.0824 33.8939 64.3229 33.697 64.4972 33.4432C64.6714 33.1856 64.7566 32.8883 64.7528 32.5511C64.7566 32.2216 64.6828 31.9356 64.5312 31.6932C64.3835 31.447 64.1733 31.2557 63.9006 31.1193C63.6316 30.983 63.3153 30.9148 62.9517 30.9148C62.5956 30.9148 62.2661 30.9792 61.9631 31.108C61.66 31.2367 61.4157 31.4205 61.2301 31.6591C61.0445 31.8939 60.946 32.1742 60.9347 32.5H58.9062C58.9214 31.8485 59.1089 31.2765 59.4688 30.7841C59.8324 30.2879 60.3172 29.9015 60.9233 29.625C61.5294 29.3447 62.2093 29.2045 62.9631 29.2045C63.7396 29.2045 64.4138 29.3504 64.9858 29.642C65.5616 29.9299 66.0066 30.3182 66.321 30.8068C66.6354 31.2955 66.7926 31.8352 66.7926 32.4261C66.7964 33.0814 66.6032 33.6307 66.2131 34.0739C65.8267 34.517 65.3191 34.8068 64.6903 34.9432V35.0341C65.5085 35.1477 66.1354 35.4508 66.571 35.9432C67.0104 36.4318 67.2282 37.0398 67.2244 37.767C67.2244 38.4186 67.0388 39.0019 66.6676 39.517C66.3002 40.0284 65.7926 40.4299 65.1449 40.7216C64.5009 41.0133 63.7623 41.1591 62.929 41.1591ZM73.2571 41V29.3636H77.7116C78.5526 29.3636 79.2514 29.4962 79.8082 29.7614C80.3688 30.0227 80.7874 30.3807 81.0639 30.8352C81.3442 31.2898 81.4844 31.8049 81.4844 32.3807C81.4844 32.8542 81.3935 33.2595 81.2116 33.5966C81.0298 33.9299 80.7855 34.2008 80.4787 34.4091C80.1719 34.6174 79.8291 34.767 79.4503 34.858V34.9716C79.8632 34.9943 80.259 35.1212 80.6378 35.3523C81.0204 35.5795 81.3329 35.9015 81.5753 36.3182C81.8177 36.7348 81.9389 37.2386 81.9389 37.8295C81.9389 38.4318 81.7931 38.9735 81.5014 39.4545C81.2098 39.9318 80.7704 40.3087 80.1832 40.5852C79.5961 40.8617 78.8575 41 77.9673 41H73.2571ZM75.3651 39.2386H77.6321C78.3973 39.2386 78.9484 39.0928 79.2855 38.8011C79.6264 38.5057 79.7969 38.1269 79.7969 37.6648C79.7969 37.3201 79.7116 37.0095 79.5412 36.733C79.3707 36.4527 79.1283 36.233 78.8139 36.0739C78.4995 35.911 78.1245 35.8295 77.6889 35.8295H75.3651V39.2386ZM75.3651 34.3125H77.4503C77.8139 34.3125 78.1416 34.2462 78.4332 34.1136C78.7249 33.9773 78.9541 33.786 79.1207 33.5398C79.2912 33.2898 79.3764 32.9943 79.3764 32.6534C79.3764 32.2027 79.2173 31.8314 78.8991 31.5398C78.5848 31.2481 78.117 31.1023 77.4957 31.1023H75.3651V34.3125ZM87.5455 41.1705C86.6705 41.1705 85.9148 40.9886 85.2784 40.625C84.6458 40.2576 84.1591 39.7386 83.8182 39.0682C83.4773 38.3939 83.3068 37.6004 83.3068 36.6875C83.3068 35.7898 83.4773 35.0019 83.8182 34.3239C84.1629 33.642 84.6439 33.1117 85.2614 32.733C85.8788 32.3504 86.6042 32.1591 87.4375 32.1591C87.9754 32.1591 88.483 32.2462 88.9602 32.4205C89.4413 32.5909 89.8655 32.8561 90.233 33.2159C90.6042 33.5758 90.8958 34.0341 91.108 34.5909C91.3201 35.1439 91.4261 35.803 91.4261 36.5682V37.1989H84.2727V35.8125H89.4545C89.4508 35.4186 89.3655 35.0682 89.1989 34.7614C89.0322 34.4508 88.7992 34.2064 88.5 34.0284C88.2045 33.8504 87.8598 33.7614 87.4659 33.7614C87.0455 33.7614 86.6761 33.8636 86.358 34.0682C86.0398 34.2689 85.7917 34.5341 85.6136 34.8636C85.4394 35.1894 85.3504 35.5473 85.3466 35.9375V37.1477C85.3466 37.6553 85.4394 38.0909 85.625 38.4545C85.8106 38.8144 86.0701 39.0909 86.4034 39.2841C86.7367 39.4735 87.1269 39.5682 87.5739 39.5682C87.8731 39.5682 88.1439 39.5265 88.3864 39.4432C88.6288 39.3561 88.839 39.2292 89.017 39.0625C89.1951 38.8958 89.3295 38.6894 89.4205 38.4432L91.3409 38.6591C91.2197 39.1667 90.9886 39.6098 90.6477 39.9886C90.3106 40.3636 89.8788 40.6553 89.3523 40.8636C88.8258 41.0682 88.2235 41.1705 87.5455 41.1705ZM96.4048 41.1534C95.7192 41.1534 95.1056 40.9773 94.5639 40.625C94.0223 40.2727 93.5942 39.7614 93.2798 39.0909C92.9654 38.4205 92.8082 37.6061 92.8082 36.6477C92.8082 35.678 92.9673 34.8598 93.2855 34.1932C93.6075 33.5227 94.0412 33.017 94.5866 32.6761C95.1321 32.3314 95.7401 32.1591 96.4105 32.1591C96.9219 32.1591 97.3423 32.2462 97.6719 32.4205C98.0014 32.5909 98.2628 32.7973 98.456 33.0398C98.6491 33.2784 98.7988 33.5038 98.9048 33.7159H98.9901V29.3636H101.053V41H99.0298V39.625H98.9048C98.7988 39.8371 98.6454 40.0625 98.4446 40.3011C98.2438 40.536 97.9787 40.7367 97.6491 40.9034C97.3196 41.0701 96.9048 41.1534 96.4048 41.1534ZM96.9787 39.4659C97.4143 39.4659 97.7855 39.3485 98.0923 39.1136C98.3991 38.875 98.6321 38.5436 98.7912 38.1193C98.9503 37.6951 99.0298 37.2008 99.0298 36.6364C99.0298 36.072 98.9503 35.5814 98.7912 35.1648C98.6359 34.7481 98.4048 34.4242 98.098 34.1932C97.795 33.9621 97.4219 33.8466 96.9787 33.8466C96.5204 33.8466 96.1378 33.9659 95.831 34.2045C95.5241 34.4432 95.2931 34.7727 95.1378 35.1932C94.9825 35.6136 94.9048 36.0947 94.9048 36.6364C94.9048 37.1818 94.9825 37.6686 95.1378 38.0966C95.2969 38.5208 95.5298 38.8561 95.8366 39.1023C96.1473 39.3447 96.5279 39.4659 96.9787 39.4659ZM108.807 37.3295V32.2727H110.864V41H108.869V39.4489H108.778C108.581 39.9375 108.258 40.3371 107.807 40.6477C107.36 40.9583 106.809 41.1136 106.153 41.1136C105.581 41.1136 105.076 40.9867 104.636 40.733C104.201 40.4754 103.86 40.1023 103.614 39.6136C103.367 39.1212 103.244 38.5265 103.244 37.8295V32.2727H105.301V37.5114C105.301 38.0644 105.453 38.5038 105.756 38.8295C106.059 39.1553 106.456 39.3182 106.949 39.3182C107.252 39.3182 107.545 39.2443 107.83 39.0966C108.114 38.9489 108.347 38.7292 108.528 38.4375C108.714 38.142 108.807 37.7727 108.807 37.3295Z" fill="#363636"/>
<path d="M51.75 67H49.0568V58.2727H51.8693C52.7159 58.2727 53.4403 58.4474 54.0426 58.7969C54.6449 59.1435 55.1065 59.642 55.4276 60.2926C55.7486 60.9403 55.9091 61.7159 55.9091 62.6193C55.9091 63.5284 55.7472 64.3111 55.4233 64.9673C55.0994 65.6207 54.6278 66.1236 54.0085 66.4759C53.3892 66.8253 52.6364 67 51.75 67ZM50.1136 66.0625H51.6818C52.4034 66.0625 53.0014 65.9233 53.4759 65.6449C53.9503 65.3665 54.304 64.9702 54.5369 64.456C54.7699 63.9418 54.8864 63.3295 54.8864 62.6193C54.8864 61.9148 54.7713 61.3082 54.5412 60.7997C54.3111 60.2884 53.9673 59.8963 53.5099 59.6236C53.0526 59.348 52.483 59.2102 51.8011 59.2102H50.1136V66.0625ZM57.5455 60.4545H58.5511V67.4773C58.5511 67.8807 58.4815 68.2301 58.3423 68.5256C58.206 68.821 57.9986 69.0497 57.7202 69.2116C57.4446 69.3736 57.0966 69.4545 56.6761 69.4545C56.642 69.4545 56.608 69.4545 56.5739 69.4545C56.5398 69.4545 56.5057 69.4545 56.4716 69.4545V68.517C56.5057 68.517 56.5369 68.517 56.5653 68.517C56.5938 68.517 56.625 68.517 56.6591 68.517C56.9659 68.517 57.1903 68.4261 57.3324 68.2443C57.4744 68.0653 57.5455 67.8097 57.5455 67.4773V60.4545ZM58.0398 59.3636C57.8438 59.3636 57.6747 59.2969 57.5327 59.1634C57.3935 59.0298 57.3239 58.8693 57.3239 58.6818C57.3239 58.4943 57.3935 58.3338 57.5327 58.2003C57.6747 58.0668 57.8438 58 58.0398 58C58.2358 58 58.4034 58.0668 58.5426 58.2003C58.6847 58.3338 58.7557 58.4943 58.7557 58.6818C58.7557 58.8693 58.6847 59.0298 58.5426 59.1634C58.4034 59.2969 58.2358 59.3636 58.0398 59.3636ZM62.3192 67.1534C61.9045 67.1534 61.5281 67.0753 61.19 66.919C60.8519 66.7599 60.5835 66.5312 60.3846 66.233C60.1857 65.9318 60.0863 65.5682 60.0863 65.142C60.0863 64.767 60.1602 64.4631 60.3079 64.2301C60.4556 63.9943 60.6531 63.8097 60.9002 63.6761C61.1474 63.5426 61.4201 63.4432 61.7184 63.3778C62.0195 63.3097 62.3221 63.2557 62.6261 63.2159C63.0238 63.1648 63.3462 63.1264 63.5934 63.1009C63.8434 63.0724 64.0252 63.0256 64.1388 62.9602C64.2553 62.8949 64.3136 62.7812 64.3136 62.6193V62.5852C64.3136 62.1648 64.1985 61.8381 63.9684 61.6051C63.7411 61.3722 63.396 61.2557 62.9329 61.2557C62.4528 61.2557 62.0763 61.3608 61.8036 61.571C61.5309 61.7812 61.3391 62.0057 61.2283 62.2443L60.2738 61.9034C60.4442 61.5057 60.6715 61.196 60.9556 60.9744C61.2425 60.75 61.555 60.5937 61.8931 60.5057C62.234 60.4148 62.5692 60.3693 62.8988 60.3693C63.109 60.3693 63.3505 60.3949 63.6232 60.446C63.8988 60.4943 64.1644 60.5952 64.4201 60.7486C64.6786 60.902 64.8931 61.1335 65.0636 61.4432C65.234 61.7528 65.3192 62.1676 65.3192 62.6875V67H64.3136V66.1136H64.2624C64.1942 66.2557 64.0806 66.4077 63.9215 66.5696C63.7624 66.7315 63.5508 66.8693 63.2866 66.983C63.0224 67.0966 62.6999 67.1534 62.3192 67.1534ZM62.4727 66.25C62.8704 66.25 63.2056 66.1719 63.4783 66.0156C63.7539 65.8594 63.9613 65.6577 64.1005 65.4105C64.2425 65.1634 64.3136 64.9034 64.3136 64.6307V63.7102C64.271 63.7614 64.1772 63.8082 64.0323 63.8509C63.8903 63.8906 63.7255 63.9261 63.538 63.9574C63.3533 63.9858 63.1729 64.0114 62.9968 64.0341C62.8235 64.054 62.6829 64.071 62.5749 64.0852C62.3136 64.1193 62.0692 64.1747 61.842 64.2514C61.6175 64.3253 61.4357 64.4375 61.2965 64.5881C61.1602 64.7358 61.092 64.9375 61.092 65.1932C61.092 65.5426 61.2212 65.8068 61.4798 65.9858C61.7411 66.1619 62.0721 66.25 62.4727 66.25ZM68.1605 63.0625V67H67.1548V60.4545H68.1264V61.4773H68.2116C68.3651 61.1449 68.598 60.8778 68.9105 60.6761C69.223 60.4716 69.6264 60.3693 70.1207 60.3693C70.5639 60.3693 70.9517 60.4602 71.2841 60.642C71.6165 60.821 71.875 61.0938 72.0597 61.4602C72.2443 61.8239 72.3366 62.2841 72.3366 62.8409V67H71.331V62.9091C71.331 62.3949 71.1974 61.9943 70.9304 61.7074C70.6634 61.4176 70.2969 61.2727 69.831 61.2727C69.5099 61.2727 69.223 61.3423 68.9702 61.4815C68.7202 61.6207 68.5227 61.8239 68.3778 62.0909C68.233 62.358 68.1605 62.6818 68.1605 63.0625ZM76.8164 69.5909C76.3306 69.5909 75.913 69.5284 75.5636 69.4034C75.2141 69.2812 74.9229 69.1193 74.69 68.9176C74.4599 68.7188 74.2766 68.5057 74.1403 68.2784L74.9414 67.7159C75.0323 67.8352 75.1474 67.9716 75.2866 68.125C75.4258 68.2812 75.6161 68.4162 75.8576 68.5298C76.1019 68.6463 76.4215 68.7045 76.8164 68.7045C77.3448 68.7045 77.7809 68.5767 78.1246 68.321C78.4684 68.0653 78.6403 67.6648 78.6403 67.1193V65.7898H78.555C78.4812 65.9091 78.3761 66.0568 78.2397 66.233C78.1062 66.4062 77.913 66.5611 77.6602 66.6974C77.4102 66.831 77.0721 66.8977 76.646 66.8977C76.1175 66.8977 75.6431 66.7727 75.2227 66.5227C74.805 66.2727 74.4741 65.9091 74.2298 65.4318C73.9883 64.9545 73.8675 64.375 73.8675 63.6932C73.8675 63.0227 73.9854 62.4389 74.2212 61.9418C74.457 61.4418 74.7852 61.0554 75.2056 60.7827C75.6261 60.5071 76.1119 60.3693 76.663 60.3693C77.0891 60.3693 77.4272 60.4403 77.6772 60.5824C77.93 60.7216 78.1232 60.8807 78.2567 61.0597C78.3931 61.2358 78.4982 61.3807 78.5721 61.4943H78.6744V60.4545H79.646V67.1875C79.646 67.75 79.5181 68.2074 79.2624 68.5597C79.0096 68.9148 78.6687 69.1747 78.2397 69.3395C77.8136 69.5071 77.3391 69.5909 76.8164 69.5909ZM76.7823 65.9943C77.1857 65.9943 77.5266 65.902 77.805 65.7173C78.0835 65.5327 78.2951 65.267 78.44 64.9205C78.5849 64.5739 78.6573 64.1591 78.6573 63.6761C78.6573 63.2045 78.5863 62.7884 78.4442 62.4276C78.3022 62.0668 78.092 61.7841 77.8136 61.5795C77.5352 61.375 77.1914 61.2727 76.7823 61.2727C76.3562 61.2727 76.0011 61.3807 75.717 61.5966C75.4357 61.8125 75.2241 62.1023 75.082 62.4659C74.9428 62.8295 74.8732 63.233 74.8732 63.6761C74.8732 64.1307 74.9442 64.5327 75.0863 64.8821C75.2312 65.2287 75.4442 65.5014 75.7255 65.7003C76.0096 65.8963 76.3619 65.9943 76.7823 65.9943ZM84.146 67.1364C83.555 67.1364 83.0366 66.9957 82.5906 66.7145C82.1474 66.4332 81.8008 66.0398 81.5508 65.5341C81.3036 65.0284 81.18 64.4375 81.18 63.7614C81.18 63.0795 81.3036 62.4844 81.5508 61.9759C81.8008 61.4673 82.1474 61.0724 82.5906 60.7912C83.0366 60.5099 83.555 60.3693 84.146 60.3693C84.7369 60.3693 85.2539 60.5099 85.6971 60.7912C86.1431 61.0724 86.4897 61.4673 86.7369 61.9759C86.9869 62.4844 87.1119 63.0795 87.1119 63.7614C87.1119 64.4375 86.9869 65.0284 86.7369 65.5341C86.4897 66.0398 86.1431 66.4332 85.6971 66.7145C85.2539 66.9957 84.7369 67.1364 84.146 67.1364ZM84.146 66.233C84.5948 66.233 84.9641 66.1179 85.2539 65.8878C85.5437 65.6577 85.7582 65.3551 85.8974 64.9801C86.0366 64.6051 86.1062 64.1989 86.1062 63.7614C86.1062 63.3239 86.0366 62.9162 85.8974 62.5384C85.7582 62.1605 85.5437 61.8551 85.2539 61.6222C84.9641 61.3892 84.5948 61.2727 84.146 61.2727C83.6971 61.2727 83.3278 61.3892 83.038 61.6222C82.7482 61.8551 82.5337 62.1605 82.3945 62.5384C82.2553 62.9162 82.1857 63.3239 82.1857 63.7614C82.1857 64.1989 82.2553 64.6051 82.3945 64.9801C82.5337 65.3551 82.7482 65.6577 83.038 65.8878C83.3278 66.1179 83.6971 66.233 84.146 66.233ZM92.1584 58.2727H93.4197L96.3857 65.517H96.4879L99.4538 58.2727H100.715V67H99.7266V60.3693H99.6413L96.9141 67H95.9595L93.2322 60.3693H93.147V67H92.1584V58.2727ZM105.357 67.1364C104.766 67.1364 104.248 66.9957 103.801 66.7145C103.358 66.4332 103.012 66.0398 102.762 65.5341C102.515 65.0284 102.391 64.4375 102.391 63.7614C102.391 63.0795 102.515 62.4844 102.762 61.9759C103.012 61.4673 103.358 61.0724 103.801 60.7912C104.248 60.5099 104.766 60.3693 105.357 60.3693C105.948 60.3693 106.465 60.5099 106.908 60.7912C107.354 61.0724 107.701 61.4673 107.948 61.9759C108.198 62.4844 108.323 63.0795 108.323 63.7614C108.323 64.4375 108.198 65.0284 107.948 65.5341C107.701 66.0398 107.354 66.4332 106.908 66.7145C106.465 66.9957 105.948 67.1364 105.357 67.1364ZM105.357 66.233C105.806 66.233 106.175 66.1179 106.465 65.8878C106.755 65.6577 106.969 65.3551 107.108 64.9801C107.248 64.6051 107.317 64.1989 107.317 63.7614C107.317 63.3239 107.248 62.9162 107.108 62.5384C106.969 62.1605 106.755 61.8551 106.465 61.6222C106.175 61.3892 105.806 61.2727 105.357 61.2727C104.908 61.2727 104.539 61.3892 104.249 61.6222C103.959 61.8551 103.745 62.1605 103.605 62.5384C103.466 62.9162 103.397 63.3239 103.397 63.7614C103.397 64.1989 103.466 64.6051 103.605 64.9801C103.745 65.3551 103.959 65.6577 104.249 65.8878C104.539 66.1179 104.908 66.233 105.357 66.233ZM112.33 67.1364C111.784 67.1364 111.303 66.9986 110.885 66.723C110.467 66.4446 110.141 66.0526 109.905 65.5469C109.669 65.0384 109.551 64.4375 109.551 63.7443C109.551 63.0568 109.669 62.4602 109.905 61.9545C110.141 61.4489 110.469 61.0582 110.889 60.7827C111.31 60.5071 111.795 60.3693 112.347 60.3693C112.773 60.3693 113.109 60.4403 113.357 60.5824C113.607 60.7216 113.797 60.8807 113.928 61.0597C114.061 61.2358 114.165 61.3807 114.239 61.4943H114.324V58.2727H115.33V67H114.358V65.9943H114.239C114.165 66.1136 114.06 66.2642 113.923 66.446C113.787 66.625 113.592 66.7855 113.339 66.9276C113.087 67.0668 112.75 67.1364 112.33 67.1364ZM112.466 66.233C112.869 66.233 113.21 66.1278 113.489 65.9176C113.767 65.7045 113.979 65.4105 114.124 65.0355C114.268 64.6577 114.341 64.2216 114.341 63.7273C114.341 63.2386 114.27 62.8111 114.128 62.4446C113.986 62.0753 113.776 61.7884 113.497 61.5838C113.219 61.3764 112.875 61.2727 112.466 61.2727C112.04 61.2727 111.685 61.3821 111.401 61.6009C111.119 61.8168 110.908 62.1108 110.766 62.483C110.626 62.8523 110.557 63.267 110.557 63.7273C110.557 64.1932 110.628 64.6165 110.77 64.9972C110.915 65.375 111.128 65.6761 111.409 65.9006C111.693 66.1222 112.045 66.233 112.466 66.233ZM121.436 64.3239V60.4545H122.442V67H121.436V65.892H121.368C121.214 66.2244 120.976 66.5071 120.652 66.7401C120.328 66.9702 119.919 67.0852 119.425 67.0852C119.016 67.0852 118.652 66.9957 118.334 66.8168C118.016 66.6349 117.766 66.3622 117.584 65.9986C117.402 65.6321 117.311 65.1705 117.311 64.6136V60.4545H118.317V64.5455C118.317 65.0227 118.45 65.4034 118.717 65.6875C118.987 65.9716 119.331 66.1136 119.749 66.1136C119.999 66.1136 120.253 66.0497 120.511 65.9219C120.773 65.794 120.991 65.598 121.168 65.3338C121.347 65.0696 121.436 64.733 121.436 64.3239ZM125.289 58.2727V67H124.284V58.2727H125.289ZM129.876 67.1364C129.245 67.1364 128.701 66.9972 128.244 66.7188C127.789 66.4375 127.438 66.0455 127.191 65.5426C126.947 65.0369 126.825 64.4489 126.825 63.7784C126.825 63.108 126.947 62.517 127.191 62.0057C127.438 61.4915 127.782 61.0909 128.222 60.804C128.665 60.5142 129.183 60.3693 129.773 60.3693C130.114 60.3693 130.451 60.4261 130.783 60.5398C131.116 60.6534 131.418 60.8381 131.691 61.0938C131.964 61.3466 132.181 61.6818 132.343 62.0994C132.505 62.517 132.586 63.0312 132.586 63.642V64.0682H127.54V63.1989H131.563C131.563 62.8295 131.489 62.5 131.342 62.2102C131.197 61.9205 130.989 61.6918 130.719 61.5241C130.452 61.3565 130.137 61.2727 129.773 61.2727C129.373 61.2727 129.026 61.3722 128.734 61.571C128.444 61.767 128.221 62.0227 128.065 62.3381C127.908 62.6534 127.83 62.9915 127.83 63.3523V63.9318C127.83 64.4261 127.915 64.8452 128.086 65.1889C128.259 65.5298 128.499 65.7898 128.806 65.9688C129.113 66.1449 129.469 66.233 129.876 66.233C130.14 66.233 130.379 66.196 130.592 66.1222C130.808 66.0455 130.994 65.9318 131.15 65.7812C131.306 65.6278 131.427 65.4375 131.512 65.2102L132.484 65.483C132.381 65.8125 132.21 66.1023 131.968 66.3523C131.727 66.5994 131.428 66.7926 131.073 66.9318C130.718 67.0682 130.319 67.1364 129.876 67.1364ZM137.627 67V58.2727H142.86V59.2102H138.684V62.1591H142.468V63.0966H138.684V67H137.627ZM144.534 67V60.4545H145.539V67H144.534ZM145.045 59.3636C144.849 59.3636 144.68 59.2969 144.538 59.1634C144.399 59.0298 144.329 58.8693 144.329 58.6818C144.329 58.4943 144.399 58.3338 144.538 58.2003C144.68 58.0668 144.849 58 145.045 58C145.241 58 145.409 58.0668 145.548 58.2003C145.69 58.3338 145.761 58.4943 145.761 58.6818C145.761 58.8693 145.69 59.0298 145.548 59.1634C145.409 59.2969 145.241 59.3636 145.045 59.3636ZM148.387 63.0625V67H147.381V60.4545H148.353V61.4773H148.438C148.592 61.1449 148.825 60.8778 149.137 60.6761C149.45 60.4716 149.853 60.3693 150.347 60.3693C150.79 60.3693 151.178 60.4602 151.511 60.642C151.843 60.821 152.102 61.0938 152.286 61.4602C152.471 61.8239 152.563 62.2841 152.563 62.8409V67H151.558V62.9091C151.558 62.3949 151.424 61.9943 151.157 61.7074C150.89 61.4176 150.523 61.2727 150.058 61.2727C149.737 61.2727 149.45 61.3423 149.197 61.4815C148.947 61.6207 148.749 61.8239 148.604 62.0909C148.46 62.358 148.387 62.6818 148.387 63.0625ZM156.327 67.1534C155.912 67.1534 155.536 67.0753 155.198 66.919C154.86 66.7599 154.591 66.5312 154.392 66.233C154.194 65.9318 154.094 65.5682 154.094 65.142C154.094 64.767 154.168 64.4631 154.316 64.2301C154.463 63.9943 154.661 63.8097 154.908 63.6761C155.155 63.5426 155.428 63.4432 155.726 63.3778C156.027 63.3097 156.33 63.2557 156.634 63.2159C157.032 63.1648 157.354 63.1264 157.601 63.1009C157.851 63.0724 158.033 63.0256 158.147 62.9602C158.263 62.8949 158.321 62.7812 158.321 62.6193V62.5852C158.321 62.1648 158.206 61.8381 157.976 61.6051C157.749 61.3722 157.404 61.2557 156.941 61.2557C156.461 61.2557 156.084 61.3608 155.811 61.571C155.539 61.7812 155.347 62.0057 155.236 62.2443L154.282 61.9034C154.452 61.5057 154.679 61.196 154.963 60.9744C155.25 60.75 155.563 60.5937 155.901 60.5057C156.242 60.4148 156.577 60.3693 156.907 60.3693C157.117 60.3693 157.358 60.3949 157.631 60.446C157.907 60.4943 158.172 60.5952 158.428 60.7486C158.686 60.902 158.901 61.1335 159.071 61.4432C159.242 61.7528 159.327 62.1676 159.327 62.6875V67H158.321V66.1136H158.27C158.202 66.2557 158.088 66.4077 157.929 66.5696C157.77 66.7315 157.559 66.8693 157.294 66.983C157.03 67.0966 156.708 67.1534 156.327 67.1534ZM156.48 66.25C156.878 66.25 157.213 66.1719 157.486 66.0156C157.762 65.8594 157.969 65.6577 158.108 65.4105C158.25 65.1634 158.321 64.9034 158.321 64.6307V63.7102C158.279 63.7614 158.185 63.8082 158.04 63.8509C157.898 63.8906 157.733 63.9261 157.546 63.9574C157.361 63.9858 157.181 64.0114 157.005 64.0341C156.831 64.054 156.691 64.071 156.583 64.0852C156.321 64.1193 156.077 64.1747 155.85 64.2514C155.625 64.3253 155.444 64.4375 155.304 64.5881C155.168 64.7358 155.1 64.9375 155.1 65.1932C155.1 65.5426 155.229 65.8068 155.488 65.9858C155.749 66.1619 156.08 66.25 156.48 66.25ZM162.168 58.2727V67H161.163V58.2727H162.168ZM167.522 67V58.2727H170.471C171.155 58.2727 171.715 58.3963 172.15 58.6435C172.587 58.8878 172.911 59.2188 173.121 59.6364C173.331 60.054 173.436 60.5199 173.436 61.0341C173.436 61.5483 173.331 62.0156 173.121 62.4361C172.914 62.8565 172.593 63.1918 172.158 63.4418C171.723 63.6889 171.167 63.8125 170.488 63.8125H168.374V62.875H170.453C170.922 62.875 171.299 62.794 171.583 62.6321C171.867 62.4702 172.073 62.2514 172.201 61.9759C172.331 61.6974 172.397 61.3835 172.397 61.0341C172.397 60.6847 172.331 60.3722 172.201 60.0966C172.073 59.821 171.865 59.6051 171.578 59.4489C171.292 59.2898 170.911 59.2102 170.436 59.2102H168.578V67H167.522ZM175.002 67V60.4545H175.974V61.4432H176.042C176.162 61.1193 176.377 60.8565 176.69 60.6548C177.002 60.4531 177.355 60.3523 177.747 60.3523C177.821 60.3523 177.913 60.3537 178.024 60.3565C178.135 60.3594 178.218 60.3636 178.275 60.3693V61.392C178.241 61.3835 178.163 61.3707 178.041 61.3537C177.922 61.3338 177.795 61.3239 177.662 61.3239C177.343 61.3239 177.059 61.3906 176.809 61.5241C176.562 61.6548 176.366 61.8366 176.221 62.0696C176.079 62.2997 176.008 62.5625 176.008 62.858V67H175.002ZM181.927 67.1364C181.336 67.1364 180.818 66.9957 180.372 66.7145C179.929 66.4332 179.582 66.0398 179.332 65.5341C179.085 65.0284 178.961 64.4375 178.961 63.7614C178.961 63.0795 179.085 62.4844 179.332 61.9759C179.582 61.4673 179.929 61.0724 180.372 60.7912C180.818 60.5099 181.336 60.3693 181.927 60.3693C182.518 60.3693 183.035 60.5099 183.478 60.7912C183.924 61.0724 184.271 61.4673 184.518 61.9759C184.768 62.4844 184.893 63.0795 184.893 63.7614C184.893 64.4375 184.768 65.0284 184.518 65.5341C184.271 66.0398 183.924 66.4332 183.478 66.7145C183.035 66.9957 182.518 67.1364 181.927 67.1364ZM181.927 66.233C182.376 66.233 182.745 66.1179 183.035 65.8878C183.325 65.6577 183.539 65.3551 183.679 64.9801C183.818 64.6051 183.887 64.1989 183.887 63.7614C183.887 63.3239 183.818 62.9162 183.679 62.5384C183.539 62.1605 183.325 61.8551 183.035 61.6222C182.745 61.3892 182.376 61.2727 181.927 61.2727C181.478 61.2727 181.109 61.3892 180.819 61.6222C180.529 61.8551 180.315 62.1605 180.176 62.5384C180.037 62.9162 179.967 63.3239 179.967 63.7614C179.967 64.1989 180.037 64.6051 180.176 64.9801C180.315 65.3551 180.529 65.6577 180.819 65.8878C181.109 66.1179 181.478 66.233 181.927 66.233ZM186.428 60.4545H187.434V67.4773C187.434 67.8807 187.364 68.2301 187.225 68.5256C187.089 68.821 186.881 69.0497 186.603 69.2116C186.327 69.3736 185.979 69.4545 185.559 69.4545C185.525 69.4545 185.491 69.4545 185.457 69.4545C185.423 69.4545 185.388 69.4545 185.354 69.4545V68.517C185.388 68.517 185.42 68.517 185.448 68.517C185.477 68.517 185.508 68.517 185.542 68.517C185.849 68.517 186.073 68.4261 186.215 68.2443C186.357 68.0653 186.428 67.8097 186.428 67.4773V60.4545ZM186.923 59.3636C186.727 59.3636 186.558 59.2969 186.415 59.1634C186.276 59.0298 186.207 58.8693 186.207 58.6818C186.207 58.4943 186.276 58.3338 186.415 58.2003C186.558 58.0668 186.727 58 186.923 58C187.119 58 187.286 58.0668 187.425 58.2003C187.567 58.3338 187.638 58.4943 187.638 58.6818C187.638 58.8693 187.567 59.0298 187.425 59.1634C187.286 59.2969 187.119 59.3636 186.923 59.3636ZM192.02 67.1364C191.39 67.1364 190.846 66.9972 190.388 66.7188C189.934 66.4375 189.583 66.0455 189.336 65.5426C189.091 65.0369 188.969 64.4489 188.969 63.7784C188.969 63.108 189.091 62.517 189.336 62.0057C189.583 61.4915 189.926 61.0909 190.367 60.804C190.81 60.5142 191.327 60.3693 191.918 60.3693C192.259 60.3693 192.596 60.4261 192.928 60.5398C193.26 60.6534 193.563 60.8381 193.836 61.0938C194.108 61.3466 194.326 61.6818 194.488 62.0994C194.65 62.517 194.73 63.0312 194.73 63.642V64.0682H189.685V63.1989H193.708C193.708 62.8295 193.634 62.5 193.486 62.2102C193.341 61.9205 193.134 61.6918 192.864 61.5241C192.597 61.3565 192.282 61.2727 191.918 61.2727C191.517 61.2727 191.171 61.3722 190.878 61.571C190.588 61.767 190.365 62.0227 190.209 62.3381C190.053 62.6534 189.975 62.9915 189.975 63.3523V63.9318C189.975 64.4261 190.06 64.8452 190.23 65.1889C190.404 65.5298 190.644 65.7898 190.951 65.9688C191.257 66.1449 191.614 66.233 192.02 66.233C192.284 66.233 192.523 66.196 192.736 66.1222C192.952 66.0455 193.138 65.9318 193.294 65.7812C193.451 65.6278 193.571 65.4375 193.657 65.2102L194.628 65.483C194.526 65.8125 194.354 66.1023 194.113 66.3523C193.871 66.5994 193.573 66.7926 193.218 66.9318C192.863 67.0682 192.463 67.1364 192.02 67.1364ZM198.919 67.1364C198.306 67.1364 197.777 66.9915 197.334 66.7017C196.891 66.4119 196.55 66.0128 196.311 65.5043C196.073 64.9957 195.953 64.4148 195.953 63.7614C195.953 63.0966 196.076 62.5099 196.32 62.0014C196.567 61.4901 196.911 61.0909 197.351 60.804C197.794 60.5142 198.311 60.3693 198.902 60.3693C199.363 60.3693 199.777 60.4545 200.147 60.625C200.516 60.7955 200.819 61.0341 201.054 61.3409C201.29 61.6477 201.436 62.0057 201.493 62.4148H200.488C200.411 62.1165 200.24 61.8523 199.976 61.6222C199.715 61.3892 199.363 61.2727 198.919 61.2727C198.527 61.2727 198.184 61.375 197.888 61.5795C197.596 61.7812 197.367 62.0668 197.202 62.4361C197.04 62.8026 196.959 63.233 196.959 63.7273C196.959 64.233 197.039 64.6733 197.198 65.0483C197.36 65.4233 197.587 65.7145 197.88 65.9219C198.175 66.1293 198.522 66.233 198.919 66.233C199.181 66.233 199.418 66.1875 199.631 66.0966C199.844 66.0057 200.025 65.875 200.172 65.7045C200.32 65.5341 200.425 65.3295 200.488 65.0909H201.493C201.436 65.4773 201.296 65.8253 201.071 66.1349C200.85 66.4418 200.556 66.6861 200.189 66.8679C199.826 67.0469 199.402 67.1364 198.919 67.1364ZM205.81 60.4545V61.3068H202.418V60.4545H205.81ZM203.407 58.8864H204.412V65.125C204.412 65.4091 204.453 65.6222 204.536 65.7642C204.621 65.9034 204.729 65.9972 204.86 66.0455C204.993 66.0909 205.134 66.1136 205.282 66.1136C205.392 66.1136 205.483 66.108 205.554 66.0966C205.625 66.0824 205.682 66.071 205.725 66.0625L205.929 66.9659C205.861 66.9915 205.766 67.017 205.644 67.0426C205.522 67.071 205.367 67.0852 205.179 67.0852C204.895 67.0852 204.617 67.0241 204.344 66.902C204.074 66.7798 203.85 66.5938 203.671 66.3438C203.495 66.0938 203.407 65.7784 203.407 65.3977V58.8864ZM208.056 67.0682C207.846 67.0682 207.665 66.9929 207.515 66.8423C207.364 66.6918 207.289 66.5114 207.289 66.3011C207.289 66.0909 207.364 65.9105 207.515 65.7599C207.665 65.6094 207.846 65.5341 208.056 65.5341C208.266 65.5341 208.446 65.6094 208.597 65.7599C208.748 65.9105 208.823 66.0909 208.823 66.3011C208.823 66.4403 208.787 66.5682 208.716 66.6847C208.648 66.8011 208.556 66.8949 208.439 66.9659C208.326 67.0341 208.198 67.0682 208.056 67.0682ZM208.056 62.2102C207.846 62.2102 207.665 62.1349 207.515 61.9844C207.364 61.8338 207.289 61.6534 207.289 61.4432C207.289 61.233 207.364 61.0526 207.515 60.902C207.665 60.7514 207.846 60.6761 208.056 60.6761C208.266 60.6761 208.446 60.7514 208.597 60.902C208.748 61.0526 208.823 61.233 208.823 61.4432C208.823 61.5824 208.787 61.7102 208.716 61.8267C208.648 61.9432 208.556 62.0369 208.439 62.108C208.326 62.1761 208.198 62.2102 208.056 62.2102ZM214.139 67V58.2727H219.406V59.2102H215.196V62.1591H219.133V63.0966H215.196V66.0625H219.474V67H214.139ZM224.106 67.1193C223.544 67.1193 223.042 67.0227 222.602 66.8295C222.164 66.6364 221.816 66.3679 221.558 66.0241C221.302 65.6776 221.163 65.2756 221.14 64.8182H222.214C222.237 65.0994 222.333 65.3423 222.504 65.5469C222.674 65.7486 222.897 65.9048 223.173 66.0156C223.449 66.1264 223.754 66.1818 224.089 66.1818C224.464 66.1818 224.797 66.1165 225.086 65.9858C225.376 65.8551 225.603 65.6733 225.768 65.4403C225.933 65.2074 226.015 64.9375 226.015 64.6307C226.015 64.3097 225.936 64.027 225.777 63.7827C225.618 63.5355 225.385 63.3423 225.078 63.2031C224.771 63.0639 224.396 62.9943 223.953 62.9943H223.254V62.0568H223.953C224.299 62.0568 224.603 61.9943 224.865 61.8693C225.129 61.7443 225.335 61.5682 225.483 61.3409C225.633 61.1136 225.708 60.8466 225.708 60.5398C225.708 60.2443 225.643 59.9872 225.512 59.7685C225.382 59.5497 225.197 59.3793 224.958 59.2571C224.723 59.1349 224.444 59.0739 224.123 59.0739C223.822 59.0739 223.538 59.1293 223.271 59.2401C223.007 59.348 222.791 59.5057 222.623 59.7131C222.456 59.9176 222.365 60.1648 222.35 60.4545H221.328C221.345 59.9972 221.483 59.5966 221.741 59.2528C222 58.9062 222.338 58.6364 222.755 58.4432C223.176 58.25 223.637 58.1534 224.14 58.1534C224.68 58.1534 225.143 58.2628 225.529 58.4815C225.916 58.6974 226.213 58.983 226.42 59.3381C226.627 59.6932 226.731 60.0767 226.731 60.4886C226.731 60.9801 226.602 61.3991 226.343 61.7457C226.088 62.0923 225.74 62.3324 225.299 62.4659V62.5341C225.85 62.625 226.281 62.8594 226.591 63.2372C226.9 63.6122 227.055 64.0767 227.055 64.6307C227.055 65.1051 226.926 65.5312 226.667 65.9091C226.412 66.2841 226.062 66.5795 225.619 66.7955C225.176 67.0114 224.672 67.1193 224.106 67.1193ZM232.326 67V58.2727H233.383V66.0625H237.44V67H232.326ZM238.94 67V60.4545H239.946V67H238.94ZM239.451 59.3636C239.255 59.3636 239.086 59.2969 238.944 59.1634C238.805 59.0298 238.735 58.8693 238.735 58.6818C238.735 58.4943 238.805 58.3338 238.944 58.2003C239.086 58.0668 239.255 58 239.451 58C239.647 58 239.815 58.0668 239.954 58.2003C240.096 58.3338 240.167 58.4943 240.167 58.6818C240.167 58.8693 240.096 59.0298 239.954 59.1634C239.815 59.2969 239.647 59.3636 239.451 59.3636ZM247.14 60.4545L244.719 67H243.697L241.276 60.4545H242.367L244.174 65.6705H244.242L246.049 60.4545H247.14ZM250.977 67.1364C250.347 67.1364 249.803 66.9972 249.345 66.7188C248.891 66.4375 248.54 66.0455 248.293 65.5426C248.048 65.0369 247.926 64.4489 247.926 63.7784C247.926 63.108 248.048 62.517 248.293 62.0057C248.54 61.4915 248.884 61.0909 249.324 60.804C249.767 60.5142 250.284 60.3693 250.875 60.3693C251.216 60.3693 251.553 60.4261 251.885 60.5398C252.217 60.6534 252.52 60.8381 252.793 61.0938C253.065 61.3466 253.283 61.6818 253.445 62.0994C253.607 62.517 253.688 63.0312 253.688 63.642V64.0682H248.642V63.1989H252.665C252.665 62.8295 252.591 62.5 252.443 62.2102C252.298 61.9205 252.091 61.6918 251.821 61.5241C251.554 61.3565 251.239 61.2727 250.875 61.2727C250.474 61.2727 250.128 61.3722 249.835 61.571C249.545 61.767 249.322 62.0227 249.166 62.3381C249.01 62.6534 248.932 62.9915 248.932 63.3523V63.9318C248.932 64.4261 249.017 64.8452 249.188 65.1889C249.361 65.5298 249.601 65.7898 249.908 65.9688C250.214 66.1449 250.571 66.233 250.977 66.233C251.241 66.233 251.48 66.196 251.693 66.1222C251.909 66.0455 252.095 65.9318 252.251 65.7812C252.408 65.6278 252.528 65.4375 252.614 65.2102L253.585 65.483C253.483 65.8125 253.311 66.1023 253.07 66.3523C252.828 66.5994 252.53 66.7926 252.175 66.9318C251.82 67.0682 251.42 67.1364 250.977 67.1364ZM258.729 67V58.2727H263.996V59.2102H259.786V62.1591H263.723V63.0966H259.786V66.0625H264.064V67H258.729ZM271.116 60.4545L268.696 67H267.673L265.253 60.4545H266.344L268.151 65.6705H268.219L270.026 60.4545H271.116ZM274.954 67.1364C274.323 67.1364 273.779 66.9972 273.322 66.7188C272.867 66.4375 272.516 66.0455 272.269 65.5426C272.025 65.0369 271.903 64.4489 271.903 63.7784C271.903 63.108 272.025 62.517 272.269 62.0057C272.516 61.4915 272.86 61.0909 273.3 60.804C273.744 60.5142 274.261 60.3693 274.852 60.3693C275.192 60.3693 275.529 60.4261 275.862 60.5398C276.194 60.6534 276.496 60.8381 276.769 61.0938C277.042 61.3466 277.259 61.6818 277.421 62.0994C277.583 62.517 277.664 63.0312 277.664 63.642V64.0682H272.619V63.1989H276.641C276.641 62.8295 276.567 62.5 276.42 62.2102C276.275 61.9205 276.067 61.6918 275.798 61.5241C275.531 61.3565 275.215 61.2727 274.852 61.2727C274.451 61.2727 274.104 61.3722 273.812 61.571C273.522 61.767 273.299 62.0227 273.143 62.3381C272.987 62.6534 272.908 62.9915 272.908 63.3523V63.9318C272.908 64.4261 272.994 64.8452 273.164 65.1889C273.337 65.5298 273.577 65.7898 273.884 65.9688C274.191 66.1449 274.548 66.233 274.954 66.233C275.218 66.233 275.457 66.196 275.67 66.1222C275.886 66.0455 276.072 65.9318 276.228 65.7812C276.384 65.6278 276.505 65.4375 276.59 65.2102L277.562 65.483C277.46 65.8125 277.288 66.1023 277.046 66.3523C276.805 66.5994 276.506 66.7926 276.151 66.9318C275.796 67.0682 275.397 67.1364 274.954 67.1364ZM280.2 63.0625V67H279.194V60.4545H280.165V61.4773H280.251C280.404 61.1449 280.637 60.8778 280.95 60.6761C281.262 60.4716 281.665 60.3693 282.16 60.3693C282.603 60.3693 282.991 60.4602 283.323 60.642C283.656 60.821 283.914 61.0938 284.099 61.4602C284.283 61.8239 284.376 62.2841 284.376 62.8409V67H283.37V62.9091C283.37 62.3949 283.237 61.9943 282.969 61.7074C282.702 61.4176 282.336 61.2727 281.87 61.2727C281.549 61.2727 281.262 61.3423 281.009 61.4815C280.759 61.6207 280.562 61.8239 280.417 62.0909C280.272 62.358 280.2 62.6818 280.2 63.0625ZM289.06 60.4545V61.3068H285.668V60.4545H289.06ZM286.657 58.8864H287.662V65.125C287.662 65.4091 287.703 65.6222 287.786 65.7642C287.871 65.9034 287.979 65.9972 288.11 66.0455C288.243 66.0909 288.384 66.1136 288.532 66.1136C288.642 66.1136 288.733 66.108 288.804 66.0966C288.875 66.0824 288.932 66.071 288.975 66.0625L289.179 66.9659C289.111 66.9915 289.016 67.017 288.894 67.0426C288.772 67.071 288.617 67.0852 288.429 67.0852C288.145 67.0852 287.867 67.0241 287.594 66.902C287.324 66.7798 287.1 66.5938 286.921 66.3438C286.745 66.0938 286.657 65.7784 286.657 65.3977V58.8864ZM295.669 67L293.283 58.2727H294.357L296.181 65.3807H296.266L298.124 58.2727H299.317L301.175 65.3807H301.26L303.084 58.2727H304.158L301.772 67H300.681L298.755 60.0455H298.686L296.76 67H295.669ZM307.473 67.1364C306.843 67.1364 306.299 66.9972 305.841 66.7188C305.387 66.4375 305.036 66.0455 304.789 65.5426C304.544 65.0369 304.422 64.4489 304.422 63.7784C304.422 63.108 304.544 62.517 304.789 62.0057C305.036 61.4915 305.38 61.0909 305.82 60.804C306.263 60.5142 306.78 60.3693 307.371 60.3693C307.712 60.3693 308.049 60.4261 308.381 60.5398C308.713 60.6534 309.016 60.8381 309.289 61.0938C309.561 61.3466 309.779 61.6818 309.941 62.0994C310.103 62.517 310.184 63.0312 310.184 63.642V64.0682H305.138V63.1989H309.161C309.161 62.8295 309.087 62.5 308.939 62.2102C308.794 61.9205 308.587 61.6918 308.317 61.5241C308.05 61.3565 307.735 61.2727 307.371 61.2727C306.971 61.2727 306.624 61.3722 306.331 61.571C306.042 61.767 305.819 62.0227 305.662 62.3381C305.506 62.6534 305.428 62.9915 305.428 63.3523V63.9318C305.428 64.4261 305.513 64.8452 305.684 65.1889C305.857 65.5298 306.097 65.7898 306.404 65.9688C306.711 66.1449 307.067 66.233 307.473 66.233C307.738 66.233 307.976 66.196 308.189 66.1222C308.405 66.0455 308.591 65.9318 308.748 65.7812C308.904 65.6278 309.025 65.4375 309.11 65.2102L310.081 65.483C309.979 65.8125 309.807 66.1023 309.566 66.3523C309.324 66.5994 309.026 66.7926 308.671 66.9318C308.316 67.0682 307.917 67.1364 307.473 67.1364ZM311.85 67V58.2727H312.855V61.4943H312.941C313.015 61.3807 313.117 61.2358 313.248 61.0597C313.381 60.8807 313.571 60.7216 313.819 60.5824C314.069 60.4403 314.407 60.3693 314.833 60.3693C315.384 60.3693 315.87 60.5071 316.29 60.7827C316.711 61.0582 317.039 61.4489 317.275 61.9545C317.51 62.4602 317.628 63.0568 317.628 63.7443C317.628 64.4375 317.51 65.0384 317.275 65.5469C317.039 66.0526 316.712 66.4446 316.294 66.723C315.877 66.9986 315.395 67.1364 314.85 67.1364C314.429 67.1364 314.093 67.0668 313.84 66.9276C313.587 66.7855 313.392 66.625 313.256 66.446C313.12 66.2642 313.015 66.1136 312.941 65.9943H312.821V67H311.85ZM312.838 63.7273C312.838 64.2216 312.911 64.6577 313.056 65.0355C313.201 65.4105 313.412 65.7045 313.691 65.9176C313.969 66.1278 314.31 66.233 314.713 66.233C315.134 66.233 315.485 66.1222 315.766 65.9006C316.05 65.6761 316.263 65.375 316.405 64.9972C316.55 64.6165 316.623 64.1932 316.623 63.7273C316.623 63.267 316.551 62.8523 316.409 62.483C316.27 62.1108 316.059 61.8168 315.775 61.6009C315.493 61.3821 315.14 61.2727 314.713 61.2727C314.304 61.2727 313.961 61.3764 313.682 61.5838C313.404 61.7884 313.194 62.0753 313.051 62.4446C312.909 62.8111 312.838 63.2386 312.838 63.7273ZM323.803 61.9205L322.9 62.1761C322.843 62.0256 322.759 61.8793 322.648 61.7372C322.54 61.5923 322.392 61.473 322.205 61.3793C322.017 61.2855 321.777 61.2386 321.485 61.2386C321.084 61.2386 320.75 61.331 320.483 61.5156C320.219 61.6974 320.087 61.929 320.087 62.2102C320.087 62.4602 320.178 62.6577 320.36 62.8026C320.542 62.9474 320.826 63.0682 321.212 63.1648L322.184 63.4034C322.769 63.5455 323.205 63.7628 323.492 64.0554C323.779 64.3452 323.922 64.7187 323.922 65.1761C323.922 65.5511 323.814 65.8864 323.598 66.1818C323.385 66.4773 323.087 66.7102 322.703 66.8807C322.32 67.0511 321.874 67.1364 321.365 67.1364C320.698 67.1364 320.145 66.9915 319.708 66.7017C319.27 66.4119 318.993 65.9886 318.877 65.4318L319.831 65.1932C319.922 65.5455 320.094 65.8097 320.347 65.9858C320.603 66.1619 320.936 66.25 321.348 66.25C321.817 66.25 322.189 66.1506 322.465 65.9517C322.743 65.75 322.882 65.5085 322.882 65.2273C322.882 65 322.803 64.8097 322.644 64.6562C322.485 64.5 322.24 64.3835 321.911 64.3068L320.82 64.0511C320.221 63.9091 319.78 63.6889 319.499 63.3906C319.221 63.0895 319.081 62.7131 319.081 62.2614C319.081 61.892 319.185 61.5653 319.392 61.2812C319.603 60.9972 319.888 60.7741 320.249 60.6122C320.613 60.4503 321.025 60.3693 321.485 60.3693C322.132 60.3693 322.641 60.5114 323.01 60.7955C323.382 61.0795 323.647 61.4545 323.803 61.9205ZM325.436 67V60.4545H326.442V67H325.436ZM325.947 59.3636C325.751 59.3636 325.582 59.2969 325.44 59.1634C325.301 59.0298 325.232 58.8693 325.232 58.6818C325.232 58.4943 325.301 58.3338 325.44 58.2003C325.582 58.0668 325.751 58 325.947 58C326.143 58 326.311 58.0668 326.45 58.2003C326.592 58.3338 326.663 58.4943 326.663 58.6818C326.663 58.8693 326.592 59.0298 326.45 59.1634C326.311 59.2969 326.143 59.3636 325.947 59.3636ZM331.13 60.4545V61.3068H327.738V60.4545H331.13ZM328.727 58.8864H329.733V65.125C329.733 65.4091 329.774 65.6222 329.856 65.7642C329.941 65.9034 330.049 65.9972 330.18 66.0455C330.314 66.0909 330.454 66.1136 330.602 66.1136C330.713 66.1136 330.804 66.108 330.875 66.0966C330.946 66.0824 331.002 66.071 331.045 66.0625L331.25 66.9659C331.181 66.9915 331.086 67.017 330.964 67.0426C330.842 67.071 330.687 67.0852 330.5 67.0852C330.216 67.0852 329.937 67.0241 329.664 66.902C329.395 66.7798 329.17 66.5938 328.991 66.3438C328.815 66.0938 328.727 65.7784 328.727 65.3977V58.8864ZM335.317 67.1364C334.686 67.1364 334.142 66.9972 333.685 66.7188C333.23 66.4375 332.88 66.0455 332.632 65.5426C332.388 65.0369 332.266 64.4489 332.266 63.7784C332.266 63.108 332.388 62.517 332.632 62.0057C332.88 61.4915 333.223 61.0909 333.664 60.804C334.107 60.5142 334.624 60.3693 335.215 60.3693C335.556 60.3693 335.892 60.4261 336.225 60.5398C336.557 60.6534 336.86 60.8381 337.132 61.0938C337.405 61.3466 337.623 61.6818 337.784 62.0994C337.946 62.517 338.027 63.0312 338.027 63.642V64.0682H332.982V63.1989H337.005C337.005 62.8295 336.931 62.5 336.783 62.2102C336.638 61.9205 336.431 61.6918 336.161 61.5241C335.894 61.3565 335.578 61.2727 335.215 61.2727C334.814 61.2727 334.468 61.3722 334.175 61.571C333.885 61.767 333.662 62.0227 333.506 62.3381C333.35 62.6534 333.272 62.9915 333.272 63.3523V63.9318C333.272 64.4261 333.357 64.8452 333.527 65.1889C333.701 65.5298 333.941 65.7898 334.248 65.9688C334.554 66.1449 334.911 66.233 335.317 66.233C335.581 66.233 335.82 66.196 336.033 66.1222C336.249 66.0455 336.435 65.9318 336.591 65.7812C336.748 65.6278 336.868 65.4375 336.953 65.2102L337.925 65.483C337.823 65.8125 337.651 66.1023 337.409 66.3523C337.168 66.5994 336.87 66.7926 336.515 66.9318C336.159 67.0682 335.76 67.1364 335.317 67.1364ZM49.0568 82V73.2727H52.108C52.7159 73.2727 53.2173 73.3778 53.6122 73.5881C54.0071 73.7955 54.3011 74.0753 54.4943 74.4276C54.6875 74.777 54.7841 75.1648 54.7841 75.5909C54.7841 75.9659 54.7173 76.2756 54.5838 76.5199C54.4531 76.7642 54.2798 76.9574 54.0639 77.0994C53.8509 77.2415 53.6193 77.3466 53.3693 77.4148V77.5C53.6364 77.517 53.9048 77.6108 54.1747 77.7812C54.4446 77.9517 54.6705 78.196 54.8523 78.5142C55.0341 78.8324 55.125 79.2216 55.125 79.6818C55.125 80.1193 55.0256 80.5128 54.8267 80.8622C54.6278 81.2116 54.3139 81.4886 53.8849 81.6932C53.456 81.8977 52.8977 82 52.2102 82H49.0568ZM50.1136 81.0625H52.2102C52.9006 81.0625 53.3906 80.929 53.6804 80.6619C53.973 80.392 54.1193 80.0653 54.1193 79.6818C54.1193 79.3864 54.044 79.1136 53.8935 78.8636C53.7429 78.6108 53.5284 78.4091 53.25 78.2585C52.9716 78.1051 52.642 78.0284 52.2614 78.0284H50.1136V81.0625ZM50.1136 77.108H52.0739C52.392 77.108 52.679 77.0455 52.9347 76.9205C53.1932 76.7955 53.3977 76.6193 53.5483 76.392C53.7017 76.1648 53.7784 75.8977 53.7784 75.5909C53.7784 75.2074 53.6449 74.8821 53.3778 74.6151C53.1108 74.3452 52.6875 74.2102 52.108 74.2102H50.1136V77.108ZM60.8501 79.3239V75.4545H61.8558V82H60.8501V80.892H60.782C60.6286 81.2244 60.3899 81.5071 60.0661 81.7401C59.7422 81.9702 59.3331 82.0852 58.8388 82.0852C58.4297 82.0852 58.0661 81.9957 57.7479 81.8168C57.4297 81.6349 57.1797 81.3622 56.9979 80.9986C56.8161 80.6321 56.7251 80.1705 56.7251 79.6136V75.4545H57.7308V79.5455C57.7308 80.0227 57.8643 80.4034 58.1314 80.6875C58.4013 80.9716 58.745 81.1136 59.1626 81.1136C59.4126 81.1136 59.6669 81.0497 59.9254 80.9219C60.1868 80.794 60.4055 80.598 60.5817 80.3338C60.7607 80.0696 60.8501 79.733 60.8501 79.3239ZM63.6978 82V75.4545H64.7035V82H63.6978ZM64.2092 74.3636C64.0131 74.3636 63.8441 74.2969 63.7021 74.1634C63.5629 74.0298 63.4933 73.8693 63.4933 73.6818C63.4933 73.4943 63.5629 73.3338 63.7021 73.2003C63.8441 73.0668 64.0131 73 64.2092 73C64.4052 73 64.5728 73.0668 64.712 73.2003C64.854 73.3338 64.9251 73.4943 64.9251 73.6818C64.9251 73.8693 64.854 74.0298 64.712 74.1634C64.5728 74.2969 64.4052 74.3636 64.2092 74.3636ZM67.5511 73.2727V82H66.5455V73.2727H67.5511ZM72.2397 75.4545V76.3068H68.8477V75.4545H72.2397ZM69.8363 73.8864H70.842V80.125C70.842 80.4091 70.8832 80.6222 70.9656 80.7642C71.0508 80.9034 71.1587 80.9972 71.2894 81.0455C71.4229 81.0909 71.5636 81.1136 71.7113 81.1136C71.8221 81.1136 71.913 81.108 71.984 81.0966C72.055 81.0824 72.1119 81.071 72.1545 81.0625L72.359 81.9659C72.2908 81.9915 72.1957 82.017 72.0735 82.0426C71.9513 82.071 71.7965 82.0852 71.609 82.0852C71.3249 82.0852 71.0465 82.0241 70.7738 81.902C70.5039 81.7798 70.2795 81.5938 70.1005 81.3438C69.9244 81.0938 69.8363 80.7784 69.8363 80.3977V73.8864ZM78.6104 82L76.6161 75.4545H77.6729L79.0877 80.4659H79.1559L80.5536 75.4545H81.6275L83.0082 80.4489H83.0763L84.4911 75.4545H85.5479L83.5536 82H82.565L81.1332 76.9716H81.0309L79.5991 82H78.6104ZM86.8775 82V75.4545H87.8832V82H86.8775ZM87.3888 74.3636C87.1928 74.3636 87.0238 74.2969 86.8817 74.1634C86.7425 74.0298 86.6729 73.8693 86.6729 73.6818C86.6729 73.4943 86.7425 73.3338 86.8817 73.2003C87.0238 73.0668 87.1928 73 87.3888 73C87.5849 73 87.7525 73.0668 87.8917 73.2003C88.0337 73.3338 88.1048 73.4943 88.1048 73.6818C88.1048 73.8693 88.0337 74.0298 87.8917 74.1634C87.7525 74.2969 87.5849 74.3636 87.3888 74.3636ZM92.5717 75.4545V76.3068H89.1797V75.4545H92.5717ZM90.1683 73.8864H91.174V80.125C91.174 80.4091 91.2152 80.6222 91.2976 80.7642C91.3828 80.9034 91.4908 80.9972 91.6214 81.0455C91.755 81.0909 91.8956 81.1136 92.0433 81.1136C92.1541 81.1136 92.245 81.108 92.3161 81.0966C92.3871 81.0824 92.4439 81.071 92.4865 81.0625L92.6911 81.9659C92.6229 81.9915 92.5277 82.017 92.4055 82.0426C92.2834 82.071 92.1286 82.0852 91.9411 82.0852C91.657 82.0852 91.3786 82.0241 91.1058 81.902C90.8359 81.7798 90.6115 81.5938 90.4325 81.3438C90.2564 81.0938 90.1683 80.7784 90.1683 80.3977V73.8864ZM95.2308 78.0625V82H94.2251V73.2727H95.2308V76.4773H95.3161C95.4695 76.1392 95.6996 75.8707 96.0064 75.6719C96.3161 75.4702 96.728 75.3693 97.2422 75.3693C97.6882 75.3693 98.0788 75.4588 98.4141 75.6378C98.7493 75.8139 99.0092 76.0852 99.1939 76.4517C99.3814 76.8153 99.4751 77.2784 99.4751 77.8409V82H98.4695V77.9091C98.4695 77.3892 98.3345 76.9872 98.0646 76.7031C97.7976 76.4162 97.4268 76.2727 96.9524 76.2727C96.6229 76.2727 96.3274 76.3423 96.0661 76.4815C95.8075 76.6207 95.603 76.8239 95.4524 77.0909C95.3047 77.358 95.2308 77.6818 95.2308 78.0625ZM107.52 82H104.826V73.2727H107.639C108.485 73.2727 109.21 73.4474 109.812 73.7969C110.414 74.1435 110.876 74.642 111.197 75.2926C111.518 75.9403 111.679 76.7159 111.679 77.6193C111.679 78.5284 111.517 79.3111 111.193 79.9673C110.869 80.6207 110.397 81.1236 109.778 81.4759C109.159 81.8253 108.406 82 107.52 82ZM105.883 81.0625H107.451C108.173 81.0625 108.771 80.9233 109.245 80.6449C109.72 80.3665 110.074 79.9702 110.306 79.456C110.539 78.9418 110.656 78.3295 110.656 77.6193C110.656 76.9148 110.541 76.3082 110.311 75.7997C110.081 75.2884 109.737 74.8963 109.279 74.6236C108.822 74.348 108.252 74.2102 107.571 74.2102H105.883V81.0625ZM113.315 75.4545H114.321V82.4773C114.321 82.8807 114.251 83.2301 114.112 83.5256C113.975 83.821 113.768 84.0497 113.49 84.2116C113.214 84.3736 112.866 84.4545 112.446 84.4545C112.412 84.4545 112.377 84.4545 112.343 84.4545C112.309 84.4545 112.275 84.4545 112.241 84.4545V83.517C112.275 83.517 112.306 83.517 112.335 83.517C112.363 83.517 112.395 83.517 112.429 83.517C112.735 83.517 112.96 83.4261 113.102 83.2443C113.244 83.0653 113.315 82.8097 113.315 82.4773V75.4545ZM113.809 74.3636C113.613 74.3636 113.444 74.2969 113.302 74.1634C113.163 74.0298 113.093 73.8693 113.093 73.6818C113.093 73.4943 113.163 73.3338 113.302 73.2003C113.444 73.0668 113.613 73 113.809 73C114.005 73 114.173 73.0668 114.312 73.2003C114.454 73.3338 114.525 73.4943 114.525 73.6818C114.525 73.8693 114.454 74.0298 114.312 74.1634C114.173 74.2969 114.005 74.3636 113.809 74.3636ZM118.089 82.1534C117.674 82.1534 117.298 82.0753 116.96 81.919C116.621 81.7599 116.353 81.5312 116.154 81.233C115.955 80.9318 115.856 80.5682 115.856 80.142C115.856 79.767 115.93 79.4631 116.077 79.2301C116.225 78.9943 116.423 78.8097 116.67 78.6761C116.917 78.5426 117.19 78.4432 117.488 78.3778C117.789 78.3097 118.092 78.2557 118.396 78.2159C118.793 78.1648 119.116 78.1264 119.363 78.1009C119.613 78.0724 119.795 78.0256 119.908 77.9602C120.025 77.8949 120.083 77.7812 120.083 77.6193V77.5852C120.083 77.1648 119.968 76.8381 119.738 76.6051C119.511 76.3722 119.165 76.2557 118.702 76.2557C118.222 76.2557 117.846 76.3608 117.573 76.571C117.3 76.7812 117.109 77.0057 116.998 77.2443L116.043 76.9034C116.214 76.5057 116.441 76.196 116.725 75.9744C117.012 75.75 117.325 75.5937 117.663 75.5057C118.004 75.4148 118.339 75.3693 118.668 75.3693C118.879 75.3693 119.12 75.3949 119.393 75.446C119.668 75.4943 119.934 75.5952 120.19 75.7486C120.448 75.902 120.663 76.1335 120.833 76.4432C121.004 76.7528 121.089 77.1676 121.089 77.6875V82H120.083V81.1136H120.032C119.964 81.2557 119.85 81.4077 119.691 81.5696C119.532 81.7315 119.32 81.8693 119.056 81.983C118.792 82.0966 118.469 82.1534 118.089 82.1534ZM118.242 81.25C118.64 81.25 118.975 81.1719 119.248 81.0156C119.523 80.8594 119.731 80.6577 119.87 80.4105C120.012 80.1634 120.083 79.9034 120.083 79.6307V78.7102C120.04 78.7614 119.947 78.8082 119.802 78.8509C119.66 78.8906 119.495 78.9261 119.308 78.9574C119.123 78.9858 118.942 79.0114 118.766 79.0341C118.593 79.054 118.452 79.071 118.344 79.0852C118.083 79.1193 117.839 79.1747 117.612 79.2514C117.387 79.3253 117.205 79.4375 117.066 79.5881C116.93 79.7358 116.862 79.9375 116.862 80.1932C116.862 80.5426 116.991 80.8068 117.249 80.9858C117.511 81.1619 117.842 81.25 118.242 81.25ZM123.93 78.0625V82H122.924V75.4545H123.896V76.4773H123.981C124.135 76.1449 124.368 75.8778 124.68 75.6761C124.993 75.4716 125.396 75.3693 125.89 75.3693C126.333 75.3693 126.721 75.4602 127.054 75.642C127.386 75.821 127.645 76.0938 127.829 76.4602C128.014 76.8239 128.106 77.2841 128.106 77.8409V82H127.1V77.9091C127.1 77.3949 126.967 76.9943 126.7 76.7074C126.433 76.4176 126.066 76.2727 125.6 76.2727C125.279 76.2727 124.993 76.3423 124.74 76.4815C124.49 76.6207 124.292 76.8239 124.147 77.0909C124.002 77.358 123.93 77.6818 123.93 78.0625ZM132.586 84.5909C132.1 84.5909 131.683 84.5284 131.333 84.4034C130.984 84.2812 130.692 84.1193 130.46 83.9176C130.229 83.7188 130.046 83.5057 129.91 83.2784L130.711 82.7159C130.802 82.8352 130.917 82.9716 131.056 83.125C131.195 83.2812 131.386 83.4162 131.627 83.5298C131.871 83.6463 132.191 83.7045 132.586 83.7045C133.114 83.7045 133.55 83.5767 133.894 83.321C134.238 83.0653 134.41 82.6648 134.41 82.1193V80.7898H134.325C134.251 80.9091 134.146 81.0568 134.009 81.233C133.876 81.4062 133.683 81.5611 133.43 81.6974C133.18 81.831 132.842 81.8977 132.415 81.8977C131.887 81.8977 131.413 81.7727 130.992 81.5227C130.575 81.2727 130.244 80.9091 129.999 80.4318C129.758 79.9545 129.637 79.375 129.637 78.6932C129.637 78.0227 129.755 77.4389 129.991 76.9418C130.227 76.4418 130.555 76.0554 130.975 75.7827C131.396 75.5071 131.881 75.3693 132.433 75.3693C132.859 75.3693 133.197 75.4403 133.447 75.5824C133.7 75.7216 133.893 75.8807 134.026 76.0597C134.163 76.2358 134.268 76.3807 134.342 76.4943H134.444V75.4545H135.415V82.1875C135.415 82.75 135.288 83.2074 135.032 83.5597C134.779 83.9148 134.438 84.1747 134.009 84.3395C133.583 84.5071 133.109 84.5909 132.586 84.5909ZM132.552 80.9943C132.955 80.9943 133.296 80.902 133.575 80.7173C133.853 80.5327 134.065 80.267 134.21 79.9205C134.354 79.5739 134.427 79.1591 134.427 78.6761C134.427 78.2045 134.356 77.7884 134.214 77.4276C134.072 77.0668 133.862 76.7841 133.583 76.5795C133.305 76.375 132.961 76.2727 132.552 76.2727C132.126 76.2727 131.771 76.3807 131.487 76.5966C131.205 76.8125 130.994 77.1023 130.852 77.4659C130.712 77.8295 130.643 78.233 130.643 78.6761C130.643 79.1307 130.714 79.5327 130.856 79.8821C131.001 80.2287 131.214 80.5014 131.495 80.7003C131.779 80.8963 132.131 80.9943 132.552 80.9943ZM139.915 82.1364C139.325 82.1364 138.806 81.9957 138.36 81.7145C137.917 81.4332 137.57 81.0398 137.32 80.5341C137.073 80.0284 136.95 79.4375 136.95 78.7614C136.95 78.0795 137.073 77.4844 137.32 76.9759C137.57 76.4673 137.917 76.0724 138.36 75.7912C138.806 75.5099 139.325 75.3693 139.915 75.3693C140.506 75.3693 141.023 75.5099 141.467 75.7912C141.913 76.0724 142.259 76.4673 142.506 76.9759C142.756 77.4844 142.881 78.0795 142.881 78.7614C142.881 79.4375 142.756 80.0284 142.506 80.5341C142.259 81.0398 141.913 81.4332 141.467 81.7145C141.023 81.9957 140.506 82.1364 139.915 82.1364ZM139.915 81.233C140.364 81.233 140.734 81.1179 141.023 80.8878C141.313 80.6577 141.528 80.3551 141.667 79.9801C141.806 79.6051 141.876 79.1989 141.876 78.7614C141.876 78.3239 141.806 77.9162 141.667 77.5384C141.528 77.1605 141.313 76.8551 141.023 76.6222C140.734 76.3892 140.364 76.2727 139.915 76.2727C139.467 76.2727 139.097 76.3892 138.808 76.6222C138.518 76.8551 138.303 77.1605 138.164 77.5384C138.025 77.9162 137.955 78.3239 137.955 78.7614C137.955 79.1989 138.025 79.6051 138.164 79.9801C138.303 80.3551 138.518 80.6577 138.808 80.8878C139.097 81.1179 139.467 81.233 139.915 81.233Z" fill="black"/>
</g>
<defs>
<filter id="filter0_d_309_202" x="0" y="0" width="381" height="119" filterUnits="userSpaceOnUse" color-interpolation-filters="sRGB">
<feFlood flood-opacity="0" result="BackgroundImageFix"/>
<feColorMatrix in="SourceAlpha" type="matrix" values="0 0 0 0 0 0 0 0 0 0 0 0 0 0 0 0 0 0 127 0" result="hardAlpha"/>
<feOffset dy="4"/>
<feGaussianBlur stdDeviation="7.5"/>
<feComposite in2="hardAlpha" operator="out"/>
<feColorMatrix type="matrix" values="0 0 0 0 0 0 0 0 0 0 0 0 0 0 0 0 0 0 0.1 0"/>
<feBlend mode="normal" in2="BackgroundImageFix" result="effect1_dropShadow_309_202"/>
<feBlend mode="normal" in="SourceGraphic" in2="effect1_dropShadow_309_202" result="shape"/>
</filter>
</defs>
</svg>
