<svg width="397" height="135" viewBox="0 0 397 135" fill="none" xmlns="http://www.w3.org/2000/svg">
<g filter="url(#filter0_d_309_207)">
<rect x="23" y="19" width="351" height="89" rx="4" fill="white"/>
<path d="M57.1477 49V37.3636H61.5114C62.4053 37.3636 63.1553 37.5303 63.7614 37.8636C64.3712 38.197 64.8314 38.6553 65.142 39.2386C65.4564 39.8182 65.6136 40.4773 65.6136 41.2159C65.6136 41.9621 65.4564 42.625 65.142 43.2045C64.8277 43.7841 64.3636 44.2405 63.75 44.5739C63.1364 44.9034 62.3807 45.0682 61.483 45.0682H58.5909V43.3352H61.1989C61.7216 43.3352 62.1496 43.2443 62.483 43.0625C62.8163 42.8807 63.0625 42.6307 63.2216 42.3125C63.3845 41.9943 63.4659 41.6288 63.4659 41.2159C63.4659 40.803 63.3845 40.4394 63.2216 40.125C63.0625 39.8106 62.8144 39.5663 62.4773 39.392C62.1439 39.214 61.714 39.125 61.1875 39.125H59.2557V49H57.1477ZM69.7088 49.1761C69.1558 49.1761 68.6577 49.0777 68.2145 48.8807C67.7751 48.6799 67.4266 48.3845 67.169 47.9943C66.9152 47.6042 66.7884 47.1231 66.7884 46.5511C66.7884 46.0587 66.8793 45.6515 67.0611 45.3295C67.2429 45.0076 67.491 44.75 67.8054 44.5568C68.1198 44.3636 68.474 44.2178 68.8679 44.1193C69.2656 44.017 69.6766 43.9432 70.1009 43.8977C70.6122 43.8447 71.027 43.7973 71.3452 43.7557C71.6634 43.7102 71.8944 43.642 72.0384 43.5511C72.1861 43.4564 72.2599 43.3106 72.2599 43.1136V43.0795C72.2599 42.6515 72.133 42.3201 71.8793 42.0852C71.6255 41.8504 71.2599 41.733 70.7827 41.733C70.2789 41.733 69.8793 41.8428 69.5838 42.0625C69.2921 42.2822 69.0952 42.5417 68.9929 42.8409L67.0724 42.5682C67.224 42.0379 67.474 41.5947 67.8224 41.2386C68.1709 40.8788 68.5971 40.6098 69.1009 40.4318C69.6046 40.25 70.1615 40.1591 70.7713 40.1591C71.1918 40.1591 71.6103 40.2083 72.027 40.3068C72.4437 40.4053 72.8243 40.5682 73.169 40.7955C73.5137 41.0189 73.7902 41.3239 73.9986 41.7102C74.2107 42.0966 74.3168 42.5795 74.3168 43.1591V49H72.3395V47.8011H72.2713C72.1463 48.0436 71.9702 48.2708 71.7429 48.483C71.5194 48.6913 71.2372 48.8598 70.8963 48.9886C70.5592 49.1136 70.1634 49.1761 69.7088 49.1761ZM70.2429 47.6648C70.6558 47.6648 71.0137 47.5833 71.3168 47.4205C71.6198 47.2538 71.8527 47.0341 72.0156 46.7614C72.1823 46.4886 72.2656 46.1913 72.2656 45.8693V44.8409C72.2012 44.8939 72.0914 44.9432 71.9361 44.9886C71.7846 45.0341 71.6141 45.0739 71.4247 45.108C71.2353 45.142 71.0478 45.1723 70.8622 45.1989C70.6766 45.2254 70.5156 45.2481 70.3793 45.267C70.0724 45.3087 69.7978 45.3769 69.5554 45.4716C69.313 45.5663 69.1217 45.6989 68.9815 45.8693C68.8414 46.036 68.7713 46.2519 68.7713 46.517C68.7713 46.8958 68.9096 47.1818 69.1861 47.375C69.4626 47.5682 69.8149 47.6648 70.2429 47.6648ZM83.2827 42.5795L81.4077 42.7841C81.3546 42.5947 81.2618 42.4167 81.1293 42.25C81.0005 42.0833 80.8262 41.9489 80.6065 41.8466C80.3868 41.7443 80.1179 41.6932 79.7997 41.6932C79.3717 41.6932 79.0118 41.786 78.7202 41.9716C78.4323 42.1572 78.2902 42.3977 78.294 42.6932C78.2902 42.947 78.383 43.1534 78.5724 43.3125C78.7656 43.4716 79.0838 43.6023 79.527 43.7045L81.0156 44.0227C81.8414 44.2008 82.455 44.483 82.8565 44.8693C83.2618 45.2557 83.4664 45.7614 83.4702 46.3864C83.4664 46.9356 83.3054 47.4205 82.9872 47.8409C82.6728 48.2576 82.2353 48.5833 81.6747 48.8182C81.1141 49.053 80.4702 49.1705 79.7429 49.1705C78.6747 49.1705 77.8149 48.947 77.1634 48.5C76.5118 48.0492 76.1236 47.4223 75.9986 46.6193L78.0043 46.4261C78.0952 46.8201 78.2884 47.1174 78.5838 47.3182C78.8793 47.5189 79.2637 47.6193 79.7372 47.6193C80.2259 47.6193 80.6179 47.5189 80.9134 47.3182C81.2126 47.1174 81.3622 46.8693 81.3622 46.5739C81.3622 46.3239 81.2656 46.1174 81.0724 45.9545C80.883 45.7917 80.5876 45.6667 80.1861 45.5795L78.6974 45.267C77.8603 45.0928 77.241 44.7992 76.8395 44.3864C76.438 43.9697 76.2391 43.4432 76.2429 42.8068C76.2391 42.2689 76.3849 41.803 76.6804 41.4091C76.9796 41.0114 77.3944 40.7045 77.9247 40.4886C78.4588 40.2689 79.0743 40.1591 79.7713 40.1591C80.794 40.1591 81.599 40.3769 82.1861 40.8125C82.777 41.2481 83.1425 41.8371 83.2827 42.5795ZM89.5241 40.2727V41.8636H84.5071V40.2727H89.5241ZM85.7457 38.1818H87.8026V46.375C87.8026 46.6515 87.8442 46.8636 87.9276 47.0114C88.0147 47.1553 88.1283 47.2538 88.2685 47.3068C88.4086 47.3598 88.5639 47.3864 88.7344 47.3864C88.8632 47.3864 88.9806 47.3769 89.0866 47.358C89.1965 47.339 89.2798 47.322 89.3366 47.3068L89.6832 48.9148C89.5734 48.9527 89.4162 48.9943 89.2116 49.0398C89.0109 49.0852 88.7647 49.1117 88.473 49.1193C87.9579 49.1345 87.4938 49.0568 87.081 48.8864C86.6681 48.7121 86.3404 48.4432 86.098 48.0795C85.8594 47.7159 85.742 47.2614 85.7457 46.7159V38.1818ZM95.0142 49.1705C94.1392 49.1705 93.3835 48.9886 92.7472 48.625C92.1146 48.2576 91.6278 47.7386 91.2869 47.0682C90.946 46.3939 90.7756 45.6004 90.7756 44.6875C90.7756 43.7898 90.946 43.0019 91.2869 42.3239C91.6316 41.642 92.1127 41.1117 92.7301 40.733C93.3475 40.3504 94.0729 40.1591 94.9062 40.1591C95.4441 40.1591 95.9517 40.2462 96.429 40.4205C96.91 40.5909 97.3343 40.8561 97.7017 41.2159C98.0729 41.5758 98.3646 42.0341 98.5767 42.5909C98.7888 43.1439 98.8949 43.803 98.8949 44.5682V45.1989H91.7415V43.8125H96.9233C96.9195 43.4186 96.8343 43.0682 96.6676 42.7614C96.5009 42.4508 96.268 42.2064 95.9688 42.0284C95.6733 41.8504 95.3286 41.7614 94.9347 41.7614C94.5142 41.7614 94.1449 41.8636 93.8267 42.0682C93.5085 42.2689 93.2604 42.5341 93.0824 42.8636C92.9081 43.1894 92.8191 43.5473 92.8153 43.9375V45.1477C92.8153 45.6553 92.9081 46.0909 93.0938 46.4545C93.2794 46.8144 93.5388 47.0909 93.8722 47.2841C94.2055 47.4735 94.5956 47.5682 95.0426 47.5682C95.3419 47.5682 95.6127 47.5265 95.8551 47.4432C96.0975 47.3561 96.3078 47.2292 96.4858 47.0625C96.6638 46.8958 96.7983 46.6894 96.8892 46.4432L98.8097 46.6591C98.6884 47.1667 98.4574 47.6098 98.1165 47.9886C97.7794 48.3636 97.3475 48.6553 96.821 48.8636C96.2945 49.0682 95.6922 49.1705 95.0142 49.1705ZM102.692 37.3636V49H100.635V37.3636H102.692ZM108.67 49.1705C107.795 49.1705 107.04 48.9886 106.403 48.625C105.771 48.2576 105.284 47.7386 104.943 47.0682C104.602 46.3939 104.432 45.6004 104.432 44.6875C104.432 43.7898 104.602 43.0019 104.943 42.3239C105.288 41.642 105.769 41.1117 106.386 40.733C107.004 40.3504 107.729 40.1591 108.562 40.1591C109.1 40.1591 109.608 40.2462 110.085 40.4205C110.566 40.5909 110.991 40.8561 111.358 41.2159C111.729 41.5758 112.021 42.0341 112.233 42.5909C112.445 43.1439 112.551 43.803 112.551 44.5682V45.1989H105.398V43.8125H110.58C110.576 43.4186 110.491 43.0682 110.324 42.7614C110.157 42.4508 109.924 42.2064 109.625 42.0284C109.33 41.8504 108.985 41.7614 108.591 41.7614C108.17 41.7614 107.801 41.8636 107.483 42.0682C107.165 42.2689 106.917 42.5341 106.739 42.8636C106.564 43.1894 106.475 43.5473 106.472 43.9375V45.1477C106.472 45.6553 106.564 46.0909 106.75 46.4545C106.936 46.8144 107.195 47.0909 107.528 47.2841C107.862 47.4735 108.252 47.5682 108.699 47.5682C108.998 47.5682 109.269 47.5265 109.511 47.4432C109.754 47.3561 109.964 47.2292 110.142 47.0625C110.32 46.8958 110.455 46.6894 110.545 46.4432L112.466 46.6591C112.345 47.1667 112.114 47.6098 111.773 47.9886C111.436 48.3636 111.004 48.6553 110.477 48.8636C109.951 49.0682 109.348 49.1705 108.67 49.1705ZM114.291 49V40.2727H116.286V41.7273H116.376C116.536 41.2235 116.808 40.8352 117.195 40.5625C117.585 40.286 118.03 40.1477 118.53 40.1477C118.643 40.1477 118.77 40.1534 118.911 40.1648C119.054 40.1723 119.174 40.1856 119.268 40.2045V42.0966C119.181 42.0663 119.043 42.0398 118.854 42.017C118.668 41.9905 118.488 41.9773 118.314 41.9773C117.939 41.9773 117.602 42.0587 117.303 42.2216C117.007 42.3807 116.774 42.6023 116.604 42.8864C116.433 43.1705 116.348 43.4981 116.348 43.8693V49H114.291ZM120.635 49V40.2727H122.692V49H120.635ZM120.879 39.125L122.152 36.5284H124.163L122.419 39.125H120.879ZM127.318 49.1761C126.765 49.1761 126.267 49.0777 125.824 48.8807C125.384 48.6799 125.036 48.3845 124.778 47.9943C124.525 47.6042 124.398 47.1231 124.398 46.5511C124.398 46.0587 124.489 45.6515 124.67 45.3295C124.852 45.0076 125.1 44.75 125.415 44.5568C125.729 44.3636 126.083 44.2178 126.477 44.1193C126.875 44.017 127.286 43.9432 127.71 43.8977C128.222 43.8447 128.636 43.7973 128.955 43.7557C129.273 43.7102 129.504 43.642 129.648 43.5511C129.795 43.4564 129.869 43.3106 129.869 43.1136V43.0795C129.869 42.6515 129.742 42.3201 129.489 42.0852C129.235 41.8504 128.869 41.733 128.392 41.733C127.888 41.733 127.489 41.8428 127.193 42.0625C126.902 42.2822 126.705 42.5417 126.602 42.8409L124.682 42.5682C124.833 42.0379 125.083 41.5947 125.432 41.2386C125.78 40.8788 126.206 40.6098 126.71 40.4318C127.214 40.25 127.771 40.1591 128.381 40.1591C128.801 40.1591 129.22 40.2083 129.636 40.3068C130.053 40.4053 130.434 40.5682 130.778 40.7955C131.123 41.0189 131.4 41.3239 131.608 41.7102C131.82 42.0966 131.926 42.5795 131.926 43.1591V49H129.949V47.8011H129.881C129.756 48.0436 129.58 48.2708 129.352 48.483C129.129 48.6913 128.847 48.8598 128.506 48.9886C128.169 49.1136 127.773 49.1761 127.318 49.1761ZM127.852 47.6648C128.265 47.6648 128.623 47.5833 128.926 47.4205C129.229 47.2538 129.462 47.0341 129.625 46.7614C129.792 46.4886 129.875 46.1913 129.875 45.8693V44.8409C129.811 44.8939 129.701 44.9432 129.545 44.9886C129.394 45.0341 129.223 45.0739 129.034 45.108C128.845 45.142 128.657 45.1723 128.472 45.1989C128.286 45.2254 128.125 45.2481 127.989 45.267C127.682 45.3087 127.407 45.3769 127.165 45.4716C126.922 45.5663 126.731 45.6989 126.591 45.8693C126.451 46.036 126.381 46.2519 126.381 46.517C126.381 46.8958 126.519 47.1818 126.795 47.375C127.072 47.5682 127.424 47.6648 127.852 47.6648ZM138.054 49V37.3636H142.509C143.349 37.3636 144.048 37.4962 144.605 37.7614C145.166 38.0227 145.584 38.3807 145.861 38.8352C146.141 39.2898 146.281 39.8049 146.281 40.3807C146.281 40.8542 146.19 41.2595 146.009 41.5966C145.827 41.9299 145.582 42.2008 145.276 42.4091C144.969 42.6174 144.626 42.767 144.247 42.858V42.9716C144.66 42.9943 145.056 43.1212 145.435 43.3523C145.817 43.5795 146.13 43.9015 146.372 44.3182C146.615 44.7348 146.736 45.2386 146.736 45.8295C146.736 46.4318 146.59 46.9735 146.298 47.4545C146.007 47.9318 145.567 48.3087 144.98 48.5852C144.393 48.8617 143.654 49 142.764 49H138.054ZM140.162 47.2386H142.429C143.194 47.2386 143.745 47.0928 144.082 46.8011C144.423 46.5057 144.594 46.1269 144.594 45.6648C144.594 45.3201 144.509 45.0095 144.338 44.733C144.168 44.4527 143.925 44.233 143.611 44.0739C143.296 43.911 142.921 43.8295 142.486 43.8295H140.162V47.2386ZM140.162 42.3125H142.247C142.611 42.3125 142.938 42.2462 143.23 42.1136C143.522 41.9773 143.751 41.786 143.918 41.5398C144.088 41.2898 144.173 40.9943 144.173 40.6534C144.173 40.2027 144.014 39.8314 143.696 39.5398C143.382 39.2481 142.914 39.1023 142.293 39.1023H140.162V42.3125ZM152.342 49.1705C151.467 49.1705 150.712 48.9886 150.075 48.625C149.443 48.2576 148.956 47.7386 148.615 47.0682C148.274 46.3939 148.104 45.6004 148.104 44.6875C148.104 43.7898 148.274 43.0019 148.615 42.3239C148.96 41.642 149.441 41.1117 150.058 40.733C150.676 40.3504 151.401 40.1591 152.234 40.1591C152.772 40.1591 153.28 40.2462 153.757 40.4205C154.238 40.5909 154.662 40.8561 155.03 41.2159C155.401 41.5758 155.693 42.0341 155.905 42.5909C156.117 43.1439 156.223 43.803 156.223 44.5682V45.1989H149.07V43.8125H154.251C154.248 43.4186 154.162 43.0682 153.996 42.7614C153.829 42.4508 153.596 42.2064 153.297 42.0284C153.001 41.8504 152.657 41.7614 152.263 41.7614C151.842 41.7614 151.473 41.8636 151.155 42.0682C150.837 42.2689 150.589 42.5341 150.411 42.8636C150.236 43.1894 150.147 43.5473 150.143 43.9375V45.1477C150.143 45.6553 150.236 46.0909 150.422 46.4545C150.607 46.8144 150.867 47.0909 151.2 47.2841C151.534 47.4735 151.924 47.5682 152.371 47.5682C152.67 47.5682 152.941 47.5265 153.183 47.4432C153.426 47.3561 153.636 47.2292 153.814 47.0625C153.992 46.8958 154.126 46.6894 154.217 46.4432L156.138 46.6591C156.017 47.1667 155.786 47.6098 155.445 47.9886C155.107 48.3636 154.676 48.6553 154.149 48.8636C153.623 49.0682 153.02 49.1705 152.342 49.1705ZM161.202 49.1534C160.516 49.1534 159.902 48.9773 159.361 48.625C158.819 48.2727 158.391 47.7614 158.077 47.0909C157.762 46.4205 157.605 45.6061 157.605 44.6477C157.605 43.678 157.764 42.8598 158.082 42.1932C158.404 41.5227 158.838 41.017 159.384 40.6761C159.929 40.3314 160.537 40.1591 161.207 40.1591C161.719 40.1591 162.139 40.2462 162.469 40.4205C162.798 40.5909 163.06 40.7973 163.253 41.0398C163.446 41.2784 163.596 41.5038 163.702 41.7159H163.787V37.3636H165.849V49H163.827V47.625H163.702C163.596 47.8371 163.442 48.0625 163.241 48.3011C163.041 48.536 162.776 48.7367 162.446 48.9034C162.116 49.0701 161.702 49.1534 161.202 49.1534ZM161.776 47.4659C162.211 47.4659 162.582 47.3485 162.889 47.1136C163.196 46.875 163.429 46.5436 163.588 46.1193C163.747 45.6951 163.827 45.2008 163.827 44.6364C163.827 44.072 163.747 43.5814 163.588 43.1648C163.433 42.7481 163.202 42.4242 162.895 42.1932C162.592 41.9621 162.219 41.8466 161.776 41.8466C161.317 41.8466 160.935 41.9659 160.628 42.2045C160.321 42.4432 160.09 42.7727 159.935 43.1932C159.779 43.6136 159.702 44.0947 159.702 44.6364C159.702 45.1818 159.779 45.6686 159.935 46.0966C160.094 46.5208 160.327 46.8561 160.634 47.1023C160.944 47.3447 161.325 47.4659 161.776 47.4659ZM173.604 45.3295V40.2727H175.661V49H173.666V47.4489H173.575C173.378 47.9375 173.054 48.3371 172.604 48.6477C172.157 48.9583 171.606 49.1136 170.95 49.1136C170.378 49.1136 169.873 48.9867 169.433 48.733C168.998 48.4754 168.657 48.1023 168.411 47.6136C168.164 47.1212 168.041 46.5265 168.041 45.8295V40.2727H170.098V45.5114C170.098 46.0644 170.25 46.5038 170.553 46.8295C170.856 47.1553 171.253 47.3182 171.746 47.3182C172.049 47.3182 172.342 47.2443 172.626 47.0966C172.911 46.9489 173.143 46.7292 173.325 46.4375C173.511 46.142 173.604 45.7727 173.604 45.3295Z" fill="#363636"/>
<path d="M61.8295 68.4545C61.7784 68.0227 61.571 67.6875 61.2074 67.4489C60.8438 67.2102 60.3977 67.0909 59.8693 67.0909C59.483 67.0909 59.1449 67.1534 58.8551 67.2784C58.5682 67.4034 58.3438 67.5753 58.1818 67.794C58.0227 68.0128 57.9432 68.2614 57.9432 68.5398C57.9432 68.7727 57.9986 68.973 58.1094 69.1406C58.223 69.3054 58.3679 69.4432 58.544 69.554C58.7202 69.6619 58.9048 69.7514 59.098 69.8224C59.2912 69.8906 59.4688 69.946 59.6307 69.9886L60.517 70.2273C60.7443 70.2869 60.9972 70.3693 61.2756 70.4744C61.5568 70.5795 61.8253 70.723 62.081 70.9048C62.3395 71.0838 62.5526 71.3139 62.7202 71.5952C62.8878 71.8764 62.9716 72.2216 62.9716 72.6307C62.9716 73.1023 62.848 73.5284 62.6009 73.9091C62.3565 74.2898 61.9986 74.5923 61.527 74.8168C61.0582 75.0412 60.4886 75.1534 59.8182 75.1534C59.1932 75.1534 58.652 75.0526 58.1946 74.8509C57.7401 74.6491 57.3821 74.3679 57.1207 74.0071C56.8622 73.6463 56.7159 73.2273 56.6818 72.75H57.7727C57.8011 73.0795 57.9119 73.3523 58.1051 73.5682C58.3011 73.7812 58.5483 73.9403 58.8466 74.0455C59.1477 74.1477 59.4716 74.1989 59.8182 74.1989C60.2216 74.1989 60.5838 74.1335 60.9048 74.0028C61.2259 73.8693 61.4801 73.6847 61.6676 73.4489C61.8551 73.2102 61.9489 72.9318 61.9489 72.6136C61.9489 72.3239 61.8679 72.0881 61.706 71.9062C61.544 71.7244 61.331 71.5767 61.0668 71.4631C60.8026 71.3494 60.517 71.25 60.2102 71.1648L59.1364 70.858C58.4545 70.6619 57.9148 70.3821 57.517 70.0185C57.1193 69.6548 56.9205 69.179 56.9205 68.5909C56.9205 68.1023 57.0526 67.6761 57.3168 67.3125C57.5838 66.946 57.9418 66.6619 58.3906 66.4602C58.8423 66.2557 59.3466 66.1534 59.9034 66.1534C60.4659 66.1534 60.9659 66.2543 61.4034 66.456C61.8409 66.6548 62.1875 66.9276 62.4432 67.2741C62.7017 67.6207 62.8381 68.0142 62.8523 68.4545H61.8295ZM64.5728 75V68.4545H65.5785V75H64.5728ZM65.0842 67.3636C64.8881 67.3636 64.7191 67.2969 64.5771 67.1634C64.4379 67.0298 64.3683 66.8693 64.3683 66.6818C64.3683 66.4943 64.4379 66.3338 64.5771 66.2003C64.7191 66.0668 64.8881 66 65.0842 66C65.2802 66 65.4478 66.0668 65.587 66.2003C65.729 66.3338 65.8001 66.4943 65.8001 66.6818C65.8001 66.8693 65.729 67.0298 65.587 67.1634C65.4478 67.2969 65.2802 67.3636 65.0842 67.3636ZM72.0568 69.9205L71.1534 70.1761C71.0966 70.0256 71.0128 69.8793 70.902 69.7372C70.794 69.5923 70.6463 69.473 70.4588 69.3793C70.2713 69.2855 70.0312 69.2386 69.7386 69.2386C69.3381 69.2386 69.0043 69.331 68.7372 69.5156C68.473 69.6974 68.3409 69.929 68.3409 70.2102C68.3409 70.4602 68.4318 70.6577 68.6136 70.8026C68.7955 70.9474 69.0795 71.0682 69.4659 71.1648L70.4375 71.4034C71.0227 71.5455 71.4588 71.7628 71.7457 72.0554C72.0327 72.3452 72.1761 72.7187 72.1761 73.1761C72.1761 73.5511 72.0682 73.8864 71.8523 74.1818C71.6392 74.4773 71.3409 74.7102 70.9574 74.8807C70.5739 75.0511 70.1278 75.1364 69.6193 75.1364C68.9517 75.1364 68.3991 74.9915 67.9616 74.7017C67.5241 74.4119 67.2472 73.9886 67.1307 73.4318L68.0852 73.1932C68.1761 73.5455 68.348 73.8097 68.6009 73.9858C68.8565 74.1619 69.1903 74.25 69.6023 74.25C70.071 74.25 70.4432 74.1506 70.7188 73.9517C70.9972 73.75 71.1364 73.5085 71.1364 73.2273C71.1364 73 71.0568 72.8097 70.8977 72.6562C70.7386 72.5 70.4943 72.3835 70.1648 72.3068L69.0739 72.0511C68.4744 71.9091 68.0341 71.6889 67.7528 71.3906C67.4744 71.0895 67.3352 70.7131 67.3352 70.2614C67.3352 69.892 67.4389 69.5653 67.6463 69.2812C67.8565 68.9972 68.142 68.7741 68.5028 68.6122C68.8665 68.4503 69.2784 68.3693 69.7386 68.3693C70.3864 68.3693 70.8949 68.5114 71.2642 68.7955C71.6364 69.0795 71.9006 69.4545 72.0568 69.9205ZM76.5366 68.4545V69.3068H73.1445V68.4545H76.5366ZM74.1332 66.8864H75.1388V73.125C75.1388 73.4091 75.18 73.6222 75.2624 73.7642C75.3477 73.9034 75.4556 73.9972 75.5863 74.0455C75.7198 74.0909 75.8604 74.1136 76.0082 74.1136C76.119 74.1136 76.2099 74.108 76.2809 74.0966C76.3519 74.0824 76.4087 74.071 76.4513 74.0625L76.6559 74.9659C76.5877 74.9915 76.4925 75.017 76.3704 75.0426C76.2482 75.071 76.0934 75.0852 75.9059 75.0852C75.6218 75.0852 75.3434 75.0241 75.0707 74.902C74.8008 74.7798 74.5763 74.5938 74.3974 74.3438C74.2212 74.0938 74.1332 73.7784 74.1332 73.3977V66.8864ZM80.7234 75.1364C80.0927 75.1364 79.5487 74.9972 79.0913 74.7188C78.6367 74.4375 78.2859 74.0455 78.0387 73.5426C77.7944 73.0369 77.6722 72.4489 77.6722 71.7784C77.6722 71.108 77.7944 70.517 78.0387 70.0057C78.2859 69.4915 78.6296 69.0909 79.07 68.804C79.5131 68.5142 80.0302 68.3693 80.6211 68.3693C80.962 68.3693 81.2987 68.4261 81.631 68.5398C81.9634 68.6534 82.266 68.8381 82.5387 69.0938C82.8114 69.3466 83.0288 69.6818 83.1907 70.0994C83.3526 70.517 83.4336 71.0312 83.4336 71.642V72.0682H78.3881V71.1989H82.4109C82.4109 70.8295 82.337 70.5 82.1893 70.2102C82.0444 69.9205 81.837 69.6918 81.5671 69.5241C81.3001 69.3565 80.9847 69.2727 80.6211 69.2727C80.2205 69.2727 79.8739 69.3722 79.5813 69.571C79.2915 69.767 79.0685 70.0227 78.9123 70.3381C78.756 70.6534 78.6779 70.9915 78.6779 71.3523V71.9318C78.6779 72.4261 78.7631 72.8452 78.9336 73.1889C79.1069 73.5298 79.3469 73.7898 79.6538 73.9688C79.9606 74.1449 80.3171 74.233 80.7234 74.233C80.9876 74.233 81.2262 74.196 81.4393 74.1222C81.6552 74.0455 81.8413 73.9318 81.9975 73.7812C82.1538 73.6278 82.2745 73.4375 82.3597 73.2102L83.3313 73.483C83.229 73.8125 83.0572 74.1023 82.8157 74.3523C82.5742 74.5994 82.2759 74.7926 81.9208 74.9318C81.5657 75.0682 81.1665 75.1364 80.7234 75.1364ZM84.9634 75V68.4545H85.935V69.4773H86.0202C86.1566 69.1278 86.3768 68.8565 86.6808 68.6634C86.9847 68.4673 87.3498 68.3693 87.7759 68.3693C88.2077 68.3693 88.5671 68.4673 88.854 68.6634C89.1438 68.8565 89.3697 69.1278 89.5316 69.4773H89.5998C89.7674 69.1392 90.0188 68.8707 90.354 68.6719C90.6893 68.4702 91.0913 68.3693 91.56 68.3693C92.1452 68.3693 92.6239 68.5526 92.9961 68.919C93.3683 69.2827 93.5543 69.8494 93.5543 70.6193V75H92.5487V70.6193C92.5487 70.1364 92.4165 69.7912 92.1523 69.5838C91.8881 69.3764 91.5771 69.2727 91.2191 69.2727C90.7589 69.2727 90.4023 69.4119 90.1495 69.6903C89.8967 69.9659 89.7702 70.3153 89.7702 70.7386V75H88.7475V70.517C88.7475 70.1449 88.6268 69.8452 88.3853 69.6179C88.1438 69.3878 87.8327 69.2727 87.4521 69.2727C87.1907 69.2727 86.9464 69.3423 86.7191 69.4815C86.4947 69.6207 86.3129 69.8139 86.1737 70.0611C86.0373 70.3054 85.9691 70.5881 85.9691 70.9091V75H84.9634ZM97.3192 75.1534C96.9045 75.1534 96.5281 75.0753 96.19 74.919C95.8519 74.7599 95.5835 74.5312 95.3846 74.233C95.1857 73.9318 95.0863 73.5682 95.0863 73.142C95.0863 72.767 95.1602 72.4631 95.3079 72.2301C95.4556 71.9943 95.6531 71.8097 95.9002 71.6761C96.1474 71.5426 96.4201 71.4432 96.7184 71.3778C97.0195 71.3097 97.3221 71.2557 97.6261 71.2159C98.0238 71.1648 98.3462 71.1264 98.5934 71.1009C98.8434 71.0724 99.0252 71.0256 99.1388 70.9602C99.2553 70.8949 99.3136 70.7812 99.3136 70.6193V70.5852C99.3136 70.1648 99.1985 69.8381 98.9684 69.6051C98.7411 69.3722 98.396 69.2557 97.9329 69.2557C97.4528 69.2557 97.0763 69.3608 96.8036 69.571C96.5309 69.7812 96.3391 70.0057 96.2283 70.2443L95.2738 69.9034C95.4442 69.5057 95.6715 69.196 95.9556 68.9744C96.2425 68.75 96.555 68.5937 96.8931 68.5057C97.234 68.4148 97.5692 68.3693 97.8988 68.3693C98.109 68.3693 98.3505 68.3949 98.6232 68.446C98.8988 68.4943 99.1644 68.5952 99.4201 68.7486C99.6786 68.902 99.8931 69.1335 100.064 69.4432C100.234 69.7528 100.319 70.1676 100.319 70.6875V75H99.3136V74.1136H99.2624C99.1942 74.2557 99.0806 74.4077 98.9215 74.5696C98.7624 74.7315 98.5508 74.8693 98.2866 74.983C98.0224 75.0966 97.6999 75.1534 97.3192 75.1534ZM97.4727 74.25C97.8704 74.25 98.2056 74.1719 98.4783 74.0156C98.7539 73.8594 98.9613 73.6577 99.1005 73.4105C99.2425 73.1634 99.3136 72.9034 99.3136 72.6307V71.7102C99.271 71.7614 99.1772 71.8082 99.0323 71.8509C98.8903 71.8906 98.7255 71.9261 98.538 71.9574C98.3533 71.9858 98.1729 72.0114 97.9968 72.0341C97.8235 72.054 97.6829 72.071 97.5749 72.0852C97.3136 72.1193 97.0692 72.1747 96.842 72.2514C96.6175 72.3253 96.4357 72.4375 96.2965 72.5881C96.1602 72.7358 96.092 72.9375 96.092 73.1932C96.092 73.5426 96.2212 73.8068 96.4798 73.9858C96.7411 74.1619 97.0721 74.25 97.4727 74.25ZM108.001 75.1364C107.456 75.1364 106.974 74.9986 106.557 74.723C106.139 74.4446 105.813 74.0526 105.577 73.5469C105.341 73.0384 105.223 72.4375 105.223 71.7443C105.223 71.0568 105.341 70.4602 105.577 69.9545C105.813 69.4489 106.141 69.0582 106.561 68.7827C106.982 68.5071 107.467 68.3693 108.018 68.3693C108.445 68.3693 108.781 68.4403 109.028 68.5824C109.278 68.7216 109.469 68.8807 109.599 69.0597C109.733 69.2358 109.837 69.3807 109.911 69.4943H109.996V66.2727H111.001V75H110.03V73.9943H109.911C109.837 74.1136 109.732 74.2642 109.595 74.446C109.459 74.625 109.264 74.7855 109.011 74.9276C108.759 75.0668 108.422 75.1364 108.001 75.1364ZM108.138 74.233C108.541 74.233 108.882 74.1278 109.161 73.9176C109.439 73.7045 109.651 73.4105 109.795 73.0355C109.94 72.6577 110.013 72.2216 110.013 71.7273C110.013 71.2386 109.942 70.8111 109.8 70.4446C109.658 70.0753 109.447 69.7884 109.169 69.5838C108.891 69.3764 108.547 69.2727 108.138 69.2727C107.712 69.2727 107.357 69.3821 107.072 69.6009C106.791 69.8168 106.58 70.1108 106.438 70.483C106.298 70.8523 106.229 71.267 106.229 71.7273C106.229 72.1932 106.3 72.6165 106.442 72.9972C106.587 73.375 106.8 73.6761 107.081 73.9006C107.365 74.1222 107.717 74.233 108.138 74.233ZM115.727 75.1364C115.097 75.1364 114.553 74.9972 114.095 74.7188C113.641 74.4375 113.29 74.0455 113.043 73.5426C112.798 73.0369 112.676 72.4489 112.676 71.7784C112.676 71.108 112.798 70.517 113.043 70.0057C113.29 69.4915 113.634 69.0909 114.074 68.804C114.517 68.5142 115.034 68.3693 115.625 68.3693C115.966 68.3693 116.303 68.4261 116.635 68.5398C116.967 68.6534 117.27 68.8381 117.543 69.0938C117.815 69.3466 118.033 69.6818 118.195 70.0994C118.357 70.517 118.438 71.0312 118.438 71.642V72.0682H113.392V71.1989H117.415C117.415 70.8295 117.341 70.5 117.193 70.2102C117.048 69.9205 116.841 69.6918 116.571 69.5241C116.304 69.3565 115.989 69.2727 115.625 69.2727C115.224 69.2727 114.878 69.3722 114.585 69.571C114.295 69.767 114.072 70.0227 113.916 70.3381C113.76 70.6534 113.682 70.9915 113.682 71.3523V71.9318C113.682 72.4261 113.767 72.8452 113.938 73.1889C114.111 73.5298 114.351 73.7898 114.658 73.9688C114.964 74.1449 115.321 74.233 115.727 74.233C115.991 74.233 116.23 74.196 116.443 74.1222C116.659 74.0455 116.845 73.9318 117.001 73.7812C117.158 73.6278 117.278 73.4375 117.364 73.2102L118.335 73.483C118.233 73.8125 118.061 74.1023 117.82 74.3523C117.578 74.5994 117.28 74.7926 116.925 74.9318C116.57 75.0682 116.17 75.1364 115.727 75.1364ZM128.695 68.4545L126.274 75H125.251L122.831 68.4545H123.922L125.729 73.6705H125.797L127.604 68.4545H128.695ZM132.532 75.1364C131.901 75.1364 131.357 74.9972 130.9 74.7188C130.445 74.4375 130.094 74.0455 129.847 73.5426C129.603 73.0369 129.481 72.4489 129.481 71.7784C129.481 71.108 129.603 70.517 129.847 70.0057C130.094 69.4915 130.438 69.0909 130.879 68.804C131.322 68.5142 131.839 68.3693 132.43 68.3693C132.771 68.3693 133.107 68.4261 133.44 68.5398C133.772 68.6534 134.075 68.8381 134.347 69.0938C134.62 69.3466 134.837 69.6818 134.999 70.0994C135.161 70.517 135.242 71.0312 135.242 71.642V72.0682H130.197V71.1989H134.219C134.219 70.8295 134.146 70.5 133.998 70.2102C133.853 69.9205 133.646 69.6918 133.376 69.5241C133.109 69.3565 132.793 69.2727 132.43 69.2727C132.029 69.2727 131.683 69.3722 131.39 69.571C131.1 69.767 130.877 70.0227 130.721 70.3381C130.565 70.6534 130.487 70.9915 130.487 71.3523V71.9318C130.487 72.4261 130.572 72.8452 130.742 73.1889C130.915 73.5298 131.156 73.7898 131.462 73.9688C131.769 74.1449 132.126 74.233 132.532 74.233C132.796 74.233 133.035 74.196 133.248 74.1222C133.464 74.0455 133.65 73.9318 133.806 73.7812C133.962 73.6278 134.083 73.4375 134.168 73.2102L135.14 73.483C135.038 73.8125 134.866 74.1023 134.624 74.3523C134.383 74.5994 134.085 74.7926 133.729 74.9318C133.374 75.0682 132.975 75.1364 132.532 75.1364ZM137.778 71.0625V75H136.772V68.4545H137.744V69.4773H137.829C137.982 69.1449 138.215 68.8778 138.528 68.6761C138.84 68.4716 139.244 68.3693 139.738 68.3693C140.181 68.3693 140.569 68.4602 140.901 68.642C141.234 68.821 141.492 69.0938 141.677 69.4602C141.862 69.8239 141.954 70.2841 141.954 70.8409V75H140.948V70.9091C140.948 70.3949 140.815 69.9943 140.548 69.7074C140.281 69.4176 139.914 69.2727 139.448 69.2727C139.127 69.2727 138.84 69.3423 138.587 69.4815C138.337 69.6207 138.14 69.8239 137.995 70.0909C137.85 70.358 137.778 70.6818 137.778 71.0625ZM146.638 68.4545V69.3068H143.246V68.4545H146.638ZM144.235 66.8864H145.24V73.125C145.24 73.4091 145.282 73.6222 145.364 73.7642C145.449 73.9034 145.557 73.9972 145.688 74.0455C145.821 74.0909 145.962 74.1136 146.11 74.1136C146.221 74.1136 146.311 74.108 146.382 74.0966C146.453 74.0824 146.51 74.071 146.553 74.0625L146.757 74.9659C146.689 74.9915 146.594 75.017 146.472 75.0426C146.35 75.071 146.195 75.0852 146.007 75.0852C145.723 75.0852 145.445 75.0241 145.172 74.902C144.902 74.7798 144.678 74.5938 144.499 74.3438C144.323 74.0938 144.235 73.7784 144.235 73.3977V66.8864ZM150.077 75.1534C149.662 75.1534 149.286 75.0753 148.948 74.919C148.61 74.7599 148.341 74.5312 148.142 74.233C147.944 73.9318 147.844 73.5682 147.844 73.142C147.844 72.767 147.918 72.4631 148.066 72.2301C148.213 71.9943 148.411 71.8097 148.658 71.6761C148.905 71.5426 149.178 71.4432 149.476 71.3778C149.777 71.3097 150.08 71.2557 150.384 71.2159C150.782 71.1648 151.104 71.1264 151.351 71.1009C151.601 71.0724 151.783 71.0256 151.897 70.9602C152.013 70.8949 152.071 70.7812 152.071 70.6193V70.5852C152.071 70.1648 151.956 69.8381 151.726 69.6051C151.499 69.3722 151.154 69.2557 150.691 69.2557C150.211 69.2557 149.834 69.3608 149.561 69.571C149.289 69.7812 149.097 70.0057 148.986 70.2443L148.032 69.9034C148.202 69.5057 148.429 69.196 148.713 68.9744C149 68.75 149.313 68.5937 149.651 68.5057C149.992 68.4148 150.327 68.3693 150.657 68.3693C150.867 68.3693 151.108 68.3949 151.381 68.446C151.657 68.4943 151.922 68.5952 152.178 68.7486C152.436 68.902 152.651 69.1335 152.821 69.4432C152.992 69.7528 153.077 70.1676 153.077 70.6875V75H152.071V74.1136H152.02C151.952 74.2557 151.838 74.4077 151.679 74.5696C151.52 74.7315 151.309 74.8693 151.044 74.983C150.78 75.0966 150.458 75.1534 150.077 75.1534ZM150.23 74.25C150.628 74.25 150.963 74.1719 151.236 74.0156C151.512 73.8594 151.719 73.6577 151.858 73.4105C152 73.1634 152.071 72.9034 152.071 72.6307V71.7102C152.029 71.7614 151.935 71.8082 151.79 71.8509C151.648 71.8906 151.483 71.9261 151.296 71.9574C151.111 71.9858 150.931 72.0114 150.755 72.0341C150.581 72.054 150.441 72.071 150.333 72.0852C150.071 72.1193 149.827 72.1747 149.6 72.2514C149.375 72.3253 149.194 72.4375 149.054 72.5881C148.918 72.7358 148.85 72.9375 148.85 73.1932C148.85 73.5426 148.979 73.8068 149.238 73.9858C149.499 74.1619 149.83 74.25 150.23 74.25ZM159.549 69.9205L158.646 70.1761C158.589 70.0256 158.505 69.8793 158.394 69.7372C158.286 69.5923 158.138 69.473 157.951 69.3793C157.763 69.2855 157.523 69.2386 157.231 69.2386C156.83 69.2386 156.496 69.331 156.229 69.5156C155.965 69.6974 155.833 69.929 155.833 70.2102C155.833 70.4602 155.924 70.6577 156.106 70.8026C156.288 70.9474 156.572 71.0682 156.958 71.1648L157.93 71.4034C158.515 71.5455 158.951 71.7628 159.238 72.0554C159.525 72.3452 159.668 72.7187 159.668 73.1761C159.668 73.5511 159.56 73.8864 159.344 74.1818C159.131 74.4773 158.833 74.7102 158.45 74.8807C158.066 75.0511 157.62 75.1364 157.112 75.1364C156.444 75.1364 155.891 74.9915 155.454 74.7017C155.016 74.4119 154.739 73.9886 154.623 73.4318L155.577 73.1932C155.668 73.5455 155.84 73.8097 156.093 73.9858C156.349 74.1619 156.683 74.25 157.094 74.25C157.563 74.25 157.935 74.1506 158.211 73.9517C158.489 73.75 158.629 73.5085 158.629 73.2273C158.629 73 158.549 72.8097 158.39 72.6562C158.231 72.5 157.987 72.3835 157.657 72.3068L156.566 72.0511C155.967 71.9091 155.526 71.6889 155.245 71.3906C154.967 71.0895 154.827 70.7131 154.827 70.2614C154.827 69.892 154.931 69.5653 155.138 69.2812C155.349 68.9972 155.634 68.7741 155.995 68.6122C156.359 68.4503 156.771 68.3693 157.231 68.3693C157.879 68.3693 158.387 68.5114 158.756 68.7955C159.129 69.0795 159.393 69.4545 159.549 69.9205ZM164.557 75V68.4545H165.529V69.4773H165.614C165.75 69.1278 165.971 68.8565 166.275 68.6634C166.578 68.4673 166.944 68.3693 167.37 68.3693C167.801 68.3693 168.161 68.4673 168.448 68.6634C168.738 68.8565 168.963 69.1278 169.125 69.4773H169.194C169.361 69.1392 169.613 68.8707 169.948 68.6719C170.283 68.4702 170.685 68.3693 171.154 68.3693C171.739 68.3693 172.218 68.5526 172.59 68.919C172.962 69.2827 173.148 69.8494 173.148 70.6193V75H172.142V70.6193C172.142 70.1364 172.01 69.7912 171.746 69.5838C171.482 69.3764 171.171 69.2727 170.813 69.2727C170.353 69.2727 169.996 69.4119 169.743 69.6903C169.49 69.9659 169.364 70.3153 169.364 70.7386V75H168.341V70.517C168.341 70.1449 168.221 69.8452 167.979 69.6179C167.738 69.3878 167.426 69.2727 167.046 69.2727C166.784 69.2727 166.54 69.3423 166.313 69.4815C166.088 69.6207 165.907 69.8139 165.767 70.0611C165.631 70.3054 165.563 70.5881 165.563 70.9091V75H164.557ZM177.731 75.1364C177.1 75.1364 176.556 74.9972 176.099 74.7188C175.645 74.4375 175.294 74.0455 175.047 73.5426C174.802 73.0369 174.68 72.4489 174.68 71.7784C174.68 71.108 174.802 70.517 175.047 70.0057C175.294 69.4915 175.637 69.0909 176.078 68.804C176.521 68.5142 177.038 68.3693 177.629 68.3693C177.97 68.3693 178.306 68.4261 178.639 68.5398C178.971 68.6534 179.274 68.8381 179.547 69.0938C179.819 69.3466 180.037 69.6818 180.199 70.0994C180.36 70.517 180.441 71.0312 180.441 71.642V72.0682H175.396V71.1989H179.419C179.419 70.8295 179.345 70.5 179.197 70.2102C179.052 69.9205 178.845 69.6918 178.575 69.5241C178.308 69.3565 177.993 69.2727 177.629 69.2727C177.228 69.2727 176.882 69.3722 176.589 69.571C176.299 69.767 176.076 70.0227 175.92 70.3381C175.764 70.6534 175.686 70.9915 175.686 71.3523V71.9318C175.686 72.4261 175.771 72.8452 175.941 73.1889C176.115 73.5298 176.355 73.7898 176.662 73.9688C176.968 74.1449 177.325 74.233 177.731 74.233C177.995 74.233 178.234 74.196 178.447 74.1222C178.663 74.0455 178.849 73.9318 179.005 73.7812C179.162 73.6278 179.282 73.4375 179.368 73.2102L180.339 73.483C180.237 73.8125 180.065 74.1023 179.824 74.3523C179.582 74.5994 179.284 74.7926 178.929 74.9318C178.574 75.0682 178.174 75.1364 177.731 75.1364ZM184.443 75.1364C183.897 75.1364 183.416 74.9986 182.998 74.723C182.581 74.4446 182.254 74.0526 182.018 73.5469C181.782 73.0384 181.664 72.4375 181.664 71.7443C181.664 71.0568 181.782 70.4602 182.018 69.9545C182.254 69.4489 182.582 69.0582 183.002 68.7827C183.423 68.5071 183.909 68.3693 184.46 68.3693C184.886 68.3693 185.223 68.4403 185.47 68.5824C185.72 68.7216 185.91 68.8807 186.041 69.0597C186.174 69.2358 186.278 69.3807 186.352 69.4943H186.437V66.2727H187.443V75H186.471V73.9943H186.352C186.278 74.1136 186.173 74.2642 186.037 74.446C185.9 74.625 185.706 74.7855 185.453 74.9276C185.2 75.0668 184.863 75.1364 184.443 75.1364ZM184.579 74.233C184.983 74.233 185.324 74.1278 185.602 73.9176C185.88 73.7045 186.092 73.4105 186.237 73.0355C186.382 72.6577 186.454 72.2216 186.454 71.7273C186.454 71.2386 186.383 70.8111 186.241 70.4446C186.099 70.0753 185.889 69.7884 185.61 69.5838C185.332 69.3764 184.988 69.2727 184.579 69.2727C184.153 69.2727 183.798 69.3821 183.514 69.6009C183.233 69.8168 183.021 70.1108 182.879 70.483C182.74 70.8523 182.67 71.267 182.67 71.7273C182.67 72.1932 182.741 72.6165 182.883 72.9972C183.028 73.375 183.241 73.6761 183.522 73.9006C183.806 74.1222 184.159 74.233 184.579 74.233ZM189.424 75V68.4545H190.43V75H189.424ZM189.936 67.3636C189.74 67.3636 189.571 67.2969 189.429 67.1634C189.289 67.0298 189.22 66.8693 189.22 66.6818C189.22 66.4943 189.289 66.3338 189.429 66.2003C189.571 66.0668 189.74 66 189.936 66C190.132 66 190.299 66.0668 190.439 66.2003C190.581 66.3338 190.652 66.4943 190.652 66.6818C190.652 66.8693 190.581 67.0298 190.439 67.1634C190.299 67.2969 190.132 67.3636 189.936 67.3636ZM194.198 75.1534C193.783 75.1534 193.407 75.0753 193.069 74.919C192.731 74.7599 192.462 74.5312 192.263 74.233C192.065 73.9318 191.965 73.5682 191.965 73.142C191.965 72.767 192.039 72.4631 192.187 72.2301C192.335 71.9943 192.532 71.8097 192.779 71.6761C193.026 71.5426 193.299 71.4432 193.597 71.3778C193.898 71.3097 194.201 71.2557 194.505 71.2159C194.903 71.1648 195.225 71.1264 195.472 71.1009C195.722 71.0724 195.904 71.0256 196.018 70.9602C196.134 70.8949 196.192 70.7812 196.192 70.6193V70.5852C196.192 70.1648 196.077 69.8381 195.847 69.6051C195.62 69.3722 195.275 69.2557 194.812 69.2557C194.332 69.2557 193.955 69.3608 193.683 69.571C193.41 69.7812 193.218 70.0057 193.107 70.2443L192.153 69.9034C192.323 69.5057 192.55 69.196 192.835 68.9744C193.121 68.75 193.434 68.5937 193.772 68.5057C194.113 68.4148 194.448 68.3693 194.778 68.3693C194.988 68.3693 195.229 68.3949 195.502 68.446C195.778 68.4943 196.043 68.5952 196.299 68.7486C196.558 68.902 196.772 69.1335 196.942 69.4432C197.113 69.7528 197.198 70.1676 197.198 70.6875V75H196.192V74.1136H196.141C196.073 74.2557 195.96 74.4077 195.8 74.5696C195.641 74.7315 195.43 74.8693 195.165 74.983C194.901 75.0966 194.579 75.1534 194.198 75.1534ZM194.352 74.25C194.749 74.25 195.085 74.1719 195.357 74.0156C195.633 73.8594 195.84 73.6577 195.979 73.4105C196.121 73.1634 196.192 72.9034 196.192 72.6307V71.7102C196.15 71.7614 196.056 71.8082 195.911 71.8509C195.769 71.8906 195.604 71.9261 195.417 71.9574C195.232 71.9858 195.052 72.0114 194.876 72.0341C194.702 72.054 194.562 72.071 194.454 72.0852C194.192 72.1193 193.948 72.1747 193.721 72.2514C193.496 72.3253 193.315 72.4375 193.175 72.5881C193.039 72.7358 192.971 72.9375 192.971 73.1932C192.971 73.5426 193.1 73.8068 193.359 73.9858C193.62 74.1619 193.951 74.25 194.352 74.25ZM200.039 71.0625V75H199.034V68.4545H200.005V69.4773H200.091C200.244 69.1449 200.477 68.8778 200.789 68.6761C201.102 68.4716 201.505 68.3693 202 68.3693C202.443 68.3693 202.831 68.4602 203.163 68.642C203.495 68.821 203.754 69.0938 203.939 69.4602C204.123 69.8239 204.216 70.2841 204.216 70.8409V75H203.21V70.9091C203.21 70.3949 203.076 69.9943 202.809 69.7074C202.542 69.4176 202.176 69.2727 201.71 69.2727C201.389 69.2727 201.102 69.3423 200.849 69.4815C200.599 69.6207 200.402 69.8239 200.257 70.0909C200.112 70.358 200.039 70.6818 200.039 71.0625ZM208.9 68.4545V69.3068H205.508V68.4545H208.9ZM206.496 66.8864H207.502V73.125C207.502 73.4091 207.543 73.6222 207.626 73.7642C207.711 73.9034 207.819 73.9972 207.95 74.0455C208.083 74.0909 208.224 74.1136 208.371 74.1136C208.482 74.1136 208.573 74.108 208.644 74.0966C208.715 74.0824 208.772 74.071 208.815 74.0625L209.019 74.9659C208.951 74.9915 208.856 75.017 208.734 75.0426C208.612 75.071 208.457 75.0852 208.269 75.0852C207.985 75.0852 207.707 75.0241 207.434 74.902C207.164 74.7798 206.94 74.5938 206.761 74.3438C206.585 74.0938 206.496 73.7784 206.496 73.3977V66.8864ZM213.087 75.1364C212.456 75.1364 211.912 74.9972 211.455 74.7188C211 74.4375 210.649 74.0455 210.402 73.5426C210.158 73.0369 210.036 72.4489 210.036 71.7784C210.036 71.108 210.158 70.517 210.402 70.0057C210.649 69.4915 210.993 69.0909 211.433 68.804C211.876 68.5142 212.393 68.3693 212.984 68.3693C213.325 68.3693 213.662 68.4261 213.994 68.5398C214.327 68.6534 214.629 68.8381 214.902 69.0938C215.175 69.3466 215.392 69.6818 215.554 70.0994C215.716 70.517 215.797 71.0312 215.797 71.642V72.0682H210.751V71.1989H214.774C214.774 70.8295 214.7 70.5 214.553 70.2102C214.408 69.9205 214.2 69.6918 213.93 69.5241C213.663 69.3565 213.348 69.2727 212.984 69.2727C212.584 69.2727 212.237 69.3722 211.945 69.571C211.655 69.767 211.432 70.0227 211.276 70.3381C211.119 70.6534 211.041 70.9915 211.041 71.3523V71.9318C211.041 72.4261 211.126 72.8452 211.297 73.1889C211.47 73.5298 211.71 73.7898 212.017 73.9688C212.324 74.1449 212.68 74.233 213.087 74.233C213.351 74.233 213.589 74.196 213.803 74.1222C214.018 74.0455 214.205 73.9318 214.361 73.7812C214.517 73.6278 214.638 73.4375 214.723 73.2102L215.695 73.483C215.592 73.8125 215.42 74.1023 215.179 74.3523C214.938 74.5994 214.639 74.7926 214.284 74.9318C213.929 75.0682 213.53 75.1364 213.087 75.1364ZM224.827 72.3239V68.4545H225.832V75H224.827V73.892H224.759C224.605 74.2244 224.366 74.5071 224.043 74.7401C223.719 74.9702 223.31 75.0852 222.815 75.0852C222.406 75.0852 222.043 74.9957 221.724 74.8168C221.406 74.6349 221.156 74.3622 220.974 73.9986C220.793 73.6321 220.702 73.1705 220.702 72.6136V68.4545H221.707V72.5455C221.707 73.0227 221.841 73.4034 222.108 73.6875C222.378 73.9716 222.722 74.1136 223.139 74.1136C223.389 74.1136 223.643 74.0497 223.902 73.9219C224.163 73.794 224.382 73.598 224.558 73.3338C224.737 73.0696 224.827 72.733 224.827 72.3239ZM228.68 71.0625V75H227.674V68.4545H228.646V69.4773H228.731C228.885 69.1449 229.118 68.8778 229.43 68.6761C229.743 68.4716 230.146 68.3693 230.64 68.3693C231.083 68.3693 231.471 68.4602 231.804 68.642C232.136 68.821 232.395 69.0938 232.579 69.4602C232.764 69.8239 232.856 70.2841 232.856 70.8409V75H231.85V70.9091C231.85 70.3949 231.717 69.9943 231.45 69.7074C231.183 69.4176 230.816 69.2727 230.35 69.2727C230.029 69.2727 229.743 69.3423 229.49 69.4815C229.24 69.6207 229.042 69.8239 228.897 70.0909C228.752 70.358 228.68 70.6818 228.68 71.0625ZM236.62 75.1534C236.205 75.1534 235.829 75.0753 235.491 74.919C235.153 74.7599 234.884 74.5312 234.685 74.233C234.487 73.9318 234.387 73.5682 234.387 73.142C234.387 72.767 234.461 72.4631 234.609 72.2301C234.756 71.9943 234.954 71.8097 235.201 71.6761C235.448 71.5426 235.721 71.4432 236.019 71.3778C236.32 71.3097 236.623 71.2557 236.927 71.2159C237.325 71.1648 237.647 71.1264 237.894 71.1009C238.144 71.0724 238.326 71.0256 238.44 70.9602C238.556 70.8949 238.614 70.7812 238.614 70.6193V70.5852C238.614 70.1648 238.499 69.8381 238.269 69.6051C238.042 69.3722 237.697 69.2557 237.234 69.2557C236.754 69.2557 236.377 69.3608 236.104 69.571C235.832 69.7812 235.64 70.0057 235.529 70.2443L234.575 69.9034C234.745 69.5057 234.972 69.196 235.256 68.9744C235.543 68.75 235.856 68.5937 236.194 68.5057C236.535 68.4148 236.87 68.3693 237.2 68.3693C237.41 68.3693 237.651 68.3949 237.924 68.446C238.2 68.4943 238.465 68.5952 238.721 68.7486C238.979 68.902 239.194 69.1335 239.364 69.4432C239.535 69.7528 239.62 70.1676 239.62 70.6875V75H238.614V74.1136H238.563C238.495 74.2557 238.381 74.4077 238.222 74.5696C238.063 74.7315 237.852 74.8693 237.587 74.983C237.323 75.0966 237.001 75.1534 236.62 75.1534ZM236.773 74.25C237.171 74.25 237.506 74.1719 237.779 74.0156C238.055 73.8594 238.262 73.6577 238.401 73.4105C238.543 73.1634 238.614 72.9034 238.614 72.6307V71.7102C238.572 71.7614 238.478 71.8082 238.333 71.8509C238.191 71.8906 238.026 71.9261 237.839 71.9574C237.654 71.9858 237.474 72.0114 237.298 72.0341C237.124 72.054 236.984 72.071 236.876 72.0852C236.614 72.1193 236.37 72.1747 236.143 72.2514C235.918 72.3253 235.737 72.4375 235.597 72.5881C235.461 72.7358 235.393 72.9375 235.393 73.1932C235.393 73.5426 235.522 73.8068 235.781 73.9858C236.042 74.1619 236.373 74.25 236.773 74.25ZM245.325 75H244.217L247.422 66.2727H248.512L251.717 75H250.609L248.001 67.6534H247.933L245.325 75ZM245.734 71.5909H250.2V72.5284H245.734V71.5909ZM253.076 75V66.2727H256.025C256.71 66.2727 257.27 66.3963 257.704 66.6435C258.142 66.8878 258.466 67.2188 258.676 67.6364C258.886 68.054 258.991 68.5199 258.991 69.0341C258.991 69.5483 258.886 70.0156 258.676 70.4361C258.468 70.8565 258.147 71.1918 257.713 71.4418C257.278 71.6889 256.721 71.8125 256.042 71.8125H253.929V70.875H256.008C256.477 70.875 256.853 70.794 257.137 70.6321C257.422 70.4702 257.627 70.2514 257.755 69.9759C257.886 69.6974 257.951 69.3835 257.951 69.0341C257.951 68.6847 257.886 68.3722 257.755 68.0966C257.627 67.821 257.42 67.6051 257.133 67.4489C256.846 67.2898 256.466 67.2102 255.991 67.2102H254.133V75H253.076ZM261.75 66.2727V75H260.694V66.2727H261.75ZM267.244 75V66.2727H270.193C270.875 66.2727 271.435 66.3892 271.872 66.6222C272.31 66.8523 272.634 67.169 272.844 67.5724C273.054 67.9759 273.159 68.4347 273.159 68.9489C273.159 69.4631 273.054 69.919 272.844 70.3168C272.634 70.7145 272.311 71.027 271.876 71.2543C271.442 71.4787 270.886 71.5909 270.21 71.5909H267.824V70.6364H270.176C270.642 70.6364 271.017 70.5682 271.301 70.4318C271.588 70.2955 271.795 70.1023 271.923 69.8523C272.054 69.5994 272.119 69.2983 272.119 68.9489C272.119 68.5994 272.054 68.294 271.923 68.0327C271.793 67.7713 271.584 67.5696 271.297 67.4276C271.01 67.2827 270.631 67.2102 270.159 67.2102H268.301V75H267.244ZM271.352 71.0795L273.5 75H272.273L270.159 71.0795H271.352ZM277.458 75.1364C276.827 75.1364 276.283 74.9972 275.826 74.7188C275.371 74.4375 275.02 74.0455 274.773 73.5426C274.529 73.0369 274.407 72.4489 274.407 71.7784C274.407 71.108 274.529 70.517 274.773 70.0057C275.02 69.4915 275.364 69.0909 275.804 68.804C276.248 68.5142 276.765 68.3693 277.355 68.3693C277.696 68.3693 278.033 68.4261 278.365 68.5398C278.698 68.6534 279 68.8381 279.273 69.0938C279.546 69.3466 279.763 69.6818 279.925 70.0994C280.087 70.517 280.168 71.0312 280.168 71.642V72.0682H275.123V71.1989H279.145C279.145 70.8295 279.071 70.5 278.924 70.2102C278.779 69.9205 278.571 69.6918 278.301 69.5241C278.034 69.3565 277.719 69.2727 277.355 69.2727C276.955 69.2727 276.608 69.3722 276.316 69.571C276.026 69.767 275.803 70.0227 275.647 70.3381C275.49 70.6534 275.412 70.9915 275.412 71.3523V71.9318C275.412 72.4261 275.498 72.8452 275.668 73.1889C275.841 73.5298 276.081 73.7898 276.388 73.9688C276.695 74.1449 277.051 74.233 277.458 74.233C277.722 74.233 277.961 74.196 278.174 74.1222C278.39 74.0455 278.576 73.9318 278.732 73.7812C278.888 73.6278 279.009 73.4375 279.094 73.2102L280.066 73.483C279.963 73.8125 279.792 74.1023 279.55 74.3523C279.309 74.5994 279.01 74.7926 278.655 74.9318C278.3 75.0682 277.901 75.1364 277.458 75.1364ZM286.334 69.9205L285.431 70.1761C285.374 70.0256 285.29 69.8793 285.179 69.7372C285.071 69.5923 284.924 69.473 284.736 69.3793C284.549 69.2855 284.309 69.2386 284.016 69.2386C283.615 69.2386 283.282 69.331 283.015 69.5156C282.75 69.6974 282.618 69.929 282.618 70.2102C282.618 70.4602 282.709 70.6577 282.891 70.8026C283.073 70.9474 283.357 71.0682 283.743 71.1648L284.715 71.4034C285.3 71.5455 285.736 71.7628 286.023 72.0554C286.31 72.3452 286.453 72.7187 286.453 73.1761C286.453 73.5511 286.346 73.8864 286.13 74.1818C285.917 74.4773 285.618 74.7102 285.235 74.8807C284.851 75.0511 284.405 75.1364 283.897 75.1364C283.229 75.1364 282.676 74.9915 282.239 74.7017C281.801 74.4119 281.525 73.9886 281.408 73.4318L282.363 73.1932C282.453 73.5455 282.625 73.8097 282.878 73.9858C283.134 74.1619 283.468 74.25 283.88 74.25C284.348 74.25 284.721 74.1506 284.996 73.9517C285.275 73.75 285.414 73.5085 285.414 73.2273C285.414 73 285.334 72.8097 285.175 72.6562C285.016 72.5 284.772 72.3835 284.442 72.3068L283.351 72.0511C282.752 71.9091 282.311 71.6889 282.03 71.3906C281.752 71.0895 281.613 70.7131 281.613 70.2614C281.613 69.892 281.716 69.5653 281.924 69.2812C282.134 68.9972 282.419 68.7741 282.78 68.6122C283.144 68.4503 283.556 68.3693 284.016 68.3693C284.664 68.3693 285.172 68.5114 285.542 68.7955C285.914 69.0795 286.178 69.4545 286.334 69.9205ZM290.814 68.4545V69.3068H287.422V68.4545H290.814ZM288.411 66.8864H289.416V73.125C289.416 73.4091 289.457 73.6222 289.54 73.7642C289.625 73.9034 289.733 73.9972 289.864 74.0455C289.997 74.0909 290.138 74.1136 290.286 74.1136C290.396 74.1136 290.487 74.108 290.558 74.0966C290.629 74.0824 290.686 74.071 290.729 74.0625L290.933 74.9659C290.865 74.9915 290.77 75.017 290.648 75.0426C290.526 75.071 290.371 75.0852 290.183 75.0852C289.899 75.0852 289.621 75.0241 289.348 74.902C289.078 74.7798 288.854 74.5938 288.675 74.3438C288.499 74.0938 288.411 73.7784 288.411 73.3977V66.8864ZM296.707 71.0625V75H295.702V66.2727H296.707V69.4773H296.793C296.946 69.1392 297.176 68.8707 297.483 68.6719C297.793 68.4702 298.205 68.3693 298.719 68.3693C299.165 68.3693 299.555 68.4588 299.891 68.6378C300.226 68.8139 300.486 69.0852 300.67 69.4517C300.858 69.8153 300.952 70.2784 300.952 70.8409V75H299.946V70.9091C299.946 70.3892 299.811 69.9872 299.541 69.7031C299.274 69.4162 298.903 69.2727 298.429 69.2727C298.099 69.2727 297.804 69.3423 297.543 69.4815C297.284 69.6207 297.08 69.8239 296.929 70.0909C296.781 70.358 296.707 70.6818 296.707 71.0625ZM305.536 75.1364C304.905 75.1364 304.361 74.9972 303.904 74.7188C303.449 74.4375 303.098 74.0455 302.851 73.5426C302.607 73.0369 302.485 72.4489 302.485 71.7784C302.485 71.108 302.607 70.517 302.851 70.0057C303.098 69.4915 303.442 69.0909 303.882 68.804C304.326 68.5142 304.843 68.3693 305.434 68.3693C305.775 68.3693 306.111 68.4261 306.444 68.5398C306.776 68.6534 307.078 68.8381 307.351 69.0938C307.624 69.3466 307.841 69.6818 308.003 70.0994C308.165 70.517 308.246 71.0312 308.246 71.642V72.0682H303.201V71.1989H307.223C307.223 70.8295 307.15 70.5 307.002 70.2102C306.857 69.9205 306.65 69.6918 306.38 69.5241C306.113 69.3565 305.797 69.2727 305.434 69.2727C305.033 69.2727 304.686 69.3722 304.394 69.571C304.104 69.767 303.881 70.0227 303.725 70.3381C303.569 70.6534 303.49 70.9915 303.49 71.3523V71.9318C303.49 72.4261 303.576 72.8452 303.746 73.1889C303.919 73.5298 304.159 73.7898 304.466 73.9688C304.773 74.1449 305.13 74.233 305.536 74.233C305.8 74.233 306.039 74.196 306.252 74.1222C306.468 74.0455 306.654 73.9318 306.81 73.7812C306.966 73.6278 307.087 73.4375 307.172 73.2102L308.144 73.483C308.042 73.8125 307.87 74.1023 307.628 74.3523C307.387 74.5994 307.088 74.7926 306.733 74.9318C306.378 75.0682 305.979 75.1364 305.536 75.1364ZM312.435 75.1364C311.821 75.1364 311.293 74.9915 310.85 74.7017C310.407 74.4119 310.066 74.0128 309.827 73.5043C309.588 72.9957 309.469 72.4148 309.469 71.7614C309.469 71.0966 309.591 70.5099 309.836 70.0014C310.083 69.4901 310.426 69.0909 310.867 68.804C311.31 68.5142 311.827 68.3693 312.418 68.3693C312.878 68.3693 313.293 68.4545 313.662 68.625C314.032 68.7955 314.334 69.0341 314.57 69.3409C314.806 69.6477 314.952 70.0057 315.009 70.4148H314.003C313.926 70.1165 313.756 69.8523 313.492 69.6222C313.23 69.3892 312.878 69.2727 312.435 69.2727C312.043 69.2727 311.699 69.375 311.404 69.5795C311.111 69.7812 310.882 70.0668 310.718 70.4361C310.556 70.8026 310.475 71.233 310.475 71.7273C310.475 72.233 310.554 72.6733 310.713 73.0483C310.875 73.4233 311.103 73.7145 311.395 73.9219C311.691 74.1293 312.037 74.233 312.435 74.233C312.696 74.233 312.934 74.1875 313.147 74.0966C313.36 74.0057 313.54 73.875 313.688 73.7045C313.836 73.5341 313.941 73.3295 314.003 73.0909H315.009C314.952 73.4773 314.811 73.8253 314.587 74.1349C314.365 74.4418 314.071 74.6861 313.705 74.8679C313.341 75.0469 312.918 75.1364 312.435 75.1364ZM317.485 71.0625V75H316.479V66.2727H317.485V69.4773H317.57C317.723 69.1392 317.953 68.8707 318.26 68.6719C318.57 68.4702 318.982 68.3693 319.496 68.3693C319.942 68.3693 320.333 68.4588 320.668 68.6378C321.003 68.8139 321.263 69.0852 321.448 69.4517C321.635 69.8153 321.729 70.2784 321.729 70.8409V75H320.723V70.9091C320.723 70.3892 320.588 69.9872 320.319 69.7031C320.051 69.4162 319.681 69.2727 319.206 69.2727C318.877 69.2727 318.581 69.3423 318.32 69.4815C318.061 69.6207 317.857 69.8239 317.706 70.0909C317.559 70.358 317.485 70.6818 317.485 71.0625ZM325.495 75.1534C325.08 75.1534 324.704 75.0753 324.366 74.919C324.028 74.7599 323.759 74.5312 323.56 74.233C323.362 73.9318 323.262 73.5682 323.262 73.142C323.262 72.767 323.336 72.4631 323.484 72.2301C323.631 71.9943 323.829 71.8097 324.076 71.6761C324.323 71.5426 324.596 71.4432 324.894 71.3778C325.195 71.3097 325.498 71.2557 325.802 71.2159C326.2 71.1648 326.522 71.1264 326.769 71.1009C327.019 71.0724 327.201 71.0256 327.315 70.9602C327.431 70.8949 327.489 70.7812 327.489 70.6193V70.5852C327.489 70.1648 327.374 69.8381 327.144 69.6051C326.917 69.3722 326.572 69.2557 326.109 69.2557C325.629 69.2557 325.252 69.3608 324.979 69.571C324.707 69.7812 324.515 70.0057 324.404 70.2443L323.45 69.9034C323.62 69.5057 323.847 69.196 324.131 68.9744C324.418 68.75 324.731 68.5937 325.069 68.5057C325.41 68.4148 325.745 68.3693 326.075 68.3693C326.285 68.3693 326.526 68.3949 326.799 68.446C327.075 68.4943 327.34 68.5952 327.596 68.7486C327.854 68.902 328.069 69.1335 328.239 69.4432C328.41 69.7528 328.495 70.1676 328.495 70.6875V75H327.489V74.1136H327.438C327.37 74.2557 327.256 74.4077 327.097 74.5696C326.938 74.7315 326.727 74.8693 326.462 74.983C326.198 75.0966 325.876 75.1534 325.495 75.1534ZM325.648 74.25C326.046 74.25 326.381 74.1719 326.654 74.0156C326.93 73.8594 327.137 73.6577 327.276 73.4105C327.418 73.1634 327.489 72.9034 327.489 72.6307V71.7102C327.447 71.7614 327.353 71.8082 327.208 71.8509C327.066 71.8906 326.901 71.9261 326.714 71.9574C326.529 71.9858 326.349 72.0114 326.173 72.0341C325.999 72.054 325.859 72.071 325.751 72.0852C325.489 72.1193 325.245 72.1747 325.018 72.2514C324.793 72.3253 324.612 72.4375 324.472 72.5881C324.336 72.7358 324.268 72.9375 324.268 73.1932C324.268 73.5426 324.397 73.8068 324.656 73.9858C324.917 74.1619 325.248 74.25 325.648 74.25ZM59.5795 90.1364C58.9659 90.1364 58.4375 89.9915 57.9943 89.7017C57.5511 89.4119 57.2102 89.0128 56.9716 88.5043C56.733 87.9957 56.6136 87.4148 56.6136 86.7614C56.6136 86.0966 56.7358 85.5099 56.9801 85.0014C57.2273 84.4901 57.571 84.0909 58.0114 83.804C58.4545 83.5142 58.9716 83.3693 59.5625 83.3693C60.0227 83.3693 60.4375 83.4545 60.8068 83.625C61.1761 83.7955 61.4787 84.0341 61.7145 84.3409C61.9503 84.6477 62.0966 85.0057 62.1534 85.4148H61.1477C61.071 85.1165 60.9006 84.8523 60.6364 84.6222C60.375 84.3892 60.0227 84.2727 59.5795 84.2727C59.1875 84.2727 58.8438 84.375 58.5483 84.5795C58.2557 84.7812 58.027 85.0668 57.8622 85.4361C57.7003 85.8026 57.6193 86.233 57.6193 86.7273C57.6193 87.233 57.6989 87.6733 57.858 88.0483C58.0199 88.4233 58.2472 88.7145 58.5398 88.9219C58.8352 89.1293 59.1818 89.233 59.5795 89.233C59.8409 89.233 60.0781 89.1875 60.2912 89.0966C60.5043 89.0057 60.6847 88.875 60.8324 88.7045C60.9801 88.5341 61.0852 88.3295 61.1477 88.0909H62.1534C62.0966 88.4773 61.956 88.8253 61.7315 89.1349C61.5099 89.4418 61.2159 89.6861 60.8494 89.8679C60.4858 90.0469 60.0625 90.1364 59.5795 90.1364ZM66.2827 90.1364C65.6918 90.1364 65.1733 89.9957 64.7273 89.7145C64.2841 89.4332 63.9375 89.0398 63.6875 88.5341C63.4403 88.0284 63.3168 87.4375 63.3168 86.7614C63.3168 86.0795 63.4403 85.4844 63.6875 84.9759C63.9375 84.4673 64.2841 84.0724 64.7273 83.7912C65.1733 83.5099 65.6918 83.3693 66.2827 83.3693C66.8736 83.3693 67.3906 83.5099 67.8338 83.7912C68.2798 84.0724 68.6264 84.4673 68.8736 84.9759C69.1236 85.4844 69.2486 86.0795 69.2486 86.7614C69.2486 87.4375 69.1236 88.0284 68.8736 88.5341C68.6264 89.0398 68.2798 89.4332 67.8338 89.7145C67.3906 89.9957 66.8736 90.1364 66.2827 90.1364ZM66.2827 89.233C66.7315 89.233 67.1009 89.1179 67.3906 88.8878C67.6804 88.6577 67.8949 88.3551 68.0341 87.9801C68.1733 87.6051 68.2429 87.1989 68.2429 86.7614C68.2429 86.3239 68.1733 85.9162 68.0341 85.5384C67.8949 85.1605 67.6804 84.8551 67.3906 84.6222C67.1009 84.3892 66.7315 84.2727 66.2827 84.2727C65.8338 84.2727 65.4645 84.3892 65.1747 84.6222C64.8849 84.8551 64.6705 85.1605 64.5312 85.5384C64.392 85.9162 64.3224 86.3239 64.3224 86.7614C64.3224 87.1989 64.392 87.6051 64.5312 87.9801C64.6705 88.3551 64.8849 88.6577 65.1747 88.8878C65.4645 89.1179 65.8338 89.233 66.2827 89.233ZM71.7894 86.0625V90H70.7837V83.4545H71.7553V84.4773H71.8406C71.994 84.1449 72.2269 83.8778 72.5394 83.6761C72.8519 83.4716 73.2553 83.3693 73.7496 83.3693C74.1928 83.3693 74.5806 83.4602 74.913 83.642C75.2454 83.821 75.5039 84.0938 75.6886 84.4602C75.8732 84.8239 75.9656 85.2841 75.9656 85.8409V90H74.9599V85.9091C74.9599 85.3949 74.8263 84.9943 74.5593 84.7074C74.2923 84.4176 73.9258 84.2727 73.4599 84.2727C73.1388 84.2727 72.8519 84.3423 72.5991 84.4815C72.3491 84.6207 72.1516 84.8239 72.0067 85.0909C71.8619 85.358 71.7894 85.6818 71.7894 86.0625ZM88.2351 81.2727V90H87.2124L82.4567 83.1477H82.3714V90H81.3146V81.2727H82.3374L87.1101 88.142H87.1953V81.2727H88.2351ZM92.8725 90.1364C92.2816 90.1364 91.7631 89.9957 91.3171 89.7145C90.8739 89.4332 90.5273 89.0398 90.2773 88.5341C90.0302 88.0284 89.9066 87.4375 89.9066 86.7614C89.9066 86.0795 90.0302 85.4844 90.2773 84.9759C90.5273 84.4673 90.8739 84.0724 91.3171 83.7912C91.7631 83.5099 92.2816 83.3693 92.8725 83.3693C93.4634 83.3693 93.9805 83.5099 94.4237 83.7912C94.8697 84.0724 95.2163 84.4673 95.4634 84.9759C95.7134 85.4844 95.8384 86.0795 95.8384 86.7614C95.8384 87.4375 95.7134 88.0284 95.4634 88.5341C95.2163 89.0398 94.8697 89.4332 94.4237 89.7145C93.9805 89.9957 93.4634 90.1364 92.8725 90.1364ZM92.8725 89.233C93.3214 89.233 93.6907 89.1179 93.9805 88.8878C94.2702 88.6577 94.4847 88.3551 94.6239 87.9801C94.7631 87.6051 94.8327 87.1989 94.8327 86.7614C94.8327 86.3239 94.7631 85.9162 94.6239 85.5384C94.4847 85.1605 94.2702 84.8551 93.9805 84.6222C93.6907 84.3892 93.3214 84.2727 92.8725 84.2727C92.4237 84.2727 92.0543 84.3892 91.7646 84.6222C91.4748 84.8551 91.2603 85.1605 91.1211 85.5384C90.9819 85.9162 90.9123 86.3239 90.9123 86.7614C90.9123 87.1989 90.9819 87.6051 91.1211 87.9801C91.2603 88.3551 91.4748 88.6577 91.7646 88.8878C92.0543 89.1179 92.4237 89.233 92.8725 89.233ZM99.8452 90.1364C99.2997 90.1364 98.8182 89.9986 98.4006 89.723C97.983 89.4446 97.6563 89.0526 97.4205 88.5469C97.1847 88.0384 97.0668 87.4375 97.0668 86.7443C97.0668 86.0568 97.1847 85.4602 97.4205 84.9545C97.6563 84.4489 97.9844 84.0582 98.4048 83.7827C98.8253 83.5071 99.3111 83.3693 99.8622 83.3693C100.288 83.3693 100.625 83.4403 100.872 83.5824C101.122 83.7216 101.313 83.8807 101.443 84.0597C101.577 84.2358 101.68 84.3807 101.754 84.4943H101.839V81.2727H102.845V90H101.874V88.9943H101.754C101.68 89.1136 101.575 89.2642 101.439 89.446C101.303 89.625 101.108 89.7855 100.855 89.9276C100.602 90.0668 100.266 90.1364 99.8452 90.1364ZM99.9815 89.233C100.385 89.233 100.726 89.1278 101.004 88.9176C101.283 88.7045 101.494 88.4105 101.639 88.0355C101.784 87.6577 101.857 87.2216 101.857 86.7273C101.857 86.2386 101.786 85.8111 101.643 85.4446C101.501 85.0753 101.291 84.7884 101.013 84.5838C100.734 84.3764 100.391 84.2727 99.9815 84.2727C99.5554 84.2727 99.2003 84.3821 98.9162 84.6009C98.6349 84.8168 98.4233 85.1108 98.2812 85.483C98.142 85.8523 98.0724 86.267 98.0724 86.7273C98.0724 87.1932 98.1435 87.6165 98.2855 87.9972C98.4304 88.375 98.6435 88.6761 98.9247 88.9006C99.2088 89.1222 99.5611 89.233 99.9815 89.233ZM107.571 90.1364C106.94 90.1364 106.396 89.9972 105.939 89.7188C105.484 89.4375 105.134 89.0455 104.886 88.5426C104.642 88.0369 104.52 87.4489 104.52 86.7784C104.52 86.108 104.642 85.517 104.886 85.0057C105.134 84.4915 105.477 84.0909 105.918 83.804C106.361 83.5142 106.878 83.3693 107.469 83.3693C107.81 83.3693 108.146 83.4261 108.479 83.5398C108.811 83.6534 109.114 83.8381 109.386 84.0938C109.659 84.3466 109.876 84.6818 110.038 85.0994C110.2 85.517 110.281 86.0312 110.281 86.642V87.0682H105.236V86.1989H109.259C109.259 85.8295 109.185 85.5 109.037 85.2102C108.892 84.9205 108.685 84.6918 108.415 84.5241C108.148 84.3565 107.832 84.2727 107.469 84.2727C107.068 84.2727 106.722 84.3722 106.429 84.571C106.139 84.767 105.916 85.0227 105.76 85.3381C105.604 85.6534 105.526 85.9915 105.526 86.3523V86.9318C105.526 87.4261 105.611 87.8452 105.781 88.1889C105.955 88.5298 106.195 88.7898 106.501 88.9688C106.808 89.1449 107.165 89.233 107.571 89.233C107.835 89.233 108.074 89.196 108.287 89.1222C108.503 89.0455 108.689 88.9318 108.845 88.7812C109.001 88.6278 109.122 88.4375 109.207 88.2102L110.179 88.483C110.077 88.8125 109.905 89.1023 109.663 89.3523C109.422 89.5994 109.124 89.7926 108.768 89.9318C108.413 90.0682 108.014 90.1364 107.571 90.1364ZM115.834 92.4545C115.663 92.4545 115.511 92.4403 115.378 92.4119C115.244 92.3864 115.152 92.3608 115.101 92.3352L115.357 91.4489C115.601 91.5114 115.817 91.5341 116.004 91.517C116.192 91.5 116.358 91.4162 116.503 91.2656C116.651 91.1179 116.786 90.8778 116.908 90.5455L117.095 90.0341L114.675 83.4545H115.766L117.572 88.6705H117.641L119.447 83.4545H120.538L117.76 90.9545C117.635 91.2926 117.48 91.5724 117.295 91.794C117.111 92.0185 116.896 92.1847 116.652 92.2926C116.411 92.4006 116.138 92.4545 115.834 92.4545ZM125.377 90V81.2727H130.644V82.2102H126.434V85.1591H130.371V86.0966H126.434V89.0625H130.712V90H125.377ZM133.163 83.4545L134.731 86.1307L136.299 83.4545H137.458L135.344 86.7273L137.458 90H136.299L134.731 87.4602L133.163 90H132.004L134.083 86.7273L132.004 83.4545H133.163ZM138.893 92.4545V83.4545H139.865V84.4943H139.984C140.058 84.3807 140.16 84.2358 140.291 84.0597C140.424 83.8807 140.615 83.7216 140.862 83.5824C141.112 83.4403 141.45 83.3693 141.876 83.3693C142.427 83.3693 142.913 83.5071 143.333 83.7827C143.754 84.0582 144.082 84.4489 144.318 84.9545C144.554 85.4602 144.672 86.0568 144.672 86.7443C144.672 87.4375 144.554 88.0384 144.318 88.5469C144.082 89.0526 143.755 89.4446 143.338 89.723C142.92 89.9986 142.439 90.1364 141.893 90.1364C141.473 90.1364 141.136 90.0668 140.883 89.9276C140.63 89.7855 140.436 89.625 140.299 89.446C140.163 89.2642 140.058 89.1136 139.984 88.9943H139.899V92.4545H138.893ZM139.882 86.7273C139.882 87.2216 139.954 87.6577 140.099 88.0355C140.244 88.4105 140.456 88.7045 140.734 88.9176C141.012 89.1278 141.353 89.233 141.757 89.233C142.177 89.233 142.528 89.1222 142.809 88.9006C143.093 88.6761 143.306 88.375 143.449 87.9972C143.593 87.6165 143.666 87.1932 143.666 86.7273C143.666 86.267 143.595 85.8523 143.453 85.483C143.314 85.1108 143.102 84.8168 142.818 84.6009C142.537 84.3821 142.183 84.2727 141.757 84.2727C141.348 84.2727 141.004 84.3764 140.725 84.5838C140.447 84.7884 140.237 85.0753 140.095 85.4446C139.953 85.8111 139.882 86.2386 139.882 86.7273ZM146.206 90V83.4545H147.177V84.4432H147.245C147.365 84.1193 147.581 83.8565 147.893 83.6548C148.206 83.4531 148.558 83.3523 148.95 83.3523C149.024 83.3523 149.116 83.3537 149.227 83.3565C149.338 83.3594 149.422 83.3636 149.478 83.3693V84.392C149.444 84.3835 149.366 84.3707 149.244 84.3537C149.125 84.3338 148.998 84.3239 148.865 84.3239C148.547 84.3239 148.262 84.3906 148.012 84.5241C147.765 84.6548 147.569 84.8366 147.424 85.0696C147.282 85.2997 147.211 85.5625 147.211 85.858V90H146.206ZM153.216 90.1364C152.585 90.1364 152.041 89.9972 151.583 89.7188C151.129 89.4375 150.778 89.0455 150.531 88.5426C150.287 88.0369 150.164 87.4489 150.164 86.7784C150.164 86.108 150.287 85.517 150.531 85.0057C150.778 84.4915 151.122 84.0909 151.562 83.804C152.005 83.5142 152.522 83.3693 153.113 83.3693C153.454 83.3693 153.791 83.4261 154.123 83.5398C154.456 83.6534 154.758 83.8381 155.031 84.0938C155.304 84.3466 155.521 84.6818 155.683 85.0994C155.845 85.517 155.926 86.0312 155.926 86.642V87.0682H150.88V86.1989H154.903C154.903 85.8295 154.829 85.5 154.681 85.2102C154.537 84.9205 154.329 84.6918 154.059 84.5241C153.792 84.3565 153.477 84.2727 153.113 84.2727C152.713 84.2727 152.366 84.3722 152.074 84.571C151.784 84.767 151.561 85.0227 151.404 85.3381C151.248 85.6534 151.17 85.9915 151.17 86.3523V86.9318C151.17 87.4261 151.255 87.8452 151.426 88.1889C151.599 88.5298 151.839 88.7898 152.146 88.9688C152.453 89.1449 152.809 89.233 153.216 89.233C153.48 89.233 153.718 89.196 153.931 89.1222C154.147 89.0455 154.333 88.9318 154.49 88.7812C154.646 88.6278 154.767 88.4375 154.852 88.2102L155.824 88.483C155.721 88.8125 155.549 89.1023 155.308 89.3523C155.066 89.5994 154.768 89.7926 154.413 89.9318C154.058 90.0682 153.659 90.1364 153.216 90.1364ZM162.092 84.9205L161.189 85.1761C161.132 85.0256 161.048 84.8793 160.937 84.7372C160.829 84.5923 160.681 84.473 160.494 84.3793C160.306 84.2855 160.066 84.2386 159.774 84.2386C159.373 84.2386 159.039 84.331 158.772 84.5156C158.508 84.6974 158.376 84.929 158.376 85.2102C158.376 85.4602 158.467 85.6577 158.649 85.8026C158.831 85.9474 159.115 86.0682 159.501 86.1648L160.473 86.4034C161.058 86.5455 161.494 86.7628 161.781 87.0554C162.068 87.3452 162.211 87.7187 162.211 88.1761C162.211 88.5511 162.103 88.8864 161.887 89.1818C161.674 89.4773 161.376 89.7102 160.993 89.8807C160.609 90.0511 160.163 90.1364 159.654 90.1364C158.987 90.1364 158.434 89.9915 157.997 89.7017C157.559 89.4119 157.282 88.9886 157.166 88.4318L158.12 88.1932C158.211 88.5455 158.383 88.8097 158.636 88.9858C158.892 89.1619 159.225 89.25 159.637 89.25C160.106 89.25 160.478 89.1506 160.754 88.9517C161.032 88.75 161.172 88.5085 161.172 88.2273C161.172 88 161.092 87.8097 160.933 87.6562C160.774 87.5 160.529 87.3835 160.2 87.3068L159.109 87.0511C158.51 86.9091 158.069 86.6889 157.788 86.3906C157.51 86.0895 157.37 85.7131 157.37 85.2614C157.37 84.892 157.474 84.5653 157.681 84.2812C157.892 83.9972 158.177 83.7741 158.538 83.6122C158.902 83.4503 159.314 83.3693 159.774 83.3693C160.422 83.3693 160.93 83.5114 161.299 83.7955C161.672 84.0795 161.936 84.4545 162.092 84.9205ZM168.362 84.9205L167.458 85.1761C167.401 85.0256 167.317 84.8793 167.207 84.7372C167.099 84.5923 166.951 84.473 166.763 84.3793C166.576 84.2855 166.336 84.2386 166.043 84.2386C165.643 84.2386 165.309 84.331 165.042 84.5156C164.778 84.6974 164.646 84.929 164.646 85.2102C164.646 85.4602 164.737 85.6577 164.918 85.8026C165.1 85.9474 165.384 86.0682 165.771 86.1648L166.742 86.4034C167.327 86.5455 167.763 86.7628 168.05 87.0554C168.337 87.3452 168.481 87.7187 168.481 88.1761C168.481 88.5511 168.373 88.8864 168.157 89.1818C167.944 89.4773 167.646 89.7102 167.262 89.8807C166.879 90.0511 166.433 90.1364 165.924 90.1364C165.256 90.1364 164.704 89.9915 164.266 89.7017C163.829 89.4119 163.552 88.9886 163.435 88.4318L164.39 88.1932C164.481 88.5455 164.653 88.8097 164.906 88.9858C165.161 89.1619 165.495 89.25 165.907 89.25C166.376 89.25 166.748 89.1506 167.023 88.9517C167.302 88.75 167.441 88.5085 167.441 88.2273C167.441 88 167.362 87.8097 167.202 87.6562C167.043 87.5 166.799 87.3835 166.469 87.3068L165.379 87.0511C164.779 86.9091 164.339 86.6889 164.058 86.3906C163.779 86.0895 163.64 85.7131 163.64 85.2614C163.64 84.892 163.744 84.5653 163.951 84.2812C164.161 83.9972 164.447 83.7741 164.808 83.6122C165.171 83.4503 165.583 83.3693 166.043 83.3693C166.691 83.3693 167.2 83.5114 167.569 83.7955C167.941 84.0795 168.205 84.4545 168.362 84.9205ZM176.029 90.1364C175.415 90.1364 174.887 89.9915 174.444 89.7017C174 89.4119 173.659 89.0128 173.421 88.5043C173.182 87.9957 173.063 87.4148 173.063 86.7614C173.063 86.0966 173.185 85.5099 173.429 85.0014C173.676 84.4901 174.02 84.0909 174.461 83.804C174.904 83.5142 175.421 83.3693 176.012 83.3693C176.472 83.3693 176.887 83.4545 177.256 83.625C177.625 83.7955 177.928 84.0341 178.164 84.3409C178.4 84.6477 178.546 85.0057 178.603 85.4148H177.597C177.52 85.1165 177.35 84.8523 177.086 84.6222C176.824 84.3892 176.472 84.2727 176.029 84.2727C175.637 84.2727 175.293 84.375 174.998 84.5795C174.705 84.7812 174.476 85.0668 174.311 85.4361C174.15 85.8026 174.069 86.233 174.069 86.7273C174.069 87.233 174.148 87.6733 174.307 88.0483C174.469 88.4233 174.696 88.7145 174.989 88.9219C175.284 89.1293 175.631 89.233 176.029 89.233C176.29 89.233 176.527 89.1875 176.74 89.0966C176.953 89.0057 177.134 88.875 177.282 88.7045C177.429 88.5341 177.534 88.3295 177.597 88.0909H178.603C178.546 88.4773 178.405 88.8253 178.181 89.1349C177.959 89.4418 177.665 89.6861 177.299 89.8679C176.935 90.0469 176.512 90.1364 176.029 90.1364ZM182.732 90.1364C182.141 90.1364 181.623 89.9957 181.176 89.7145C180.733 89.4332 180.387 89.0398 180.137 88.5341C179.89 88.0284 179.766 87.4375 179.766 86.7614C179.766 86.0795 179.89 85.4844 180.137 84.9759C180.387 84.4673 180.733 84.0724 181.176 83.7912C181.623 83.5099 182.141 83.3693 182.732 83.3693C183.323 83.3693 183.84 83.5099 184.283 83.7912C184.729 84.0724 185.076 84.4673 185.323 84.9759C185.573 85.4844 185.698 86.0795 185.698 86.7614C185.698 87.4375 185.573 88.0284 185.323 88.5341C185.076 89.0398 184.729 89.4332 184.283 89.7145C183.84 89.9957 183.323 90.1364 182.732 90.1364ZM182.732 89.233C183.181 89.233 183.55 89.1179 183.84 88.8878C184.13 88.6577 184.344 88.3551 184.483 87.9801C184.623 87.6051 184.692 87.1989 184.692 86.7614C184.692 86.3239 184.623 85.9162 184.483 85.5384C184.344 85.1605 184.13 84.8551 183.84 84.6222C183.55 84.3892 183.181 84.2727 182.732 84.2727C182.283 84.2727 181.914 84.3892 181.624 84.6222C181.334 84.8551 181.12 85.1605 180.98 85.5384C180.841 85.9162 180.772 86.3239 180.772 86.7614C180.772 87.1989 180.841 87.6051 180.98 87.9801C181.12 88.3551 181.334 88.6577 181.624 88.8878C181.914 89.1179 182.283 89.233 182.732 89.233ZM188.239 86.0625V90H187.233V83.4545H188.205V84.4773H188.29C188.443 84.1449 188.676 83.8778 188.989 83.6761C189.301 83.4716 189.705 83.3693 190.199 83.3693C190.642 83.3693 191.03 83.4602 191.362 83.642C191.695 83.821 191.953 84.0938 192.138 84.4602C192.322 84.8239 192.415 85.2841 192.415 85.8409V90H191.409V85.9091C191.409 85.3949 191.276 84.9943 191.009 84.7074C190.741 84.4176 190.375 84.2727 189.909 84.2727C189.588 84.2727 189.301 84.3423 189.048 84.4815C188.798 84.6207 188.601 84.8239 188.456 85.0909C188.311 85.358 188.239 85.6818 188.239 86.0625ZM196.997 90.1364C196.366 90.1364 195.822 89.9972 195.365 89.7188C194.91 89.4375 194.559 89.0455 194.312 88.5426C194.068 88.0369 193.946 87.4489 193.946 86.7784C193.946 86.108 194.068 85.517 194.312 85.0057C194.559 84.4915 194.903 84.0909 195.343 83.804C195.787 83.5142 196.304 83.3693 196.895 83.3693C197.235 83.3693 197.572 83.4261 197.904 83.5398C198.237 83.6534 198.539 83.8381 198.812 84.0938C199.085 84.3466 199.302 84.6818 199.464 85.0994C199.626 85.517 199.707 86.0312 199.707 86.642V87.0682H194.662V86.1989H198.684C198.684 85.8295 198.61 85.5 198.463 85.2102C198.318 84.9205 198.11 84.6918 197.841 84.5241C197.574 84.3565 197.258 84.2727 196.895 84.2727C196.494 84.2727 196.147 84.3722 195.855 84.571C195.565 84.767 195.342 85.0227 195.186 85.3381C195.029 85.6534 194.951 85.9915 194.951 86.3523V86.9318C194.951 87.4261 195.037 87.8452 195.207 88.1889C195.38 88.5298 195.62 88.7898 195.927 88.9688C196.234 89.1449 196.591 89.233 196.997 89.233C197.261 89.233 197.5 89.196 197.713 89.1222C197.929 89.0455 198.115 88.9318 198.271 88.7812C198.427 88.6278 198.548 88.4375 198.633 88.2102L199.605 88.483C199.502 88.8125 199.331 89.1023 199.089 89.3523C198.848 89.5994 198.549 89.7926 198.194 89.9318C197.839 90.0682 197.44 90.1364 196.997 90.1364ZM203.896 90.1364C203.282 90.1364 202.754 89.9915 202.311 89.7017C201.868 89.4119 201.527 89.0128 201.288 88.5043C201.049 87.9957 200.93 87.4148 200.93 86.7614C200.93 86.0966 201.052 85.5099 201.297 85.0014C201.544 84.4901 201.887 84.0909 202.328 83.804C202.771 83.5142 203.288 83.3693 203.879 83.3693C204.339 83.3693 204.754 83.4545 205.123 83.625C205.493 83.7955 205.795 84.0341 206.031 84.3409C206.267 84.6477 206.413 85.0057 206.47 85.4148H205.464C205.387 85.1165 205.217 84.8523 204.953 84.6222C204.691 84.3892 204.339 84.2727 203.896 84.2727C203.504 84.2727 203.16 84.375 202.865 84.5795C202.572 84.7812 202.343 85.0668 202.179 85.4361C202.017 85.8026 201.936 86.233 201.936 86.7273C201.936 87.233 202.015 87.6733 202.174 88.0483C202.336 88.4233 202.564 88.7145 202.856 88.9219C203.152 89.1293 203.498 89.233 203.896 89.233C204.157 89.233 204.395 89.1875 204.608 89.0966C204.821 89.0057 205.001 88.875 205.149 88.7045C205.297 88.5341 205.402 88.3295 205.464 88.0909H206.47C206.413 88.4773 206.272 88.8253 206.048 89.1349C205.826 89.4418 205.532 89.6861 205.166 89.8679C204.802 90.0469 204.379 90.1364 203.896 90.1364ZM210.787 83.4545V84.3068H207.395V83.4545H210.787ZM208.383 81.8864H209.389V88.125C209.389 88.4091 209.43 88.6222 209.512 88.7642C209.598 88.9034 209.706 88.9972 209.836 89.0455C209.97 89.0909 210.11 89.1136 210.258 89.1136C210.369 89.1136 210.46 89.108 210.531 89.0966C210.602 89.0824 210.659 89.071 210.701 89.0625L210.906 89.9659C210.838 89.9915 210.743 90.017 210.62 90.0426C210.498 90.071 210.343 90.0852 210.156 90.0852C209.872 90.0852 209.593 90.0241 209.321 89.902C209.051 89.7798 208.826 89.5938 208.647 89.3438C208.471 89.0938 208.383 88.7784 208.383 88.3977V81.8864ZM214.225 90.1534C213.811 90.1534 213.434 90.0753 213.096 89.919C212.758 89.7599 212.49 89.5312 212.291 89.233C212.092 88.9318 211.993 88.5682 211.993 88.142C211.993 87.767 212.066 87.4631 212.214 87.2301C212.362 86.9943 212.559 86.8097 212.806 86.6761C213.054 86.5426 213.326 86.4432 213.625 86.3778C213.926 86.3097 214.228 86.2557 214.532 86.2159C214.93 86.1648 215.252 86.1264 215.5 86.1009C215.75 86.0724 215.931 86.0256 216.045 85.9602C216.162 85.8949 216.22 85.7812 216.22 85.6193V85.5852C216.22 85.1648 216.105 84.8381 215.875 84.6051C215.647 84.3722 215.302 84.2557 214.839 84.2557C214.359 84.2557 213.983 84.3608 213.71 84.571C213.437 84.7812 213.245 85.0057 213.135 85.2443L212.18 84.9034C212.35 84.5057 212.578 84.196 212.862 83.9744C213.149 83.75 213.461 83.5937 213.799 83.5057C214.14 83.4148 214.475 83.3693 214.805 83.3693C215.015 83.3693 215.257 83.3949 215.529 83.446C215.805 83.4943 216.071 83.5952 216.326 83.7486C216.585 83.902 216.799 84.1335 216.97 84.4432C217.14 84.7528 217.225 85.1676 217.225 85.6875V90H216.22V89.1136H216.169C216.1 89.2557 215.987 89.4077 215.828 89.5696C215.669 89.7315 215.457 89.8693 215.193 89.983C214.929 90.0966 214.606 90.1534 214.225 90.1534ZM214.379 89.25C214.777 89.25 215.112 89.1719 215.385 89.0156C215.66 88.8594 215.868 88.6577 216.007 88.4105C216.149 88.1634 216.22 87.9034 216.22 87.6307V86.7102C216.177 86.7614 216.083 86.8082 215.939 86.8509C215.797 86.8906 215.632 86.9261 215.444 86.9574C215.26 86.9858 215.079 87.0114 214.903 87.0341C214.73 87.054 214.589 87.071 214.481 87.0852C214.22 87.1193 213.975 87.1747 213.748 87.2514C213.524 87.3253 213.342 87.4375 213.203 87.5881C213.066 87.7358 212.998 87.9375 212.998 88.1932C212.998 88.5426 213.127 88.8068 213.386 88.9858C213.647 89.1619 213.978 89.25 214.379 89.25ZM221.533 90.1364C220.987 90.1364 220.506 89.9986 220.088 89.723C219.67 89.4446 219.344 89.0526 219.108 88.5469C218.872 88.0384 218.754 87.4375 218.754 86.7443C218.754 86.0568 218.872 85.4602 219.108 84.9545C219.344 84.4489 219.672 84.0582 220.092 83.7827C220.513 83.5071 220.999 83.3693 221.55 83.3693C221.976 83.3693 222.313 83.4403 222.56 83.5824C222.81 83.7216 223 83.8807 223.131 84.0597C223.264 84.2358 223.368 84.3807 223.442 84.4943H223.527V81.2727H224.533V90H223.561V88.9943H223.442C223.368 89.1136 223.263 89.2642 223.126 89.446C222.99 89.625 222.795 89.7855 222.543 89.9276C222.29 90.0668 221.953 90.1364 221.533 90.1364ZM221.669 89.233C222.072 89.233 222.413 89.1278 222.692 88.9176C222.97 88.7045 223.182 88.4105 223.327 88.0355C223.472 87.6577 223.544 87.2216 223.544 86.7273C223.544 86.2386 223.473 85.8111 223.331 85.4446C223.189 85.0753 222.979 84.7884 222.7 84.5838C222.422 84.3764 222.078 84.2727 221.669 84.2727C221.243 84.2727 220.888 84.3821 220.604 84.6009C220.322 84.8168 220.111 85.1108 219.969 85.483C219.83 85.8523 219.76 86.267 219.76 86.7273C219.76 87.1932 219.831 87.6165 219.973 87.9972C220.118 88.375 220.331 88.6761 220.612 88.9006C220.896 89.1222 221.249 89.233 221.669 89.233ZM228.44 90.1534C228.026 90.1534 227.649 90.0753 227.311 89.919C226.973 89.7599 226.705 89.5312 226.506 89.233C226.307 88.9318 226.207 88.5682 226.207 88.142C226.207 87.767 226.281 87.4631 226.429 87.2301C226.577 86.9943 226.774 86.8097 227.021 86.6761C227.268 86.5426 227.541 86.4432 227.839 86.3778C228.141 86.3097 228.443 86.2557 228.747 86.2159C229.145 86.1648 229.467 86.1264 229.714 86.1009C229.964 86.0724 230.146 86.0256 230.26 85.9602C230.376 85.8949 230.435 85.7812 230.435 85.6193V85.5852C230.435 85.1648 230.32 84.8381 230.089 84.6051C229.862 84.3722 229.517 84.2557 229.054 84.2557C228.574 84.2557 228.197 84.3608 227.925 84.571C227.652 84.7812 227.46 85.0057 227.349 85.2443L226.395 84.9034C226.565 84.5057 226.793 84.196 227.077 83.9744C227.364 83.75 227.676 83.5937 228.014 83.5057C228.355 83.4148 228.69 83.3693 229.02 83.3693C229.23 83.3693 229.472 83.3949 229.744 83.446C230.02 83.4943 230.286 83.5952 230.541 83.7486C230.8 83.902 231.014 84.1335 231.185 84.4432C231.355 84.7528 231.44 85.1676 231.44 85.6875V90H230.435V89.1136H230.384C230.315 89.2557 230.202 89.4077 230.043 89.5696C229.884 89.7315 229.672 89.8693 229.408 89.983C229.143 90.0966 228.821 90.1534 228.44 90.1534ZM228.594 89.25C228.991 89.25 229.327 89.1719 229.599 89.0156C229.875 88.8594 230.082 88.6577 230.222 88.4105C230.364 88.1634 230.435 87.9034 230.435 87.6307V86.7102C230.392 86.7614 230.298 86.8082 230.153 86.8509C230.011 86.8906 229.847 86.9261 229.659 86.9574C229.474 86.9858 229.294 87.0114 229.118 87.0341C228.945 87.054 228.804 87.071 228.696 87.0852C228.435 87.1193 228.19 87.1747 227.963 87.2514C227.739 87.3253 227.557 87.4375 227.418 87.5881C227.281 87.7358 227.213 87.9375 227.213 88.1932C227.213 88.5426 227.342 88.8068 227.601 88.9858C227.862 89.1619 228.193 89.25 228.594 89.25ZM238.577 90.1534C238.162 90.1534 237.786 90.0753 237.448 89.919C237.11 89.7599 236.841 89.5312 236.642 89.233C236.444 88.9318 236.344 88.5682 236.344 88.142C236.344 87.767 236.418 87.4631 236.566 87.2301C236.713 86.9943 236.911 86.8097 237.158 86.6761C237.405 86.5426 237.678 86.4432 237.976 86.3778C238.277 86.3097 238.58 86.2557 238.884 86.2159C239.282 86.1648 239.604 86.1264 239.851 86.1009C240.101 86.0724 240.283 86.0256 240.397 85.9602C240.513 85.8949 240.571 85.7812 240.571 85.6193V85.5852C240.571 85.1648 240.456 84.8381 240.226 84.6051C239.999 84.3722 239.654 84.2557 239.191 84.2557C238.711 84.2557 238.334 84.3608 238.061 84.571C237.789 84.7812 237.597 85.0057 237.486 85.2443L236.532 84.9034C236.702 84.5057 236.929 84.196 237.213 83.9744C237.5 83.75 237.813 83.5937 238.151 83.5057C238.492 83.4148 238.827 83.3693 239.157 83.3693C239.367 83.3693 239.608 83.3949 239.881 83.446C240.157 83.4943 240.422 83.5952 240.678 83.7486C240.936 83.902 241.151 84.1335 241.321 84.4432C241.492 84.7528 241.577 85.1676 241.577 85.6875V90H240.571V89.1136H240.52C240.452 89.2557 240.338 89.4077 240.179 89.5696C240.02 89.7315 239.809 89.8693 239.544 89.983C239.28 90.0966 238.958 90.1534 238.577 90.1534ZM238.73 89.25C239.128 89.25 239.463 89.1719 239.736 89.0156C240.012 88.8594 240.219 88.6577 240.358 88.4105C240.5 88.1634 240.571 87.9034 240.571 87.6307V86.7102C240.529 86.7614 240.435 86.8082 240.29 86.8509C240.148 86.8906 239.983 86.9261 239.796 86.9574C239.611 86.9858 239.431 87.0114 239.255 87.0341C239.081 87.054 238.941 87.071 238.833 87.0852C238.571 87.1193 238.327 87.1747 238.1 87.2514C237.875 87.3253 237.694 87.4375 237.554 87.5881C237.418 87.7358 237.35 87.9375 237.35 88.1932C237.35 88.5426 237.479 88.8068 237.738 88.9858C237.999 89.1619 238.33 89.25 238.73 89.25ZM246.924 90V81.2727H249.873C250.558 81.2727 251.117 81.3963 251.552 81.6435C251.989 81.8878 252.313 82.2188 252.523 82.6364C252.734 83.054 252.839 83.5199 252.839 84.0341C252.839 84.5483 252.734 85.0156 252.523 85.4361C252.316 85.8565 251.995 86.1918 251.56 86.4418C251.126 86.6889 250.569 86.8125 249.89 86.8125H247.776V85.875H249.856C250.325 85.875 250.701 85.794 250.985 85.6321C251.269 85.4702 251.475 85.2514 251.603 84.9759C251.734 84.6974 251.799 84.3835 251.799 84.0341C251.799 83.6847 251.734 83.3722 251.603 83.0966C251.475 82.821 251.268 82.6051 250.981 82.4489C250.694 82.2898 250.313 82.2102 249.839 82.2102H247.981V90H246.924ZM256.994 90.1364C256.403 90.1364 255.884 89.9957 255.438 89.7145C254.995 89.4332 254.648 89.0398 254.398 88.5341C254.151 88.0284 254.028 87.4375 254.028 86.7614C254.028 86.0795 254.151 85.4844 254.398 84.9759C254.648 84.4673 254.995 84.0724 255.438 83.7912C255.884 83.5099 256.403 83.3693 256.994 83.3693C257.585 83.3693 258.102 83.5099 258.545 83.7912C258.991 84.0724 259.337 84.4673 259.585 84.9759C259.835 85.4844 259.96 86.0795 259.96 86.7614C259.96 87.4375 259.835 88.0284 259.585 88.5341C259.337 89.0398 258.991 89.4332 258.545 89.7145C258.102 89.9957 257.585 90.1364 256.994 90.1364ZM256.994 89.233C257.442 89.233 257.812 89.1179 258.102 88.8878C258.391 88.6577 258.606 88.3551 258.745 87.9801C258.884 87.6051 258.954 87.1989 258.954 86.7614C258.954 86.3239 258.884 85.9162 258.745 85.5384C258.606 85.1605 258.391 84.8551 258.102 84.6222C257.812 84.3892 257.442 84.2727 256.994 84.2727C256.545 84.2727 256.175 84.3892 255.886 84.6222C255.596 84.8551 255.381 85.1605 255.242 85.5384C255.103 85.9162 255.033 86.3239 255.033 86.7614C255.033 87.1989 255.103 87.6051 255.242 87.9801C255.381 88.3551 255.596 88.6577 255.886 88.8878C256.175 89.1179 256.545 89.233 256.994 89.233ZM266.131 84.9205L265.228 85.1761C265.171 85.0256 265.087 84.8793 264.976 84.7372C264.868 84.5923 264.721 84.473 264.533 84.3793C264.346 84.2855 264.105 84.2386 263.813 84.2386C263.412 84.2386 263.078 84.331 262.811 84.5156C262.547 84.6974 262.415 84.929 262.415 85.2102C262.415 85.4602 262.506 85.6577 262.688 85.8026C262.87 85.9474 263.154 86.0682 263.54 86.1648L264.512 86.4034C265.097 86.5455 265.533 86.7628 265.82 87.0554C266.107 87.3452 266.25 87.7187 266.25 88.1761C266.25 88.5511 266.142 88.8864 265.926 89.1818C265.713 89.4773 265.415 89.7102 265.032 89.8807C264.648 90.0511 264.202 90.1364 263.694 90.1364C263.026 90.1364 262.473 89.9915 262.036 89.7017C261.598 89.4119 261.321 88.9886 261.205 88.4318L262.159 88.1932C262.25 88.5455 262.422 88.8097 262.675 88.9858C262.931 89.1619 263.265 89.25 263.676 89.25C264.145 89.25 264.517 89.1506 264.793 88.9517C265.071 88.75 265.211 88.5085 265.211 88.2273C265.211 88 265.131 87.8097 264.972 87.6562C264.813 87.5 264.569 87.3835 264.239 87.3068L263.148 87.0511C262.549 86.9091 262.108 86.6889 261.827 86.3906C261.549 86.0895 261.409 85.7131 261.409 85.2614C261.409 84.892 261.513 84.5653 261.721 84.2812C261.931 83.9972 262.216 83.7741 262.577 83.6122C262.941 83.4503 263.353 83.3693 263.813 83.3693C264.461 83.3693 264.969 83.5114 265.338 83.7955C265.711 84.0795 265.975 84.4545 266.131 84.9205ZM270.611 83.4545V84.3068H267.219V83.4545H270.611ZM268.207 81.8864H269.213V88.125C269.213 88.4091 269.254 88.6222 269.337 88.7642C269.422 88.9034 269.53 88.9972 269.661 89.0455C269.794 89.0909 269.935 89.1136 270.082 89.1136C270.193 89.1136 270.284 89.108 270.355 89.0966C270.426 89.0824 270.483 89.071 270.526 89.0625L270.73 89.9659C270.662 89.9915 270.567 90.017 270.445 90.0426C270.322 90.071 270.168 90.0852 269.98 90.0852C269.696 90.0852 269.418 90.0241 269.145 89.902C268.875 89.7798 268.651 89.5938 268.472 89.3438C268.295 89.0938 268.207 88.7784 268.207 88.3977V81.8864ZM274.695 92.5909C274.21 92.5909 273.792 92.5284 273.442 92.4034C273.093 92.2812 272.802 92.1193 272.569 91.9176C272.339 91.7188 272.156 91.5057 272.019 91.2784L272.82 90.7159C272.911 90.8352 273.026 90.9716 273.165 91.125C273.305 91.2812 273.495 91.4162 273.737 91.5298C273.981 91.6463 274.3 91.7045 274.695 91.7045C275.224 91.7045 275.66 91.5767 276.004 91.321C276.347 91.0653 276.519 90.6648 276.519 90.1193V88.7898H276.434C276.36 88.9091 276.255 89.0568 276.119 89.233C275.985 89.4062 275.792 89.5611 275.539 89.6974C275.289 89.831 274.951 89.8977 274.525 89.8977C273.996 89.8977 273.522 89.7727 273.102 89.5227C272.684 89.2727 272.353 88.9091 272.109 88.4318C271.867 87.9545 271.746 87.375 271.746 86.6932C271.746 86.0227 271.864 85.4389 272.1 84.9418C272.336 84.4418 272.664 84.0554 273.085 83.7827C273.505 83.5071 273.991 83.3693 274.542 83.3693C274.968 83.3693 275.306 83.4403 275.556 83.5824C275.809 83.7216 276.002 83.8807 276.136 84.0597C276.272 84.2358 276.377 84.3807 276.451 84.4943H276.553V83.4545H277.525V90.1875C277.525 90.75 277.397 91.2074 277.141 91.5597C276.888 91.9148 276.548 92.1747 276.119 92.3395C275.692 92.5071 275.218 92.5909 274.695 92.5909ZM274.661 88.9943C275.065 88.9943 275.406 88.902 275.684 88.7173C275.962 88.5327 276.174 88.267 276.319 87.9205C276.464 87.5739 276.536 87.1591 276.536 86.6761C276.536 86.2045 276.465 85.7884 276.323 85.4276C276.181 85.0668 275.971 84.7841 275.692 84.5795C275.414 84.375 275.07 84.2727 274.661 84.2727C274.235 84.2727 273.88 84.3807 273.596 84.5966C273.315 84.8125 273.103 85.1023 272.961 85.4659C272.822 85.8295 272.752 86.233 272.752 86.6761C272.752 87.1307 272.823 87.5327 272.965 87.8821C273.11 88.2287 273.323 88.5014 273.604 88.7003C273.888 88.8963 274.241 88.9943 274.661 88.9943ZM279.366 90V83.4545H280.337V84.4432H280.406C280.525 84.1193 280.741 83.8565 281.053 83.6548C281.366 83.4531 281.718 83.3523 282.11 83.3523C282.184 83.3523 282.276 83.3537 282.387 83.3565C282.498 83.3594 282.582 83.3636 282.638 83.3693V84.392C282.604 84.3835 282.526 84.3707 282.404 84.3537C282.285 84.3338 282.158 84.3239 282.025 84.3239C281.707 84.3239 281.423 84.3906 281.173 84.5241C280.925 84.6548 280.729 84.8366 280.585 85.0696C280.442 85.2997 280.371 85.5625 280.371 85.858V90H279.366ZM286.376 90.1364C285.745 90.1364 285.201 89.9972 284.744 89.7188C284.289 89.4375 283.938 89.0455 283.691 88.5426C283.447 88.0369 283.325 87.4489 283.325 86.7784C283.325 86.108 283.447 85.517 283.691 85.0057C283.938 84.4915 284.282 84.0909 284.722 83.804C285.165 83.5142 285.683 83.3693 286.273 83.3693C286.614 83.3693 286.951 83.4261 287.283 83.5398C287.616 83.6534 287.918 83.8381 288.191 84.0938C288.464 84.3466 288.681 84.6818 288.843 85.0994C289.005 85.517 289.086 86.0312 289.086 86.642V87.0682H284.04V86.1989H288.063C288.063 85.8295 287.989 85.5 287.842 85.2102C287.697 84.9205 287.489 84.6918 287.219 84.5241C286.952 84.3565 286.637 84.2727 286.273 84.2727C285.873 84.2727 285.526 84.3722 285.234 84.571C284.944 84.767 284.721 85.0227 284.565 85.3381C284.408 85.6534 284.33 85.9915 284.33 86.3523V86.9318C284.33 87.4261 284.415 87.8452 284.586 88.1889C284.759 88.5298 284.999 88.7898 285.306 88.9688C285.613 89.1449 285.969 89.233 286.376 89.233C286.64 89.233 286.879 89.196 287.092 89.1222C287.308 89.0455 287.494 88.9318 287.65 88.7812C287.806 88.6278 287.927 88.4375 288.012 88.2102L288.984 88.483C288.881 88.8125 288.71 89.1023 288.468 89.3523C288.227 89.5994 287.928 89.7926 287.573 89.9318C287.218 90.0682 286.819 90.1364 286.376 90.1364ZM295.525 83.4545C295.474 83.0227 295.266 82.6875 294.903 82.4489C294.539 82.2102 294.093 82.0909 293.565 82.0909C293.178 82.0909 292.84 82.1534 292.55 82.2784C292.263 82.4034 292.039 82.5753 291.877 82.794C291.718 83.0128 291.638 83.2614 291.638 83.5398C291.638 83.7727 291.694 83.973 291.805 84.1406C291.918 84.3054 292.063 84.4432 292.239 84.554C292.415 84.6619 292.6 84.7514 292.793 84.8224C292.987 84.8906 293.164 84.946 293.326 84.9886L294.212 85.2273C294.44 85.2869 294.692 85.3693 294.971 85.4744C295.252 85.5795 295.521 85.723 295.776 85.9048C296.035 86.0838 296.248 86.3139 296.415 86.5952C296.583 86.8764 296.667 87.2216 296.667 87.6307C296.667 88.1023 296.543 88.5284 296.296 88.9091C296.052 89.2898 295.694 89.5923 295.222 89.8168C294.754 90.0412 294.184 90.1534 293.513 90.1534C292.888 90.1534 292.347 90.0526 291.89 89.8509C291.435 89.6491 291.077 89.3679 290.816 89.0071C290.558 88.6463 290.411 88.2273 290.377 87.75H291.468C291.496 88.0795 291.607 88.3523 291.8 88.5682C291.996 88.7812 292.244 88.9403 292.542 89.0455C292.843 89.1477 293.167 89.1989 293.513 89.1989C293.917 89.1989 294.279 89.1335 294.6 89.0028C294.921 88.8693 295.175 88.6847 295.363 88.4489C295.55 88.2102 295.644 87.9318 295.644 87.6136C295.644 87.3239 295.563 87.0881 295.401 86.9062C295.239 86.7244 295.026 86.5767 294.762 86.4631C294.498 86.3494 294.212 86.25 293.906 86.1648L292.832 85.858C292.15 85.6619 291.61 85.3821 291.212 85.0185C290.815 84.6548 290.616 84.179 290.616 83.5909C290.616 83.1023 290.748 82.6761 291.012 82.3125C291.279 81.946 291.637 81.6619 292.086 81.4602C292.538 81.2557 293.042 81.1534 293.599 81.1534C294.161 81.1534 294.661 81.2543 295.099 81.456C295.536 81.6548 295.883 81.9276 296.138 82.2741C296.397 82.6207 296.533 83.0142 296.548 83.4545H295.525ZM301.575 87.2727H302.734L303.706 88.5511L303.961 88.892L305.41 90.8182H304.251L303.297 89.5398L303.058 89.2159L301.575 87.2727ZM305.768 85.6364C305.768 86.5568 305.602 87.3523 305.27 88.0227C304.937 88.6932 304.481 89.2102 303.902 89.5739C303.322 89.9375 302.66 90.1193 301.916 90.1193C301.172 90.1193 300.51 89.9375 299.93 89.5739C299.35 89.2102 298.895 88.6932 298.562 88.0227C298.23 87.3523 298.064 86.5568 298.064 85.6364C298.064 84.7159 298.23 83.9205 298.562 83.25C298.895 82.5795 299.35 82.0625 299.93 81.6989C300.51 81.3352 301.172 81.1534 301.916 81.1534C302.66 81.1534 303.322 81.3352 303.902 81.6989C304.481 82.0625 304.937 82.5795 305.27 83.25C305.602 83.9205 305.768 84.7159 305.768 85.6364ZM304.745 85.6364C304.745 84.8807 304.619 84.2429 304.366 83.723C304.116 83.2031 303.777 82.8097 303.348 82.5426C302.922 82.2756 302.444 82.142 301.916 82.142C301.387 82.142 300.909 82.2756 300.48 82.5426C300.054 82.8097 299.714 83.2031 299.461 83.723C299.211 84.2429 299.086 84.8807 299.086 85.6364C299.086 86.392 299.211 87.0298 299.461 87.5497C299.714 88.0696 300.054 88.4631 300.48 88.7301C300.909 88.9972 301.387 89.1307 301.916 89.1307C302.444 89.1307 302.922 88.9972 303.348 88.7301C303.777 88.4631 304.116 88.0696 304.366 87.5497C304.619 87.0298 304.745 86.392 304.745 85.6364ZM307.545 90V81.2727H308.602V89.0625H312.659V90H307.545Z" fill="black"/>
</g>
<defs>
<filter id="filter0_d_309_207" x="0" y="0" width="397" height="135" filterUnits="userSpaceOnUse" color-interpolation-filters="sRGB">
<feFlood flood-opacity="0" result="BackgroundImageFix"/>
<feColorMatrix in="SourceAlpha" type="matrix" values="0 0 0 0 0 0 0 0 0 0 0 0 0 0 0 0 0 0 127 0" result="hardAlpha"/>
<feOffset dy="4"/>
<feGaussianBlur stdDeviation="11.5"/>
<feComposite in2="hardAlpha" operator="out"/>
<feColorMatrix type="matrix" values="0 0 0 0 0 0 0 0 0 0 0 0 0 0 0 0 0 0 0.1 0"/>
<feBlend mode="normal" in2="BackgroundImageFix" result="effect1_dropShadow_309_207"/>
<feBlend mode="normal" in="SourceGraphic" in2="effect1_dropShadow_309_207" result="shape"/>
</filter>
</defs>
</svg>
