<svg width="686" height="209" viewBox="0 0 686 209" fill="none" xmlns="http://www.w3.org/2000/svg">
<g filter="url(#filter0_d_309_202)">
<rect x="23" y="19" width="640" height="163" rx="4" fill="white"/>
<path d="M57.7216 77V59.5455H69.0739V62.196H60.8835V66.9347H68.4858V69.5852H60.8835V74.3494H69.142V77H57.7216ZM78.3935 77.2386C77.1662 77.2386 76.0753 77.0284 75.1207 76.608C74.1719 76.1875 73.4219 75.6023 72.8707 74.8523C72.3196 74.1023 72.027 73.2358 71.9929 72.2528H75.1974C75.2259 72.7244 75.3821 73.1364 75.6662 73.4886C75.9503 73.8352 76.3281 74.1051 76.7997 74.2983C77.2713 74.4915 77.7997 74.5881 78.3849 74.5881C79.0099 74.5881 79.5639 74.4801 80.0469 74.2642C80.5298 74.0426 80.9077 73.7358 81.1804 73.3438C81.4531 72.9517 81.5866 72.5 81.581 71.9886C81.5866 71.4602 81.4503 70.9943 81.1719 70.5909C80.8935 70.1875 80.4901 69.8722 79.9616 69.6449C79.4389 69.4176 78.8082 69.304 78.0696 69.304H76.527V66.8665H78.0696C78.6776 66.8665 79.2088 66.7614 79.6634 66.5511C80.1236 66.3409 80.4844 66.0455 80.7457 65.6648C81.0071 65.2784 81.1349 64.8324 81.1293 64.3267C81.1349 63.8324 81.0241 63.4034 80.7969 63.0398C80.5753 62.6705 80.2599 62.3835 79.8509 62.179C79.4474 61.9744 78.973 61.8722 78.4276 61.8722C77.8935 61.8722 77.3991 61.9687 76.9446 62.1619C76.4901 62.3551 76.1236 62.6307 75.8452 62.9886C75.5668 63.3409 75.419 63.7614 75.402 64.25H72.3594C72.3821 63.2727 72.6634 62.4148 73.2031 61.6761C73.7486 60.9318 74.4759 60.3523 75.3849 59.9375C76.294 59.517 77.3139 59.3068 78.4446 59.3068C79.6094 59.3068 80.6207 59.5256 81.4787 59.9631C82.3423 60.3949 83.0099 60.9773 83.4815 61.7102C83.9531 62.4432 84.1889 63.2528 84.1889 64.1392C84.1946 65.1222 83.9048 65.946 83.3196 66.6108C82.7401 67.2756 81.9787 67.7102 81.0355 67.9148V68.0511C82.2628 68.2216 83.2031 68.6761 83.8565 69.4148C84.5156 70.1477 84.8423 71.0597 84.8366 72.1506C84.8366 73.1278 84.5582 74.0028 84.0014 74.7756C83.4503 75.5426 82.6889 76.1449 81.7173 76.5824C80.7514 77.0199 79.6435 77.2386 78.3935 77.2386ZM93.8857 77V59.5455H100.567C101.829 59.5455 102.877 59.7443 103.712 60.142C104.553 60.5341 105.181 61.071 105.596 61.7528C106.016 62.4347 106.227 63.2074 106.227 64.071C106.227 64.7812 106.09 65.3892 105.817 65.8949C105.545 66.3949 105.178 66.8011 104.718 67.1136C104.258 67.4261 103.744 67.6506 103.175 67.7869V67.9574C103.795 67.9915 104.388 68.1818 104.957 68.5284C105.531 68.8693 105.999 69.3523 106.363 69.9773C106.727 70.6023 106.908 71.358 106.908 72.2443C106.908 73.1477 106.69 73.9602 106.252 74.6818C105.815 75.3977 105.156 75.9631 104.275 76.3778C103.394 76.7926 102.286 77 100.951 77H93.8857ZM97.0476 74.358H100.448C101.596 74.358 102.423 74.1392 102.928 73.7017C103.44 73.2585 103.695 72.6903 103.695 71.9972C103.695 71.4801 103.567 71.0142 103.312 70.5994C103.056 70.179 102.692 69.8494 102.221 69.6108C101.749 69.3665 101.187 69.2443 100.533 69.2443H97.0476V74.358ZM97.0476 66.9688H100.175C100.721 66.9688 101.212 66.8693 101.65 66.6705C102.087 66.4659 102.431 66.179 102.681 65.8097C102.937 65.4347 103.065 64.9915 103.065 64.4801C103.065 63.804 102.826 63.2472 102.349 62.8097C101.877 62.3722 101.175 62.1534 100.244 62.1534H97.0476V66.9688ZM115.318 77.2557C114.006 77.2557 112.872 76.983 111.918 76.4375C110.969 75.8864 110.239 75.108 109.727 74.1023C109.216 73.0909 108.96 71.9006 108.96 70.5312C108.96 69.1847 109.216 68.0028 109.727 66.9858C110.244 65.9631 110.966 65.1676 111.892 64.5994C112.818 64.0256 113.906 63.7386 115.156 63.7386C115.963 63.7386 116.724 63.8693 117.44 64.1307C118.162 64.3864 118.798 64.7841 119.349 65.3239C119.906 65.8636 120.344 66.5511 120.662 67.3864C120.98 68.2159 121.139 69.2045 121.139 70.3523V71.2983H110.409V69.2188H118.182C118.176 68.6278 118.048 68.1023 117.798 67.642C117.548 67.1761 117.199 66.8097 116.75 66.5426C116.307 66.2756 115.79 66.142 115.199 66.142C114.568 66.142 114.014 66.2955 113.537 66.6023C113.06 66.9034 112.688 67.3011 112.42 67.7955C112.159 68.2841 112.026 68.821 112.02 69.4062V71.2216C112.02 71.983 112.159 72.6364 112.438 73.1818C112.716 73.7216 113.105 74.1364 113.605 74.4261C114.105 74.7102 114.69 74.8523 115.361 74.8523C115.81 74.8523 116.216 74.7898 116.58 74.6648C116.943 74.5341 117.259 74.3438 117.526 74.0938C117.793 73.8438 117.994 73.5341 118.131 73.1648L121.011 73.4886C120.83 74.25 120.483 74.9148 119.972 75.483C119.466 76.0455 118.818 76.483 118.028 76.7955C117.239 77.1023 116.335 77.2557 115.318 77.2557ZM128.607 77.2301C127.579 77.2301 126.658 76.9659 125.846 76.4375C125.033 75.9091 124.391 75.142 123.92 74.1364C123.448 73.1307 123.212 71.9091 123.212 70.4716C123.212 69.017 123.451 67.7898 123.928 66.7898C124.411 65.7841 125.062 65.0256 125.88 64.5142C126.698 63.9972 127.61 63.7386 128.616 63.7386C129.383 63.7386 130.013 63.8693 130.508 64.1307C131.002 64.3864 131.394 64.696 131.684 65.0597C131.974 65.4176 132.198 65.7557 132.357 66.0739H132.485V59.5455H135.579V77H132.545V74.9375H132.357C132.198 75.2557 131.968 75.5937 131.667 75.9517C131.366 76.304 130.968 76.6051 130.474 76.8551C129.979 77.1051 129.357 77.2301 128.607 77.2301ZM129.468 74.6989C130.121 74.6989 130.678 74.5227 131.138 74.1705C131.599 73.8125 131.948 73.3153 132.187 72.679C132.425 72.0426 132.545 71.3011 132.545 70.4545C132.545 69.608 132.425 68.8722 132.187 68.2472C131.954 67.6222 131.607 67.1364 131.147 66.7898C130.692 66.4432 130.133 66.2699 129.468 66.2699C128.781 66.2699 128.207 66.4489 127.746 66.8068C127.286 67.1648 126.94 67.6591 126.707 68.2898C126.474 68.9205 126.357 69.642 126.357 70.4545C126.357 71.2727 126.474 72.0028 126.707 72.6449C126.945 73.2812 127.295 73.7841 127.755 74.1534C128.221 74.517 128.792 74.6989 129.468 74.6989ZM147.21 71.4943V63.9091H150.295V77H147.304V74.6733H147.168C146.872 75.4062 146.386 76.0057 145.71 76.4716C145.04 76.9375 144.213 77.1705 143.23 77.1705C142.372 77.1705 141.614 76.9801 140.955 76.5994C140.301 76.2131 139.79 75.6534 139.42 74.9205C139.051 74.1818 138.866 73.2898 138.866 72.2443V63.9091H141.952V71.767C141.952 72.5966 142.179 73.2557 142.634 73.7443C143.088 74.233 143.685 74.4773 144.423 74.4773C144.878 74.4773 145.318 74.3665 145.744 74.1449C146.17 73.9233 146.52 73.5938 146.793 73.1562C147.071 72.7131 147.21 72.1591 147.21 71.4943Z" fill="#363636"/>
<path d="M57.4091 122V110.364H61.3409C62.2538 110.364 63 110.528 63.5795 110.858C64.1629 111.184 64.5947 111.625 64.875 112.182C65.1553 112.739 65.2955 113.36 65.2955 114.045C65.2955 114.731 65.1553 115.354 64.875 115.915C64.5985 116.475 64.1705 116.922 63.5909 117.256C63.0114 117.585 62.2689 117.75 61.3636 117.75H58.5455V116.5H61.3182C61.9432 116.5 62.4451 116.392 62.8239 116.176C63.2027 115.96 63.4773 115.669 63.6477 115.301C63.822 114.93 63.9091 114.511 63.9091 114.045C63.9091 113.58 63.822 113.163 63.6477 112.795C63.4773 112.428 63.2008 112.14 62.8182 111.932C62.4356 111.72 61.928 111.614 61.2955 111.614H58.8182V122H57.4091ZM67.3835 122V113.273H68.679V114.591H68.7699C68.929 114.159 69.2169 113.809 69.6335 113.54C70.0502 113.271 70.5199 113.136 71.0426 113.136C71.1411 113.136 71.2642 113.138 71.4119 113.142C71.5597 113.146 71.6714 113.152 71.7472 113.159V114.523C71.7017 114.511 71.5975 114.494 71.4347 114.472C71.2756 114.445 71.107 114.432 70.929 114.432C70.5047 114.432 70.1259 114.521 69.7926 114.699C69.4631 114.873 69.2017 115.116 69.0085 115.426C68.8191 115.733 68.7244 116.083 68.7244 116.477V122H67.3835ZM76.6165 122.182C75.8286 122.182 75.1373 121.994 74.5426 121.619C73.9517 121.244 73.4896 120.72 73.1562 120.045C72.8267 119.371 72.6619 118.583 72.6619 117.682C72.6619 116.773 72.8267 115.979 73.1562 115.301C73.4896 114.623 73.9517 114.097 74.5426 113.722C75.1373 113.347 75.8286 113.159 76.6165 113.159C77.4044 113.159 78.0938 113.347 78.6847 113.722C79.2794 114.097 79.7415 114.623 80.071 115.301C80.4044 115.979 80.571 116.773 80.571 117.682C80.571 118.583 80.4044 119.371 80.071 120.045C79.7415 120.72 79.2794 121.244 78.6847 121.619C78.0938 121.994 77.4044 122.182 76.6165 122.182ZM76.6165 120.977C77.215 120.977 77.7074 120.824 78.0938 120.517C78.4801 120.21 78.7661 119.807 78.9517 119.307C79.1373 118.807 79.2301 118.265 79.2301 117.682C79.2301 117.098 79.1373 116.555 78.9517 116.051C78.7661 115.547 78.4801 115.14 78.0938 114.83C77.7074 114.519 77.215 114.364 76.6165 114.364C76.018 114.364 75.5256 114.519 75.1392 114.83C74.7528 115.14 74.4669 115.547 74.2812 116.051C74.0956 116.555 74.0028 117.098 74.0028 117.682C74.0028 118.265 74.0956 118.807 74.2812 119.307C74.4669 119.807 74.7528 120.21 75.1392 120.517C75.5256 120.824 76.018 120.977 76.6165 120.977ZM83.169 125.273C82.9418 125.273 82.7391 125.254 82.5611 125.216C82.383 125.182 82.2599 125.148 82.1918 125.114L82.5327 123.932C82.8584 124.015 83.1463 124.045 83.3963 124.023C83.6463 124 83.8679 123.888 84.0611 123.688C84.258 123.491 84.438 123.17 84.6009 122.727L84.8509 122.045L81.6236 113.273H83.0781L85.4872 120.227H85.5781L87.9872 113.273H89.4418L85.7372 123.273C85.5705 123.723 85.3641 124.097 85.1179 124.392C84.8717 124.691 84.5857 124.913 84.2599 125.057C83.938 125.201 83.5743 125.273 83.169 125.273ZM94.5582 122.182C93.7173 122.182 92.992 121.996 92.3821 121.625C91.776 121.25 91.3082 120.727 90.9787 120.057C90.6529 119.383 90.4901 118.598 90.4901 117.705C90.4901 116.811 90.6529 116.023 90.9787 115.341C91.3082 114.655 91.7666 114.121 92.3537 113.739C92.9446 113.352 93.634 113.159 94.4219 113.159C94.8764 113.159 95.3253 113.235 95.7685 113.386C96.2116 113.538 96.6151 113.784 96.9787 114.125C97.3423 114.462 97.6321 114.909 97.848 115.466C98.0639 116.023 98.1719 116.708 98.1719 117.523V118.091H91.4446V116.932H96.8082C96.8082 116.439 96.7098 116 96.5128 115.614C96.3196 115.227 96.0431 114.922 95.6832 114.699C95.3272 114.475 94.9067 114.364 94.4219 114.364C93.8878 114.364 93.4257 114.496 93.0355 114.761C92.6491 115.023 92.3518 115.364 92.1435 115.784C91.9351 116.205 91.831 116.655 91.831 117.136V117.909C91.831 118.568 91.9446 119.127 92.1719 119.585C92.4029 120.04 92.723 120.386 93.1321 120.625C93.5412 120.86 94.0166 120.977 94.5582 120.977C94.9105 120.977 95.2287 120.928 95.5128 120.83C95.8007 120.727 96.0488 120.576 96.2571 120.375C96.4654 120.17 96.6264 119.917 96.7401 119.614L98.0355 119.977C97.8991 120.417 97.67 120.803 97.348 121.136C97.026 121.466 96.6283 121.723 96.1548 121.909C95.6813 122.091 95.1491 122.182 94.5582 122.182ZM103.757 122.182C102.939 122.182 102.234 121.989 101.643 121.602C101.053 121.216 100.598 120.684 100.28 120.006C99.9616 119.328 99.8026 118.553 99.8026 117.682C99.8026 116.795 99.9654 116.013 100.291 115.335C100.621 114.653 101.079 114.121 101.666 113.739C102.257 113.352 102.946 113.159 103.734 113.159C104.348 113.159 104.901 113.273 105.393 113.5C105.886 113.727 106.289 114.045 106.604 114.455C106.918 114.864 107.113 115.341 107.189 115.886H105.848C105.746 115.489 105.518 115.136 105.166 114.83C104.818 114.519 104.348 114.364 103.757 114.364C103.234 114.364 102.776 114.5 102.382 114.773C101.992 115.042 101.687 115.422 101.467 115.915C101.251 116.403 101.143 116.977 101.143 117.636C101.143 118.311 101.25 118.898 101.462 119.398C101.678 119.898 101.981 120.286 102.371 120.562C102.765 120.839 103.227 120.977 103.757 120.977C104.106 120.977 104.422 120.917 104.706 120.795C104.99 120.674 105.231 120.5 105.428 120.273C105.625 120.045 105.765 119.773 105.848 119.455H107.189C107.113 119.97 106.926 120.434 106.626 120.847C106.331 121.256 105.939 121.581 105.45 121.824C104.965 122.062 104.401 122.182 103.757 122.182ZM112.945 113.273V114.409H108.422V113.273H112.945ZM109.74 111.182H111.081V119.5C111.081 119.879 111.136 120.163 111.246 120.352C111.359 120.538 111.503 120.663 111.678 120.727C111.856 120.788 112.043 120.818 112.24 120.818C112.388 120.818 112.509 120.811 112.604 120.795C112.698 120.777 112.774 120.761 112.831 120.75L113.104 121.955C113.013 121.989 112.886 122.023 112.723 122.057C112.56 122.095 112.354 122.114 112.104 122.114C111.725 122.114 111.354 122.032 110.99 121.869C110.63 121.706 110.331 121.458 110.092 121.125C109.857 120.792 109.74 120.371 109.74 119.864V111.182ZM118.413 122.182C117.625 122.182 116.934 121.994 116.339 121.619C115.749 121.244 115.286 120.72 114.953 120.045C114.624 119.371 114.459 118.583 114.459 117.682C114.459 116.773 114.624 115.979 114.953 115.301C115.286 114.623 115.749 114.097 116.339 113.722C116.934 113.347 117.625 113.159 118.413 113.159C119.201 113.159 119.891 113.347 120.482 113.722C121.076 114.097 121.538 114.623 121.868 115.301C122.201 115.979 122.368 116.773 122.368 117.682C122.368 118.583 122.201 119.371 121.868 120.045C121.538 120.72 121.076 121.244 120.482 121.619C119.891 121.994 119.201 122.182 118.413 122.182ZM118.413 120.977C119.012 120.977 119.504 120.824 119.891 120.517C120.277 120.21 120.563 119.807 120.749 119.307C120.934 118.807 121.027 118.265 121.027 117.682C121.027 117.098 120.934 116.555 120.749 116.051C120.563 115.547 120.277 115.14 119.891 114.83C119.504 114.519 119.012 114.364 118.413 114.364C117.815 114.364 117.322 114.519 116.936 114.83C116.55 115.14 116.264 115.547 116.078 116.051C115.893 116.555 115.8 117.098 115.8 117.682C115.8 118.265 115.893 118.807 116.078 119.307C116.264 119.807 116.55 120.21 116.936 120.517C117.322 120.824 117.815 120.977 118.413 120.977ZM129.097 122V110.364H136.074V111.614H130.506V115.545H135.551V116.795H130.506V122H129.097ZM138.305 122V113.273H139.646V122H138.305ZM138.987 111.818C138.726 111.818 138.5 111.729 138.311 111.551C138.125 111.373 138.033 111.159 138.033 110.909C138.033 110.659 138.125 110.445 138.311 110.267C138.5 110.089 138.726 110 138.987 110C139.249 110 139.472 110.089 139.658 110.267C139.847 110.445 139.942 110.659 139.942 110.909C139.942 111.159 139.847 111.373 139.658 111.551C139.472 111.729 139.249 111.818 138.987 111.818ZM143.443 116.75V122H142.102V113.273H143.398V114.636H143.511C143.716 114.193 144.027 113.837 144.443 113.568C144.86 113.295 145.398 113.159 146.057 113.159C146.648 113.159 147.165 113.28 147.608 113.523C148.051 113.761 148.396 114.125 148.642 114.614C148.888 115.098 149.011 115.712 149.011 116.455V122H147.67V116.545C147.67 115.86 147.492 115.326 147.136 114.943C146.78 114.557 146.292 114.364 145.67 114.364C145.242 114.364 144.86 114.456 144.523 114.642C144.189 114.828 143.926 115.098 143.733 115.455C143.54 115.811 143.443 116.242 143.443 116.75ZM154.03 122.205C153.477 122.205 152.975 122.1 152.524 121.892C152.073 121.68 151.715 121.375 151.45 120.977C151.185 120.576 151.053 120.091 151.053 119.523C151.053 119.023 151.151 118.617 151.348 118.307C151.545 117.992 151.808 117.746 152.138 117.568C152.467 117.39 152.831 117.258 153.229 117.17C153.63 117.08 154.034 117.008 154.439 116.955C154.969 116.886 155.399 116.835 155.729 116.801C156.062 116.763 156.304 116.701 156.456 116.614C156.611 116.527 156.689 116.375 156.689 116.159V116.114C156.689 115.553 156.536 115.117 156.229 114.807C155.926 114.496 155.465 114.341 154.848 114.341C154.208 114.341 153.706 114.481 153.342 114.761C152.979 115.042 152.723 115.341 152.575 115.659L151.303 115.205C151.53 114.674 151.833 114.261 152.212 113.966C152.594 113.667 153.011 113.458 153.462 113.341C153.916 113.22 154.363 113.159 154.803 113.159C155.083 113.159 155.405 113.193 155.768 113.261C156.136 113.326 156.49 113.46 156.831 113.665C157.176 113.869 157.462 114.178 157.689 114.591C157.916 115.004 158.03 115.557 158.03 116.25V122H156.689V120.818H156.621C156.53 121.008 156.378 121.21 156.166 121.426C155.954 121.642 155.672 121.826 155.32 121.977C154.967 122.129 154.537 122.205 154.03 122.205ZM154.234 121C154.765 121 155.212 120.896 155.575 120.688C155.943 120.479 156.219 120.21 156.405 119.881C156.594 119.551 156.689 119.205 156.689 118.841V117.614C156.632 117.682 156.507 117.744 156.314 117.801C156.125 117.854 155.905 117.902 155.655 117.943C155.409 117.981 155.168 118.015 154.933 118.045C154.702 118.072 154.515 118.095 154.371 118.114C154.022 118.159 153.696 118.233 153.393 118.335C153.094 118.434 152.852 118.583 152.666 118.784C152.484 118.981 152.393 119.25 152.393 119.591C152.393 120.057 152.566 120.409 152.911 120.648C153.259 120.883 153.7 121 154.234 121ZM161.818 110.364V122H160.477V110.364H161.818ZM172.07 122.182C171.342 122.182 170.7 121.998 170.143 121.631C169.587 121.259 169.151 120.737 168.837 120.062C168.522 119.384 168.365 118.583 168.365 117.659C168.365 116.742 168.522 115.947 168.837 115.273C169.151 114.598 169.589 114.078 170.149 113.71C170.71 113.343 171.357 113.159 172.092 113.159C172.661 113.159 173.109 113.254 173.439 113.443C173.772 113.629 174.026 113.841 174.2 114.08C174.378 114.314 174.517 114.508 174.615 114.659H174.729V110.364H176.07V122H174.774V120.659H174.615C174.517 120.818 174.376 121.019 174.195 121.261C174.013 121.5 173.753 121.714 173.416 121.903C173.079 122.089 172.63 122.182 172.07 122.182ZM172.251 120.977C172.789 120.977 173.244 120.837 173.615 120.557C173.986 120.273 174.268 119.881 174.462 119.381C174.655 118.877 174.751 118.295 174.751 117.636C174.751 116.985 174.657 116.415 174.467 115.926C174.278 115.434 173.998 115.051 173.626 114.778C173.255 114.502 172.797 114.364 172.251 114.364C171.683 114.364 171.21 114.509 170.831 114.801C170.456 115.089 170.174 115.481 169.984 115.977C169.799 116.47 169.706 117.023 169.706 117.636C169.706 118.258 169.801 118.822 169.99 119.33C170.183 119.833 170.467 120.235 170.842 120.534C171.221 120.83 171.691 120.977 172.251 120.977ZM182.371 122.182C181.53 122.182 180.804 121.996 180.195 121.625C179.589 121.25 179.121 120.727 178.791 120.057C178.465 119.383 178.303 118.598 178.303 117.705C178.303 116.811 178.465 116.023 178.791 115.341C179.121 114.655 179.579 114.121 180.166 113.739C180.757 113.352 181.446 113.159 182.234 113.159C182.689 113.159 183.138 113.235 183.581 113.386C184.024 113.538 184.428 113.784 184.791 114.125C185.155 114.462 185.445 114.909 185.661 115.466C185.876 116.023 185.984 116.708 185.984 117.523V118.091H179.257V116.932H184.621C184.621 116.439 184.522 116 184.325 115.614C184.132 115.227 183.856 114.922 183.496 114.699C183.14 114.475 182.719 114.364 182.234 114.364C181.7 114.364 181.238 114.496 180.848 114.761C180.462 115.023 180.164 115.364 179.956 115.784C179.748 116.205 179.643 116.655 179.643 117.136V117.909C179.643 118.568 179.757 119.127 179.984 119.585C180.215 120.04 180.536 120.386 180.945 120.625C181.354 120.86 181.829 120.977 182.371 120.977C182.723 120.977 183.041 120.928 183.325 120.83C183.613 120.727 183.861 120.576 184.07 120.375C184.278 120.17 184.439 119.917 184.553 119.614L185.848 119.977C185.712 120.417 185.482 120.803 185.161 121.136C184.839 121.466 184.441 121.723 183.967 121.909C183.494 122.091 182.962 122.182 182.371 122.182ZM192.706 110.364H194.388L198.342 120.023H198.479L202.433 110.364H204.115V122H202.797V113.159H202.683L199.047 122H197.774L194.138 113.159H194.024V122H192.706V110.364ZM210.304 122.182C209.516 122.182 208.825 121.994 208.23 121.619C207.639 121.244 207.177 120.72 206.844 120.045C206.514 119.371 206.349 118.583 206.349 117.682C206.349 116.773 206.514 115.979 206.844 115.301C207.177 114.623 207.639 114.097 208.23 113.722C208.825 113.347 209.516 113.159 210.304 113.159C211.092 113.159 211.781 113.347 212.372 113.722C212.967 114.097 213.429 114.623 213.759 115.301C214.092 115.979 214.259 116.773 214.259 117.682C214.259 118.583 214.092 119.371 213.759 120.045C213.429 120.72 212.967 121.244 212.372 121.619C211.781 121.994 211.092 122.182 210.304 122.182ZM210.304 120.977C210.902 120.977 211.395 120.824 211.781 120.517C212.168 120.21 212.454 119.807 212.639 119.307C212.825 118.807 212.918 118.265 212.918 117.682C212.918 117.098 212.825 116.555 212.639 116.051C212.454 115.547 212.168 115.14 211.781 114.83C211.395 114.519 210.902 114.364 210.304 114.364C209.705 114.364 209.213 114.519 208.827 114.83C208.44 115.14 208.154 115.547 207.969 116.051C207.783 116.555 207.69 117.098 207.69 117.682C207.69 118.265 207.783 118.807 207.969 119.307C208.154 119.807 208.44 120.21 208.827 120.517C209.213 120.824 209.705 120.977 210.304 120.977ZM209.69 112.091L211.077 109.455H212.645L210.872 112.091H209.69ZM219.601 122.182C218.874 122.182 218.232 121.998 217.675 121.631C217.118 121.259 216.682 120.737 216.368 120.062C216.054 119.384 215.896 118.583 215.896 117.659C215.896 116.742 216.054 115.947 216.368 115.273C216.682 114.598 217.12 114.078 217.68 113.71C218.241 113.343 218.889 113.159 219.624 113.159C220.192 113.159 220.641 113.254 220.97 113.443C221.304 113.629 221.557 113.841 221.732 114.08C221.91 114.314 222.048 114.508 222.146 114.659H222.26V110.364H223.601V122H222.305V120.659H222.146C222.048 120.818 221.908 121.019 221.726 121.261C221.544 121.5 221.285 121.714 220.947 121.903C220.61 122.089 220.161 122.182 219.601 122.182ZM219.783 120.977C220.321 120.977 220.775 120.837 221.146 120.557C221.518 120.273 221.8 119.881 221.993 119.381C222.186 118.877 222.283 118.295 222.283 117.636C222.283 116.985 222.188 116.415 221.999 115.926C221.809 115.434 221.529 115.051 221.158 114.778C220.786 114.502 220.328 114.364 219.783 114.364C219.214 114.364 218.741 114.509 218.362 114.801C217.987 115.089 217.705 115.481 217.516 115.977C217.33 116.47 217.237 117.023 217.237 117.636C217.237 118.258 217.332 118.822 217.521 119.33C217.714 119.833 217.999 120.235 218.374 120.534C218.752 120.83 219.222 120.977 219.783 120.977ZM231.743 118.432V113.273H233.084V122H231.743V120.523H231.652C231.447 120.966 231.129 121.343 230.697 121.653C230.266 121.96 229.72 122.114 229.061 122.114C228.516 122.114 228.031 121.994 227.607 121.756C227.182 121.513 226.849 121.15 226.607 120.665C226.364 120.176 226.243 119.561 226.243 118.818V113.273H227.584V118.727C227.584 119.364 227.762 119.871 228.118 120.25C228.478 120.629 228.936 120.818 229.493 120.818C229.826 120.818 230.165 120.733 230.51 120.562C230.858 120.392 231.15 120.131 231.385 119.778C231.624 119.426 231.743 118.977 231.743 118.432ZM236.881 110.364V122H235.54V110.364H236.881ZM242.882 122.182C242.094 122.182 241.403 121.994 240.808 121.619C240.217 121.244 239.755 120.72 239.422 120.045C239.092 119.371 238.928 118.583 238.928 117.682C238.928 116.773 239.092 115.979 239.422 115.301C239.755 114.623 240.217 114.097 240.808 113.722C241.403 113.347 242.094 113.159 242.882 113.159C243.67 113.159 244.359 113.347 244.95 113.722C245.545 114.097 246.007 114.623 246.337 115.301C246.67 115.979 246.837 116.773 246.837 117.682C246.837 118.583 246.67 119.371 246.337 120.045C246.007 120.72 245.545 121.244 244.95 121.619C244.359 121.994 243.67 122.182 242.882 122.182ZM242.882 120.977C243.481 120.977 243.973 120.824 244.359 120.517C244.746 120.21 245.032 119.807 245.217 119.307C245.403 118.807 245.496 118.265 245.496 117.682C245.496 117.098 245.403 116.555 245.217 116.051C245.032 115.547 244.746 115.14 244.359 114.83C243.973 114.519 243.481 114.364 242.882 114.364C242.284 114.364 241.791 114.519 241.405 114.83C241.018 115.14 240.732 115.547 240.547 116.051C240.361 116.555 240.268 117.098 240.268 117.682C240.268 118.265 240.361 118.807 240.547 119.307C240.732 119.807 241.018 120.21 241.405 120.517C241.791 120.824 242.284 120.977 242.882 120.977ZM257.156 122H253.565V110.364H257.315C258.444 110.364 259.41 110.597 260.213 111.062C261.016 111.525 261.632 112.189 262.06 113.057C262.488 113.92 262.702 114.955 262.702 116.159C262.702 117.371 262.486 118.415 262.054 119.29C261.622 120.161 260.993 120.831 260.168 121.301C259.342 121.767 258.338 122 257.156 122ZM254.974 120.75H257.065C258.027 120.75 258.825 120.564 259.457 120.193C260.09 119.822 260.562 119.294 260.872 118.608C261.183 117.922 261.338 117.106 261.338 116.159C261.338 115.22 261.185 114.411 260.878 113.733C260.571 113.051 260.113 112.528 259.503 112.165C258.893 111.797 258.134 111.614 257.224 111.614H254.974V120.75ZM264.884 113.273H266.224V122.636C266.224 123.174 266.132 123.64 265.946 124.034C265.764 124.428 265.488 124.733 265.116 124.949C264.749 125.165 264.285 125.273 263.724 125.273C263.679 125.273 263.634 125.273 263.588 125.273C263.543 125.273 263.497 125.273 263.452 125.273V124.023C263.497 124.023 263.539 124.023 263.577 124.023C263.615 124.023 263.656 124.023 263.702 124.023C264.111 124.023 264.41 123.902 264.599 123.659C264.789 123.42 264.884 123.08 264.884 122.636V113.273ZM265.543 111.818C265.281 111.818 265.056 111.729 264.866 111.551C264.681 111.373 264.588 111.159 264.588 110.909C264.588 110.659 264.681 110.445 264.866 110.267C265.056 110.089 265.281 110 265.543 110C265.804 110 266.027 110.089 266.213 110.267C266.402 110.445 266.497 110.659 266.497 110.909C266.497 111.159 266.402 111.373 266.213 111.551C266.027 111.729 265.804 111.818 265.543 111.818ZM271.249 122.205C270.696 122.205 270.194 122.1 269.743 121.892C269.292 121.68 268.934 121.375 268.669 120.977C268.404 120.576 268.271 120.091 268.271 119.523C268.271 119.023 268.37 118.617 268.567 118.307C268.764 117.992 269.027 117.746 269.357 117.568C269.686 117.39 270.05 117.258 270.447 117.17C270.849 117.08 271.252 117.008 271.658 116.955C272.188 116.886 272.618 116.835 272.947 116.801C273.281 116.763 273.523 116.701 273.675 116.614C273.83 116.527 273.908 116.375 273.908 116.159V116.114C273.908 115.553 273.754 115.117 273.447 114.807C273.144 114.496 272.684 114.341 272.067 114.341C271.427 114.341 270.925 114.481 270.561 114.761C270.197 115.042 269.942 115.341 269.794 115.659L268.521 115.205C268.749 114.674 269.052 114.261 269.43 113.966C269.813 113.667 270.23 113.458 270.68 113.341C271.135 113.22 271.582 113.159 272.021 113.159C272.302 113.159 272.624 113.193 272.987 113.261C273.355 113.326 273.709 113.46 274.05 113.665C274.394 113.869 274.68 114.178 274.908 114.591C275.135 115.004 275.249 115.557 275.249 116.25V122H273.908V120.818H273.839C273.749 121.008 273.597 121.21 273.385 121.426C273.173 121.642 272.891 121.826 272.538 121.977C272.186 122.129 271.756 122.205 271.249 122.205ZM271.453 121C271.983 121 272.43 120.896 272.794 120.688C273.161 120.479 273.438 120.21 273.624 119.881C273.813 119.551 273.908 119.205 273.908 118.841V117.614C273.851 117.682 273.726 117.744 273.533 117.801C273.343 117.854 273.124 117.902 272.874 117.943C272.627 117.981 272.387 118.015 272.152 118.045C271.921 118.072 271.733 118.095 271.589 118.114C271.241 118.159 270.915 118.233 270.612 118.335C270.313 118.434 270.071 118.583 269.885 118.784C269.703 118.981 269.612 119.25 269.612 119.591C269.612 120.057 269.785 120.409 270.129 120.648C270.478 120.883 270.919 121 271.453 121ZM279.037 116.75V122H277.696V113.273H278.991V114.636H279.105C279.31 114.193 279.62 113.837 280.037 113.568C280.454 113.295 280.991 113.159 281.651 113.159C282.241 113.159 282.759 113.28 283.202 113.523C283.645 113.761 283.99 114.125 284.236 114.614C284.482 115.098 284.605 115.712 284.605 116.455V122H283.264V116.545C283.264 115.86 283.086 115.326 282.73 114.943C282.374 114.557 281.885 114.364 281.264 114.364C280.836 114.364 280.454 114.456 280.116 114.642C279.783 114.828 279.52 115.098 279.327 115.455C279.134 115.811 279.037 116.242 279.037 116.75ZM290.578 125.455C289.93 125.455 289.374 125.371 288.908 125.205C288.442 125.042 288.054 124.826 287.743 124.557C287.436 124.292 287.192 124.008 287.01 123.705L288.078 122.955C288.199 123.114 288.353 123.295 288.538 123.5C288.724 123.708 288.978 123.888 289.3 124.04C289.625 124.195 290.052 124.273 290.578 124.273C291.283 124.273 291.864 124.102 292.322 123.761C292.781 123.42 293.01 122.886 293.01 122.159V120.386H292.896C292.798 120.545 292.658 120.742 292.476 120.977C292.298 121.208 292.04 121.415 291.703 121.597C291.37 121.775 290.919 121.864 290.351 121.864C289.646 121.864 289.014 121.697 288.453 121.364C287.896 121.03 287.455 120.545 287.129 119.909C286.807 119.273 286.646 118.5 286.646 117.591C286.646 116.697 286.804 115.919 287.118 115.256C287.432 114.589 287.87 114.074 288.43 113.71C288.991 113.343 289.639 113.159 290.374 113.159C290.942 113.159 291.393 113.254 291.726 113.443C292.063 113.629 292.321 113.841 292.499 114.08C292.68 114.314 292.821 114.508 292.919 114.659H293.055V113.273H294.351V122.25C294.351 123 294.18 123.61 293.839 124.08C293.502 124.553 293.048 124.9 292.476 125.119C291.908 125.343 291.275 125.455 290.578 125.455ZM290.533 120.659C291.071 120.659 291.525 120.536 291.896 120.29C292.268 120.044 292.55 119.689 292.743 119.227C292.936 118.765 293.033 118.212 293.033 117.568C293.033 116.939 292.938 116.384 292.749 115.903C292.559 115.422 292.279 115.045 291.908 114.773C291.536 114.5 291.078 114.364 290.533 114.364C289.964 114.364 289.491 114.508 289.112 114.795C288.737 115.083 288.455 115.47 288.266 115.955C288.08 116.439 287.987 116.977 287.987 117.568C287.987 118.174 288.082 118.71 288.271 119.176C288.464 119.638 288.749 120.002 289.124 120.267C289.502 120.528 289.972 120.659 290.533 120.659ZM300.351 122.182C299.563 122.182 298.872 121.994 298.277 121.619C297.686 121.244 297.224 120.72 296.891 120.045C296.561 119.371 296.396 118.583 296.396 117.682C296.396 116.773 296.561 115.979 296.891 115.301C297.224 114.623 297.686 114.097 298.277 113.722C298.872 113.347 299.563 113.159 300.351 113.159C301.139 113.159 301.828 113.347 302.419 113.722C303.014 114.097 303.476 114.623 303.805 115.301C304.139 115.979 304.305 116.773 304.305 117.682C304.305 118.583 304.139 119.371 303.805 120.045C303.476 120.72 303.014 121.244 302.419 121.619C301.828 121.994 301.139 122.182 300.351 122.182ZM300.351 120.977C300.949 120.977 301.442 120.824 301.828 120.517C302.214 120.21 302.5 119.807 302.686 119.307C302.872 118.807 302.964 118.265 302.964 117.682C302.964 117.098 302.872 116.555 302.686 116.051C302.5 115.547 302.214 115.14 301.828 114.83C301.442 114.519 300.949 114.364 300.351 114.364C299.752 114.364 299.26 114.519 298.874 114.83C298.487 115.14 298.201 115.547 298.016 116.051C297.83 116.555 297.737 117.098 297.737 117.682C297.737 118.265 297.83 118.807 298.016 119.307C298.201 119.807 298.487 120.21 298.874 120.517C299.26 120.824 299.752 120.977 300.351 120.977ZM307.33 122.091C307.049 122.091 306.809 121.991 306.608 121.79C306.407 121.589 306.307 121.348 306.307 121.068C306.307 120.788 306.407 120.547 306.608 120.347C306.809 120.146 307.049 120.045 307.33 120.045C307.61 120.045 307.85 120.146 308.051 120.347C308.252 120.547 308.352 120.788 308.352 121.068C308.352 121.254 308.305 121.424 308.21 121.58C308.119 121.735 307.996 121.86 307.841 121.955C307.689 122.045 307.519 122.091 307.33 122.091ZM307.33 115.614C307.049 115.614 306.809 115.513 306.608 115.312C306.407 115.112 306.307 114.871 306.307 114.591C306.307 114.311 306.407 114.07 306.608 113.869C306.809 113.669 307.049 113.568 307.33 113.568C307.61 113.568 307.85 113.669 308.051 113.869C308.252 114.07 308.352 114.311 308.352 114.591C308.352 114.777 308.305 114.947 308.21 115.102C308.119 115.258 307.996 115.383 307.841 115.477C307.689 115.568 307.519 115.614 307.33 115.614ZM321.804 113.273C321.736 112.697 321.459 112.25 320.974 111.932C320.49 111.614 319.895 111.455 319.19 111.455C318.675 111.455 318.224 111.538 317.838 111.705C317.455 111.871 317.156 112.1 316.94 112.392C316.728 112.684 316.622 113.015 316.622 113.386C316.622 113.697 316.696 113.964 316.844 114.188C316.995 114.407 317.188 114.591 317.423 114.739C317.658 114.883 317.904 115.002 318.162 115.097C318.42 115.187 318.656 115.261 318.872 115.318L320.054 115.636C320.357 115.716 320.694 115.826 321.065 115.966C321.44 116.106 321.798 116.297 322.139 116.54C322.484 116.778 322.768 117.085 322.991 117.46C323.215 117.835 323.327 118.295 323.327 118.841C323.327 119.47 323.162 120.038 322.832 120.545C322.507 121.053 322.029 121.456 321.401 121.756C320.776 122.055 320.016 122.205 319.122 122.205C318.289 122.205 317.567 122.07 316.957 121.801C316.351 121.532 315.874 121.157 315.526 120.676C315.181 120.195 314.986 119.636 314.94 119H316.395C316.433 119.439 316.58 119.803 316.838 120.091C317.099 120.375 317.429 120.587 317.827 120.727C318.228 120.864 318.66 120.932 319.122 120.932C319.66 120.932 320.143 120.845 320.571 120.67C320.999 120.492 321.338 120.246 321.588 119.932C321.838 119.614 321.963 119.242 321.963 118.818C321.963 118.432 321.855 118.117 321.639 117.875C321.423 117.633 321.139 117.436 320.787 117.284C320.435 117.133 320.054 117 319.645 116.886L318.213 116.477C317.304 116.216 316.584 115.843 316.054 115.358C315.524 114.873 315.259 114.239 315.259 113.455C315.259 112.803 315.435 112.235 315.787 111.75C316.143 111.261 316.62 110.883 317.219 110.614C317.821 110.341 318.493 110.205 319.236 110.205C319.986 110.205 320.652 110.339 321.236 110.608C321.819 110.873 322.281 111.237 322.622 111.699C322.967 112.161 323.149 112.686 323.168 113.273H321.804ZM325.462 122V113.273H326.803V122H325.462ZM326.143 111.818C325.882 111.818 325.657 111.729 325.467 111.551C325.282 111.373 325.189 111.159 325.189 110.909C325.189 110.659 325.282 110.445 325.467 110.267C325.657 110.089 325.882 110 326.143 110C326.405 110 326.628 110.089 326.814 110.267C327.003 110.445 327.098 110.659 327.098 110.909C327.098 111.159 327.003 111.373 326.814 111.551C326.628 111.729 326.405 111.818 326.143 111.818ZM333.054 113.273V114.409H328.531V113.273H333.054ZM329.849 111.182H331.19V119.5C331.19 119.879 331.245 120.163 331.355 120.352C331.469 120.538 331.613 120.663 331.787 120.727C331.965 120.788 332.152 120.818 332.349 120.818C332.497 120.818 332.618 120.811 332.713 120.795C332.808 120.777 332.884 120.761 332.94 120.75L333.213 121.955C333.122 121.989 332.995 122.023 332.832 122.057C332.67 122.095 332.463 122.114 332.213 122.114C331.834 122.114 331.463 122.032 331.099 121.869C330.74 121.706 330.44 121.458 330.202 121.125C329.967 120.792 329.849 120.371 329.849 119.864V111.182ZM335.071 122V113.273H336.412V122H335.071ZM335.753 111.818C335.491 111.818 335.266 111.729 335.077 111.551C334.891 111.373 334.798 111.159 334.798 110.909C334.798 110.659 334.891 110.445 335.077 110.267C335.266 110.089 335.491 110 335.753 110C336.014 110 336.238 110.089 336.423 110.267C336.613 110.445 336.707 110.659 336.707 110.909C336.707 111.159 336.613 111.373 336.423 111.551C336.238 111.729 336.014 111.818 335.753 111.818ZM342.413 122.182C341.625 122.182 340.934 121.994 340.339 121.619C339.749 121.244 339.286 120.72 338.953 120.045C338.624 119.371 338.459 118.583 338.459 117.682C338.459 116.773 338.624 115.979 338.953 115.301C339.286 114.623 339.749 114.097 340.339 113.722C340.934 113.347 341.625 113.159 342.413 113.159C343.201 113.159 343.891 113.347 344.482 113.722C345.076 114.097 345.538 114.623 345.868 115.301C346.201 115.979 346.368 116.773 346.368 117.682C346.368 118.583 346.201 119.371 345.868 120.045C345.538 120.72 345.076 121.244 344.482 121.619C343.891 121.994 343.201 122.182 342.413 122.182ZM342.413 120.977C343.012 120.977 343.504 120.824 343.891 120.517C344.277 120.21 344.563 119.807 344.749 119.307C344.934 118.807 345.027 118.265 345.027 117.682C345.027 117.098 344.934 116.555 344.749 116.051C344.563 115.547 344.277 115.14 343.891 114.83C343.504 114.519 343.012 114.364 342.413 114.364C341.815 114.364 341.322 114.519 340.936 114.83C340.55 115.14 340.264 115.547 340.078 116.051C339.893 116.555 339.8 117.098 339.8 117.682C339.8 118.265 339.893 118.807 340.078 119.307C340.264 119.807 340.55 120.21 340.936 120.517C341.322 120.824 341.815 120.977 342.413 120.977ZM354.892 122L352.233 113.273H353.642L355.528 119.955H355.619L357.483 113.273H358.915L360.756 119.932H360.847L362.733 113.273H364.142L361.483 122H360.165L358.256 115.295H358.119L356.21 122H354.892ZM369.277 122.182C368.436 122.182 367.711 121.996 367.101 121.625C366.495 121.25 366.027 120.727 365.697 120.057C365.372 119.383 365.209 118.598 365.209 117.705C365.209 116.811 365.372 116.023 365.697 115.341C366.027 114.655 366.485 114.121 367.072 113.739C367.663 113.352 368.353 113.159 369.141 113.159C369.595 113.159 370.044 113.235 370.487 113.386C370.93 113.538 371.334 113.784 371.697 114.125C372.061 114.462 372.351 114.909 372.567 115.466C372.783 116.023 372.891 116.708 372.891 117.523V118.091H366.163V116.932H371.527C371.527 116.439 371.429 116 371.232 115.614C371.038 115.227 370.762 114.922 370.402 114.699C370.046 114.475 369.625 114.364 369.141 114.364C368.607 114.364 368.144 114.496 367.754 114.761C367.368 115.023 367.071 115.364 366.862 115.784C366.654 116.205 366.55 116.655 366.55 117.136V117.909C366.55 118.568 366.663 119.127 366.891 119.585C367.122 120.04 367.442 120.386 367.851 120.625C368.26 120.86 368.735 120.977 369.277 120.977C369.629 120.977 369.947 120.928 370.232 120.83C370.519 120.727 370.768 120.576 370.976 120.375C371.184 120.17 371.345 119.917 371.459 119.614L372.754 119.977C372.618 120.417 372.389 120.803 372.067 121.136C371.745 121.466 371.347 121.723 370.874 121.909C370.4 122.091 369.868 122.182 369.277 122.182ZM375.112 122V110.364H376.453V114.659H376.567C376.665 114.508 376.802 114.314 376.976 114.08C377.154 113.841 377.408 113.629 377.737 113.443C378.071 113.254 378.521 113.159 379.089 113.159C379.824 113.159 380.472 113.343 381.033 113.71C381.593 114.078 382.031 114.598 382.345 115.273C382.66 115.947 382.817 116.742 382.817 117.659C382.817 118.583 382.66 119.384 382.345 120.062C382.031 120.737 381.595 121.259 381.038 121.631C380.482 121.998 379.839 122.182 379.112 122.182C378.552 122.182 378.103 122.089 377.766 121.903C377.429 121.714 377.169 121.5 376.987 121.261C376.805 121.019 376.665 120.818 376.567 120.659H376.408V122H375.112ZM376.43 117.636C376.43 118.295 376.527 118.877 376.72 119.381C376.913 119.881 377.196 120.273 377.567 120.557C377.938 120.837 378.393 120.977 378.93 120.977C379.491 120.977 379.959 120.83 380.334 120.534C380.713 120.235 380.997 119.833 381.186 119.33C381.379 118.822 381.476 118.258 381.476 117.636C381.476 117.023 381.381 116.47 381.192 115.977C381.006 115.481 380.724 115.089 380.345 114.801C379.97 114.509 379.499 114.364 378.93 114.364C378.385 114.364 377.927 114.502 377.555 114.778C377.184 115.051 376.904 115.434 376.714 115.926C376.525 116.415 376.43 116.985 376.43 117.636ZM392.663 122.182C391.936 122.182 391.294 121.998 390.737 121.631C390.18 121.259 389.745 120.737 389.43 120.062C389.116 119.384 388.959 118.583 388.959 117.659C388.959 116.742 389.116 115.947 389.43 115.273C389.745 114.598 390.182 114.078 390.743 113.71C391.304 113.343 391.951 113.159 392.686 113.159C393.254 113.159 393.703 113.254 394.033 113.443C394.366 113.629 394.62 113.841 394.794 114.08C394.972 114.314 395.11 114.508 395.209 114.659H395.322V110.364H396.663V122H395.368V120.659H395.209C395.11 120.818 394.97 121.019 394.788 121.261C394.607 121.5 394.347 121.714 394.01 121.903C393.673 122.089 393.224 122.182 392.663 122.182ZM392.845 120.977C393.383 120.977 393.838 120.837 394.209 120.557C394.58 120.273 394.862 119.881 395.055 119.381C395.249 118.877 395.345 118.295 395.345 117.636C395.345 116.985 395.25 116.415 395.061 115.926C394.872 115.434 394.591 115.051 394.22 114.778C393.849 114.502 393.391 114.364 392.845 114.364C392.277 114.364 391.804 114.509 391.425 114.801C391.05 115.089 390.768 115.481 390.578 115.977C390.393 116.47 390.3 117.023 390.3 117.636C390.3 118.258 390.394 118.822 390.584 119.33C390.777 119.833 391.061 120.235 391.436 120.534C391.815 120.83 392.285 120.977 392.845 120.977ZM402.964 122.182C402.124 122.182 401.398 121.996 400.788 121.625C400.182 121.25 399.714 120.727 399.385 120.057C399.059 119.383 398.896 118.598 398.896 117.705C398.896 116.811 399.059 116.023 399.385 115.341C399.714 114.655 400.173 114.121 400.76 113.739C401.351 113.352 402.04 113.159 402.828 113.159C403.283 113.159 403.732 113.235 404.175 113.386C404.618 113.538 405.021 113.784 405.385 114.125C405.749 114.462 406.038 114.909 406.254 115.466C406.47 116.023 406.578 116.708 406.578 117.523V118.091H399.851V116.932H405.214C405.214 116.439 405.116 116 404.919 115.614C404.726 115.227 404.449 114.922 404.089 114.699C403.733 114.475 403.313 114.364 402.828 114.364C402.294 114.364 401.832 114.496 401.442 114.761C401.055 115.023 400.758 115.364 400.55 115.784C400.341 116.205 400.237 116.655 400.237 117.136V117.909C400.237 118.568 400.351 119.127 400.578 119.585C400.809 120.04 401.129 120.386 401.538 120.625C401.947 120.86 402.423 120.977 402.964 120.977C403.317 120.977 403.635 120.928 403.919 120.83C404.207 120.727 404.455 120.576 404.663 120.375C404.872 120.17 405.033 119.917 405.146 119.614L406.442 119.977C406.305 120.417 406.076 120.803 405.754 121.136C405.432 121.466 405.035 121.723 404.561 121.909C404.088 122.091 403.555 122.182 402.964 122.182ZM409.959 110.364V122H408.618V110.364H409.959ZM420.574 122.182C419.733 122.182 419.008 121.996 418.398 121.625C417.792 121.25 417.324 120.727 416.994 120.057C416.669 119.383 416.506 118.598 416.506 117.705C416.506 116.811 416.669 116.023 416.994 115.341C417.324 114.655 417.782 114.121 418.369 113.739C418.96 113.352 419.65 113.159 420.438 113.159C420.892 113.159 421.341 113.235 421.784 113.386C422.227 113.538 422.631 113.784 422.994 114.125C423.358 114.462 423.648 114.909 423.864 115.466C424.08 116.023 424.188 116.708 424.188 117.523V118.091H417.46V116.932H422.824C422.824 116.439 422.725 116 422.528 115.614C422.335 115.227 422.059 114.922 421.699 114.699C421.343 114.475 420.922 114.364 420.438 114.364C419.903 114.364 419.441 114.496 419.051 114.761C418.665 115.023 418.367 115.364 418.159 115.784C417.951 116.205 417.847 116.655 417.847 117.136V117.909C417.847 118.568 417.96 119.127 418.188 119.585C418.419 120.04 418.739 120.386 419.148 120.625C419.557 120.86 420.032 120.977 420.574 120.977C420.926 120.977 421.244 120.928 421.528 120.83C421.816 120.727 422.064 120.576 422.273 120.375C422.481 120.17 422.642 119.917 422.756 119.614L424.051 119.977C423.915 120.417 423.686 120.803 423.364 121.136C423.042 121.466 422.644 121.723 422.17 121.909C421.697 122.091 421.165 122.182 420.574 122.182ZM433.098 113.273L429.871 122H428.507L425.28 113.273H426.734L429.143 120.227H429.234L431.643 113.273H433.098ZM438.214 122.182C437.374 122.182 436.648 121.996 436.038 121.625C435.432 121.25 434.964 120.727 434.635 120.057C434.309 119.383 434.146 118.598 434.146 117.705C434.146 116.811 434.309 116.023 434.635 115.341C434.964 114.655 435.423 114.121 436.01 113.739C436.601 113.352 437.29 113.159 438.078 113.159C438.533 113.159 438.982 113.235 439.425 113.386C439.868 113.538 440.271 113.784 440.635 114.125C440.999 114.462 441.288 114.909 441.504 115.466C441.72 116.023 441.828 116.708 441.828 117.523V118.091H435.101V116.932H440.464C440.464 116.439 440.366 116 440.169 115.614C439.976 115.227 439.699 114.922 439.339 114.699C438.983 114.475 438.563 114.364 438.078 114.364C437.544 114.364 437.082 114.496 436.692 114.761C436.305 115.023 436.008 115.364 435.8 115.784C435.591 116.205 435.487 116.655 435.487 117.136V117.909C435.487 118.568 435.601 119.127 435.828 119.585C436.059 120.04 436.379 120.386 436.788 120.625C437.197 120.86 437.673 120.977 438.214 120.977C438.567 120.977 438.885 120.928 439.169 120.83C439.457 120.727 439.705 120.576 439.913 120.375C440.122 120.17 440.283 119.917 440.396 119.614L441.692 119.977C441.555 120.417 441.326 120.803 441.004 121.136C440.682 121.466 440.285 121.723 439.811 121.909C439.338 122.091 438.805 122.182 438.214 122.182ZM445.209 116.75V122H443.868V113.273H445.163V114.636H445.277C445.482 114.193 445.792 113.837 446.209 113.568C446.625 113.295 447.163 113.159 447.822 113.159C448.413 113.159 448.93 113.28 449.374 113.523C449.817 113.761 450.161 114.125 450.408 114.614C450.654 115.098 450.777 115.712 450.777 116.455V122H449.436V116.545C449.436 115.86 449.258 115.326 448.902 114.943C448.546 114.557 448.057 114.364 447.436 114.364C447.008 114.364 446.625 114.456 446.288 114.642C445.955 114.828 445.692 115.098 445.499 115.455C445.305 115.811 445.209 116.242 445.209 116.75ZM457.023 113.273V114.409H452.5V113.273H457.023ZM453.818 111.182H455.159V119.5C455.159 119.879 455.214 120.163 455.324 120.352C455.438 120.538 455.581 120.663 455.756 120.727C455.934 120.788 456.121 120.818 456.318 120.818C456.466 120.818 456.587 120.811 456.682 120.795C456.777 120.777 456.852 120.761 456.909 120.75L457.182 121.955C457.091 121.989 456.964 122.023 456.801 122.057C456.638 122.095 456.432 122.114 456.182 122.114C455.803 122.114 455.432 122.032 455.068 121.869C454.708 121.706 454.409 121.458 454.17 121.125C453.936 120.792 453.818 120.371 453.818 119.864V111.182ZM462.491 122.182C461.704 122.182 461.012 121.994 460.418 121.619C459.827 121.244 459.365 120.72 459.031 120.045C458.702 119.371 458.537 118.583 458.537 117.682C458.537 116.773 458.702 115.979 459.031 115.301C459.365 114.623 459.827 114.097 460.418 113.722C461.012 113.347 461.704 113.159 462.491 113.159C463.279 113.159 463.969 113.347 464.56 113.722C465.154 114.097 465.616 114.623 465.946 115.301C466.279 115.979 466.446 116.773 466.446 117.682C466.446 118.583 466.279 119.371 465.946 120.045C465.616 120.72 465.154 121.244 464.56 121.619C463.969 121.994 463.279 122.182 462.491 122.182ZM462.491 120.977C463.09 120.977 463.582 120.824 463.969 120.517C464.355 120.21 464.641 119.807 464.827 119.307C465.012 118.807 465.105 118.265 465.105 117.682C465.105 117.098 465.012 116.555 464.827 116.051C464.641 115.547 464.355 115.14 463.969 114.83C463.582 114.519 463.09 114.364 462.491 114.364C461.893 114.364 461.401 114.519 461.014 114.83C460.628 115.14 460.342 115.547 460.156 116.051C459.971 116.555 459.878 117.098 459.878 117.682C459.878 118.265 459.971 118.807 460.156 119.307C460.342 119.807 460.628 120.21 461.014 120.517C461.401 120.824 461.893 120.977 462.491 120.977ZM472.993 125.273V113.273H474.288V114.659H474.447C474.546 114.508 474.682 114.314 474.857 114.08C475.035 113.841 475.288 113.629 475.618 113.443C475.951 113.254 476.402 113.159 476.97 113.159C477.705 113.159 478.353 113.343 478.913 113.71C479.474 114.078 479.911 114.598 480.226 115.273C480.54 115.947 480.697 116.742 480.697 117.659C480.697 118.583 480.54 119.384 480.226 120.062C479.911 120.737 479.476 121.259 478.919 121.631C478.362 121.998 477.72 122.182 476.993 122.182C476.432 122.182 475.983 122.089 475.646 121.903C475.309 121.714 475.05 121.5 474.868 121.261C474.686 121.019 474.546 120.818 474.447 120.659H474.334V125.273H472.993ZM474.311 117.636C474.311 118.295 474.408 118.877 474.601 119.381C474.794 119.881 475.076 120.273 475.447 120.557C475.819 120.837 476.273 120.977 476.811 120.977C477.372 120.977 477.839 120.83 478.214 120.534C478.593 120.235 478.877 119.833 479.067 119.33C479.26 118.822 479.357 118.258 479.357 117.636C479.357 117.023 479.262 116.47 479.072 115.977C478.887 115.481 478.605 115.089 478.226 114.801C477.851 114.509 477.379 114.364 476.811 114.364C476.266 114.364 475.807 114.502 475.436 114.778C475.065 115.051 474.785 115.434 474.595 115.926C474.406 116.415 474.311 116.985 474.311 117.636ZM482.743 122V113.273H484.038V114.591H484.129C484.288 114.159 484.576 113.809 484.993 113.54C485.41 113.271 485.879 113.136 486.402 113.136C486.5 113.136 486.624 113.138 486.771 113.142C486.919 113.146 487.031 113.152 487.107 113.159V114.523C487.061 114.511 486.957 114.494 486.794 114.472C486.635 114.445 486.466 114.432 486.288 114.432C485.864 114.432 485.485 114.521 485.152 114.699C484.822 114.873 484.561 115.116 484.368 115.426C484.179 115.733 484.084 116.083 484.084 116.477V122H482.743ZM492.089 122.182C491.249 122.182 490.523 121.996 489.913 121.625C489.307 121.25 488.839 120.727 488.51 120.057C488.184 119.383 488.021 118.598 488.021 117.705C488.021 116.811 488.184 116.023 488.51 115.341C488.839 114.655 489.298 114.121 489.885 113.739C490.476 113.352 491.165 113.159 491.953 113.159C492.408 113.159 492.857 113.235 493.3 113.386C493.743 113.538 494.146 113.784 494.51 114.125C494.874 114.462 495.163 114.909 495.379 115.466C495.595 116.023 495.703 116.708 495.703 117.523V118.091H488.976V116.932H494.339C494.339 116.439 494.241 116 494.044 115.614C493.851 115.227 493.574 114.922 493.214 114.699C492.858 114.475 492.438 114.364 491.953 114.364C491.419 114.364 490.957 114.496 490.567 114.761C490.18 115.023 489.883 115.364 489.675 115.784C489.466 116.205 489.362 116.655 489.362 117.136V117.909C489.362 118.568 489.476 119.127 489.703 119.585C489.934 120.04 490.254 120.386 490.663 120.625C491.072 120.86 491.548 120.977 492.089 120.977C492.442 120.977 492.76 120.928 493.044 120.83C493.332 120.727 493.58 120.576 493.788 120.375C493.997 120.17 494.158 119.917 494.271 119.614L495.567 119.977C495.43 120.417 495.201 120.803 494.879 121.136C494.557 121.466 494.16 121.723 493.686 121.909C493.213 122.091 492.68 122.182 492.089 122.182ZM503.925 115.227L502.72 115.568C502.644 115.367 502.533 115.172 502.385 114.983C502.241 114.79 502.044 114.631 501.794 114.506C501.544 114.381 501.224 114.318 500.834 114.318C500.3 114.318 499.855 114.441 499.499 114.688C499.146 114.93 498.97 115.239 498.97 115.614C498.97 115.947 499.091 116.21 499.334 116.403C499.576 116.597 499.955 116.758 500.47 116.886L501.766 117.205C502.546 117.394 503.127 117.684 503.51 118.074C503.893 118.46 504.084 118.958 504.084 119.568C504.084 120.068 503.94 120.515 503.652 120.909C503.368 121.303 502.97 121.614 502.459 121.841C501.947 122.068 501.353 122.182 500.675 122.182C499.785 122.182 499.048 121.989 498.464 121.602C497.881 121.216 497.512 120.652 497.357 119.909L498.629 119.591C498.75 120.061 498.98 120.413 499.317 120.648C499.658 120.883 500.103 121 500.652 121C501.277 121 501.773 120.867 502.141 120.602C502.512 120.333 502.697 120.011 502.697 119.636C502.697 119.333 502.591 119.08 502.379 118.875C502.167 118.667 501.841 118.511 501.402 118.409L499.947 118.068C499.148 117.879 498.561 117.585 498.186 117.188C497.815 116.786 497.629 116.284 497.629 115.682C497.629 115.189 497.768 114.754 498.044 114.375C498.324 113.996 498.705 113.699 499.186 113.483C499.671 113.267 500.22 113.159 500.834 113.159C501.697 113.159 502.375 113.348 502.868 113.727C503.364 114.106 503.716 114.606 503.925 115.227ZM509.761 122.182C508.92 122.182 508.195 121.996 507.585 121.625C506.979 121.25 506.511 120.727 506.182 120.057C505.856 119.383 505.693 118.598 505.693 117.705C505.693 116.811 505.856 116.023 506.182 115.341C506.511 114.655 506.97 114.121 507.557 113.739C508.148 113.352 508.837 113.159 509.625 113.159C510.08 113.159 510.528 113.235 510.972 113.386C511.415 113.538 511.818 113.784 512.182 114.125C512.545 114.462 512.835 114.909 513.051 115.466C513.267 116.023 513.375 116.708 513.375 117.523V118.091H506.648V116.932H512.011C512.011 116.439 511.913 116 511.716 115.614C511.523 115.227 511.246 114.922 510.886 114.699C510.53 114.475 510.11 114.364 509.625 114.364C509.091 114.364 508.629 114.496 508.239 114.761C507.852 115.023 507.555 115.364 507.347 115.784C507.138 116.205 507.034 116.655 507.034 117.136V117.909C507.034 118.568 507.148 119.127 507.375 119.585C507.606 120.04 507.926 120.386 508.335 120.625C508.744 120.86 509.22 120.977 509.761 120.977C510.114 120.977 510.432 120.928 510.716 120.83C511.004 120.727 511.252 120.576 511.46 120.375C511.669 120.17 511.83 119.917 511.943 119.614L513.239 119.977C513.102 120.417 512.873 120.803 512.551 121.136C512.229 121.466 511.831 121.723 511.358 121.909C510.884 122.091 510.352 122.182 509.761 122.182ZM516.756 116.75V122H515.415V113.273H516.71V114.636H516.824C517.028 114.193 517.339 113.837 517.756 113.568C518.172 113.295 518.71 113.159 519.369 113.159C519.96 113.159 520.477 113.28 520.92 113.523C521.364 113.761 521.708 114.125 521.955 114.614C522.201 115.098 522.324 115.712 522.324 116.455V122H520.983V116.545C520.983 115.86 520.805 115.326 520.449 114.943C520.093 114.557 519.604 114.364 518.983 114.364C518.555 114.364 518.172 114.456 517.835 114.642C517.502 114.828 517.239 115.098 517.045 115.455C516.852 115.811 516.756 116.242 516.756 116.75ZM528.32 122.182C527.501 122.182 526.797 121.989 526.206 121.602C525.615 121.216 525.161 120.684 524.842 120.006C524.524 119.328 524.365 118.553 524.365 117.682C524.365 116.795 524.528 116.013 524.854 115.335C525.183 114.653 525.642 114.121 526.229 113.739C526.82 113.352 527.509 113.159 528.297 113.159C528.911 113.159 529.464 113.273 529.956 113.5C530.448 113.727 530.852 114.045 531.166 114.455C531.481 114.864 531.676 115.341 531.751 115.886H530.411C530.308 115.489 530.081 115.136 529.729 114.83C529.38 114.519 528.911 114.364 528.32 114.364C527.797 114.364 527.339 114.5 526.945 114.773C526.554 115.042 526.25 115.422 526.03 115.915C525.814 116.403 525.706 116.977 525.706 117.636C525.706 118.311 525.812 118.898 526.024 119.398C526.24 119.898 526.543 120.286 526.933 120.562C527.327 120.839 527.789 120.977 528.32 120.977C528.668 120.977 528.984 120.917 529.268 120.795C529.553 120.674 529.793 120.5 529.99 120.273C530.187 120.045 530.327 119.773 530.411 119.455H531.751C531.676 119.97 531.488 120.434 531.189 120.847C530.893 121.256 530.501 121.581 530.013 121.824C529.528 122.062 528.964 122.182 528.32 122.182ZM533.712 122V113.273H535.053V122H533.712ZM534.393 111.818C534.132 111.818 533.907 111.729 533.717 111.551C533.532 111.373 533.439 111.159 533.439 110.909C533.439 110.659 533.532 110.445 533.717 110.267C533.907 110.089 534.132 110 534.393 110C534.655 110 534.878 110.089 535.064 110.267C535.253 110.445 535.348 110.659 535.348 110.909C535.348 111.159 535.253 111.373 535.064 111.551C534.878 111.729 534.655 111.818 534.393 111.818ZM540.077 122.205C539.524 122.205 539.022 122.1 538.571 121.892C538.12 121.68 537.762 121.375 537.497 120.977C537.232 120.576 537.099 120.091 537.099 119.523C537.099 119.023 537.198 118.617 537.395 118.307C537.592 117.992 537.855 117.746 538.185 117.568C538.514 117.39 538.878 117.258 539.276 117.17C539.677 117.08 540.08 117.008 540.486 116.955C541.016 116.886 541.446 116.835 541.776 116.801C542.109 116.763 542.351 116.701 542.503 116.614C542.658 116.527 542.736 116.375 542.736 116.159V116.114C542.736 115.553 542.582 115.117 542.276 114.807C541.973 114.496 541.512 114.341 540.895 114.341C540.255 114.341 539.753 114.481 539.389 114.761C539.026 115.042 538.77 115.341 538.622 115.659L537.349 115.205C537.577 114.674 537.88 114.261 538.259 113.966C538.641 113.667 539.058 113.458 539.509 113.341C539.963 113.22 540.41 113.159 540.849 113.159C541.13 113.159 541.452 113.193 541.815 113.261C542.183 113.326 542.537 113.46 542.878 113.665C543.223 113.869 543.509 114.178 543.736 114.591C543.963 115.004 544.077 115.557 544.077 116.25V122H542.736V120.818H542.668C542.577 121.008 542.425 121.21 542.213 121.426C542.001 121.642 541.719 121.826 541.366 121.977C541.014 122.129 540.584 122.205 540.077 122.205ZM540.281 121C540.812 121 541.259 120.896 541.622 120.688C541.99 120.479 542.266 120.21 542.452 119.881C542.641 119.551 542.736 119.205 542.736 118.841V117.614C542.679 117.682 542.554 117.744 542.361 117.801C542.171 117.854 541.952 117.902 541.702 117.943C541.455 117.981 541.215 118.015 540.98 118.045C540.749 118.072 540.562 118.095 540.418 118.114C540.069 118.159 539.743 118.233 539.44 118.335C539.141 118.434 538.899 118.583 538.713 118.784C538.531 118.981 538.44 119.25 538.44 119.591C538.44 120.057 538.613 120.409 538.957 120.648C539.306 120.883 539.747 121 540.281 121ZM547.865 110.364V122H546.524V110.364H547.865ZM555.003 122V110.364H562.026V111.614H556.412V115.545H561.662V116.795H556.412V120.75H562.116V122H555.003ZM568.293 122.159C567.543 122.159 566.874 122.03 566.287 121.773C565.704 121.515 565.24 121.157 564.895 120.699C564.554 120.237 564.368 119.701 564.338 119.091H565.77C565.8 119.466 565.929 119.79 566.156 120.062C566.384 120.331 566.681 120.54 567.048 120.688C567.416 120.835 567.823 120.909 568.27 120.909C568.77 120.909 569.213 120.822 569.599 120.648C569.986 120.473 570.289 120.231 570.509 119.92C570.728 119.61 570.838 119.25 570.838 118.841C570.838 118.413 570.732 118.036 570.52 117.71C570.308 117.381 569.997 117.123 569.588 116.938C569.179 116.752 568.679 116.659 568.088 116.659H567.156V115.409H568.088C568.55 115.409 568.955 115.326 569.304 115.159C569.656 114.992 569.931 114.758 570.128 114.455C570.329 114.152 570.429 113.795 570.429 113.386C570.429 112.992 570.342 112.65 570.168 112.358C569.993 112.066 569.747 111.839 569.429 111.676C569.115 111.513 568.743 111.432 568.315 111.432C567.914 111.432 567.535 111.506 567.179 111.653C566.827 111.797 566.539 112.008 566.315 112.284C566.092 112.557 565.971 112.886 565.952 113.273H564.588C564.611 112.663 564.795 112.129 565.139 111.67C565.484 111.208 565.935 110.848 566.491 110.591C567.052 110.333 567.668 110.205 568.338 110.205C569.058 110.205 569.675 110.35 570.19 110.642C570.705 110.93 571.101 111.311 571.378 111.784C571.654 112.258 571.793 112.769 571.793 113.318C571.793 113.973 571.62 114.532 571.276 114.994C570.935 115.456 570.471 115.777 569.884 115.955V116.045C570.618 116.167 571.192 116.479 571.605 116.983C572.018 117.483 572.224 118.102 572.224 118.841C572.224 119.473 572.052 120.042 571.707 120.545C571.366 121.045 570.901 121.439 570.31 121.727C569.719 122.015 569.046 122.159 568.293 122.159ZM581.639 122.205C581.086 122.205 580.584 122.1 580.134 121.892C579.683 121.68 579.325 121.375 579.06 120.977C578.795 120.576 578.662 120.091 578.662 119.523C578.662 119.023 578.76 118.617 578.957 118.307C579.154 117.992 579.418 117.746 579.747 117.568C580.077 117.39 580.44 117.258 580.838 117.17C581.24 117.08 581.643 117.008 582.048 116.955C582.579 116.886 583.009 116.835 583.338 116.801C583.671 116.763 583.914 116.701 584.065 116.614C584.221 116.527 584.298 116.375 584.298 116.159V116.114C584.298 115.553 584.145 115.117 583.838 114.807C583.535 114.496 583.075 114.341 582.457 114.341C581.817 114.341 581.315 114.481 580.952 114.761C580.588 115.042 580.332 115.341 580.185 115.659L578.912 115.205C579.139 114.674 579.442 114.261 579.821 113.966C580.204 113.667 580.62 113.458 581.071 113.341C581.526 113.22 581.973 113.159 582.412 113.159C582.692 113.159 583.014 113.193 583.378 113.261C583.745 113.326 584.099 113.46 584.44 113.665C584.785 113.869 585.071 114.178 585.298 114.591C585.526 115.004 585.639 115.557 585.639 116.25V122H584.298V120.818H584.23C584.139 121.008 583.988 121.21 583.776 121.426C583.563 121.642 583.281 121.826 582.929 121.977C582.577 122.129 582.147 122.205 581.639 122.205ZM581.844 121C582.374 121 582.821 120.896 583.185 120.688C583.552 120.479 583.829 120.21 584.014 119.881C584.204 119.551 584.298 119.205 584.298 118.841V117.614C584.241 117.682 584.116 117.744 583.923 117.801C583.734 117.854 583.514 117.902 583.264 117.943C583.018 117.981 582.777 118.015 582.543 118.045C582.312 118.072 582.124 118.095 581.98 118.114C581.632 118.159 581.306 118.233 581.003 118.335C580.704 118.434 580.461 118.583 580.276 118.784C580.094 118.981 580.003 119.25 580.003 119.591C580.003 120.057 580.175 120.409 580.52 120.648C580.868 120.883 581.31 121 581.844 121ZM62.7273 137.432V132.273H64.0682V141H62.7273V139.523H62.6364C62.4318 139.966 62.1136 140.343 61.6818 140.653C61.25 140.96 60.7045 141.114 60.0455 141.114C59.5 141.114 59.0152 140.994 58.5909 140.756C58.1667 140.513 57.8333 140.15 57.5909 139.665C57.3485 139.176 57.2273 138.561 57.2273 137.818V132.273H58.5682V137.727C58.5682 138.364 58.7462 138.871 59.1023 139.25C59.4621 139.629 59.9205 139.818 60.4773 139.818C60.8106 139.818 61.1496 139.733 61.4943 139.562C61.8428 139.392 62.1345 139.131 62.3693 138.778C62.608 138.426 62.7273 137.977 62.7273 137.432ZM67.8651 135.75V141H66.5241V132.273H67.8196V133.636H67.9332C68.1378 133.193 68.4484 132.837 68.8651 132.568C69.2817 132.295 69.8196 132.159 70.4787 132.159C71.0696 132.159 71.5866 132.28 72.0298 132.523C72.473 132.761 72.8177 133.125 73.0639 133.614C73.3101 134.098 73.4332 134.712 73.4332 135.455V141H72.0923V135.545C72.0923 134.86 71.9143 134.326 71.5582 133.943C71.2022 133.557 70.7135 133.364 70.0923 133.364C69.6643 133.364 69.2817 133.456 68.9446 133.642C68.6113 133.828 68.348 134.098 68.1548 134.455C67.9616 134.811 67.8651 135.242 67.8651 135.75ZM84.2699 132.273V133.409H79.5653V132.273H84.2699ZM80.9744 141V131.068C80.9744 130.568 81.0919 130.152 81.3267 129.818C81.5616 129.485 81.8665 129.235 82.2415 129.068C82.6165 128.902 83.0123 128.818 83.429 128.818C83.7585 128.818 84.0275 128.845 84.2358 128.898C84.4441 128.951 84.5994 129 84.7017 129.045L84.3153 130.205C84.2472 130.182 84.1525 130.153 84.0312 130.119C83.9138 130.085 83.7585 130.068 83.5653 130.068C83.1222 130.068 82.8021 130.18 82.6051 130.403C82.4119 130.627 82.3153 130.955 82.3153 131.386V141H80.9744ZM89.3352 141.182C88.5473 141.182 87.8561 140.994 87.2614 140.619C86.6705 140.244 86.2083 139.72 85.875 139.045C85.5455 138.371 85.3807 137.583 85.3807 136.682C85.3807 135.773 85.5455 134.979 85.875 134.301C86.2083 133.623 86.6705 133.097 87.2614 132.722C87.8561 132.347 88.5473 132.159 89.3352 132.159C90.1231 132.159 90.8125 132.347 91.4034 132.722C91.9981 133.097 92.4602 133.623 92.7898 134.301C93.1231 134.979 93.2898 135.773 93.2898 136.682C93.2898 137.583 93.1231 138.371 92.7898 139.045C92.4602 139.72 91.9981 140.244 91.4034 140.619C90.8125 140.994 90.1231 141.182 89.3352 141.182ZM89.3352 139.977C89.9337 139.977 90.4261 139.824 90.8125 139.517C91.1989 139.21 91.4848 138.807 91.6705 138.307C91.8561 137.807 91.9489 137.265 91.9489 136.682C91.9489 136.098 91.8561 135.555 91.6705 135.051C91.4848 134.547 91.1989 134.14 90.8125 133.83C90.4261 133.519 89.9337 133.364 89.3352 133.364C88.7367 133.364 88.2443 133.519 87.858 133.83C87.4716 134.14 87.1856 134.547 87 135.051C86.8144 135.555 86.7216 136.098 86.7216 136.682C86.7216 137.265 86.8144 137.807 87 138.307C87.1856 138.807 87.4716 139.21 87.858 139.517C88.2443 139.824 88.7367 139.977 89.3352 139.977ZM95.3366 141V132.273H96.6321V133.591H96.723C96.8821 133.159 97.17 132.809 97.5866 132.54C98.0033 132.271 98.473 132.136 98.9957 132.136C99.0942 132.136 99.2173 132.138 99.3651 132.142C99.5128 132.146 99.6245 132.152 99.7003 132.159V133.523C99.6548 133.511 99.5507 133.494 99.3878 133.472C99.2287 133.445 99.0601 133.432 98.8821 133.432C98.4579 133.432 98.0791 133.521 97.7457 133.699C97.4162 133.873 97.1548 134.116 96.9616 134.426C96.7723 134.733 96.6776 135.083 96.6776 135.477V141H95.3366ZM101.29 141V132.273H102.585V133.636H102.699C102.881 133.17 103.174 132.809 103.58 132.551C103.985 132.29 104.472 132.159 105.04 132.159C105.616 132.159 106.095 132.29 106.477 132.551C106.864 132.809 107.165 133.17 107.381 133.636H107.472C107.695 133.186 108.03 132.828 108.477 132.562C108.924 132.294 109.46 132.159 110.085 132.159C110.866 132.159 111.504 132.403 112 132.892C112.496 133.377 112.744 134.133 112.744 135.159V141H111.403V135.159C111.403 134.515 111.227 134.055 110.875 133.778C110.523 133.502 110.108 133.364 109.631 133.364C109.017 133.364 108.542 133.549 108.205 133.92C107.867 134.288 107.699 134.754 107.699 135.318V141H106.335V135.023C106.335 134.527 106.174 134.127 105.852 133.824C105.53 133.517 105.116 133.364 104.608 133.364C104.259 133.364 103.934 133.456 103.631 133.642C103.331 133.828 103.089 134.085 102.903 134.415C102.722 134.741 102.631 135.117 102.631 135.545V141H101.29ZM117.764 141.205C117.211 141.205 116.709 141.1 116.259 140.892C115.808 140.68 115.45 140.375 115.185 139.977C114.92 139.576 114.787 139.091 114.787 138.523C114.787 138.023 114.885 137.617 115.082 137.307C115.279 136.992 115.543 136.746 115.872 136.568C116.202 136.39 116.565 136.258 116.963 136.17C117.365 136.08 117.768 136.008 118.173 135.955C118.704 135.886 119.134 135.835 119.463 135.801C119.796 135.763 120.039 135.701 120.19 135.614C120.346 135.527 120.423 135.375 120.423 135.159V135.114C120.423 134.553 120.27 134.117 119.963 133.807C119.66 133.496 119.2 133.341 118.582 133.341C117.942 133.341 117.44 133.481 117.077 133.761C116.713 134.042 116.457 134.341 116.31 134.659L115.037 134.205C115.264 133.674 115.567 133.261 115.946 132.966C116.329 132.667 116.745 132.458 117.196 132.341C117.651 132.22 118.098 132.159 118.537 132.159C118.817 132.159 119.139 132.193 119.503 132.261C119.87 132.326 120.224 132.46 120.565 132.665C120.91 132.869 121.196 133.178 121.423 133.591C121.651 134.004 121.764 134.557 121.764 135.25V141H120.423V139.818H120.355C120.264 140.008 120.113 140.21 119.901 140.426C119.688 140.642 119.406 140.826 119.054 140.977C118.702 141.129 118.272 141.205 117.764 141.205ZM117.969 140C118.499 140 118.946 139.896 119.31 139.688C119.677 139.479 119.954 139.21 120.139 138.881C120.329 138.551 120.423 138.205 120.423 137.841V136.614C120.366 136.682 120.241 136.744 120.048 136.801C119.859 136.854 119.639 136.902 119.389 136.943C119.143 136.981 118.902 137.015 118.668 137.045C118.437 137.072 118.249 137.095 118.105 137.114C117.757 137.159 117.431 137.233 117.128 137.335C116.829 137.434 116.586 137.583 116.401 137.784C116.219 137.981 116.128 138.25 116.128 138.591C116.128 139.057 116.3 139.409 116.645 139.648C116.993 139.883 117.435 140 117.969 140ZM128.007 132.273V133.409H123.484V132.273H128.007ZM124.803 130.182H126.143V138.5C126.143 138.879 126.198 139.163 126.308 139.352C126.422 139.538 126.566 139.663 126.74 139.727C126.918 139.788 127.106 139.818 127.303 139.818C127.45 139.818 127.571 139.811 127.666 139.795C127.761 139.777 127.837 139.761 127.893 139.75L128.166 140.955C128.075 140.989 127.948 141.023 127.786 141.057C127.623 141.095 127.416 141.114 127.166 141.114C126.787 141.114 126.416 141.032 126.053 140.869C125.693 140.706 125.393 140.458 125.155 140.125C124.92 139.792 124.803 139.371 124.803 138.864V130.182ZM133.476 141.182C132.688 141.182 131.997 140.994 131.402 140.619C130.811 140.244 130.349 139.72 130.016 139.045C129.686 138.371 129.521 137.583 129.521 136.682C129.521 135.773 129.686 134.979 130.016 134.301C130.349 133.623 130.811 133.097 131.402 132.722C131.997 132.347 132.688 132.159 133.476 132.159C134.264 132.159 134.953 132.347 135.544 132.722C136.139 133.097 136.601 133.623 136.93 134.301C137.264 134.979 137.43 135.773 137.43 136.682C137.43 137.583 137.264 138.371 136.93 139.045C136.601 139.72 136.139 140.244 135.544 140.619C134.953 140.994 134.264 141.182 133.476 141.182ZM133.476 139.977C134.074 139.977 134.567 139.824 134.953 139.517C135.339 139.21 135.625 138.807 135.811 138.307C135.997 137.807 136.089 137.265 136.089 136.682C136.089 136.098 135.997 135.555 135.811 135.051C135.625 134.547 135.339 134.14 134.953 133.83C134.567 133.519 134.074 133.364 133.476 133.364C132.877 133.364 132.385 133.519 131.999 133.83C131.612 134.14 131.326 134.547 131.141 135.051C130.955 135.555 130.862 136.098 130.862 136.682C130.862 137.265 130.955 137.807 131.141 138.307C131.326 138.807 131.612 139.21 131.999 139.517C132.385 139.824 132.877 139.977 133.476 139.977ZM147.636 141.182C146.795 141.182 146.07 140.996 145.46 140.625C144.854 140.25 144.386 139.727 144.057 139.057C143.731 138.383 143.568 137.598 143.568 136.705C143.568 135.811 143.731 135.023 144.057 134.341C144.386 133.655 144.845 133.121 145.432 132.739C146.023 132.352 146.712 132.159 147.5 132.159C147.955 132.159 148.403 132.235 148.847 132.386C149.29 132.538 149.693 132.784 150.057 133.125C150.42 133.462 150.71 133.909 150.926 134.466C151.142 135.023 151.25 135.708 151.25 136.523V137.091H144.523V135.932H149.886C149.886 135.439 149.788 135 149.591 134.614C149.398 134.227 149.121 133.922 148.761 133.699C148.405 133.475 147.985 133.364 147.5 133.364C146.966 133.364 146.504 133.496 146.114 133.761C145.727 134.023 145.43 134.364 145.222 134.784C145.013 135.205 144.909 135.655 144.909 136.136V136.909C144.909 137.568 145.023 138.127 145.25 138.585C145.481 139.04 145.801 139.386 146.21 139.625C146.619 139.86 147.095 139.977 147.636 139.977C147.989 139.977 148.307 139.928 148.591 139.83C148.879 139.727 149.127 139.576 149.335 139.375C149.544 139.17 149.705 138.917 149.818 138.614L151.114 138.977C150.977 139.417 150.748 139.803 150.426 140.136C150.104 140.466 149.706 140.723 149.233 140.909C148.759 141.091 148.227 141.182 147.636 141.182ZM154.631 135.75V141H153.29V132.273H154.585V133.636H154.699C154.903 133.193 155.214 132.837 155.631 132.568C156.047 132.295 156.585 132.159 157.244 132.159C157.835 132.159 158.352 132.28 158.795 132.523C159.239 132.761 159.583 133.125 159.83 133.614C160.076 134.098 160.199 134.712 160.199 135.455V141H158.858V135.545C158.858 134.86 158.68 134.326 158.324 133.943C157.968 133.557 157.479 133.364 156.858 133.364C156.43 133.364 156.047 133.456 155.71 133.642C155.377 133.828 155.114 134.098 154.92 134.455C154.727 134.811 154.631 135.242 154.631 135.75ZM168.49 129.364V141H167.149V129.364H168.49ZM170.946 141V132.273H172.287V141H170.946ZM171.014 131.091L172.401 128.455H173.969L172.196 131.091H171.014ZM176.084 135.75V141H174.743V132.273H176.038V133.636H176.152C176.357 133.193 176.667 132.837 177.084 132.568C177.5 132.295 178.038 132.159 178.697 132.159C179.288 132.159 179.805 132.28 180.249 132.523C180.692 132.761 181.036 133.125 181.283 133.614C181.529 134.098 181.652 134.712 181.652 135.455V141H180.311V135.545C180.311 134.86 180.133 134.326 179.777 133.943C179.421 133.557 178.932 133.364 178.311 133.364C177.883 133.364 177.5 133.456 177.163 133.642C176.83 133.828 176.567 134.098 176.374 134.455C176.18 134.811 176.084 135.242 176.084 135.75ZM187.761 141.182C186.92 141.182 186.195 140.996 185.585 140.625C184.979 140.25 184.511 139.727 184.182 139.057C183.856 138.383 183.693 137.598 183.693 136.705C183.693 135.811 183.856 135.023 184.182 134.341C184.511 133.655 184.97 133.121 185.557 132.739C186.148 132.352 186.837 132.159 187.625 132.159C188.08 132.159 188.528 132.235 188.972 132.386C189.415 132.538 189.818 132.784 190.182 133.125C190.545 133.462 190.835 133.909 191.051 134.466C191.267 135.023 191.375 135.708 191.375 136.523V137.091H184.648V135.932H190.011C190.011 135.439 189.913 135 189.716 134.614C189.523 134.227 189.246 133.922 188.886 133.699C188.53 133.475 188.11 133.364 187.625 133.364C187.091 133.364 186.629 133.496 186.239 133.761C185.852 134.023 185.555 134.364 185.347 134.784C185.138 135.205 185.034 135.655 185.034 136.136V136.909C185.034 137.568 185.148 138.127 185.375 138.585C185.606 139.04 185.926 139.386 186.335 139.625C186.744 139.86 187.22 139.977 187.761 139.977C188.114 139.977 188.432 139.928 188.716 139.83C189.004 139.727 189.252 139.576 189.46 139.375C189.669 139.17 189.83 138.917 189.943 138.614L191.239 138.977C191.102 139.417 190.873 139.803 190.551 140.136C190.229 140.466 189.831 140.723 189.358 140.909C188.884 141.091 188.352 141.182 187.761 141.182ZM195.983 141.205C195.43 141.205 194.928 141.1 194.477 140.892C194.027 140.68 193.669 140.375 193.403 139.977C193.138 139.576 193.006 139.091 193.006 138.523C193.006 138.023 193.104 137.617 193.301 137.307C193.498 136.992 193.761 136.746 194.091 136.568C194.42 136.39 194.784 136.258 195.182 136.17C195.583 136.08 195.987 136.008 196.392 135.955C196.922 135.886 197.352 135.835 197.682 135.801C198.015 135.763 198.258 135.701 198.409 135.614C198.564 135.527 198.642 135.375 198.642 135.159V135.114C198.642 134.553 198.489 134.117 198.182 133.807C197.879 133.496 197.419 133.341 196.801 133.341C196.161 133.341 195.659 133.481 195.295 133.761C194.932 134.042 194.676 134.341 194.528 134.659L193.256 134.205C193.483 133.674 193.786 133.261 194.165 132.966C194.547 132.667 194.964 132.458 195.415 132.341C195.869 132.22 196.316 132.159 196.756 132.159C197.036 132.159 197.358 132.193 197.722 132.261C198.089 132.326 198.443 132.46 198.784 132.665C199.129 132.869 199.415 133.178 199.642 133.591C199.869 134.004 199.983 134.557 199.983 135.25V141H198.642V139.818H198.574C198.483 140.008 198.331 140.21 198.119 140.426C197.907 140.642 197.625 140.826 197.273 140.977C196.92 141.129 196.491 141.205 195.983 141.205ZM196.188 140C196.718 140 197.165 139.896 197.528 139.688C197.896 139.479 198.172 139.21 198.358 138.881C198.547 138.551 198.642 138.205 198.642 137.841V136.614C198.585 136.682 198.46 136.744 198.267 136.801C198.078 136.854 197.858 136.902 197.608 136.943C197.362 136.981 197.121 137.015 196.886 137.045C196.655 137.072 196.468 137.095 196.324 137.114C195.975 137.159 195.65 137.233 195.347 137.335C195.047 137.434 194.805 137.583 194.619 137.784C194.438 137.981 194.347 138.25 194.347 138.591C194.347 139.057 194.519 139.409 194.864 139.648C195.212 139.883 195.653 140 196.188 140Z" fill="black"/>
</g>
<defs>
<filter id="filter0_d_309_202" x="0" y="0" width="686" height="209" filterUnits="userSpaceOnUse" color-interpolation-filters="sRGB">
<feFlood flood-opacity="0" result="BackgroundImageFix"/>
<feColorMatrix in="SourceAlpha" type="matrix" values="0 0 0 0 0 0 0 0 0 0 0 0 0 0 0 0 0 0 127 0" result="hardAlpha"/>
<feOffset dy="4"/>
<feGaussianBlur stdDeviation="11.5"/>
<feComposite in2="hardAlpha" operator="out"/>
<feColorMatrix type="matrix" values="0 0 0 0 0 0 0 0 0 0 0 0 0 0 0 0 0 0 0.1 0"/>
<feBlend mode="normal" in2="BackgroundImageFix" result="effect1_dropShadow_309_202"/>
<feBlend mode="normal" in="SourceGraphic" in2="effect1_dropShadow_309_202" result="shape"/>
</filter>
</defs>
</svg>
